M48
; DRILL file {KiCad (6.0.7)} date Fri Aug 12 19:29:28 2022
; FORMAT={-:-/ absolute / inch / decimal}
; #@! TF.CreationDate,2022-08-12T19:29:28+02:00
; #@! TF.GenerationSoftware,Kicad,Pcbnew,(6.0.7)
; #@! TF.FileFunction,Plated,1,2,PTH
FMAT,2
INCH
; #@! TA.AperFunction,Plated,PTH,ViaDrill
T1C0.0157
; #@! TA.AperFunction,Plated,PTH,ViaDrill
T2C0.0197
; #@! TA.AperFunction,Plated,PTH,ComponentDrill
T3C0.0276
; #@! TA.AperFunction,Plated,PTH,ComponentDrill
T4C0.0315
; #@! TA.AperFunction,Plated,PTH,ComponentDrill
T5C0.0354
; #@! TA.AperFunction,Plated,PTH,ComponentDrill
T6C0.0394
; #@! TA.AperFunction,Plated,PTH,ComponentDrill
T7C0.0512
%
G90
G05
T1
X5.725Y-4.0
T2
X5.575Y-4.1
X5.675Y-4.2
X5.675Y-4.3
X5.775Y-4.4
T3
X6.35Y-4.5
X6.425Y-4.6
X6.425Y-4.7
X6.45Y-3.925
X6.45Y-4.5
X6.525Y-4.6
X6.525Y-4.7
X6.55Y-3.925
T4
X6.275Y-4.6
X6.275Y-4.6984
X6.4Y-4.85
X6.4Y-4.9878
X6.8Y-3.75
X6.8356Y-5.05
X6.9Y-3.65
X6.9144Y-5.05
X7.0Y-3.75
X7.1663Y-3.74
X7.245Y-3.74
T5
X6.2252Y-3.925
X6.3252Y-3.925
X6.8Y-4.775
X6.8754Y-4.8875
X6.95Y-4.775
T6
X5.3Y-3.925
X5.3Y-4.025
X5.3Y-4.125
X5.3Y-4.225
X5.3Y-4.325
X5.3Y-4.425
X5.3Y-4.525
X5.5Y-3.7
X5.5Y-3.8
X5.5Y-3.9
X5.5Y-4.0
X5.5Y-4.1
X5.5Y-4.2
X5.5Y-4.3
X5.5Y-4.4
X5.5Y-4.5
X5.5Y-4.6
X5.5Y-4.7
X5.5Y-4.8
X5.75Y-3.45
X5.85Y-3.45
X5.9418Y-4.0
X5.9418Y-4.1
X5.9418Y-4.2
X5.9418Y-4.3
X5.9418Y-4.4
X5.9418Y-4.5
X6.1Y-3.7
X6.1Y-3.8
X6.1Y-3.9
X6.1Y-4.0
X6.1Y-4.1
X6.1Y-4.2
X6.1Y-4.3
X6.1Y-4.4
X6.1Y-4.5
X6.1Y-4.6
X6.1Y-4.7
X6.1Y-4.8
X6.3Y-4.1244
X6.3Y-4.2244
X6.3Y-4.3244
X6.4Y-4.1244
X6.4Y-4.2244
X6.4Y-4.3244
X6.5Y-4.1244
X6.5Y-4.2244
X6.5Y-4.3244
X6.675Y-3.9
X6.675Y-4.6
X6.775Y-3.9
X6.775Y-4.6
X6.875Y-3.9
X6.875Y-4.6
X6.975Y-3.9
X6.975Y-4.6
X7.075Y-3.9
X7.075Y-4.6
X7.175Y-3.9
X7.175Y-4.6
X7.275Y-3.9
X7.275Y-4.6
X7.375Y-3.9
X7.375Y-4.6
X7.4Y-3.575
X7.4Y-3.675
X7.4Y-4.8
X7.4Y-4.9
T7
X5.4689Y-3.45
X5.4689Y-5.0287
X6.15Y-3.45
X6.15Y-5.0287
T0
M30
