%TF.GenerationSoftware,KiCad,Pcbnew,(6.0.7)*%
%TF.CreationDate,2022-08-12T19:29:29+02:00*%
%TF.ProjectId,BURC_Decoder,42555243-5f44-4656-936f-6465722e6b69,rev?*%
%TF.SameCoordinates,Original*%
%TF.FileFunction,Drillmap*%
%TF.FilePolarity,Positive*%
%FSLAX45Y45*%
G04 Gerber Fmt 4.5, Leading zero omitted, Abs format (unit mm)*
G04 Created by KiCad (PCBNEW (6.0.7)) date 2022-08-12 19:29:29*
%MOMM*%
%LPD*%
G01*
G04 APERTURE LIST*
%ADD10C,0.100000*%
%ADD11C,0.200000*%
%ADD12C,0.320000*%
G04 APERTURE END LIST*
D10*
X19000000Y-8500000D02*
X13000000Y-8500000D01*
X13000000Y-13000000D02*
X19000000Y-13000000D01*
X19000000Y-13000000D02*
X19000000Y-8500000D01*
X13000000Y-8500000D02*
X13000000Y-13000000D01*
D11*
D12*
X13240000Y-8740000D02*
X13560000Y-9060000D01*
X13560000Y-8740000D02*
X13240000Y-9060000D01*
X13240000Y-12440000D02*
X13560000Y-12760000D01*
X13560000Y-12440000D02*
X13240000Y-12760000D01*
X18040000Y-8740000D02*
X18360000Y-9060000D01*
X18360000Y-8740000D02*
X18040000Y-9060000D01*
X18040000Y-12440000D02*
X18360000Y-12760000D01*
X18360000Y-12440000D02*
X18040000Y-12760000D01*
D11*
X13252619Y-13315476D02*
X13252619Y-13115476D01*
X13300238Y-13115476D01*
X13328809Y-13125000D01*
X13347857Y-13144048D01*
X13357381Y-13163095D01*
X13366905Y-13201190D01*
X13366905Y-13229762D01*
X13357381Y-13267857D01*
X13347857Y-13286905D01*
X13328809Y-13305952D01*
X13300238Y-13315476D01*
X13252619Y-13315476D01*
X13452619Y-13315476D02*
X13452619Y-13182143D01*
X13452619Y-13220238D02*
X13462143Y-13201190D01*
X13471667Y-13191667D01*
X13490714Y-13182143D01*
X13509762Y-13182143D01*
X13576428Y-13315476D02*
X13576428Y-13182143D01*
X13576428Y-13115476D02*
X13566905Y-13125000D01*
X13576428Y-13134524D01*
X13585952Y-13125000D01*
X13576428Y-13115476D01*
X13576428Y-13134524D01*
X13700238Y-13315476D02*
X13681190Y-13305952D01*
X13671667Y-13286905D01*
X13671667Y-13115476D01*
X13805000Y-13315476D02*
X13785952Y-13305952D01*
X13776428Y-13286905D01*
X13776428Y-13115476D01*
X14033571Y-13315476D02*
X14033571Y-13115476D01*
X14100238Y-13258333D01*
X14166905Y-13115476D01*
X14166905Y-13315476D01*
X14347857Y-13315476D02*
X14347857Y-13210714D01*
X14338333Y-13191667D01*
X14319286Y-13182143D01*
X14281190Y-13182143D01*
X14262143Y-13191667D01*
X14347857Y-13305952D02*
X14328809Y-13315476D01*
X14281190Y-13315476D01*
X14262143Y-13305952D01*
X14252619Y-13286905D01*
X14252619Y-13267857D01*
X14262143Y-13248809D01*
X14281190Y-13239286D01*
X14328809Y-13239286D01*
X14347857Y-13229762D01*
X14443095Y-13182143D02*
X14443095Y-13382143D01*
X14443095Y-13191667D02*
X14462143Y-13182143D01*
X14500238Y-13182143D01*
X14519286Y-13191667D01*
X14528809Y-13201190D01*
X14538333Y-13220238D01*
X14538333Y-13277381D01*
X14528809Y-13296428D01*
X14519286Y-13305952D01*
X14500238Y-13315476D01*
X14462143Y-13315476D01*
X14443095Y-13305952D01*
X14624048Y-13296428D02*
X14633571Y-13305952D01*
X14624048Y-13315476D01*
X14614524Y-13305952D01*
X14624048Y-13296428D01*
X14624048Y-13315476D01*
X14624048Y-13191667D02*
X14633571Y-13201190D01*
X14624048Y-13210714D01*
X14614524Y-13201190D01*
X14624048Y-13191667D01*
X14624048Y-13210714D01*
X12795000Y-13545000D02*
X12995000Y-13745000D01*
X12995000Y-13545000D02*
X12795000Y-13745000D01*
X13233571Y-13535476D02*
X13357381Y-13535476D01*
X13290714Y-13611667D01*
X13319286Y-13611667D01*
X13338333Y-13621190D01*
X13347857Y-13630714D01*
X13357381Y-13649762D01*
X13357381Y-13697381D01*
X13347857Y-13716428D01*
X13338333Y-13725952D01*
X13319286Y-13735476D01*
X13262143Y-13735476D01*
X13243095Y-13725952D01*
X13233571Y-13716428D01*
X13443095Y-13716428D02*
X13452619Y-13725952D01*
X13443095Y-13735476D01*
X13433571Y-13725952D01*
X13443095Y-13716428D01*
X13443095Y-13735476D01*
X13528809Y-13554524D02*
X13538333Y-13545000D01*
X13557381Y-13535476D01*
X13605000Y-13535476D01*
X13624048Y-13545000D01*
X13633571Y-13554524D01*
X13643095Y-13573571D01*
X13643095Y-13592619D01*
X13633571Y-13621190D01*
X13519286Y-13735476D01*
X13643095Y-13735476D01*
X13766905Y-13535476D02*
X13785952Y-13535476D01*
X13805000Y-13545000D01*
X13814524Y-13554524D01*
X13824048Y-13573571D01*
X13833571Y-13611667D01*
X13833571Y-13659286D01*
X13824048Y-13697381D01*
X13814524Y-13716428D01*
X13805000Y-13725952D01*
X13785952Y-13735476D01*
X13766905Y-13735476D01*
X13747857Y-13725952D01*
X13738333Y-13716428D01*
X13728809Y-13697381D01*
X13719286Y-13659286D01*
X13719286Y-13611667D01*
X13728809Y-13573571D01*
X13738333Y-13554524D01*
X13747857Y-13545000D01*
X13766905Y-13535476D01*
X13957381Y-13535476D02*
X13976428Y-13535476D01*
X13995476Y-13545000D01*
X14005000Y-13554524D01*
X14014524Y-13573571D01*
X14024048Y-13611667D01*
X14024048Y-13659286D01*
X14014524Y-13697381D01*
X14005000Y-13716428D01*
X13995476Y-13725952D01*
X13976428Y-13735476D01*
X13957381Y-13735476D01*
X13938333Y-13725952D01*
X13928809Y-13716428D01*
X13919286Y-13697381D01*
X13909762Y-13659286D01*
X13909762Y-13611667D01*
X13919286Y-13573571D01*
X13928809Y-13554524D01*
X13938333Y-13545000D01*
X13957381Y-13535476D01*
X14109762Y-13735476D02*
X14109762Y-13602143D01*
X14109762Y-13621190D02*
X14119286Y-13611667D01*
X14138333Y-13602143D01*
X14166905Y-13602143D01*
X14185952Y-13611667D01*
X14195476Y-13630714D01*
X14195476Y-13735476D01*
X14195476Y-13630714D02*
X14205000Y-13611667D01*
X14224048Y-13602143D01*
X14252619Y-13602143D01*
X14271667Y-13611667D01*
X14281190Y-13630714D01*
X14281190Y-13735476D01*
X14376428Y-13735476D02*
X14376428Y-13602143D01*
X14376428Y-13621190D02*
X14385952Y-13611667D01*
X14405000Y-13602143D01*
X14433571Y-13602143D01*
X14452619Y-13611667D01*
X14462143Y-13630714D01*
X14462143Y-13735476D01*
X14462143Y-13630714D02*
X14471667Y-13611667D01*
X14490714Y-13602143D01*
X14519286Y-13602143D01*
X14538333Y-13611667D01*
X14547857Y-13630714D01*
X14547857Y-13735476D01*
X14938333Y-13525952D02*
X14766905Y-13783095D01*
X15195476Y-13535476D02*
X15214524Y-13535476D01*
X15233571Y-13545000D01*
X15243095Y-13554524D01*
X15252619Y-13573571D01*
X15262143Y-13611667D01*
X15262143Y-13659286D01*
X15252619Y-13697381D01*
X15243095Y-13716428D01*
X15233571Y-13725952D01*
X15214524Y-13735476D01*
X15195476Y-13735476D01*
X15176428Y-13725952D01*
X15166905Y-13716428D01*
X15157381Y-13697381D01*
X15147857Y-13659286D01*
X15147857Y-13611667D01*
X15157381Y-13573571D01*
X15166905Y-13554524D01*
X15176428Y-13545000D01*
X15195476Y-13535476D01*
X15347857Y-13716428D02*
X15357381Y-13725952D01*
X15347857Y-13735476D01*
X15338333Y-13725952D01*
X15347857Y-13716428D01*
X15347857Y-13735476D01*
X15547857Y-13735476D02*
X15433571Y-13735476D01*
X15490714Y-13735476D02*
X15490714Y-13535476D01*
X15471667Y-13564048D01*
X15452619Y-13583095D01*
X15433571Y-13592619D01*
X15624048Y-13554524D02*
X15633571Y-13545000D01*
X15652619Y-13535476D01*
X15700238Y-13535476D01*
X15719286Y-13545000D01*
X15728809Y-13554524D01*
X15738333Y-13573571D01*
X15738333Y-13592619D01*
X15728809Y-13621190D01*
X15614524Y-13735476D01*
X15738333Y-13735476D01*
X15909762Y-13535476D02*
X15871667Y-13535476D01*
X15852619Y-13545000D01*
X15843095Y-13554524D01*
X15824048Y-13583095D01*
X15814524Y-13621190D01*
X15814524Y-13697381D01*
X15824048Y-13716428D01*
X15833571Y-13725952D01*
X15852619Y-13735476D01*
X15890714Y-13735476D01*
X15909762Y-13725952D01*
X15919286Y-13716428D01*
X15928809Y-13697381D01*
X15928809Y-13649762D01*
X15919286Y-13630714D01*
X15909762Y-13621190D01*
X15890714Y-13611667D01*
X15852619Y-13611667D01*
X15833571Y-13621190D01*
X15824048Y-13630714D01*
X15814524Y-13649762D01*
X16052619Y-13535476D02*
X16071667Y-13535476D01*
X16090714Y-13545000D01*
X16100238Y-13554524D01*
X16109762Y-13573571D01*
X16119286Y-13611667D01*
X16119286Y-13659286D01*
X16109762Y-13697381D01*
X16100238Y-13716428D01*
X16090714Y-13725952D01*
X16071667Y-13735476D01*
X16052619Y-13735476D01*
X16033571Y-13725952D01*
X16024048Y-13716428D01*
X16014524Y-13697381D01*
X16005000Y-13659286D01*
X16005000Y-13611667D01*
X16014524Y-13573571D01*
X16024048Y-13554524D01*
X16033571Y-13545000D01*
X16052619Y-13535476D01*
X16195476Y-13535476D02*
X16195476Y-13573571D01*
X16271667Y-13535476D02*
X16271667Y-13573571D01*
X16566905Y-13811667D02*
X16557381Y-13802143D01*
X16538333Y-13773571D01*
X16528809Y-13754524D01*
X16519286Y-13725952D01*
X16509762Y-13678333D01*
X16509762Y-13640238D01*
X16519286Y-13592619D01*
X16528809Y-13564048D01*
X16538333Y-13545000D01*
X16557381Y-13516428D01*
X16566905Y-13506905D01*
X16728809Y-13602143D02*
X16728809Y-13735476D01*
X16681190Y-13525952D02*
X16633571Y-13668809D01*
X16757381Y-13668809D01*
X16985952Y-13735476D02*
X16985952Y-13535476D01*
X17071667Y-13735476D02*
X17071667Y-13630714D01*
X17062143Y-13611667D01*
X17043095Y-13602143D01*
X17014524Y-13602143D01*
X16995476Y-13611667D01*
X16985952Y-13621190D01*
X17195476Y-13735476D02*
X17176429Y-13725952D01*
X17166905Y-13716428D01*
X17157381Y-13697381D01*
X17157381Y-13640238D01*
X17166905Y-13621190D01*
X17176429Y-13611667D01*
X17195476Y-13602143D01*
X17224048Y-13602143D01*
X17243095Y-13611667D01*
X17252619Y-13621190D01*
X17262143Y-13640238D01*
X17262143Y-13697381D01*
X17252619Y-13716428D01*
X17243095Y-13725952D01*
X17224048Y-13735476D01*
X17195476Y-13735476D01*
X17376429Y-13735476D02*
X17357381Y-13725952D01*
X17347857Y-13706905D01*
X17347857Y-13535476D01*
X17528810Y-13725952D02*
X17509762Y-13735476D01*
X17471667Y-13735476D01*
X17452619Y-13725952D01*
X17443095Y-13706905D01*
X17443095Y-13630714D01*
X17452619Y-13611667D01*
X17471667Y-13602143D01*
X17509762Y-13602143D01*
X17528810Y-13611667D01*
X17538333Y-13630714D01*
X17538333Y-13649762D01*
X17443095Y-13668809D01*
X17614524Y-13725952D02*
X17633571Y-13735476D01*
X17671667Y-13735476D01*
X17690714Y-13725952D01*
X17700238Y-13706905D01*
X17700238Y-13697381D01*
X17690714Y-13678333D01*
X17671667Y-13668809D01*
X17643095Y-13668809D01*
X17624048Y-13659286D01*
X17614524Y-13640238D01*
X17614524Y-13630714D01*
X17624048Y-13611667D01*
X17643095Y-13602143D01*
X17671667Y-13602143D01*
X17690714Y-13611667D01*
X17766905Y-13811667D02*
X17776429Y-13802143D01*
X17795476Y-13773571D01*
X17805000Y-13754524D01*
X17814524Y-13725952D01*
X17824048Y-13678333D01*
X17824048Y-13640238D01*
X17814524Y-13592619D01*
X17805000Y-13564048D01*
X17795476Y-13545000D01*
X17776429Y-13516428D01*
X17766905Y-13506905D01*
X18128810Y-13811667D02*
X18119286Y-13802143D01*
X18100238Y-13773571D01*
X18090714Y-13754524D01*
X18081190Y-13725952D01*
X18071667Y-13678333D01*
X18071667Y-13640238D01*
X18081190Y-13592619D01*
X18090714Y-13564048D01*
X18100238Y-13545000D01*
X18119286Y-13516428D01*
X18128810Y-13506905D01*
X18205000Y-13602143D02*
X18205000Y-13735476D01*
X18205000Y-13621190D02*
X18214524Y-13611667D01*
X18233571Y-13602143D01*
X18262143Y-13602143D01*
X18281190Y-13611667D01*
X18290714Y-13630714D01*
X18290714Y-13735476D01*
X18414524Y-13735476D02*
X18395476Y-13725952D01*
X18385952Y-13716428D01*
X18376429Y-13697381D01*
X18376429Y-13640238D01*
X18385952Y-13621190D01*
X18395476Y-13611667D01*
X18414524Y-13602143D01*
X18443095Y-13602143D01*
X18462143Y-13611667D01*
X18471667Y-13621190D01*
X18481190Y-13640238D01*
X18481190Y-13697381D01*
X18471667Y-13716428D01*
X18462143Y-13725952D01*
X18443095Y-13735476D01*
X18414524Y-13735476D01*
X18538333Y-13602143D02*
X18614524Y-13602143D01*
X18566905Y-13535476D02*
X18566905Y-13706905D01*
X18576429Y-13725952D01*
X18595476Y-13735476D01*
X18614524Y-13735476D01*
X18833571Y-13602143D02*
X18833571Y-13802143D01*
X18833571Y-13611667D02*
X18852619Y-13602143D01*
X18890714Y-13602143D01*
X18909762Y-13611667D01*
X18919286Y-13621190D01*
X18928810Y-13640238D01*
X18928810Y-13697381D01*
X18919286Y-13716428D01*
X18909762Y-13725952D01*
X18890714Y-13735476D01*
X18852619Y-13735476D01*
X18833571Y-13725952D01*
X19043095Y-13735476D02*
X19024048Y-13725952D01*
X19014524Y-13706905D01*
X19014524Y-13535476D01*
X19205000Y-13735476D02*
X19205000Y-13630714D01*
X19195476Y-13611667D01*
X19176429Y-13602143D01*
X19138333Y-13602143D01*
X19119286Y-13611667D01*
X19205000Y-13725952D02*
X19185952Y-13735476D01*
X19138333Y-13735476D01*
X19119286Y-13725952D01*
X19109762Y-13706905D01*
X19109762Y-13687857D01*
X19119286Y-13668809D01*
X19138333Y-13659286D01*
X19185952Y-13659286D01*
X19205000Y-13649762D01*
X19271667Y-13602143D02*
X19347857Y-13602143D01*
X19300238Y-13535476D02*
X19300238Y-13706905D01*
X19309762Y-13725952D01*
X19328810Y-13735476D01*
X19347857Y-13735476D01*
X19490714Y-13725952D02*
X19471667Y-13735476D01*
X19433571Y-13735476D01*
X19414524Y-13725952D01*
X19405000Y-13706905D01*
X19405000Y-13630714D01*
X19414524Y-13611667D01*
X19433571Y-13602143D01*
X19471667Y-13602143D01*
X19490714Y-13611667D01*
X19500238Y-13630714D01*
X19500238Y-13649762D01*
X19405000Y-13668809D01*
X19671667Y-13735476D02*
X19671667Y-13535476D01*
X19671667Y-13725952D02*
X19652619Y-13735476D01*
X19614524Y-13735476D01*
X19595476Y-13725952D01*
X19585952Y-13716428D01*
X19576429Y-13697381D01*
X19576429Y-13640238D01*
X19585952Y-13621190D01*
X19595476Y-13611667D01*
X19614524Y-13602143D01*
X19652619Y-13602143D01*
X19671667Y-13611667D01*
X19747857Y-13811667D02*
X19757381Y-13802143D01*
X19776429Y-13773571D01*
X19785952Y-13754524D01*
X19795476Y-13725952D01*
X19805000Y-13678333D01*
X19805000Y-13640238D01*
X19795476Y-13592619D01*
X19785952Y-13564048D01*
X19776429Y-13545000D01*
X19757381Y-13516428D01*
X19747857Y-13506905D01*
M02*
