%TF.GenerationSoftware,KiCad,Pcbnew,(6.0.7)*%
%TF.CreationDate,2022-08-12T19:29:29+02:00*%
%TF.ProjectId,BURC_Decoder,42555243-5f44-4656-936f-6465722e6b69,rev?*%
%TF.SameCoordinates,Original*%
%TF.FileFunction,Drillmap*%
%TF.FilePolarity,Positive*%
%FSLAX45Y45*%
G04 Gerber Fmt 4.5, Leading zero omitted, Abs format (unit mm)*
G04 Created by KiCad (PCBNEW (6.0.7)) date 2022-08-12 19:29:29*
%MOMM*%
%LPD*%
G01*
G04 APERTURE LIST*
%ADD10C,0.100000*%
%ADD11C,0.200000*%
%ADD12C,0.040000*%
%ADD13C,0.050000*%
%ADD14C,0.070000*%
%ADD15C,0.080000*%
%ADD16C,0.090000*%
%ADD17C,0.130000*%
G04 APERTURE END LIST*
D10*
X19000000Y-8500000D02*
X13000000Y-8500000D01*
X13000000Y-13000000D02*
X19000000Y-13000000D01*
X19000000Y-13000000D02*
X19000000Y-8500000D01*
X13000000Y-8500000D02*
X13000000Y-13000000D01*
D11*
D12*
X14521500Y-10140000D02*
X14561500Y-10180000D01*
X14561500Y-10140000D02*
X14521500Y-10180000D01*
D13*
X14185500Y-10414000D02*
G75*
G03*
X14185500Y-10414000I-25000J0D01*
G01*
X14439500Y-10668000D02*
G75*
G03*
X14439500Y-10668000I-25000J0D01*
G01*
X14439500Y-10922000D02*
G75*
G03*
X14439500Y-10922000I-25000J0D01*
G01*
X14693500Y-11176000D02*
G75*
G03*
X14693500Y-11176000I-25000J0D01*
G01*
D14*
X16129000Y-11395000D02*
X16129000Y-11465000D01*
X16094000Y-11430000D02*
X16164000Y-11430000D01*
X16319500Y-11649000D02*
X16319500Y-11719000D01*
X16284500Y-11684000D02*
X16354500Y-11684000D01*
X16319500Y-11903000D02*
X16319500Y-11973000D01*
X16284500Y-11938000D02*
X16354500Y-11938000D01*
X16383000Y-9934500D02*
X16383000Y-10004500D01*
X16348000Y-9969500D02*
X16418000Y-9969500D01*
X16383000Y-11395000D02*
X16383000Y-11465000D01*
X16348000Y-11430000D02*
X16418000Y-11430000D01*
X16573500Y-11649000D02*
X16573500Y-11719000D01*
X16538500Y-11684000D02*
X16608500Y-11684000D01*
X16573500Y-11903000D02*
X16573500Y-11973000D01*
X16538500Y-11938000D02*
X16608500Y-11938000D01*
X16637000Y-9934500D02*
X16637000Y-10004500D01*
X16602000Y-9969500D02*
X16672000Y-9969500D01*
D15*
X15966784Y-11712284D02*
X15966784Y-11655715D01*
X15910215Y-11655715D01*
X15910215Y-11712284D01*
X15966784Y-11712284D01*
X15966784Y-11962284D02*
X15966784Y-11905715D01*
X15910215Y-11905715D01*
X15910215Y-11962284D01*
X15966784Y-11962284D01*
X16284284Y-12347284D02*
X16284284Y-12290715D01*
X16227715Y-12290715D01*
X16227715Y-12347284D01*
X16284284Y-12347284D01*
X16284284Y-12697284D02*
X16284284Y-12640715D01*
X16227715Y-12640715D01*
X16227715Y-12697284D01*
X16284284Y-12697284D01*
X17300285Y-9553285D02*
X17300285Y-9496716D01*
X17243716Y-9496716D01*
X17243716Y-9553285D01*
X17300285Y-9553285D01*
X17390785Y-12855284D02*
X17390785Y-12798715D01*
X17334216Y-12798715D01*
X17334216Y-12855284D01*
X17390785Y-12855284D01*
X17554285Y-9299285D02*
X17554285Y-9242716D01*
X17497716Y-9242716D01*
X17497716Y-9299285D01*
X17554285Y-9299285D01*
X17590785Y-12855284D02*
X17590785Y-12798715D01*
X17534216Y-12798715D01*
X17534216Y-12855284D01*
X17590785Y-12855284D01*
X17808285Y-9553285D02*
X17808285Y-9496716D01*
X17751716Y-9496716D01*
X17751716Y-9553285D01*
X17808285Y-9553285D01*
X18230585Y-9527885D02*
X18230585Y-9471316D01*
X18174016Y-9471316D01*
X18174016Y-9527885D01*
X18230585Y-9527885D01*
X18430585Y-9527885D02*
X18430585Y-9471316D01*
X18374016Y-9471316D01*
X18374016Y-9527885D01*
X18430585Y-9527885D01*
D16*
X15812000Y-10014500D02*
X15857000Y-9969500D01*
X15812000Y-9924500D01*
X15767000Y-9969500D01*
X15812000Y-10014500D01*
X16066000Y-10014500D02*
X16111000Y-9969500D01*
X16066000Y-9924500D01*
X16021000Y-9969500D01*
X16066000Y-10014500D01*
X17272000Y-12173500D02*
X17317000Y-12128500D01*
X17272000Y-12083500D01*
X17227000Y-12128500D01*
X17272000Y-12173500D01*
X17463500Y-12459250D02*
X17508500Y-12414250D01*
X17463500Y-12369250D01*
X17418500Y-12414250D01*
X17463500Y-12459250D01*
X17653000Y-12173500D02*
X17698000Y-12128500D01*
X17653000Y-12083500D01*
X17608000Y-12128500D01*
X17653000Y-12173500D01*
D10*
X13412000Y-9919500D02*
X13512000Y-10019500D01*
X13512000Y-9919500D02*
X13412000Y-10019500D01*
X13512000Y-9969500D02*
G75*
G03*
X13512000Y-9969500I-50000J0D01*
G01*
X13412000Y-10173500D02*
X13512000Y-10273500D01*
X13512000Y-10173500D02*
X13412000Y-10273500D01*
X13512000Y-10223500D02*
G75*
G03*
X13512000Y-10223500I-50000J0D01*
G01*
X13412000Y-10427500D02*
X13512000Y-10527500D01*
X13512000Y-10427500D02*
X13412000Y-10527500D01*
X13512000Y-10477500D02*
G75*
G03*
X13512000Y-10477500I-50000J0D01*
G01*
X13412000Y-10681500D02*
X13512000Y-10781500D01*
X13512000Y-10681500D02*
X13412000Y-10781500D01*
X13512000Y-10731500D02*
G75*
G03*
X13512000Y-10731500I-50000J0D01*
G01*
X13412000Y-10935500D02*
X13512000Y-11035500D01*
X13512000Y-10935500D02*
X13412000Y-11035500D01*
X13512000Y-10985500D02*
G75*
G03*
X13512000Y-10985500I-50000J0D01*
G01*
X13412000Y-11189500D02*
X13512000Y-11289500D01*
X13512000Y-11189500D02*
X13412000Y-11289500D01*
X13512000Y-11239500D02*
G75*
G03*
X13512000Y-11239500I-50000J0D01*
G01*
X13412000Y-11443500D02*
X13512000Y-11543500D01*
X13512000Y-11443500D02*
X13412000Y-11543500D01*
X13512000Y-11493500D02*
G75*
G03*
X13512000Y-11493500I-50000J0D01*
G01*
X13920000Y-9348000D02*
X14020000Y-9448000D01*
X14020000Y-9348000D02*
X13920000Y-9448000D01*
X14020000Y-9398000D02*
G75*
G03*
X14020000Y-9398000I-50000J0D01*
G01*
X13920000Y-9602000D02*
X14020000Y-9702000D01*
X14020000Y-9602000D02*
X13920000Y-9702000D01*
X14020000Y-9652000D02*
G75*
G03*
X14020000Y-9652000I-50000J0D01*
G01*
X13920000Y-9856000D02*
X14020000Y-9956000D01*
X14020000Y-9856000D02*
X13920000Y-9956000D01*
X14020000Y-9906000D02*
G75*
G03*
X14020000Y-9906000I-50000J0D01*
G01*
X13920000Y-10110000D02*
X14020000Y-10210000D01*
X14020000Y-10110000D02*
X13920000Y-10210000D01*
X14020000Y-10160000D02*
G75*
G03*
X14020000Y-10160000I-50000J0D01*
G01*
X13920000Y-10364000D02*
X14020000Y-10464000D01*
X14020000Y-10364000D02*
X13920000Y-10464000D01*
X14020000Y-10414000D02*
G75*
G03*
X14020000Y-10414000I-50000J0D01*
G01*
X13920000Y-10618000D02*
X14020000Y-10718000D01*
X14020000Y-10618000D02*
X13920000Y-10718000D01*
X14020000Y-10668000D02*
G75*
G03*
X14020000Y-10668000I-50000J0D01*
G01*
X13920000Y-10872000D02*
X14020000Y-10972000D01*
X14020000Y-10872000D02*
X13920000Y-10972000D01*
X14020000Y-10922000D02*
G75*
G03*
X14020000Y-10922000I-50000J0D01*
G01*
X13920000Y-11126000D02*
X14020000Y-11226000D01*
X14020000Y-11126000D02*
X13920000Y-11226000D01*
X14020000Y-11176000D02*
G75*
G03*
X14020000Y-11176000I-50000J0D01*
G01*
X13920000Y-11380000D02*
X14020000Y-11480000D01*
X14020000Y-11380000D02*
X13920000Y-11480000D01*
X14020000Y-11430000D02*
G75*
G03*
X14020000Y-11430000I-50000J0D01*
G01*
X13920000Y-11634000D02*
X14020000Y-11734000D01*
X14020000Y-11634000D02*
X13920000Y-11734000D01*
X14020000Y-11684000D02*
G75*
G03*
X14020000Y-11684000I-50000J0D01*
G01*
X13920000Y-11888000D02*
X14020000Y-11988000D01*
X14020000Y-11888000D02*
X13920000Y-11988000D01*
X14020000Y-11938000D02*
G75*
G03*
X14020000Y-11938000I-50000J0D01*
G01*
X13920000Y-12142000D02*
X14020000Y-12242000D01*
X14020000Y-12142000D02*
X13920000Y-12242000D01*
X14020000Y-12192000D02*
G75*
G03*
X14020000Y-12192000I-50000J0D01*
G01*
X14555000Y-8713000D02*
X14655000Y-8813000D01*
X14655000Y-8713000D02*
X14555000Y-8813000D01*
X14655000Y-8763000D02*
G75*
G03*
X14655000Y-8763000I-50000J0D01*
G01*
X14809000Y-8713000D02*
X14909000Y-8813000D01*
X14909000Y-8713000D02*
X14809000Y-8813000D01*
X14909000Y-8763000D02*
G75*
G03*
X14909000Y-8763000I-50000J0D01*
G01*
X15042150Y-10110000D02*
X15142150Y-10210000D01*
X15142150Y-10110000D02*
X15042150Y-10210000D01*
X15142150Y-10160000D02*
G75*
G03*
X15142150Y-10160000I-50000J0D01*
G01*
X15042150Y-10364000D02*
X15142150Y-10464000D01*
X15142150Y-10364000D02*
X15042150Y-10464000D01*
X15142150Y-10414000D02*
G75*
G03*
X15142150Y-10414000I-50000J0D01*
G01*
X15042150Y-10618000D02*
X15142150Y-10718000D01*
X15142150Y-10618000D02*
X15042150Y-10718000D01*
X15142150Y-10668000D02*
G75*
G03*
X15142150Y-10668000I-50000J0D01*
G01*
X15042150Y-10872000D02*
X15142150Y-10972000D01*
X15142150Y-10872000D02*
X15042150Y-10972000D01*
X15142150Y-10922000D02*
G75*
G03*
X15142150Y-10922000I-50000J0D01*
G01*
X15042150Y-11126000D02*
X15142150Y-11226000D01*
X15142150Y-11126000D02*
X15042150Y-11226000D01*
X15142150Y-11176000D02*
G75*
G03*
X15142150Y-11176000I-50000J0D01*
G01*
X15042150Y-11380000D02*
X15142150Y-11480000D01*
X15142150Y-11380000D02*
X15042150Y-11480000D01*
X15142150Y-11430000D02*
G75*
G03*
X15142150Y-11430000I-50000J0D01*
G01*
X15444000Y-9348000D02*
X15544000Y-9448000D01*
X15544000Y-9348000D02*
X15444000Y-9448000D01*
X15544000Y-9398000D02*
G75*
G03*
X15544000Y-9398000I-50000J0D01*
G01*
X15444000Y-9602000D02*
X15544000Y-9702000D01*
X15544000Y-9602000D02*
X15444000Y-9702000D01*
X15544000Y-9652000D02*
G75*
G03*
X15544000Y-9652000I-50000J0D01*
G01*
X15444000Y-9856000D02*
X15544000Y-9956000D01*
X15544000Y-9856000D02*
X15444000Y-9956000D01*
X15544000Y-9906000D02*
G75*
G03*
X15544000Y-9906000I-50000J0D01*
G01*
X15444000Y-10110000D02*
X15544000Y-10210000D01*
X15544000Y-10110000D02*
X15444000Y-10210000D01*
X15544000Y-10160000D02*
G75*
G03*
X15544000Y-10160000I-50000J0D01*
G01*
X15444000Y-10364000D02*
X15544000Y-10464000D01*
X15544000Y-10364000D02*
X15444000Y-10464000D01*
X15544000Y-10414000D02*
G75*
G03*
X15544000Y-10414000I-50000J0D01*
G01*
X15444000Y-10618000D02*
X15544000Y-10718000D01*
X15544000Y-10618000D02*
X15444000Y-10718000D01*
X15544000Y-10668000D02*
G75*
G03*
X15544000Y-10668000I-50000J0D01*
G01*
X15444000Y-10872000D02*
X15544000Y-10972000D01*
X15544000Y-10872000D02*
X15444000Y-10972000D01*
X15544000Y-10922000D02*
G75*
G03*
X15544000Y-10922000I-50000J0D01*
G01*
X15444000Y-11126000D02*
X15544000Y-11226000D01*
X15544000Y-11126000D02*
X15444000Y-11226000D01*
X15544000Y-11176000D02*
G75*
G03*
X15544000Y-11176000I-50000J0D01*
G01*
X15444000Y-11380000D02*
X15544000Y-11480000D01*
X15544000Y-11380000D02*
X15444000Y-11480000D01*
X15544000Y-11430000D02*
G75*
G03*
X15544000Y-11430000I-50000J0D01*
G01*
X15444000Y-11634000D02*
X15544000Y-11734000D01*
X15544000Y-11634000D02*
X15444000Y-11734000D01*
X15544000Y-11684000D02*
G75*
G03*
X15544000Y-11684000I-50000J0D01*
G01*
X15444000Y-11888000D02*
X15544000Y-11988000D01*
X15544000Y-11888000D02*
X15444000Y-11988000D01*
X15544000Y-11938000D02*
G75*
G03*
X15544000Y-11938000I-50000J0D01*
G01*
X15444000Y-12142000D02*
X15544000Y-12242000D01*
X15544000Y-12142000D02*
X15444000Y-12242000D01*
X15544000Y-12192000D02*
G75*
G03*
X15544000Y-12192000I-50000J0D01*
G01*
X15952000Y-10426000D02*
X16052000Y-10526000D01*
X16052000Y-10426000D02*
X15952000Y-10526000D01*
X16052000Y-10476000D02*
G75*
G03*
X16052000Y-10476000I-50000J0D01*
G01*
X15952000Y-10680000D02*
X16052000Y-10780000D01*
X16052000Y-10680000D02*
X15952000Y-10780000D01*
X16052000Y-10730000D02*
G75*
G03*
X16052000Y-10730000I-50000J0D01*
G01*
X15952000Y-10934000D02*
X16052000Y-11034000D01*
X16052000Y-10934000D02*
X15952000Y-11034000D01*
X16052000Y-10984000D02*
G75*
G03*
X16052000Y-10984000I-50000J0D01*
G01*
X16206000Y-10426000D02*
X16306000Y-10526000D01*
X16306000Y-10426000D02*
X16206000Y-10526000D01*
X16306000Y-10476000D02*
G75*
G03*
X16306000Y-10476000I-50000J0D01*
G01*
X16206000Y-10680000D02*
X16306000Y-10780000D01*
X16306000Y-10680000D02*
X16206000Y-10780000D01*
X16306000Y-10730000D02*
G75*
G03*
X16306000Y-10730000I-50000J0D01*
G01*
X16206000Y-10934000D02*
X16306000Y-11034000D01*
X16306000Y-10934000D02*
X16206000Y-11034000D01*
X16306000Y-10984000D02*
G75*
G03*
X16306000Y-10984000I-50000J0D01*
G01*
X16460000Y-10426000D02*
X16560000Y-10526000D01*
X16560000Y-10426000D02*
X16460000Y-10526000D01*
X16560000Y-10476000D02*
G75*
G03*
X16560000Y-10476000I-50000J0D01*
G01*
X16460000Y-10680000D02*
X16560000Y-10780000D01*
X16560000Y-10680000D02*
X16460000Y-10780000D01*
X16560000Y-10730000D02*
G75*
G03*
X16560000Y-10730000I-50000J0D01*
G01*
X16460000Y-10934000D02*
X16560000Y-11034000D01*
X16560000Y-10934000D02*
X16460000Y-11034000D01*
X16560000Y-10984000D02*
G75*
G03*
X16560000Y-10984000I-50000J0D01*
G01*
X16904500Y-9856000D02*
X17004500Y-9956000D01*
X17004500Y-9856000D02*
X16904500Y-9956000D01*
X17004500Y-9906000D02*
G75*
G03*
X17004500Y-9906000I-50000J0D01*
G01*
X16904500Y-11634000D02*
X17004500Y-11734000D01*
X17004500Y-11634000D02*
X16904500Y-11734000D01*
X17004500Y-11684000D02*
G75*
G03*
X17004500Y-11684000I-50000J0D01*
G01*
X17158500Y-9856000D02*
X17258500Y-9956000D01*
X17258500Y-9856000D02*
X17158500Y-9956000D01*
X17258500Y-9906000D02*
G75*
G03*
X17258500Y-9906000I-50000J0D01*
G01*
X17158500Y-11634000D02*
X17258500Y-11734000D01*
X17258500Y-11634000D02*
X17158500Y-11734000D01*
X17258500Y-11684000D02*
G75*
G03*
X17258500Y-11684000I-50000J0D01*
G01*
X17412500Y-9856000D02*
X17512500Y-9956000D01*
X17512500Y-9856000D02*
X17412500Y-9956000D01*
X17512500Y-9906000D02*
G75*
G03*
X17512500Y-9906000I-50000J0D01*
G01*
X17412500Y-11634000D02*
X17512500Y-11734000D01*
X17512500Y-11634000D02*
X17412500Y-11734000D01*
X17512500Y-11684000D02*
G75*
G03*
X17512500Y-11684000I-50000J0D01*
G01*
X17666500Y-9856000D02*
X17766500Y-9956000D01*
X17766500Y-9856000D02*
X17666500Y-9956000D01*
X17766500Y-9906000D02*
G75*
G03*
X17766500Y-9906000I-50000J0D01*
G01*
X17666500Y-11634000D02*
X17766500Y-11734000D01*
X17766500Y-11634000D02*
X17666500Y-11734000D01*
X17766500Y-11684000D02*
G75*
G03*
X17766500Y-11684000I-50000J0D01*
G01*
X17920500Y-9856000D02*
X18020500Y-9956000D01*
X18020500Y-9856000D02*
X17920500Y-9956000D01*
X18020500Y-9906000D02*
G75*
G03*
X18020500Y-9906000I-50000J0D01*
G01*
X17920500Y-11634000D02*
X18020500Y-11734000D01*
X18020500Y-11634000D02*
X17920500Y-11734000D01*
X18020500Y-11684000D02*
G75*
G03*
X18020500Y-11684000I-50000J0D01*
G01*
X18174500Y-9856000D02*
X18274500Y-9956000D01*
X18274500Y-9856000D02*
X18174500Y-9956000D01*
X18274500Y-9906000D02*
G75*
G03*
X18274500Y-9906000I-50000J0D01*
G01*
X18174500Y-11634000D02*
X18274500Y-11734000D01*
X18274500Y-11634000D02*
X18174500Y-11734000D01*
X18274500Y-11684000D02*
G75*
G03*
X18274500Y-11684000I-50000J0D01*
G01*
X18428500Y-9856000D02*
X18528500Y-9956000D01*
X18528500Y-9856000D02*
X18428500Y-9956000D01*
X18528500Y-9906000D02*
G75*
G03*
X18528500Y-9906000I-50000J0D01*
G01*
X18428500Y-11634000D02*
X18528500Y-11734000D01*
X18528500Y-11634000D02*
X18428500Y-11734000D01*
X18528500Y-11684000D02*
G75*
G03*
X18528500Y-11684000I-50000J0D01*
G01*
X18682500Y-9856000D02*
X18782500Y-9956000D01*
X18782500Y-9856000D02*
X18682500Y-9956000D01*
X18782500Y-9906000D02*
G75*
G03*
X18782500Y-9906000I-50000J0D01*
G01*
X18682500Y-11634000D02*
X18782500Y-11734000D01*
X18782500Y-11634000D02*
X18682500Y-11734000D01*
X18782500Y-11684000D02*
G75*
G03*
X18782500Y-11684000I-50000J0D01*
G01*
X18746000Y-9030500D02*
X18846000Y-9130500D01*
X18846000Y-9030500D02*
X18746000Y-9130500D01*
X18846000Y-9080500D02*
G75*
G03*
X18846000Y-9080500I-50000J0D01*
G01*
X18746000Y-9284500D02*
X18846000Y-9384500D01*
X18846000Y-9284500D02*
X18746000Y-9384500D01*
X18846000Y-9334500D02*
G75*
G03*
X18846000Y-9334500I-50000J0D01*
G01*
X18746000Y-12142000D02*
X18846000Y-12242000D01*
X18846000Y-12142000D02*
X18746000Y-12242000D01*
X18846000Y-12192000D02*
G75*
G03*
X18846000Y-12192000I-50000J0D01*
G01*
X18746000Y-12396000D02*
X18846000Y-12496000D01*
X18846000Y-12396000D02*
X18746000Y-12496000D01*
X18846000Y-12446000D02*
G75*
G03*
X18846000Y-12446000I-50000J0D01*
G01*
D17*
X13826000Y-8698000D02*
X13956000Y-8828000D01*
X13956000Y-8698000D02*
X13826000Y-8828000D01*
X13891000Y-8698000D02*
X13891000Y-8828000D01*
X13826000Y-8763000D02*
X13956000Y-8763000D01*
X13826000Y-12708000D02*
X13956000Y-12838000D01*
X13956000Y-12708000D02*
X13826000Y-12838000D01*
X13891000Y-12708000D02*
X13891000Y-12838000D01*
X13826000Y-12773000D02*
X13956000Y-12773000D01*
X15556000Y-8698000D02*
X15686000Y-8828000D01*
X15686000Y-8698000D02*
X15556000Y-8828000D01*
X15621000Y-8698000D02*
X15621000Y-8828000D01*
X15556000Y-8763000D02*
X15686000Y-8763000D01*
X15556000Y-12708000D02*
X15686000Y-12838000D01*
X15686000Y-12708000D02*
X15556000Y-12838000D01*
X15621000Y-12708000D02*
X15621000Y-12838000D01*
X15556000Y-12773000D02*
X15686000Y-12773000D01*
D11*
X13252619Y-13315476D02*
X13252619Y-13115476D01*
X13300238Y-13115476D01*
X13328809Y-13125000D01*
X13347857Y-13144048D01*
X13357381Y-13163095D01*
X13366905Y-13201190D01*
X13366905Y-13229762D01*
X13357381Y-13267857D01*
X13347857Y-13286905D01*
X13328809Y-13305952D01*
X13300238Y-13315476D01*
X13252619Y-13315476D01*
X13452619Y-13315476D02*
X13452619Y-13182143D01*
X13452619Y-13220238D02*
X13462143Y-13201190D01*
X13471667Y-13191667D01*
X13490714Y-13182143D01*
X13509762Y-13182143D01*
X13576428Y-13315476D02*
X13576428Y-13182143D01*
X13576428Y-13115476D02*
X13566905Y-13125000D01*
X13576428Y-13134524D01*
X13585952Y-13125000D01*
X13576428Y-13115476D01*
X13576428Y-13134524D01*
X13700238Y-13315476D02*
X13681190Y-13305952D01*
X13671667Y-13286905D01*
X13671667Y-13115476D01*
X13805000Y-13315476D02*
X13785952Y-13305952D01*
X13776428Y-13286905D01*
X13776428Y-13115476D01*
X14033571Y-13315476D02*
X14033571Y-13115476D01*
X14100238Y-13258333D01*
X14166905Y-13115476D01*
X14166905Y-13315476D01*
X14347857Y-13315476D02*
X14347857Y-13210714D01*
X14338333Y-13191667D01*
X14319286Y-13182143D01*
X14281190Y-13182143D01*
X14262143Y-13191667D01*
X14347857Y-13305952D02*
X14328809Y-13315476D01*
X14281190Y-13315476D01*
X14262143Y-13305952D01*
X14252619Y-13286905D01*
X14252619Y-13267857D01*
X14262143Y-13248809D01*
X14281190Y-13239286D01*
X14328809Y-13239286D01*
X14347857Y-13229762D01*
X14443095Y-13182143D02*
X14443095Y-13382143D01*
X14443095Y-13191667D02*
X14462143Y-13182143D01*
X14500238Y-13182143D01*
X14519286Y-13191667D01*
X14528809Y-13201190D01*
X14538333Y-13220238D01*
X14538333Y-13277381D01*
X14528809Y-13296428D01*
X14519286Y-13305952D01*
X14500238Y-13315476D01*
X14462143Y-13315476D01*
X14443095Y-13305952D01*
X14624048Y-13296428D02*
X14633571Y-13305952D01*
X14624048Y-13315476D01*
X14614524Y-13305952D01*
X14624048Y-13296428D01*
X14624048Y-13315476D01*
X14624048Y-13191667D02*
X14633571Y-13201190D01*
X14624048Y-13210714D01*
X14614524Y-13201190D01*
X14624048Y-13191667D01*
X14624048Y-13210714D01*
D12*
X12955000Y-13625000D02*
X12995000Y-13665000D01*
X12995000Y-13625000D02*
X12955000Y-13665000D01*
D11*
X13290714Y-13535476D02*
X13309762Y-13535476D01*
X13328809Y-13545000D01*
X13338333Y-13554524D01*
X13347857Y-13573571D01*
X13357381Y-13611667D01*
X13357381Y-13659286D01*
X13347857Y-13697381D01*
X13338333Y-13716428D01*
X13328809Y-13725952D01*
X13309762Y-13735476D01*
X13290714Y-13735476D01*
X13271667Y-13725952D01*
X13262143Y-13716428D01*
X13252619Y-13697381D01*
X13243095Y-13659286D01*
X13243095Y-13611667D01*
X13252619Y-13573571D01*
X13262143Y-13554524D01*
X13271667Y-13545000D01*
X13290714Y-13535476D01*
X13443095Y-13716428D02*
X13452619Y-13725952D01*
X13443095Y-13735476D01*
X13433571Y-13725952D01*
X13443095Y-13716428D01*
X13443095Y-13735476D01*
X13624048Y-13602143D02*
X13624048Y-13735476D01*
X13576428Y-13525952D02*
X13528809Y-13668809D01*
X13652619Y-13668809D01*
X13766905Y-13535476D02*
X13785952Y-13535476D01*
X13805000Y-13545000D01*
X13814524Y-13554524D01*
X13824048Y-13573571D01*
X13833571Y-13611667D01*
X13833571Y-13659286D01*
X13824048Y-13697381D01*
X13814524Y-13716428D01*
X13805000Y-13725952D01*
X13785952Y-13735476D01*
X13766905Y-13735476D01*
X13747857Y-13725952D01*
X13738333Y-13716428D01*
X13728809Y-13697381D01*
X13719286Y-13659286D01*
X13719286Y-13611667D01*
X13728809Y-13573571D01*
X13738333Y-13554524D01*
X13747857Y-13545000D01*
X13766905Y-13535476D01*
X13957381Y-13535476D02*
X13976428Y-13535476D01*
X13995476Y-13545000D01*
X14005000Y-13554524D01*
X14014524Y-13573571D01*
X14024048Y-13611667D01*
X14024048Y-13659286D01*
X14014524Y-13697381D01*
X14005000Y-13716428D01*
X13995476Y-13725952D01*
X13976428Y-13735476D01*
X13957381Y-13735476D01*
X13938333Y-13725952D01*
X13928809Y-13716428D01*
X13919286Y-13697381D01*
X13909762Y-13659286D01*
X13909762Y-13611667D01*
X13919286Y-13573571D01*
X13928809Y-13554524D01*
X13938333Y-13545000D01*
X13957381Y-13535476D01*
X14109762Y-13735476D02*
X14109762Y-13602143D01*
X14109762Y-13621190D02*
X14119286Y-13611667D01*
X14138333Y-13602143D01*
X14166905Y-13602143D01*
X14185952Y-13611667D01*
X14195476Y-13630714D01*
X14195476Y-13735476D01*
X14195476Y-13630714D02*
X14205000Y-13611667D01*
X14224048Y-13602143D01*
X14252619Y-13602143D01*
X14271667Y-13611667D01*
X14281190Y-13630714D01*
X14281190Y-13735476D01*
X14376428Y-13735476D02*
X14376428Y-13602143D01*
X14376428Y-13621190D02*
X14385952Y-13611667D01*
X14405000Y-13602143D01*
X14433571Y-13602143D01*
X14452619Y-13611667D01*
X14462143Y-13630714D01*
X14462143Y-13735476D01*
X14462143Y-13630714D02*
X14471667Y-13611667D01*
X14490714Y-13602143D01*
X14519286Y-13602143D01*
X14538333Y-13611667D01*
X14547857Y-13630714D01*
X14547857Y-13735476D01*
X14938333Y-13525952D02*
X14766905Y-13783095D01*
X15195476Y-13535476D02*
X15214524Y-13535476D01*
X15233571Y-13545000D01*
X15243095Y-13554524D01*
X15252619Y-13573571D01*
X15262143Y-13611667D01*
X15262143Y-13659286D01*
X15252619Y-13697381D01*
X15243095Y-13716428D01*
X15233571Y-13725952D01*
X15214524Y-13735476D01*
X15195476Y-13735476D01*
X15176428Y-13725952D01*
X15166905Y-13716428D01*
X15157381Y-13697381D01*
X15147857Y-13659286D01*
X15147857Y-13611667D01*
X15157381Y-13573571D01*
X15166905Y-13554524D01*
X15176428Y-13545000D01*
X15195476Y-13535476D01*
X15347857Y-13716428D02*
X15357381Y-13725952D01*
X15347857Y-13735476D01*
X15338333Y-13725952D01*
X15347857Y-13716428D01*
X15347857Y-13735476D01*
X15481190Y-13535476D02*
X15500238Y-13535476D01*
X15519286Y-13545000D01*
X15528809Y-13554524D01*
X15538333Y-13573571D01*
X15547857Y-13611667D01*
X15547857Y-13659286D01*
X15538333Y-13697381D01*
X15528809Y-13716428D01*
X15519286Y-13725952D01*
X15500238Y-13735476D01*
X15481190Y-13735476D01*
X15462143Y-13725952D01*
X15452619Y-13716428D01*
X15443095Y-13697381D01*
X15433571Y-13659286D01*
X15433571Y-13611667D01*
X15443095Y-13573571D01*
X15452619Y-13554524D01*
X15462143Y-13545000D01*
X15481190Y-13535476D01*
X15738333Y-13735476D02*
X15624048Y-13735476D01*
X15681190Y-13735476D02*
X15681190Y-13535476D01*
X15662143Y-13564048D01*
X15643095Y-13583095D01*
X15624048Y-13592619D01*
X15919286Y-13535476D02*
X15824048Y-13535476D01*
X15814524Y-13630714D01*
X15824048Y-13621190D01*
X15843095Y-13611667D01*
X15890714Y-13611667D01*
X15909762Y-13621190D01*
X15919286Y-13630714D01*
X15928809Y-13649762D01*
X15928809Y-13697381D01*
X15919286Y-13716428D01*
X15909762Y-13725952D01*
X15890714Y-13735476D01*
X15843095Y-13735476D01*
X15824048Y-13725952D01*
X15814524Y-13716428D01*
X15995476Y-13535476D02*
X16128809Y-13535476D01*
X16043095Y-13735476D01*
X16195476Y-13535476D02*
X16195476Y-13573571D01*
X16271667Y-13535476D02*
X16271667Y-13573571D01*
X16566905Y-13811667D02*
X16557381Y-13802143D01*
X16538333Y-13773571D01*
X16528809Y-13754524D01*
X16519286Y-13725952D01*
X16509762Y-13678333D01*
X16509762Y-13640238D01*
X16519286Y-13592619D01*
X16528809Y-13564048D01*
X16538333Y-13545000D01*
X16557381Y-13516428D01*
X16566905Y-13506905D01*
X16747857Y-13735476D02*
X16633571Y-13735476D01*
X16690714Y-13735476D02*
X16690714Y-13535476D01*
X16671667Y-13564048D01*
X16652619Y-13583095D01*
X16633571Y-13592619D01*
X16985952Y-13735476D02*
X16985952Y-13535476D01*
X17071667Y-13735476D02*
X17071667Y-13630714D01*
X17062143Y-13611667D01*
X17043095Y-13602143D01*
X17014524Y-13602143D01*
X16995476Y-13611667D01*
X16985952Y-13621190D01*
X17195476Y-13735476D02*
X17176429Y-13725952D01*
X17166905Y-13716428D01*
X17157381Y-13697381D01*
X17157381Y-13640238D01*
X17166905Y-13621190D01*
X17176429Y-13611667D01*
X17195476Y-13602143D01*
X17224048Y-13602143D01*
X17243095Y-13611667D01*
X17252619Y-13621190D01*
X17262143Y-13640238D01*
X17262143Y-13697381D01*
X17252619Y-13716428D01*
X17243095Y-13725952D01*
X17224048Y-13735476D01*
X17195476Y-13735476D01*
X17376429Y-13735476D02*
X17357381Y-13725952D01*
X17347857Y-13706905D01*
X17347857Y-13535476D01*
X17528810Y-13725952D02*
X17509762Y-13735476D01*
X17471667Y-13735476D01*
X17452619Y-13725952D01*
X17443095Y-13706905D01*
X17443095Y-13630714D01*
X17452619Y-13611667D01*
X17471667Y-13602143D01*
X17509762Y-13602143D01*
X17528810Y-13611667D01*
X17538333Y-13630714D01*
X17538333Y-13649762D01*
X17443095Y-13668809D01*
X17605000Y-13811667D02*
X17614524Y-13802143D01*
X17633571Y-13773571D01*
X17643095Y-13754524D01*
X17652619Y-13725952D01*
X17662143Y-13678333D01*
X17662143Y-13640238D01*
X17652619Y-13592619D01*
X17643095Y-13564048D01*
X17633571Y-13545000D01*
X17614524Y-13516428D01*
X17605000Y-13506905D01*
D13*
X12995000Y-13909000D02*
G75*
G03*
X12995000Y-13909000I-25000J0D01*
G01*
D11*
X13290714Y-13799476D02*
X13309762Y-13799476D01*
X13328809Y-13809000D01*
X13338333Y-13818524D01*
X13347857Y-13837571D01*
X13357381Y-13875667D01*
X13357381Y-13923286D01*
X13347857Y-13961381D01*
X13338333Y-13980428D01*
X13328809Y-13989952D01*
X13309762Y-13999476D01*
X13290714Y-13999476D01*
X13271667Y-13989952D01*
X13262143Y-13980428D01*
X13252619Y-13961381D01*
X13243095Y-13923286D01*
X13243095Y-13875667D01*
X13252619Y-13837571D01*
X13262143Y-13818524D01*
X13271667Y-13809000D01*
X13290714Y-13799476D01*
X13443095Y-13980428D02*
X13452619Y-13989952D01*
X13443095Y-13999476D01*
X13433571Y-13989952D01*
X13443095Y-13980428D01*
X13443095Y-13999476D01*
X13633571Y-13799476D02*
X13538333Y-13799476D01*
X13528809Y-13894714D01*
X13538333Y-13885190D01*
X13557381Y-13875667D01*
X13605000Y-13875667D01*
X13624048Y-13885190D01*
X13633571Y-13894714D01*
X13643095Y-13913762D01*
X13643095Y-13961381D01*
X13633571Y-13980428D01*
X13624048Y-13989952D01*
X13605000Y-13999476D01*
X13557381Y-13999476D01*
X13538333Y-13989952D01*
X13528809Y-13980428D01*
X13766905Y-13799476D02*
X13785952Y-13799476D01*
X13805000Y-13809000D01*
X13814524Y-13818524D01*
X13824048Y-13837571D01*
X13833571Y-13875667D01*
X13833571Y-13923286D01*
X13824048Y-13961381D01*
X13814524Y-13980428D01*
X13805000Y-13989952D01*
X13785952Y-13999476D01*
X13766905Y-13999476D01*
X13747857Y-13989952D01*
X13738333Y-13980428D01*
X13728809Y-13961381D01*
X13719286Y-13923286D01*
X13719286Y-13875667D01*
X13728809Y-13837571D01*
X13738333Y-13818524D01*
X13747857Y-13809000D01*
X13766905Y-13799476D01*
X13957381Y-13799476D02*
X13976428Y-13799476D01*
X13995476Y-13809000D01*
X14005000Y-13818524D01*
X14014524Y-13837571D01*
X14024048Y-13875667D01*
X14024048Y-13923286D01*
X14014524Y-13961381D01*
X14005000Y-13980428D01*
X13995476Y-13989952D01*
X13976428Y-13999476D01*
X13957381Y-13999476D01*
X13938333Y-13989952D01*
X13928809Y-13980428D01*
X13919286Y-13961381D01*
X13909762Y-13923286D01*
X13909762Y-13875667D01*
X13919286Y-13837571D01*
X13928809Y-13818524D01*
X13938333Y-13809000D01*
X13957381Y-13799476D01*
X14109762Y-13999476D02*
X14109762Y-13866143D01*
X14109762Y-13885190D02*
X14119286Y-13875667D01*
X14138333Y-13866143D01*
X14166905Y-13866143D01*
X14185952Y-13875667D01*
X14195476Y-13894714D01*
X14195476Y-13999476D01*
X14195476Y-13894714D02*
X14205000Y-13875667D01*
X14224048Y-13866143D01*
X14252619Y-13866143D01*
X14271667Y-13875667D01*
X14281190Y-13894714D01*
X14281190Y-13999476D01*
X14376428Y-13999476D02*
X14376428Y-13866143D01*
X14376428Y-13885190D02*
X14385952Y-13875667D01*
X14405000Y-13866143D01*
X14433571Y-13866143D01*
X14452619Y-13875667D01*
X14462143Y-13894714D01*
X14462143Y-13999476D01*
X14462143Y-13894714D02*
X14471667Y-13875667D01*
X14490714Y-13866143D01*
X14519286Y-13866143D01*
X14538333Y-13875667D01*
X14547857Y-13894714D01*
X14547857Y-13999476D01*
X14938333Y-13789952D02*
X14766905Y-14047095D01*
X15195476Y-13799476D02*
X15214524Y-13799476D01*
X15233571Y-13809000D01*
X15243095Y-13818524D01*
X15252619Y-13837571D01*
X15262143Y-13875667D01*
X15262143Y-13923286D01*
X15252619Y-13961381D01*
X15243095Y-13980428D01*
X15233571Y-13989952D01*
X15214524Y-13999476D01*
X15195476Y-13999476D01*
X15176428Y-13989952D01*
X15166905Y-13980428D01*
X15157381Y-13961381D01*
X15147857Y-13923286D01*
X15147857Y-13875667D01*
X15157381Y-13837571D01*
X15166905Y-13818524D01*
X15176428Y-13809000D01*
X15195476Y-13799476D01*
X15347857Y-13980428D02*
X15357381Y-13989952D01*
X15347857Y-13999476D01*
X15338333Y-13989952D01*
X15347857Y-13980428D01*
X15347857Y-13999476D01*
X15481190Y-13799476D02*
X15500238Y-13799476D01*
X15519286Y-13809000D01*
X15528809Y-13818524D01*
X15538333Y-13837571D01*
X15547857Y-13875667D01*
X15547857Y-13923286D01*
X15538333Y-13961381D01*
X15528809Y-13980428D01*
X15519286Y-13989952D01*
X15500238Y-13999476D01*
X15481190Y-13999476D01*
X15462143Y-13989952D01*
X15452619Y-13980428D01*
X15443095Y-13961381D01*
X15433571Y-13923286D01*
X15433571Y-13875667D01*
X15443095Y-13837571D01*
X15452619Y-13818524D01*
X15462143Y-13809000D01*
X15481190Y-13799476D01*
X15738333Y-13999476D02*
X15624048Y-13999476D01*
X15681190Y-13999476D02*
X15681190Y-13799476D01*
X15662143Y-13828048D01*
X15643095Y-13847095D01*
X15624048Y-13856619D01*
X15833571Y-13999476D02*
X15871667Y-13999476D01*
X15890714Y-13989952D01*
X15900238Y-13980428D01*
X15919286Y-13951857D01*
X15928809Y-13913762D01*
X15928809Y-13837571D01*
X15919286Y-13818524D01*
X15909762Y-13809000D01*
X15890714Y-13799476D01*
X15852619Y-13799476D01*
X15833571Y-13809000D01*
X15824048Y-13818524D01*
X15814524Y-13837571D01*
X15814524Y-13885190D01*
X15824048Y-13904238D01*
X15833571Y-13913762D01*
X15852619Y-13923286D01*
X15890714Y-13923286D01*
X15909762Y-13913762D01*
X15919286Y-13904238D01*
X15928809Y-13885190D01*
X15995476Y-13799476D02*
X16128809Y-13799476D01*
X16043095Y-13999476D01*
X16195476Y-13799476D02*
X16195476Y-13837571D01*
X16271667Y-13799476D02*
X16271667Y-13837571D01*
X16566905Y-14075667D02*
X16557381Y-14066143D01*
X16538333Y-14037571D01*
X16528809Y-14018524D01*
X16519286Y-13989952D01*
X16509762Y-13942333D01*
X16509762Y-13904238D01*
X16519286Y-13856619D01*
X16528809Y-13828048D01*
X16538333Y-13809000D01*
X16557381Y-13780428D01*
X16566905Y-13770905D01*
X16728809Y-13866143D02*
X16728809Y-13999476D01*
X16681190Y-13789952D02*
X16633571Y-13932809D01*
X16757381Y-13932809D01*
X16985952Y-13999476D02*
X16985952Y-13799476D01*
X17071667Y-13999476D02*
X17071667Y-13894714D01*
X17062143Y-13875667D01*
X17043095Y-13866143D01*
X17014524Y-13866143D01*
X16995476Y-13875667D01*
X16985952Y-13885190D01*
X17195476Y-13999476D02*
X17176429Y-13989952D01*
X17166905Y-13980428D01*
X17157381Y-13961381D01*
X17157381Y-13904238D01*
X17166905Y-13885190D01*
X17176429Y-13875667D01*
X17195476Y-13866143D01*
X17224048Y-13866143D01*
X17243095Y-13875667D01*
X17252619Y-13885190D01*
X17262143Y-13904238D01*
X17262143Y-13961381D01*
X17252619Y-13980428D01*
X17243095Y-13989952D01*
X17224048Y-13999476D01*
X17195476Y-13999476D01*
X17376429Y-13999476D02*
X17357381Y-13989952D01*
X17347857Y-13970905D01*
X17347857Y-13799476D01*
X17528810Y-13989952D02*
X17509762Y-13999476D01*
X17471667Y-13999476D01*
X17452619Y-13989952D01*
X17443095Y-13970905D01*
X17443095Y-13894714D01*
X17452619Y-13875667D01*
X17471667Y-13866143D01*
X17509762Y-13866143D01*
X17528810Y-13875667D01*
X17538333Y-13894714D01*
X17538333Y-13913762D01*
X17443095Y-13932809D01*
X17614524Y-13989952D02*
X17633571Y-13999476D01*
X17671667Y-13999476D01*
X17690714Y-13989952D01*
X17700238Y-13970905D01*
X17700238Y-13961381D01*
X17690714Y-13942333D01*
X17671667Y-13932809D01*
X17643095Y-13932809D01*
X17624048Y-13923286D01*
X17614524Y-13904238D01*
X17614524Y-13894714D01*
X17624048Y-13875667D01*
X17643095Y-13866143D01*
X17671667Y-13866143D01*
X17690714Y-13875667D01*
X17766905Y-14075667D02*
X17776429Y-14066143D01*
X17795476Y-14037571D01*
X17805000Y-14018524D01*
X17814524Y-13989952D01*
X17824048Y-13942333D01*
X17824048Y-13904238D01*
X17814524Y-13856619D01*
X17805000Y-13828048D01*
X17795476Y-13809000D01*
X17776429Y-13780428D01*
X17766905Y-13770905D01*
D14*
X12960000Y-14138000D02*
X12960000Y-14208000D01*
X12925000Y-14173000D02*
X12995000Y-14173000D01*
D11*
X13290714Y-14063476D02*
X13309762Y-14063476D01*
X13328809Y-14073000D01*
X13338333Y-14082524D01*
X13347857Y-14101571D01*
X13357381Y-14139667D01*
X13357381Y-14187286D01*
X13347857Y-14225381D01*
X13338333Y-14244428D01*
X13328809Y-14253952D01*
X13309762Y-14263476D01*
X13290714Y-14263476D01*
X13271667Y-14253952D01*
X13262143Y-14244428D01*
X13252619Y-14225381D01*
X13243095Y-14187286D01*
X13243095Y-14139667D01*
X13252619Y-14101571D01*
X13262143Y-14082524D01*
X13271667Y-14073000D01*
X13290714Y-14063476D01*
X13443095Y-14244428D02*
X13452619Y-14253952D01*
X13443095Y-14263476D01*
X13433571Y-14253952D01*
X13443095Y-14244428D01*
X13443095Y-14263476D01*
X13519286Y-14063476D02*
X13652619Y-14063476D01*
X13566905Y-14263476D01*
X13766905Y-14063476D02*
X13785952Y-14063476D01*
X13805000Y-14073000D01*
X13814524Y-14082524D01*
X13824048Y-14101571D01*
X13833571Y-14139667D01*
X13833571Y-14187286D01*
X13824048Y-14225381D01*
X13814524Y-14244428D01*
X13805000Y-14253952D01*
X13785952Y-14263476D01*
X13766905Y-14263476D01*
X13747857Y-14253952D01*
X13738333Y-14244428D01*
X13728809Y-14225381D01*
X13719286Y-14187286D01*
X13719286Y-14139667D01*
X13728809Y-14101571D01*
X13738333Y-14082524D01*
X13747857Y-14073000D01*
X13766905Y-14063476D01*
X13957381Y-14063476D02*
X13976428Y-14063476D01*
X13995476Y-14073000D01*
X14005000Y-14082524D01*
X14014524Y-14101571D01*
X14024048Y-14139667D01*
X14024048Y-14187286D01*
X14014524Y-14225381D01*
X14005000Y-14244428D01*
X13995476Y-14253952D01*
X13976428Y-14263476D01*
X13957381Y-14263476D01*
X13938333Y-14253952D01*
X13928809Y-14244428D01*
X13919286Y-14225381D01*
X13909762Y-14187286D01*
X13909762Y-14139667D01*
X13919286Y-14101571D01*
X13928809Y-14082524D01*
X13938333Y-14073000D01*
X13957381Y-14063476D01*
X14109762Y-14263476D02*
X14109762Y-14130143D01*
X14109762Y-14149190D02*
X14119286Y-14139667D01*
X14138333Y-14130143D01*
X14166905Y-14130143D01*
X14185952Y-14139667D01*
X14195476Y-14158714D01*
X14195476Y-14263476D01*
X14195476Y-14158714D02*
X14205000Y-14139667D01*
X14224048Y-14130143D01*
X14252619Y-14130143D01*
X14271667Y-14139667D01*
X14281190Y-14158714D01*
X14281190Y-14263476D01*
X14376428Y-14263476D02*
X14376428Y-14130143D01*
X14376428Y-14149190D02*
X14385952Y-14139667D01*
X14405000Y-14130143D01*
X14433571Y-14130143D01*
X14452619Y-14139667D01*
X14462143Y-14158714D01*
X14462143Y-14263476D01*
X14462143Y-14158714D02*
X14471667Y-14139667D01*
X14490714Y-14130143D01*
X14519286Y-14130143D01*
X14538333Y-14139667D01*
X14547857Y-14158714D01*
X14547857Y-14263476D01*
X14938333Y-14053952D02*
X14766905Y-14311095D01*
X15195476Y-14063476D02*
X15214524Y-14063476D01*
X15233571Y-14073000D01*
X15243095Y-14082524D01*
X15252619Y-14101571D01*
X15262143Y-14139667D01*
X15262143Y-14187286D01*
X15252619Y-14225381D01*
X15243095Y-14244428D01*
X15233571Y-14253952D01*
X15214524Y-14263476D01*
X15195476Y-14263476D01*
X15176428Y-14253952D01*
X15166905Y-14244428D01*
X15157381Y-14225381D01*
X15147857Y-14187286D01*
X15147857Y-14139667D01*
X15157381Y-14101571D01*
X15166905Y-14082524D01*
X15176428Y-14073000D01*
X15195476Y-14063476D01*
X15347857Y-14244428D02*
X15357381Y-14253952D01*
X15347857Y-14263476D01*
X15338333Y-14253952D01*
X15347857Y-14244428D01*
X15347857Y-14263476D01*
X15481190Y-14063476D02*
X15500238Y-14063476D01*
X15519286Y-14073000D01*
X15528809Y-14082524D01*
X15538333Y-14101571D01*
X15547857Y-14139667D01*
X15547857Y-14187286D01*
X15538333Y-14225381D01*
X15528809Y-14244428D01*
X15519286Y-14253952D01*
X15500238Y-14263476D01*
X15481190Y-14263476D01*
X15462143Y-14253952D01*
X15452619Y-14244428D01*
X15443095Y-14225381D01*
X15433571Y-14187286D01*
X15433571Y-14139667D01*
X15443095Y-14101571D01*
X15452619Y-14082524D01*
X15462143Y-14073000D01*
X15481190Y-14063476D01*
X15624048Y-14082524D02*
X15633571Y-14073000D01*
X15652619Y-14063476D01*
X15700238Y-14063476D01*
X15719286Y-14073000D01*
X15728809Y-14082524D01*
X15738333Y-14101571D01*
X15738333Y-14120619D01*
X15728809Y-14149190D01*
X15614524Y-14263476D01*
X15738333Y-14263476D01*
X15805000Y-14063476D02*
X15938333Y-14063476D01*
X15852619Y-14263476D01*
X16100238Y-14063476D02*
X16062143Y-14063476D01*
X16043095Y-14073000D01*
X16033571Y-14082524D01*
X16014524Y-14111095D01*
X16005000Y-14149190D01*
X16005000Y-14225381D01*
X16014524Y-14244428D01*
X16024048Y-14253952D01*
X16043095Y-14263476D01*
X16081190Y-14263476D01*
X16100238Y-14253952D01*
X16109762Y-14244428D01*
X16119286Y-14225381D01*
X16119286Y-14177762D01*
X16109762Y-14158714D01*
X16100238Y-14149190D01*
X16081190Y-14139667D01*
X16043095Y-14139667D01*
X16024048Y-14149190D01*
X16014524Y-14158714D01*
X16005000Y-14177762D01*
X16195476Y-14063476D02*
X16195476Y-14101571D01*
X16271667Y-14063476D02*
X16271667Y-14101571D01*
X16566905Y-14339667D02*
X16557381Y-14330143D01*
X16538333Y-14301571D01*
X16528809Y-14282524D01*
X16519286Y-14253952D01*
X16509762Y-14206333D01*
X16509762Y-14168238D01*
X16519286Y-14120619D01*
X16528809Y-14092048D01*
X16538333Y-14073000D01*
X16557381Y-14044428D01*
X16566905Y-14034905D01*
X16671667Y-14149190D02*
X16652619Y-14139667D01*
X16643095Y-14130143D01*
X16633571Y-14111095D01*
X16633571Y-14101571D01*
X16643095Y-14082524D01*
X16652619Y-14073000D01*
X16671667Y-14063476D01*
X16709762Y-14063476D01*
X16728809Y-14073000D01*
X16738333Y-14082524D01*
X16747857Y-14101571D01*
X16747857Y-14111095D01*
X16738333Y-14130143D01*
X16728809Y-14139667D01*
X16709762Y-14149190D01*
X16671667Y-14149190D01*
X16652619Y-14158714D01*
X16643095Y-14168238D01*
X16633571Y-14187286D01*
X16633571Y-14225381D01*
X16643095Y-14244428D01*
X16652619Y-14253952D01*
X16671667Y-14263476D01*
X16709762Y-14263476D01*
X16728809Y-14253952D01*
X16738333Y-14244428D01*
X16747857Y-14225381D01*
X16747857Y-14187286D01*
X16738333Y-14168238D01*
X16728809Y-14158714D01*
X16709762Y-14149190D01*
X16985952Y-14263476D02*
X16985952Y-14063476D01*
X17071667Y-14263476D02*
X17071667Y-14158714D01*
X17062143Y-14139667D01*
X17043095Y-14130143D01*
X17014524Y-14130143D01*
X16995476Y-14139667D01*
X16985952Y-14149190D01*
X17195476Y-14263476D02*
X17176429Y-14253952D01*
X17166905Y-14244428D01*
X17157381Y-14225381D01*
X17157381Y-14168238D01*
X17166905Y-14149190D01*
X17176429Y-14139667D01*
X17195476Y-14130143D01*
X17224048Y-14130143D01*
X17243095Y-14139667D01*
X17252619Y-14149190D01*
X17262143Y-14168238D01*
X17262143Y-14225381D01*
X17252619Y-14244428D01*
X17243095Y-14253952D01*
X17224048Y-14263476D01*
X17195476Y-14263476D01*
X17376429Y-14263476D02*
X17357381Y-14253952D01*
X17347857Y-14234905D01*
X17347857Y-14063476D01*
X17528810Y-14253952D02*
X17509762Y-14263476D01*
X17471667Y-14263476D01*
X17452619Y-14253952D01*
X17443095Y-14234905D01*
X17443095Y-14158714D01*
X17452619Y-14139667D01*
X17471667Y-14130143D01*
X17509762Y-14130143D01*
X17528810Y-14139667D01*
X17538333Y-14158714D01*
X17538333Y-14177762D01*
X17443095Y-14196809D01*
X17614524Y-14253952D02*
X17633571Y-14263476D01*
X17671667Y-14263476D01*
X17690714Y-14253952D01*
X17700238Y-14234905D01*
X17700238Y-14225381D01*
X17690714Y-14206333D01*
X17671667Y-14196809D01*
X17643095Y-14196809D01*
X17624048Y-14187286D01*
X17614524Y-14168238D01*
X17614524Y-14158714D01*
X17624048Y-14139667D01*
X17643095Y-14130143D01*
X17671667Y-14130143D01*
X17690714Y-14139667D01*
X17766905Y-14339667D02*
X17776429Y-14330143D01*
X17795476Y-14301571D01*
X17805000Y-14282524D01*
X17814524Y-14253952D01*
X17824048Y-14206333D01*
X17824048Y-14168238D01*
X17814524Y-14120619D01*
X17805000Y-14092048D01*
X17795476Y-14073000D01*
X17776429Y-14044428D01*
X17766905Y-14034905D01*
D15*
X12983284Y-14465284D02*
X12983284Y-14408715D01*
X12926715Y-14408715D01*
X12926715Y-14465284D01*
X12983284Y-14465284D01*
D11*
X13290714Y-14327476D02*
X13309762Y-14327476D01*
X13328809Y-14337000D01*
X13338333Y-14346524D01*
X13347857Y-14365571D01*
X13357381Y-14403667D01*
X13357381Y-14451286D01*
X13347857Y-14489381D01*
X13338333Y-14508428D01*
X13328809Y-14517952D01*
X13309762Y-14527476D01*
X13290714Y-14527476D01*
X13271667Y-14517952D01*
X13262143Y-14508428D01*
X13252619Y-14489381D01*
X13243095Y-14451286D01*
X13243095Y-14403667D01*
X13252619Y-14365571D01*
X13262143Y-14346524D01*
X13271667Y-14337000D01*
X13290714Y-14327476D01*
X13443095Y-14508428D02*
X13452619Y-14517952D01*
X13443095Y-14527476D01*
X13433571Y-14517952D01*
X13443095Y-14508428D01*
X13443095Y-14527476D01*
X13566905Y-14413190D02*
X13547857Y-14403667D01*
X13538333Y-14394143D01*
X13528809Y-14375095D01*
X13528809Y-14365571D01*
X13538333Y-14346524D01*
X13547857Y-14337000D01*
X13566905Y-14327476D01*
X13605000Y-14327476D01*
X13624048Y-14337000D01*
X13633571Y-14346524D01*
X13643095Y-14365571D01*
X13643095Y-14375095D01*
X13633571Y-14394143D01*
X13624048Y-14403667D01*
X13605000Y-14413190D01*
X13566905Y-14413190D01*
X13547857Y-14422714D01*
X13538333Y-14432238D01*
X13528809Y-14451286D01*
X13528809Y-14489381D01*
X13538333Y-14508428D01*
X13547857Y-14517952D01*
X13566905Y-14527476D01*
X13605000Y-14527476D01*
X13624048Y-14517952D01*
X13633571Y-14508428D01*
X13643095Y-14489381D01*
X13643095Y-14451286D01*
X13633571Y-14432238D01*
X13624048Y-14422714D01*
X13605000Y-14413190D01*
X13766905Y-14327476D02*
X13785952Y-14327476D01*
X13805000Y-14337000D01*
X13814524Y-14346524D01*
X13824048Y-14365571D01*
X13833571Y-14403667D01*
X13833571Y-14451286D01*
X13824048Y-14489381D01*
X13814524Y-14508428D01*
X13805000Y-14517952D01*
X13785952Y-14527476D01*
X13766905Y-14527476D01*
X13747857Y-14517952D01*
X13738333Y-14508428D01*
X13728809Y-14489381D01*
X13719286Y-14451286D01*
X13719286Y-14403667D01*
X13728809Y-14365571D01*
X13738333Y-14346524D01*
X13747857Y-14337000D01*
X13766905Y-14327476D01*
X13957381Y-14327476D02*
X13976428Y-14327476D01*
X13995476Y-14337000D01*
X14005000Y-14346524D01*
X14014524Y-14365571D01*
X14024048Y-14403667D01*
X14024048Y-14451286D01*
X14014524Y-14489381D01*
X14005000Y-14508428D01*
X13995476Y-14517952D01*
X13976428Y-14527476D01*
X13957381Y-14527476D01*
X13938333Y-14517952D01*
X13928809Y-14508428D01*
X13919286Y-14489381D01*
X13909762Y-14451286D01*
X13909762Y-14403667D01*
X13919286Y-14365571D01*
X13928809Y-14346524D01*
X13938333Y-14337000D01*
X13957381Y-14327476D01*
X14109762Y-14527476D02*
X14109762Y-14394143D01*
X14109762Y-14413190D02*
X14119286Y-14403667D01*
X14138333Y-14394143D01*
X14166905Y-14394143D01*
X14185952Y-14403667D01*
X14195476Y-14422714D01*
X14195476Y-14527476D01*
X14195476Y-14422714D02*
X14205000Y-14403667D01*
X14224048Y-14394143D01*
X14252619Y-14394143D01*
X14271667Y-14403667D01*
X14281190Y-14422714D01*
X14281190Y-14527476D01*
X14376428Y-14527476D02*
X14376428Y-14394143D01*
X14376428Y-14413190D02*
X14385952Y-14403667D01*
X14405000Y-14394143D01*
X14433571Y-14394143D01*
X14452619Y-14403667D01*
X14462143Y-14422714D01*
X14462143Y-14527476D01*
X14462143Y-14422714D02*
X14471667Y-14403667D01*
X14490714Y-14394143D01*
X14519286Y-14394143D01*
X14538333Y-14403667D01*
X14547857Y-14422714D01*
X14547857Y-14527476D01*
X14938333Y-14317952D02*
X14766905Y-14575095D01*
X15195476Y-14327476D02*
X15214524Y-14327476D01*
X15233571Y-14337000D01*
X15243095Y-14346524D01*
X15252619Y-14365571D01*
X15262143Y-14403667D01*
X15262143Y-14451286D01*
X15252619Y-14489381D01*
X15243095Y-14508428D01*
X15233571Y-14517952D01*
X15214524Y-14527476D01*
X15195476Y-14527476D01*
X15176428Y-14517952D01*
X15166905Y-14508428D01*
X15157381Y-14489381D01*
X15147857Y-14451286D01*
X15147857Y-14403667D01*
X15157381Y-14365571D01*
X15166905Y-14346524D01*
X15176428Y-14337000D01*
X15195476Y-14327476D01*
X15347857Y-14508428D02*
X15357381Y-14517952D01*
X15347857Y-14527476D01*
X15338333Y-14517952D01*
X15347857Y-14508428D01*
X15347857Y-14527476D01*
X15481190Y-14327476D02*
X15500238Y-14327476D01*
X15519286Y-14337000D01*
X15528809Y-14346524D01*
X15538333Y-14365571D01*
X15547857Y-14403667D01*
X15547857Y-14451286D01*
X15538333Y-14489381D01*
X15528809Y-14508428D01*
X15519286Y-14517952D01*
X15500238Y-14527476D01*
X15481190Y-14527476D01*
X15462143Y-14517952D01*
X15452619Y-14508428D01*
X15443095Y-14489381D01*
X15433571Y-14451286D01*
X15433571Y-14403667D01*
X15443095Y-14365571D01*
X15452619Y-14346524D01*
X15462143Y-14337000D01*
X15481190Y-14327476D01*
X15614524Y-14327476D02*
X15738333Y-14327476D01*
X15671667Y-14403667D01*
X15700238Y-14403667D01*
X15719286Y-14413190D01*
X15728809Y-14422714D01*
X15738333Y-14441762D01*
X15738333Y-14489381D01*
X15728809Y-14508428D01*
X15719286Y-14517952D01*
X15700238Y-14527476D01*
X15643095Y-14527476D01*
X15624048Y-14517952D01*
X15614524Y-14508428D01*
X15928809Y-14527476D02*
X15814524Y-14527476D01*
X15871667Y-14527476D02*
X15871667Y-14327476D01*
X15852619Y-14356048D01*
X15833571Y-14375095D01*
X15814524Y-14384619D01*
X16109762Y-14327476D02*
X16014524Y-14327476D01*
X16005000Y-14422714D01*
X16014524Y-14413190D01*
X16033571Y-14403667D01*
X16081190Y-14403667D01*
X16100238Y-14413190D01*
X16109762Y-14422714D01*
X16119286Y-14441762D01*
X16119286Y-14489381D01*
X16109762Y-14508428D01*
X16100238Y-14517952D01*
X16081190Y-14527476D01*
X16033571Y-14527476D01*
X16014524Y-14517952D01*
X16005000Y-14508428D01*
X16195476Y-14327476D02*
X16195476Y-14365571D01*
X16271667Y-14327476D02*
X16271667Y-14365571D01*
X16566905Y-14603667D02*
X16557381Y-14594143D01*
X16538333Y-14565571D01*
X16528809Y-14546524D01*
X16519286Y-14517952D01*
X16509762Y-14470333D01*
X16509762Y-14432238D01*
X16519286Y-14384619D01*
X16528809Y-14356048D01*
X16538333Y-14337000D01*
X16557381Y-14308428D01*
X16566905Y-14298905D01*
X16747857Y-14527476D02*
X16633571Y-14527476D01*
X16690714Y-14527476D02*
X16690714Y-14327476D01*
X16671667Y-14356048D01*
X16652619Y-14375095D01*
X16633571Y-14384619D01*
X16938333Y-14527476D02*
X16824048Y-14527476D01*
X16881190Y-14527476D02*
X16881190Y-14327476D01*
X16862143Y-14356048D01*
X16843095Y-14375095D01*
X16824048Y-14384619D01*
X17176429Y-14527476D02*
X17176429Y-14327476D01*
X17262143Y-14527476D02*
X17262143Y-14422714D01*
X17252619Y-14403667D01*
X17233571Y-14394143D01*
X17205000Y-14394143D01*
X17185952Y-14403667D01*
X17176429Y-14413190D01*
X17385952Y-14527476D02*
X17366905Y-14517952D01*
X17357381Y-14508428D01*
X17347857Y-14489381D01*
X17347857Y-14432238D01*
X17357381Y-14413190D01*
X17366905Y-14403667D01*
X17385952Y-14394143D01*
X17414524Y-14394143D01*
X17433571Y-14403667D01*
X17443095Y-14413190D01*
X17452619Y-14432238D01*
X17452619Y-14489381D01*
X17443095Y-14508428D01*
X17433571Y-14517952D01*
X17414524Y-14527476D01*
X17385952Y-14527476D01*
X17566905Y-14527476D02*
X17547857Y-14517952D01*
X17538333Y-14498905D01*
X17538333Y-14327476D01*
X17719286Y-14517952D02*
X17700238Y-14527476D01*
X17662143Y-14527476D01*
X17643095Y-14517952D01*
X17633571Y-14498905D01*
X17633571Y-14422714D01*
X17643095Y-14403667D01*
X17662143Y-14394143D01*
X17700238Y-14394143D01*
X17719286Y-14403667D01*
X17728810Y-14422714D01*
X17728810Y-14441762D01*
X17633571Y-14460809D01*
X17805000Y-14517952D02*
X17824048Y-14527476D01*
X17862143Y-14527476D01*
X17881190Y-14517952D01*
X17890714Y-14498905D01*
X17890714Y-14489381D01*
X17881190Y-14470333D01*
X17862143Y-14460809D01*
X17833571Y-14460809D01*
X17814524Y-14451286D01*
X17805000Y-14432238D01*
X17805000Y-14422714D01*
X17814524Y-14403667D01*
X17833571Y-14394143D01*
X17862143Y-14394143D01*
X17881190Y-14403667D01*
X17957381Y-14603667D02*
X17966905Y-14594143D01*
X17985952Y-14565571D01*
X17995476Y-14546524D01*
X18005000Y-14517952D01*
X18014524Y-14470333D01*
X18014524Y-14432238D01*
X18005000Y-14384619D01*
X17995476Y-14356048D01*
X17985952Y-14337000D01*
X17966905Y-14308428D01*
X17957381Y-14298905D01*
D16*
X12950000Y-14746000D02*
X12995000Y-14701000D01*
X12950000Y-14656000D01*
X12905000Y-14701000D01*
X12950000Y-14746000D01*
D11*
X13290714Y-14591476D02*
X13309762Y-14591476D01*
X13328809Y-14601000D01*
X13338333Y-14610524D01*
X13347857Y-14629571D01*
X13357381Y-14667667D01*
X13357381Y-14715286D01*
X13347857Y-14753381D01*
X13338333Y-14772428D01*
X13328809Y-14781952D01*
X13309762Y-14791476D01*
X13290714Y-14791476D01*
X13271667Y-14781952D01*
X13262143Y-14772428D01*
X13252619Y-14753381D01*
X13243095Y-14715286D01*
X13243095Y-14667667D01*
X13252619Y-14629571D01*
X13262143Y-14610524D01*
X13271667Y-14601000D01*
X13290714Y-14591476D01*
X13443095Y-14772428D02*
X13452619Y-14781952D01*
X13443095Y-14791476D01*
X13433571Y-14781952D01*
X13443095Y-14772428D01*
X13443095Y-14791476D01*
X13547857Y-14791476D02*
X13585952Y-14791476D01*
X13605000Y-14781952D01*
X13614524Y-14772428D01*
X13633571Y-14743857D01*
X13643095Y-14705762D01*
X13643095Y-14629571D01*
X13633571Y-14610524D01*
X13624048Y-14601000D01*
X13605000Y-14591476D01*
X13566905Y-14591476D01*
X13547857Y-14601000D01*
X13538333Y-14610524D01*
X13528809Y-14629571D01*
X13528809Y-14677190D01*
X13538333Y-14696238D01*
X13547857Y-14705762D01*
X13566905Y-14715286D01*
X13605000Y-14715286D01*
X13624048Y-14705762D01*
X13633571Y-14696238D01*
X13643095Y-14677190D01*
X13766905Y-14591476D02*
X13785952Y-14591476D01*
X13805000Y-14601000D01*
X13814524Y-14610524D01*
X13824048Y-14629571D01*
X13833571Y-14667667D01*
X13833571Y-14715286D01*
X13824048Y-14753381D01*
X13814524Y-14772428D01*
X13805000Y-14781952D01*
X13785952Y-14791476D01*
X13766905Y-14791476D01*
X13747857Y-14781952D01*
X13738333Y-14772428D01*
X13728809Y-14753381D01*
X13719286Y-14715286D01*
X13719286Y-14667667D01*
X13728809Y-14629571D01*
X13738333Y-14610524D01*
X13747857Y-14601000D01*
X13766905Y-14591476D01*
X13957381Y-14591476D02*
X13976428Y-14591476D01*
X13995476Y-14601000D01*
X14005000Y-14610524D01*
X14014524Y-14629571D01*
X14024048Y-14667667D01*
X14024048Y-14715286D01*
X14014524Y-14753381D01*
X14005000Y-14772428D01*
X13995476Y-14781952D01*
X13976428Y-14791476D01*
X13957381Y-14791476D01*
X13938333Y-14781952D01*
X13928809Y-14772428D01*
X13919286Y-14753381D01*
X13909762Y-14715286D01*
X13909762Y-14667667D01*
X13919286Y-14629571D01*
X13928809Y-14610524D01*
X13938333Y-14601000D01*
X13957381Y-14591476D01*
X14109762Y-14791476D02*
X14109762Y-14658143D01*
X14109762Y-14677190D02*
X14119286Y-14667667D01*
X14138333Y-14658143D01*
X14166905Y-14658143D01*
X14185952Y-14667667D01*
X14195476Y-14686714D01*
X14195476Y-14791476D01*
X14195476Y-14686714D02*
X14205000Y-14667667D01*
X14224048Y-14658143D01*
X14252619Y-14658143D01*
X14271667Y-14667667D01*
X14281190Y-14686714D01*
X14281190Y-14791476D01*
X14376428Y-14791476D02*
X14376428Y-14658143D01*
X14376428Y-14677190D02*
X14385952Y-14667667D01*
X14405000Y-14658143D01*
X14433571Y-14658143D01*
X14452619Y-14667667D01*
X14462143Y-14686714D01*
X14462143Y-14791476D01*
X14462143Y-14686714D02*
X14471667Y-14667667D01*
X14490714Y-14658143D01*
X14519286Y-14658143D01*
X14538333Y-14667667D01*
X14547857Y-14686714D01*
X14547857Y-14791476D01*
X14938333Y-14581952D02*
X14766905Y-14839095D01*
X15195476Y-14591476D02*
X15214524Y-14591476D01*
X15233571Y-14601000D01*
X15243095Y-14610524D01*
X15252619Y-14629571D01*
X15262143Y-14667667D01*
X15262143Y-14715286D01*
X15252619Y-14753381D01*
X15243095Y-14772428D01*
X15233571Y-14781952D01*
X15214524Y-14791476D01*
X15195476Y-14791476D01*
X15176428Y-14781952D01*
X15166905Y-14772428D01*
X15157381Y-14753381D01*
X15147857Y-14715286D01*
X15147857Y-14667667D01*
X15157381Y-14629571D01*
X15166905Y-14610524D01*
X15176428Y-14601000D01*
X15195476Y-14591476D01*
X15347857Y-14772428D02*
X15357381Y-14781952D01*
X15347857Y-14791476D01*
X15338333Y-14781952D01*
X15347857Y-14772428D01*
X15347857Y-14791476D01*
X15481190Y-14591476D02*
X15500238Y-14591476D01*
X15519286Y-14601000D01*
X15528809Y-14610524D01*
X15538333Y-14629571D01*
X15547857Y-14667667D01*
X15547857Y-14715286D01*
X15538333Y-14753381D01*
X15528809Y-14772428D01*
X15519286Y-14781952D01*
X15500238Y-14791476D01*
X15481190Y-14791476D01*
X15462143Y-14781952D01*
X15452619Y-14772428D01*
X15443095Y-14753381D01*
X15433571Y-14715286D01*
X15433571Y-14667667D01*
X15443095Y-14629571D01*
X15452619Y-14610524D01*
X15462143Y-14601000D01*
X15481190Y-14591476D01*
X15614524Y-14591476D02*
X15738333Y-14591476D01*
X15671667Y-14667667D01*
X15700238Y-14667667D01*
X15719286Y-14677190D01*
X15728809Y-14686714D01*
X15738333Y-14705762D01*
X15738333Y-14753381D01*
X15728809Y-14772428D01*
X15719286Y-14781952D01*
X15700238Y-14791476D01*
X15643095Y-14791476D01*
X15624048Y-14781952D01*
X15614524Y-14772428D01*
X15919286Y-14591476D02*
X15824048Y-14591476D01*
X15814524Y-14686714D01*
X15824048Y-14677190D01*
X15843095Y-14667667D01*
X15890714Y-14667667D01*
X15909762Y-14677190D01*
X15919286Y-14686714D01*
X15928809Y-14705762D01*
X15928809Y-14753381D01*
X15919286Y-14772428D01*
X15909762Y-14781952D01*
X15890714Y-14791476D01*
X15843095Y-14791476D01*
X15824048Y-14781952D01*
X15814524Y-14772428D01*
X16100238Y-14658143D02*
X16100238Y-14791476D01*
X16052619Y-14581952D02*
X16005000Y-14724809D01*
X16128809Y-14724809D01*
X16195476Y-14591476D02*
X16195476Y-14629571D01*
X16271667Y-14591476D02*
X16271667Y-14629571D01*
X16566905Y-14867667D02*
X16557381Y-14858143D01*
X16538333Y-14829571D01*
X16528809Y-14810524D01*
X16519286Y-14781952D01*
X16509762Y-14734333D01*
X16509762Y-14696238D01*
X16519286Y-14648619D01*
X16528809Y-14620048D01*
X16538333Y-14601000D01*
X16557381Y-14572428D01*
X16566905Y-14562905D01*
X16738333Y-14591476D02*
X16643095Y-14591476D01*
X16633571Y-14686714D01*
X16643095Y-14677190D01*
X16662143Y-14667667D01*
X16709762Y-14667667D01*
X16728809Y-14677190D01*
X16738333Y-14686714D01*
X16747857Y-14705762D01*
X16747857Y-14753381D01*
X16738333Y-14772428D01*
X16728809Y-14781952D01*
X16709762Y-14791476D01*
X16662143Y-14791476D01*
X16643095Y-14781952D01*
X16633571Y-14772428D01*
X16985952Y-14791476D02*
X16985952Y-14591476D01*
X17071667Y-14791476D02*
X17071667Y-14686714D01*
X17062143Y-14667667D01*
X17043095Y-14658143D01*
X17014524Y-14658143D01*
X16995476Y-14667667D01*
X16985952Y-14677190D01*
X17195476Y-14791476D02*
X17176429Y-14781952D01*
X17166905Y-14772428D01*
X17157381Y-14753381D01*
X17157381Y-14696238D01*
X17166905Y-14677190D01*
X17176429Y-14667667D01*
X17195476Y-14658143D01*
X17224048Y-14658143D01*
X17243095Y-14667667D01*
X17252619Y-14677190D01*
X17262143Y-14696238D01*
X17262143Y-14753381D01*
X17252619Y-14772428D01*
X17243095Y-14781952D01*
X17224048Y-14791476D01*
X17195476Y-14791476D01*
X17376429Y-14791476D02*
X17357381Y-14781952D01*
X17347857Y-14762905D01*
X17347857Y-14591476D01*
X17528810Y-14781952D02*
X17509762Y-14791476D01*
X17471667Y-14791476D01*
X17452619Y-14781952D01*
X17443095Y-14762905D01*
X17443095Y-14686714D01*
X17452619Y-14667667D01*
X17471667Y-14658143D01*
X17509762Y-14658143D01*
X17528810Y-14667667D01*
X17538333Y-14686714D01*
X17538333Y-14705762D01*
X17443095Y-14724809D01*
X17614524Y-14781952D02*
X17633571Y-14791476D01*
X17671667Y-14791476D01*
X17690714Y-14781952D01*
X17700238Y-14762905D01*
X17700238Y-14753381D01*
X17690714Y-14734333D01*
X17671667Y-14724809D01*
X17643095Y-14724809D01*
X17624048Y-14715286D01*
X17614524Y-14696238D01*
X17614524Y-14686714D01*
X17624048Y-14667667D01*
X17643095Y-14658143D01*
X17671667Y-14658143D01*
X17690714Y-14667667D01*
X17766905Y-14867667D02*
X17776429Y-14858143D01*
X17795476Y-14829571D01*
X17805000Y-14810524D01*
X17814524Y-14781952D01*
X17824048Y-14734333D01*
X17824048Y-14696238D01*
X17814524Y-14648619D01*
X17805000Y-14620048D01*
X17795476Y-14601000D01*
X17776429Y-14572428D01*
X17766905Y-14562905D01*
D10*
X12895000Y-14915000D02*
X12995000Y-15015000D01*
X12995000Y-14915000D02*
X12895000Y-15015000D01*
X12995000Y-14965000D02*
G75*
G03*
X12995000Y-14965000I-50000J0D01*
G01*
D11*
X13357381Y-15055476D02*
X13243095Y-15055476D01*
X13300238Y-15055476D02*
X13300238Y-14855476D01*
X13281190Y-14884048D01*
X13262143Y-14903095D01*
X13243095Y-14912619D01*
X13443095Y-15036428D02*
X13452619Y-15045952D01*
X13443095Y-15055476D01*
X13433571Y-15045952D01*
X13443095Y-15036428D01*
X13443095Y-15055476D01*
X13576428Y-14855476D02*
X13595476Y-14855476D01*
X13614524Y-14865000D01*
X13624048Y-14874524D01*
X13633571Y-14893571D01*
X13643095Y-14931667D01*
X13643095Y-14979286D01*
X13633571Y-15017381D01*
X13624048Y-15036428D01*
X13614524Y-15045952D01*
X13595476Y-15055476D01*
X13576428Y-15055476D01*
X13557381Y-15045952D01*
X13547857Y-15036428D01*
X13538333Y-15017381D01*
X13528809Y-14979286D01*
X13528809Y-14931667D01*
X13538333Y-14893571D01*
X13547857Y-14874524D01*
X13557381Y-14865000D01*
X13576428Y-14855476D01*
X13766905Y-14855476D02*
X13785952Y-14855476D01*
X13805000Y-14865000D01*
X13814524Y-14874524D01*
X13824048Y-14893571D01*
X13833571Y-14931667D01*
X13833571Y-14979286D01*
X13824048Y-15017381D01*
X13814524Y-15036428D01*
X13805000Y-15045952D01*
X13785952Y-15055476D01*
X13766905Y-15055476D01*
X13747857Y-15045952D01*
X13738333Y-15036428D01*
X13728809Y-15017381D01*
X13719286Y-14979286D01*
X13719286Y-14931667D01*
X13728809Y-14893571D01*
X13738333Y-14874524D01*
X13747857Y-14865000D01*
X13766905Y-14855476D01*
X13957381Y-14855476D02*
X13976428Y-14855476D01*
X13995476Y-14865000D01*
X14005000Y-14874524D01*
X14014524Y-14893571D01*
X14024048Y-14931667D01*
X14024048Y-14979286D01*
X14014524Y-15017381D01*
X14005000Y-15036428D01*
X13995476Y-15045952D01*
X13976428Y-15055476D01*
X13957381Y-15055476D01*
X13938333Y-15045952D01*
X13928809Y-15036428D01*
X13919286Y-15017381D01*
X13909762Y-14979286D01*
X13909762Y-14931667D01*
X13919286Y-14893571D01*
X13928809Y-14874524D01*
X13938333Y-14865000D01*
X13957381Y-14855476D01*
X14109762Y-15055476D02*
X14109762Y-14922143D01*
X14109762Y-14941190D02*
X14119286Y-14931667D01*
X14138333Y-14922143D01*
X14166905Y-14922143D01*
X14185952Y-14931667D01*
X14195476Y-14950714D01*
X14195476Y-15055476D01*
X14195476Y-14950714D02*
X14205000Y-14931667D01*
X14224048Y-14922143D01*
X14252619Y-14922143D01*
X14271667Y-14931667D01*
X14281190Y-14950714D01*
X14281190Y-15055476D01*
X14376428Y-15055476D02*
X14376428Y-14922143D01*
X14376428Y-14941190D02*
X14385952Y-14931667D01*
X14405000Y-14922143D01*
X14433571Y-14922143D01*
X14452619Y-14931667D01*
X14462143Y-14950714D01*
X14462143Y-15055476D01*
X14462143Y-14950714D02*
X14471667Y-14931667D01*
X14490714Y-14922143D01*
X14519286Y-14922143D01*
X14538333Y-14931667D01*
X14547857Y-14950714D01*
X14547857Y-15055476D01*
X14938333Y-14845952D02*
X14766905Y-15103095D01*
X15195476Y-14855476D02*
X15214524Y-14855476D01*
X15233571Y-14865000D01*
X15243095Y-14874524D01*
X15252619Y-14893571D01*
X15262143Y-14931667D01*
X15262143Y-14979286D01*
X15252619Y-15017381D01*
X15243095Y-15036428D01*
X15233571Y-15045952D01*
X15214524Y-15055476D01*
X15195476Y-15055476D01*
X15176428Y-15045952D01*
X15166905Y-15036428D01*
X15157381Y-15017381D01*
X15147857Y-14979286D01*
X15147857Y-14931667D01*
X15157381Y-14893571D01*
X15166905Y-14874524D01*
X15176428Y-14865000D01*
X15195476Y-14855476D01*
X15347857Y-15036428D02*
X15357381Y-15045952D01*
X15347857Y-15055476D01*
X15338333Y-15045952D01*
X15347857Y-15036428D01*
X15347857Y-15055476D01*
X15481190Y-14855476D02*
X15500238Y-14855476D01*
X15519286Y-14865000D01*
X15528809Y-14874524D01*
X15538333Y-14893571D01*
X15547857Y-14931667D01*
X15547857Y-14979286D01*
X15538333Y-15017381D01*
X15528809Y-15036428D01*
X15519286Y-15045952D01*
X15500238Y-15055476D01*
X15481190Y-15055476D01*
X15462143Y-15045952D01*
X15452619Y-15036428D01*
X15443095Y-15017381D01*
X15433571Y-14979286D01*
X15433571Y-14931667D01*
X15443095Y-14893571D01*
X15452619Y-14874524D01*
X15462143Y-14865000D01*
X15481190Y-14855476D01*
X15614524Y-14855476D02*
X15738333Y-14855476D01*
X15671667Y-14931667D01*
X15700238Y-14931667D01*
X15719286Y-14941190D01*
X15728809Y-14950714D01*
X15738333Y-14969762D01*
X15738333Y-15017381D01*
X15728809Y-15036428D01*
X15719286Y-15045952D01*
X15700238Y-15055476D01*
X15643095Y-15055476D01*
X15624048Y-15045952D01*
X15614524Y-15036428D01*
X15833571Y-15055476D02*
X15871667Y-15055476D01*
X15890714Y-15045952D01*
X15900238Y-15036428D01*
X15919286Y-15007857D01*
X15928809Y-14969762D01*
X15928809Y-14893571D01*
X15919286Y-14874524D01*
X15909762Y-14865000D01*
X15890714Y-14855476D01*
X15852619Y-14855476D01*
X15833571Y-14865000D01*
X15824048Y-14874524D01*
X15814524Y-14893571D01*
X15814524Y-14941190D01*
X15824048Y-14960238D01*
X15833571Y-14969762D01*
X15852619Y-14979286D01*
X15890714Y-14979286D01*
X15909762Y-14969762D01*
X15919286Y-14960238D01*
X15928809Y-14941190D01*
X16100238Y-14922143D02*
X16100238Y-15055476D01*
X16052619Y-14845952D02*
X16005000Y-14988809D01*
X16128809Y-14988809D01*
X16195476Y-14855476D02*
X16195476Y-14893571D01*
X16271667Y-14855476D02*
X16271667Y-14893571D01*
X16566905Y-15131667D02*
X16557381Y-15122143D01*
X16538333Y-15093571D01*
X16528809Y-15074524D01*
X16519286Y-15045952D01*
X16509762Y-14998333D01*
X16509762Y-14960238D01*
X16519286Y-14912619D01*
X16528809Y-14884048D01*
X16538333Y-14865000D01*
X16557381Y-14836428D01*
X16566905Y-14826905D01*
X16728809Y-14855476D02*
X16690714Y-14855476D01*
X16671667Y-14865000D01*
X16662143Y-14874524D01*
X16643095Y-14903095D01*
X16633571Y-14941190D01*
X16633571Y-15017381D01*
X16643095Y-15036428D01*
X16652619Y-15045952D01*
X16671667Y-15055476D01*
X16709762Y-15055476D01*
X16728809Y-15045952D01*
X16738333Y-15036428D01*
X16747857Y-15017381D01*
X16747857Y-14969762D01*
X16738333Y-14950714D01*
X16728809Y-14941190D01*
X16709762Y-14931667D01*
X16671667Y-14931667D01*
X16652619Y-14941190D01*
X16643095Y-14950714D01*
X16633571Y-14969762D01*
X16862143Y-14941190D02*
X16843095Y-14931667D01*
X16833571Y-14922143D01*
X16824048Y-14903095D01*
X16824048Y-14893571D01*
X16833571Y-14874524D01*
X16843095Y-14865000D01*
X16862143Y-14855476D01*
X16900238Y-14855476D01*
X16919286Y-14865000D01*
X16928810Y-14874524D01*
X16938333Y-14893571D01*
X16938333Y-14903095D01*
X16928810Y-14922143D01*
X16919286Y-14931667D01*
X16900238Y-14941190D01*
X16862143Y-14941190D01*
X16843095Y-14950714D01*
X16833571Y-14960238D01*
X16824048Y-14979286D01*
X16824048Y-15017381D01*
X16833571Y-15036428D01*
X16843095Y-15045952D01*
X16862143Y-15055476D01*
X16900238Y-15055476D01*
X16919286Y-15045952D01*
X16928810Y-15036428D01*
X16938333Y-15017381D01*
X16938333Y-14979286D01*
X16928810Y-14960238D01*
X16919286Y-14950714D01*
X16900238Y-14941190D01*
X17176429Y-15055476D02*
X17176429Y-14855476D01*
X17262143Y-15055476D02*
X17262143Y-14950714D01*
X17252619Y-14931667D01*
X17233571Y-14922143D01*
X17205000Y-14922143D01*
X17185952Y-14931667D01*
X17176429Y-14941190D01*
X17385952Y-15055476D02*
X17366905Y-15045952D01*
X17357381Y-15036428D01*
X17347857Y-15017381D01*
X17347857Y-14960238D01*
X17357381Y-14941190D01*
X17366905Y-14931667D01*
X17385952Y-14922143D01*
X17414524Y-14922143D01*
X17433571Y-14931667D01*
X17443095Y-14941190D01*
X17452619Y-14960238D01*
X17452619Y-15017381D01*
X17443095Y-15036428D01*
X17433571Y-15045952D01*
X17414524Y-15055476D01*
X17385952Y-15055476D01*
X17566905Y-15055476D02*
X17547857Y-15045952D01*
X17538333Y-15026905D01*
X17538333Y-14855476D01*
X17719286Y-15045952D02*
X17700238Y-15055476D01*
X17662143Y-15055476D01*
X17643095Y-15045952D01*
X17633571Y-15026905D01*
X17633571Y-14950714D01*
X17643095Y-14931667D01*
X17662143Y-14922143D01*
X17700238Y-14922143D01*
X17719286Y-14931667D01*
X17728810Y-14950714D01*
X17728810Y-14969762D01*
X17633571Y-14988809D01*
X17805000Y-15045952D02*
X17824048Y-15055476D01*
X17862143Y-15055476D01*
X17881190Y-15045952D01*
X17890714Y-15026905D01*
X17890714Y-15017381D01*
X17881190Y-14998333D01*
X17862143Y-14988809D01*
X17833571Y-14988809D01*
X17814524Y-14979286D01*
X17805000Y-14960238D01*
X17805000Y-14950714D01*
X17814524Y-14931667D01*
X17833571Y-14922143D01*
X17862143Y-14922143D01*
X17881190Y-14931667D01*
X17957381Y-15131667D02*
X17966905Y-15122143D01*
X17985952Y-15093571D01*
X17995476Y-15074524D01*
X18005000Y-15045952D01*
X18014524Y-14998333D01*
X18014524Y-14960238D01*
X18005000Y-14912619D01*
X17995476Y-14884048D01*
X17985952Y-14865000D01*
X17966905Y-14836428D01*
X17957381Y-14826905D01*
D17*
X12865000Y-15164000D02*
X12995000Y-15294000D01*
X12995000Y-15164000D02*
X12865000Y-15294000D01*
X12930000Y-15164000D02*
X12930000Y-15294000D01*
X12865000Y-15229000D02*
X12995000Y-15229000D01*
D11*
X13357381Y-15319476D02*
X13243095Y-15319476D01*
X13300238Y-15319476D02*
X13300238Y-15119476D01*
X13281190Y-15148048D01*
X13262143Y-15167095D01*
X13243095Y-15176619D01*
X13443095Y-15300428D02*
X13452619Y-15309952D01*
X13443095Y-15319476D01*
X13433571Y-15309952D01*
X13443095Y-15300428D01*
X13443095Y-15319476D01*
X13519286Y-15119476D02*
X13643095Y-15119476D01*
X13576428Y-15195667D01*
X13605000Y-15195667D01*
X13624048Y-15205190D01*
X13633571Y-15214714D01*
X13643095Y-15233762D01*
X13643095Y-15281381D01*
X13633571Y-15300428D01*
X13624048Y-15309952D01*
X13605000Y-15319476D01*
X13547857Y-15319476D01*
X13528809Y-15309952D01*
X13519286Y-15300428D01*
X13766905Y-15119476D02*
X13785952Y-15119476D01*
X13805000Y-15129000D01*
X13814524Y-15138524D01*
X13824048Y-15157571D01*
X13833571Y-15195667D01*
X13833571Y-15243286D01*
X13824048Y-15281381D01*
X13814524Y-15300428D01*
X13805000Y-15309952D01*
X13785952Y-15319476D01*
X13766905Y-15319476D01*
X13747857Y-15309952D01*
X13738333Y-15300428D01*
X13728809Y-15281381D01*
X13719286Y-15243286D01*
X13719286Y-15195667D01*
X13728809Y-15157571D01*
X13738333Y-15138524D01*
X13747857Y-15129000D01*
X13766905Y-15119476D01*
X13957381Y-15119476D02*
X13976428Y-15119476D01*
X13995476Y-15129000D01*
X14005000Y-15138524D01*
X14014524Y-15157571D01*
X14024048Y-15195667D01*
X14024048Y-15243286D01*
X14014524Y-15281381D01*
X14005000Y-15300428D01*
X13995476Y-15309952D01*
X13976428Y-15319476D01*
X13957381Y-15319476D01*
X13938333Y-15309952D01*
X13928809Y-15300428D01*
X13919286Y-15281381D01*
X13909762Y-15243286D01*
X13909762Y-15195667D01*
X13919286Y-15157571D01*
X13928809Y-15138524D01*
X13938333Y-15129000D01*
X13957381Y-15119476D01*
X14109762Y-15319476D02*
X14109762Y-15186143D01*
X14109762Y-15205190D02*
X14119286Y-15195667D01*
X14138333Y-15186143D01*
X14166905Y-15186143D01*
X14185952Y-15195667D01*
X14195476Y-15214714D01*
X14195476Y-15319476D01*
X14195476Y-15214714D02*
X14205000Y-15195667D01*
X14224048Y-15186143D01*
X14252619Y-15186143D01*
X14271667Y-15195667D01*
X14281190Y-15214714D01*
X14281190Y-15319476D01*
X14376428Y-15319476D02*
X14376428Y-15186143D01*
X14376428Y-15205190D02*
X14385952Y-15195667D01*
X14405000Y-15186143D01*
X14433571Y-15186143D01*
X14452619Y-15195667D01*
X14462143Y-15214714D01*
X14462143Y-15319476D01*
X14462143Y-15214714D02*
X14471667Y-15195667D01*
X14490714Y-15186143D01*
X14519286Y-15186143D01*
X14538333Y-15195667D01*
X14547857Y-15214714D01*
X14547857Y-15319476D01*
X14938333Y-15109952D02*
X14766905Y-15367095D01*
X15195476Y-15119476D02*
X15214524Y-15119476D01*
X15233571Y-15129000D01*
X15243095Y-15138524D01*
X15252619Y-15157571D01*
X15262143Y-15195667D01*
X15262143Y-15243286D01*
X15252619Y-15281381D01*
X15243095Y-15300428D01*
X15233571Y-15309952D01*
X15214524Y-15319476D01*
X15195476Y-15319476D01*
X15176428Y-15309952D01*
X15166905Y-15300428D01*
X15157381Y-15281381D01*
X15147857Y-15243286D01*
X15147857Y-15195667D01*
X15157381Y-15157571D01*
X15166905Y-15138524D01*
X15176428Y-15129000D01*
X15195476Y-15119476D01*
X15347857Y-15300428D02*
X15357381Y-15309952D01*
X15347857Y-15319476D01*
X15338333Y-15309952D01*
X15347857Y-15300428D01*
X15347857Y-15319476D01*
X15481190Y-15119476D02*
X15500238Y-15119476D01*
X15519286Y-15129000D01*
X15528809Y-15138524D01*
X15538333Y-15157571D01*
X15547857Y-15195667D01*
X15547857Y-15243286D01*
X15538333Y-15281381D01*
X15528809Y-15300428D01*
X15519286Y-15309952D01*
X15500238Y-15319476D01*
X15481190Y-15319476D01*
X15462143Y-15309952D01*
X15452619Y-15300428D01*
X15443095Y-15281381D01*
X15433571Y-15243286D01*
X15433571Y-15195667D01*
X15443095Y-15157571D01*
X15452619Y-15138524D01*
X15462143Y-15129000D01*
X15481190Y-15119476D01*
X15728809Y-15119476D02*
X15633571Y-15119476D01*
X15624048Y-15214714D01*
X15633571Y-15205190D01*
X15652619Y-15195667D01*
X15700238Y-15195667D01*
X15719286Y-15205190D01*
X15728809Y-15214714D01*
X15738333Y-15233762D01*
X15738333Y-15281381D01*
X15728809Y-15300428D01*
X15719286Y-15309952D01*
X15700238Y-15319476D01*
X15652619Y-15319476D01*
X15633571Y-15309952D01*
X15624048Y-15300428D01*
X15928809Y-15319476D02*
X15814524Y-15319476D01*
X15871667Y-15319476D02*
X15871667Y-15119476D01*
X15852619Y-15148048D01*
X15833571Y-15167095D01*
X15814524Y-15176619D01*
X16005000Y-15138524D02*
X16014524Y-15129000D01*
X16033571Y-15119476D01*
X16081190Y-15119476D01*
X16100238Y-15129000D01*
X16109762Y-15138524D01*
X16119286Y-15157571D01*
X16119286Y-15176619D01*
X16109762Y-15205190D01*
X15995476Y-15319476D01*
X16119286Y-15319476D01*
X16195476Y-15119476D02*
X16195476Y-15157571D01*
X16271667Y-15119476D02*
X16271667Y-15157571D01*
X16566905Y-15395667D02*
X16557381Y-15386143D01*
X16538333Y-15357571D01*
X16528809Y-15338524D01*
X16519286Y-15309952D01*
X16509762Y-15262333D01*
X16509762Y-15224238D01*
X16519286Y-15176619D01*
X16528809Y-15148048D01*
X16538333Y-15129000D01*
X16557381Y-15100428D01*
X16566905Y-15090905D01*
X16728809Y-15186143D02*
X16728809Y-15319476D01*
X16681190Y-15109952D02*
X16633571Y-15252809D01*
X16757381Y-15252809D01*
X16985952Y-15319476D02*
X16985952Y-15119476D01*
X17071667Y-15319476D02*
X17071667Y-15214714D01*
X17062143Y-15195667D01*
X17043095Y-15186143D01*
X17014524Y-15186143D01*
X16995476Y-15195667D01*
X16985952Y-15205190D01*
X17195476Y-15319476D02*
X17176429Y-15309952D01*
X17166905Y-15300428D01*
X17157381Y-15281381D01*
X17157381Y-15224238D01*
X17166905Y-15205190D01*
X17176429Y-15195667D01*
X17195476Y-15186143D01*
X17224048Y-15186143D01*
X17243095Y-15195667D01*
X17252619Y-15205190D01*
X17262143Y-15224238D01*
X17262143Y-15281381D01*
X17252619Y-15300428D01*
X17243095Y-15309952D01*
X17224048Y-15319476D01*
X17195476Y-15319476D01*
X17376429Y-15319476D02*
X17357381Y-15309952D01*
X17347857Y-15290905D01*
X17347857Y-15119476D01*
X17528810Y-15309952D02*
X17509762Y-15319476D01*
X17471667Y-15319476D01*
X17452619Y-15309952D01*
X17443095Y-15290905D01*
X17443095Y-15214714D01*
X17452619Y-15195667D01*
X17471667Y-15186143D01*
X17509762Y-15186143D01*
X17528810Y-15195667D01*
X17538333Y-15214714D01*
X17538333Y-15233762D01*
X17443095Y-15252809D01*
X17614524Y-15309952D02*
X17633571Y-15319476D01*
X17671667Y-15319476D01*
X17690714Y-15309952D01*
X17700238Y-15290905D01*
X17700238Y-15281381D01*
X17690714Y-15262333D01*
X17671667Y-15252809D01*
X17643095Y-15252809D01*
X17624048Y-15243286D01*
X17614524Y-15224238D01*
X17614524Y-15214714D01*
X17624048Y-15195667D01*
X17643095Y-15186143D01*
X17671667Y-15186143D01*
X17690714Y-15195667D01*
X17766905Y-15395667D02*
X17776429Y-15386143D01*
X17795476Y-15357571D01*
X17805000Y-15338524D01*
X17814524Y-15309952D01*
X17824048Y-15262333D01*
X17824048Y-15224238D01*
X17814524Y-15176619D01*
X17805000Y-15148048D01*
X17795476Y-15129000D01*
X17776429Y-15100428D01*
X17766905Y-15090905D01*
M02*
