G04 #@! TF.GenerationSoftware,KiCad,Pcbnew,(5.1.5)-3*
G04 #@! TF.CreationDate,2021-05-15T17:54:47+02:00*
G04 #@! TF.ProjectId,Adaptateurs_NiveauxSPI,41646170-7461-4746-9575-72735f4e6976,rev?*
G04 #@! TF.SameCoordinates,Original*
G04 #@! TF.FileFunction,Legend,Bot*
G04 #@! TF.FilePolarity,Positive*
%FSLAX46Y46*%
G04 Gerber Fmt 4.6, Leading zero omitted, Abs format (unit mm)*
G04 Created by KiCad (PCBNEW (5.1.5)-3) date 2021-05-15 17:54:47*
%MOMM*%
%LPD*%
G04 APERTURE LIST*
%ADD10C,0.120000*%
%ADD11C,0.100000*%
%ADD12C,0.150000*%
G04 APERTURE END LIST*
D10*
X135950000Y-70425000D02*
X134620000Y-70425000D01*
X135950000Y-71755000D02*
X135950000Y-70425000D01*
X133350000Y-70425000D02*
X130750000Y-70425000D01*
X133350000Y-73025000D02*
X133350000Y-70425000D01*
X135950000Y-73025000D02*
X133350000Y-73025000D01*
X130750000Y-70425000D02*
X130750000Y-80705000D01*
X135950000Y-73025000D02*
X135950000Y-80705000D01*
X135950000Y-80705000D02*
X130750000Y-80705000D01*
X171510000Y-83880000D02*
X166310000Y-83880000D01*
X171510000Y-71120000D02*
X171510000Y-83880000D01*
X166310000Y-68520000D02*
X166310000Y-83880000D01*
X171510000Y-71120000D02*
X168910000Y-71120000D01*
X168910000Y-71120000D02*
X168910000Y-68520000D01*
X168910000Y-68520000D02*
X166310000Y-68520000D01*
X171510000Y-69850000D02*
X171510000Y-68520000D01*
X171510000Y-68520000D02*
X170180000Y-68520000D01*
D11*
X137287000Y-109220000D02*
X137287000Y-93345000D01*
X134493000Y-109220000D02*
X134493000Y-90678000D01*
X137287000Y-109220000D02*
X134493000Y-109220000D01*
D10*
X134500000Y-93345000D02*
X137280000Y-93345000D01*
X137280000Y-92075000D02*
X137280000Y-90685000D01*
X137280000Y-90685000D02*
X135890000Y-90685000D01*
X172780000Y-107375000D02*
X167580000Y-107375000D01*
X172780000Y-97155000D02*
X172780000Y-107375000D01*
X167580000Y-94555000D02*
X167580000Y-107375000D01*
X172780000Y-97155000D02*
X170180000Y-97155000D01*
X170180000Y-97155000D02*
X170180000Y-94555000D01*
X170180000Y-94555000D02*
X167580000Y-94555000D01*
X172780000Y-95885000D02*
X172780000Y-94555000D01*
X172780000Y-94555000D02*
X171450000Y-94555000D01*
X191280000Y-80405000D02*
X207280000Y-80405000D01*
X191280000Y-64405000D02*
X191280000Y-80405000D01*
X207280000Y-64405000D02*
X207280000Y-80405000D01*
X207280000Y-64405000D02*
X191280000Y-64405000D01*
X192600000Y-79975000D02*
X192350000Y-79475000D01*
X192350000Y-79475000D02*
X192850000Y-79475000D01*
X192850000Y-79475000D02*
X192600000Y-79975000D01*
D12*
X134088095Y-69877380D02*
X134088095Y-68877380D01*
X133707142Y-68877380D01*
X133611904Y-68925000D01*
X133564285Y-68972619D01*
X133516666Y-69067857D01*
X133516666Y-69210714D01*
X133564285Y-69305952D01*
X133611904Y-69353571D01*
X133707142Y-69401190D01*
X134088095Y-69401190D01*
X133135714Y-68972619D02*
X133088095Y-68925000D01*
X132992857Y-68877380D01*
X132754761Y-68877380D01*
X132659523Y-68925000D01*
X132611904Y-68972619D01*
X132564285Y-69067857D01*
X132564285Y-69163095D01*
X132611904Y-69305952D01*
X133183333Y-69877380D01*
X132564285Y-69877380D01*
X169648095Y-67972380D02*
X169648095Y-66972380D01*
X169267142Y-66972380D01*
X169171904Y-67020000D01*
X169124285Y-67067619D01*
X169076666Y-67162857D01*
X169076666Y-67305714D01*
X169124285Y-67400952D01*
X169171904Y-67448571D01*
X169267142Y-67496190D01*
X169648095Y-67496190D01*
X168219523Y-67305714D02*
X168219523Y-67972380D01*
X168457619Y-66924761D02*
X168695714Y-67639047D01*
X168076666Y-67639047D01*
X134088095Y-92527380D02*
X134088095Y-91527380D01*
X133707142Y-91527380D01*
X133611904Y-91575000D01*
X133564285Y-91622619D01*
X133516666Y-91717857D01*
X133516666Y-91860714D01*
X133564285Y-91955952D01*
X133611904Y-92003571D01*
X133707142Y-92051190D01*
X134088095Y-92051190D01*
X132659523Y-91527380D02*
X132850000Y-91527380D01*
X132945238Y-91575000D01*
X132992857Y-91622619D01*
X133088095Y-91765476D01*
X133135714Y-91955952D01*
X133135714Y-92336904D01*
X133088095Y-92432142D01*
X133040476Y-92479761D01*
X132945238Y-92527380D01*
X132754761Y-92527380D01*
X132659523Y-92479761D01*
X132611904Y-92432142D01*
X132564285Y-92336904D01*
X132564285Y-92098809D01*
X132611904Y-92003571D01*
X132659523Y-91955952D01*
X132754761Y-91908333D01*
X132945238Y-91908333D01*
X133040476Y-91955952D01*
X133088095Y-92003571D01*
X133135714Y-92098809D01*
X170918095Y-94007380D02*
X170918095Y-93007380D01*
X170537142Y-93007380D01*
X170441904Y-93055000D01*
X170394285Y-93102619D01*
X170346666Y-93197857D01*
X170346666Y-93340714D01*
X170394285Y-93435952D01*
X170441904Y-93483571D01*
X170537142Y-93531190D01*
X170918095Y-93531190D01*
X169775238Y-93435952D02*
X169870476Y-93388333D01*
X169918095Y-93340714D01*
X169965714Y-93245476D01*
X169965714Y-93197857D01*
X169918095Y-93102619D01*
X169870476Y-93055000D01*
X169775238Y-93007380D01*
X169584761Y-93007380D01*
X169489523Y-93055000D01*
X169441904Y-93102619D01*
X169394285Y-93197857D01*
X169394285Y-93245476D01*
X169441904Y-93340714D01*
X169489523Y-93388333D01*
X169584761Y-93435952D01*
X169775238Y-93435952D01*
X169870476Y-93483571D01*
X169918095Y-93531190D01*
X169965714Y-93626428D01*
X169965714Y-93816904D01*
X169918095Y-93912142D01*
X169870476Y-93959761D01*
X169775238Y-94007380D01*
X169584761Y-94007380D01*
X169489523Y-93959761D01*
X169441904Y-93912142D01*
X169394285Y-93816904D01*
X169394285Y-93626428D01*
X169441904Y-93531190D01*
X169489523Y-93483571D01*
X169584761Y-93435952D01*
X206073333Y-80732380D02*
X206073333Y-81446666D01*
X206120952Y-81589523D01*
X206216190Y-81684761D01*
X206359047Y-81732380D01*
X206454285Y-81732380D01*
X205073333Y-81732380D02*
X205644761Y-81732380D01*
X205359047Y-81732380D02*
X205359047Y-80732380D01*
X205454285Y-80875238D01*
X205549523Y-80970476D01*
X205644761Y-81018095D01*
X186388333Y-81367380D02*
X186388333Y-82081666D01*
X186435952Y-82224523D01*
X186531190Y-82319761D01*
X186674047Y-82367380D01*
X186769285Y-82367380D01*
X185483571Y-81700714D02*
X185483571Y-82367380D01*
X185721666Y-81319761D02*
X185959761Y-82034047D01*
X185340714Y-82034047D01*
M02*
