G04 #@! TF.GenerationSoftware,KiCad,Pcbnew,(5.1.5)-3*
G04 #@! TF.CreationDate,2021-05-15T17:54:47+02:00*
G04 #@! TF.ProjectId,Adaptateurs_NiveauxSPI,41646170-7461-4746-9575-72735f4e6976,rev?*
G04 #@! TF.SameCoordinates,Original*
G04 #@! TF.FileFunction,Legend,Top*
G04 #@! TF.FilePolarity,Positive*
%FSLAX46Y46*%
G04 Gerber Fmt 4.6, Leading zero omitted, Abs format (unit mm)*
G04 Created by KiCad (PCBNEW (5.1.5)-3) date 2021-05-15 17:54:47*
%MOMM*%
%LPD*%
G04 APERTURE LIST*
%ADD10C,0.120000*%
%ADD11C,0.150000*%
G04 APERTURE END LIST*
D10*
X185928000Y-80137000D02*
X185928000Y-80264000D01*
X185928000Y-80264000D02*
X198882000Y-80264000D01*
X185928000Y-80137000D02*
X185928000Y-64643000D01*
X198882000Y-80264000D02*
X198882000Y-64643000D01*
X191405000Y-64650000D02*
X188765000Y-64650000D01*
X196045000Y-64650000D02*
X193405000Y-64650000D01*
X198875000Y-64650000D02*
X185935000Y-64650000D01*
X197739000Y-93853000D02*
X207645000Y-93853000D01*
X197739000Y-106807000D02*
X207645000Y-106807000D01*
X182125000Y-93860000D02*
X182125000Y-106800000D01*
X182125000Y-96690000D02*
X182125000Y-99330000D01*
X182125000Y-101330000D02*
X182125000Y-103970000D01*
X197739000Y-93853000D02*
X182118000Y-93853000D01*
X197612000Y-106807000D02*
X182118000Y-106807000D01*
X207645000Y-106807000D02*
X207645000Y-93853000D01*
X197612000Y-106807000D02*
X197739000Y-106807000D01*
X120290000Y-74962936D02*
X120290000Y-76167064D01*
X118470000Y-74962936D02*
X118470000Y-76167064D01*
X123550000Y-74962936D02*
X123550000Y-76167064D01*
X125370000Y-74962936D02*
X125370000Y-76167064D01*
X155850000Y-75597936D02*
X155850000Y-76802064D01*
X154030000Y-75597936D02*
X154030000Y-76802064D01*
X159110000Y-75597936D02*
X159110000Y-76802064D01*
X160930000Y-75597936D02*
X160930000Y-76802064D01*
X118470000Y-99727936D02*
X118470000Y-100932064D01*
X120290000Y-99727936D02*
X120290000Y-100932064D01*
X125370000Y-99727936D02*
X125370000Y-100932064D01*
X123550000Y-99727936D02*
X123550000Y-100932064D01*
X156485000Y-100362936D02*
X156485000Y-101567064D01*
X154665000Y-100362936D02*
X154665000Y-101567064D01*
X159745000Y-100362936D02*
X159745000Y-101567064D01*
X161565000Y-100362936D02*
X161565000Y-101567064D01*
X189505000Y-72005436D02*
X189505000Y-73209564D01*
X187685000Y-72005436D02*
X187685000Y-73209564D01*
X195305000Y-72005436D02*
X195305000Y-73209564D01*
X197125000Y-72005436D02*
X197125000Y-73209564D01*
X110430000Y-65345000D02*
X111760000Y-65345000D01*
X110430000Y-66675000D02*
X110430000Y-65345000D01*
X110430000Y-67945000D02*
X113090000Y-67945000D01*
X113090000Y-67945000D02*
X113090000Y-83245000D01*
X110430000Y-67945000D02*
X110430000Y-83245000D01*
X110430000Y-83245000D02*
X113090000Y-83245000D01*
X145990000Y-83880000D02*
X148650000Y-83880000D01*
X145990000Y-68580000D02*
X145990000Y-83880000D01*
X148650000Y-68580000D02*
X148650000Y-83880000D01*
X145990000Y-68580000D02*
X148650000Y-68580000D01*
X145990000Y-67310000D02*
X145990000Y-65980000D01*
X145990000Y-65980000D02*
X147320000Y-65980000D01*
X110430000Y-108010000D02*
X113090000Y-108010000D01*
X110430000Y-92710000D02*
X110430000Y-108010000D01*
X113090000Y-92710000D02*
X113090000Y-108010000D01*
X110430000Y-92710000D02*
X113090000Y-92710000D01*
X110430000Y-91440000D02*
X110430000Y-90110000D01*
X110430000Y-90110000D02*
X111760000Y-90110000D01*
X146625000Y-108645000D02*
X149285000Y-108645000D01*
X146625000Y-93345000D02*
X146625000Y-108645000D01*
X149285000Y-93345000D02*
X149285000Y-108645000D01*
X146625000Y-93345000D02*
X149285000Y-93345000D01*
X146625000Y-92075000D02*
X146625000Y-90745000D01*
X146625000Y-90745000D02*
X147955000Y-90745000D01*
X179010000Y-64710000D02*
X180340000Y-64710000D01*
X179010000Y-66040000D02*
X179010000Y-64710000D01*
X179010000Y-67310000D02*
X181670000Y-67310000D01*
X181670000Y-67310000D02*
X181670000Y-82610000D01*
X179010000Y-67310000D02*
X179010000Y-82610000D01*
X179010000Y-82610000D02*
X181670000Y-82610000D01*
X136250000Y-73627064D02*
X136250000Y-72422936D01*
X138070000Y-73627064D02*
X138070000Y-72422936D01*
X194342936Y-101325000D02*
X195547064Y-101325000D01*
X194342936Y-103145000D02*
X195547064Y-103145000D01*
X194342936Y-99335000D02*
X195547064Y-99335000D01*
X194342936Y-97515000D02*
X195547064Y-97515000D01*
X192870000Y-88475000D02*
X192870000Y-92595000D01*
X200930000Y-88475000D02*
X192870000Y-88475000D01*
X202990000Y-92595000D02*
X192870000Y-92595000D01*
X200930000Y-88475000D02*
X200930000Y-90535000D01*
X200930000Y-90535000D02*
X202990000Y-90535000D01*
X202990000Y-90535000D02*
X202990000Y-92595000D01*
X201930000Y-88475000D02*
X202990000Y-88475000D01*
X202990000Y-88475000D02*
X202990000Y-89535000D01*
X184852000Y-89094000D02*
X184852000Y-91754000D01*
X189992000Y-89094000D02*
X184852000Y-89094000D01*
X189992000Y-91754000D02*
X184852000Y-91754000D01*
X189992000Y-89094000D02*
X189992000Y-91754000D01*
X191262000Y-89094000D02*
X192592000Y-89094000D01*
X192592000Y-89094000D02*
X192592000Y-90424000D01*
X128390000Y-67825000D02*
X115450000Y-67825000D01*
X125560000Y-67825000D02*
X122920000Y-67825000D01*
X120920000Y-67825000D02*
X118280000Y-67825000D01*
X128397000Y-83439000D02*
X128397000Y-67818000D01*
X115443000Y-83312000D02*
X115443000Y-67818000D01*
X115443000Y-83439000D02*
X128397000Y-83439000D01*
X115443000Y-83312000D02*
X115443000Y-83439000D01*
X151003000Y-83947000D02*
X151003000Y-84074000D01*
X151003000Y-84074000D02*
X163957000Y-84074000D01*
X151003000Y-83947000D02*
X151003000Y-68453000D01*
X163957000Y-84074000D02*
X163957000Y-68453000D01*
X156480000Y-68460000D02*
X153840000Y-68460000D01*
X161120000Y-68460000D02*
X158480000Y-68460000D01*
X163950000Y-68460000D02*
X151010000Y-68460000D01*
X115443000Y-108077000D02*
X115443000Y-108204000D01*
X115443000Y-108204000D02*
X128397000Y-108204000D01*
X115443000Y-108077000D02*
X115443000Y-92583000D01*
X128397000Y-108204000D02*
X128397000Y-92583000D01*
X120920000Y-92590000D02*
X118280000Y-92590000D01*
X125560000Y-92590000D02*
X122920000Y-92590000D01*
X128390000Y-92590000D02*
X115450000Y-92590000D01*
X151638000Y-108712000D02*
X151638000Y-108839000D01*
X151638000Y-108839000D02*
X164592000Y-108839000D01*
X151638000Y-108712000D02*
X151638000Y-93218000D01*
X164592000Y-108839000D02*
X164592000Y-93218000D01*
X157115000Y-93225000D02*
X154475000Y-93225000D01*
X161755000Y-93225000D02*
X159115000Y-93225000D01*
X164585000Y-93225000D02*
X151645000Y-93225000D01*
X201990000Y-113090000D02*
X201990000Y-107890000D01*
X191770000Y-113090000D02*
X201990000Y-113090000D01*
X189170000Y-107890000D02*
X201990000Y-107890000D01*
X191770000Y-113090000D02*
X191770000Y-110490000D01*
X191770000Y-110490000D02*
X189170000Y-110490000D01*
X189170000Y-110490000D02*
X189170000Y-107890000D01*
X190500000Y-113090000D02*
X189170000Y-113090000D01*
X189170000Y-113090000D02*
X189170000Y-111760000D01*
D11*
X191643095Y-63102380D02*
X191643095Y-63911904D01*
X191690714Y-64007142D01*
X191738333Y-64054761D01*
X191833571Y-64102380D01*
X192024047Y-64102380D01*
X192119285Y-64054761D01*
X192166904Y-64007142D01*
X192214523Y-63911904D01*
X192214523Y-63102380D01*
X193166904Y-63102380D02*
X192690714Y-63102380D01*
X192643095Y-63578571D01*
X192690714Y-63530952D01*
X192785952Y-63483333D01*
X193024047Y-63483333D01*
X193119285Y-63530952D01*
X193166904Y-63578571D01*
X193214523Y-63673809D01*
X193214523Y-63911904D01*
X193166904Y-64007142D01*
X193119285Y-64054761D01*
X193024047Y-64102380D01*
X192785952Y-64102380D01*
X192690714Y-64054761D01*
X192643095Y-64007142D01*
X180577380Y-101091904D02*
X181386904Y-101091904D01*
X181482142Y-101044285D01*
X181529761Y-100996666D01*
X181577380Y-100901428D01*
X181577380Y-100710952D01*
X181529761Y-100615714D01*
X181482142Y-100568095D01*
X181386904Y-100520476D01*
X180577380Y-100520476D01*
X180577380Y-99615714D02*
X180577380Y-99806190D01*
X180625000Y-99901428D01*
X180672619Y-99949047D01*
X180815476Y-100044285D01*
X181005952Y-100091904D01*
X181386904Y-100091904D01*
X181482142Y-100044285D01*
X181529761Y-99996666D01*
X181577380Y-99901428D01*
X181577380Y-99710952D01*
X181529761Y-99615714D01*
X181482142Y-99568095D01*
X181386904Y-99520476D01*
X181148809Y-99520476D01*
X181053571Y-99568095D01*
X181005952Y-99615714D01*
X180958333Y-99710952D01*
X180958333Y-99901428D01*
X181005952Y-99996666D01*
X181053571Y-100044285D01*
X181148809Y-100091904D01*
X119737142Y-79541666D02*
X119784761Y-79589285D01*
X119832380Y-79732142D01*
X119832380Y-79827380D01*
X119784761Y-79970238D01*
X119689523Y-80065476D01*
X119594285Y-80113095D01*
X119403809Y-80160714D01*
X119260952Y-80160714D01*
X119070476Y-80113095D01*
X118975238Y-80065476D01*
X118880000Y-79970238D01*
X118832380Y-79827380D01*
X118832380Y-79732142D01*
X118880000Y-79589285D01*
X118927619Y-79541666D01*
X119832380Y-78589285D02*
X119832380Y-79160714D01*
X119832380Y-78875000D02*
X118832380Y-78875000D01*
X118975238Y-78970238D01*
X119070476Y-79065476D01*
X119118095Y-79160714D01*
X124817142Y-79541666D02*
X124864761Y-79589285D01*
X124912380Y-79732142D01*
X124912380Y-79827380D01*
X124864761Y-79970238D01*
X124769523Y-80065476D01*
X124674285Y-80113095D01*
X124483809Y-80160714D01*
X124340952Y-80160714D01*
X124150476Y-80113095D01*
X124055238Y-80065476D01*
X123960000Y-79970238D01*
X123912380Y-79827380D01*
X123912380Y-79732142D01*
X123960000Y-79589285D01*
X124007619Y-79541666D01*
X124007619Y-79160714D02*
X123960000Y-79113095D01*
X123912380Y-79017857D01*
X123912380Y-78779761D01*
X123960000Y-78684523D01*
X124007619Y-78636904D01*
X124102857Y-78589285D01*
X124198095Y-78589285D01*
X124340952Y-78636904D01*
X124912380Y-79208333D01*
X124912380Y-78589285D01*
X155297142Y-80176666D02*
X155344761Y-80224285D01*
X155392380Y-80367142D01*
X155392380Y-80462380D01*
X155344761Y-80605238D01*
X155249523Y-80700476D01*
X155154285Y-80748095D01*
X154963809Y-80795714D01*
X154820952Y-80795714D01*
X154630476Y-80748095D01*
X154535238Y-80700476D01*
X154440000Y-80605238D01*
X154392380Y-80462380D01*
X154392380Y-80367142D01*
X154440000Y-80224285D01*
X154487619Y-80176666D01*
X154392380Y-79843333D02*
X154392380Y-79224285D01*
X154773333Y-79557619D01*
X154773333Y-79414761D01*
X154820952Y-79319523D01*
X154868571Y-79271904D01*
X154963809Y-79224285D01*
X155201904Y-79224285D01*
X155297142Y-79271904D01*
X155344761Y-79319523D01*
X155392380Y-79414761D01*
X155392380Y-79700476D01*
X155344761Y-79795714D01*
X155297142Y-79843333D01*
X160377142Y-80176666D02*
X160424761Y-80224285D01*
X160472380Y-80367142D01*
X160472380Y-80462380D01*
X160424761Y-80605238D01*
X160329523Y-80700476D01*
X160234285Y-80748095D01*
X160043809Y-80795714D01*
X159900952Y-80795714D01*
X159710476Y-80748095D01*
X159615238Y-80700476D01*
X159520000Y-80605238D01*
X159472380Y-80462380D01*
X159472380Y-80367142D01*
X159520000Y-80224285D01*
X159567619Y-80176666D01*
X159805714Y-79319523D02*
X160472380Y-79319523D01*
X159424761Y-79557619D02*
X160139047Y-79795714D01*
X160139047Y-79176666D01*
X119737142Y-103671666D02*
X119784761Y-103719285D01*
X119832380Y-103862142D01*
X119832380Y-103957380D01*
X119784761Y-104100238D01*
X119689523Y-104195476D01*
X119594285Y-104243095D01*
X119403809Y-104290714D01*
X119260952Y-104290714D01*
X119070476Y-104243095D01*
X118975238Y-104195476D01*
X118880000Y-104100238D01*
X118832380Y-103957380D01*
X118832380Y-103862142D01*
X118880000Y-103719285D01*
X118927619Y-103671666D01*
X118832380Y-102766904D02*
X118832380Y-103243095D01*
X119308571Y-103290714D01*
X119260952Y-103243095D01*
X119213333Y-103147857D01*
X119213333Y-102909761D01*
X119260952Y-102814523D01*
X119308571Y-102766904D01*
X119403809Y-102719285D01*
X119641904Y-102719285D01*
X119737142Y-102766904D01*
X119784761Y-102814523D01*
X119832380Y-102909761D01*
X119832380Y-103147857D01*
X119784761Y-103243095D01*
X119737142Y-103290714D01*
X124817142Y-104306666D02*
X124864761Y-104354285D01*
X124912380Y-104497142D01*
X124912380Y-104592380D01*
X124864761Y-104735238D01*
X124769523Y-104830476D01*
X124674285Y-104878095D01*
X124483809Y-104925714D01*
X124340952Y-104925714D01*
X124150476Y-104878095D01*
X124055238Y-104830476D01*
X123960000Y-104735238D01*
X123912380Y-104592380D01*
X123912380Y-104497142D01*
X123960000Y-104354285D01*
X124007619Y-104306666D01*
X123912380Y-103449523D02*
X123912380Y-103640000D01*
X123960000Y-103735238D01*
X124007619Y-103782857D01*
X124150476Y-103878095D01*
X124340952Y-103925714D01*
X124721904Y-103925714D01*
X124817142Y-103878095D01*
X124864761Y-103830476D01*
X124912380Y-103735238D01*
X124912380Y-103544761D01*
X124864761Y-103449523D01*
X124817142Y-103401904D01*
X124721904Y-103354285D01*
X124483809Y-103354285D01*
X124388571Y-103401904D01*
X124340952Y-103449523D01*
X124293333Y-103544761D01*
X124293333Y-103735238D01*
X124340952Y-103830476D01*
X124388571Y-103878095D01*
X124483809Y-103925714D01*
X155932142Y-104941666D02*
X155979761Y-104989285D01*
X156027380Y-105132142D01*
X156027380Y-105227380D01*
X155979761Y-105370238D01*
X155884523Y-105465476D01*
X155789285Y-105513095D01*
X155598809Y-105560714D01*
X155455952Y-105560714D01*
X155265476Y-105513095D01*
X155170238Y-105465476D01*
X155075000Y-105370238D01*
X155027380Y-105227380D01*
X155027380Y-105132142D01*
X155075000Y-104989285D01*
X155122619Y-104941666D01*
X155027380Y-104608333D02*
X155027380Y-103941666D01*
X156027380Y-104370238D01*
X161012142Y-104941666D02*
X161059761Y-104989285D01*
X161107380Y-105132142D01*
X161107380Y-105227380D01*
X161059761Y-105370238D01*
X160964523Y-105465476D01*
X160869285Y-105513095D01*
X160678809Y-105560714D01*
X160535952Y-105560714D01*
X160345476Y-105513095D01*
X160250238Y-105465476D01*
X160155000Y-105370238D01*
X160107380Y-105227380D01*
X160107380Y-105132142D01*
X160155000Y-104989285D01*
X160202619Y-104941666D01*
X160535952Y-104370238D02*
X160488333Y-104465476D01*
X160440714Y-104513095D01*
X160345476Y-104560714D01*
X160297857Y-104560714D01*
X160202619Y-104513095D01*
X160155000Y-104465476D01*
X160107380Y-104370238D01*
X160107380Y-104179761D01*
X160155000Y-104084523D01*
X160202619Y-104036904D01*
X160297857Y-103989285D01*
X160345476Y-103989285D01*
X160440714Y-104036904D01*
X160488333Y-104084523D01*
X160535952Y-104179761D01*
X160535952Y-104370238D01*
X160583571Y-104465476D01*
X160631190Y-104513095D01*
X160726428Y-104560714D01*
X160916904Y-104560714D01*
X161012142Y-104513095D01*
X161059761Y-104465476D01*
X161107380Y-104370238D01*
X161107380Y-104179761D01*
X161059761Y-104084523D01*
X161012142Y-104036904D01*
X160916904Y-103989285D01*
X160726428Y-103989285D01*
X160631190Y-104036904D01*
X160583571Y-104084523D01*
X160535952Y-104179761D01*
X188952142Y-76366666D02*
X188999761Y-76414285D01*
X189047380Y-76557142D01*
X189047380Y-76652380D01*
X188999761Y-76795238D01*
X188904523Y-76890476D01*
X188809285Y-76938095D01*
X188618809Y-76985714D01*
X188475952Y-76985714D01*
X188285476Y-76938095D01*
X188190238Y-76890476D01*
X188095000Y-76795238D01*
X188047380Y-76652380D01*
X188047380Y-76557142D01*
X188095000Y-76414285D01*
X188142619Y-76366666D01*
X189047380Y-75890476D02*
X189047380Y-75700000D01*
X188999761Y-75604761D01*
X188952142Y-75557142D01*
X188809285Y-75461904D01*
X188618809Y-75414285D01*
X188237857Y-75414285D01*
X188142619Y-75461904D01*
X188095000Y-75509523D01*
X188047380Y-75604761D01*
X188047380Y-75795238D01*
X188095000Y-75890476D01*
X188142619Y-75938095D01*
X188237857Y-75985714D01*
X188475952Y-75985714D01*
X188571190Y-75938095D01*
X188618809Y-75890476D01*
X188666428Y-75795238D01*
X188666428Y-75604761D01*
X188618809Y-75509523D01*
X188571190Y-75461904D01*
X188475952Y-75414285D01*
X196572142Y-77477857D02*
X196619761Y-77525476D01*
X196667380Y-77668333D01*
X196667380Y-77763571D01*
X196619761Y-77906428D01*
X196524523Y-78001666D01*
X196429285Y-78049285D01*
X196238809Y-78096904D01*
X196095952Y-78096904D01*
X195905476Y-78049285D01*
X195810238Y-78001666D01*
X195715000Y-77906428D01*
X195667380Y-77763571D01*
X195667380Y-77668333D01*
X195715000Y-77525476D01*
X195762619Y-77477857D01*
X196667380Y-76525476D02*
X196667380Y-77096904D01*
X196667380Y-76811190D02*
X195667380Y-76811190D01*
X195810238Y-76906428D01*
X195905476Y-77001666D01*
X195953095Y-77096904D01*
X195667380Y-75906428D02*
X195667380Y-75811190D01*
X195715000Y-75715952D01*
X195762619Y-75668333D01*
X195857857Y-75620714D01*
X196048333Y-75573095D01*
X196286428Y-75573095D01*
X196476904Y-75620714D01*
X196572142Y-75668333D01*
X196619761Y-75715952D01*
X196667380Y-75811190D01*
X196667380Y-75906428D01*
X196619761Y-76001666D01*
X196572142Y-76049285D01*
X196476904Y-76096904D01*
X196286428Y-76144523D01*
X196048333Y-76144523D01*
X195857857Y-76096904D01*
X195762619Y-76049285D01*
X195715000Y-76001666D01*
X195667380Y-75906428D01*
X111021904Y-64797380D02*
X111021904Y-63797380D01*
X111402857Y-63797380D01*
X111498095Y-63845000D01*
X111545714Y-63892619D01*
X111593333Y-63987857D01*
X111593333Y-64130714D01*
X111545714Y-64225952D01*
X111498095Y-64273571D01*
X111402857Y-64321190D01*
X111021904Y-64321190D01*
X112545714Y-64797380D02*
X111974285Y-64797380D01*
X112260000Y-64797380D02*
X112260000Y-63797380D01*
X112164761Y-63940238D01*
X112069523Y-64035476D01*
X111974285Y-64083095D01*
X146581904Y-65432380D02*
X146581904Y-64432380D01*
X146962857Y-64432380D01*
X147058095Y-64480000D01*
X147105714Y-64527619D01*
X147153333Y-64622857D01*
X147153333Y-64765714D01*
X147105714Y-64860952D01*
X147058095Y-64908571D01*
X146962857Y-64956190D01*
X146581904Y-64956190D01*
X147486666Y-64432380D02*
X148105714Y-64432380D01*
X147772380Y-64813333D01*
X147915238Y-64813333D01*
X148010476Y-64860952D01*
X148058095Y-64908571D01*
X148105714Y-65003809D01*
X148105714Y-65241904D01*
X148058095Y-65337142D01*
X148010476Y-65384761D01*
X147915238Y-65432380D01*
X147629523Y-65432380D01*
X147534285Y-65384761D01*
X147486666Y-65337142D01*
X111021904Y-89562380D02*
X111021904Y-88562380D01*
X111402857Y-88562380D01*
X111498095Y-88610000D01*
X111545714Y-88657619D01*
X111593333Y-88752857D01*
X111593333Y-88895714D01*
X111545714Y-88990952D01*
X111498095Y-89038571D01*
X111402857Y-89086190D01*
X111021904Y-89086190D01*
X112498095Y-88562380D02*
X112021904Y-88562380D01*
X111974285Y-89038571D01*
X112021904Y-88990952D01*
X112117142Y-88943333D01*
X112355238Y-88943333D01*
X112450476Y-88990952D01*
X112498095Y-89038571D01*
X112545714Y-89133809D01*
X112545714Y-89371904D01*
X112498095Y-89467142D01*
X112450476Y-89514761D01*
X112355238Y-89562380D01*
X112117142Y-89562380D01*
X112021904Y-89514761D01*
X111974285Y-89467142D01*
X147216904Y-90197380D02*
X147216904Y-89197380D01*
X147597857Y-89197380D01*
X147693095Y-89245000D01*
X147740714Y-89292619D01*
X147788333Y-89387857D01*
X147788333Y-89530714D01*
X147740714Y-89625952D01*
X147693095Y-89673571D01*
X147597857Y-89721190D01*
X147216904Y-89721190D01*
X148121666Y-89197380D02*
X148788333Y-89197380D01*
X148359761Y-90197380D01*
X179601904Y-64162380D02*
X179601904Y-63162380D01*
X179982857Y-63162380D01*
X180078095Y-63210000D01*
X180125714Y-63257619D01*
X180173333Y-63352857D01*
X180173333Y-63495714D01*
X180125714Y-63590952D01*
X180078095Y-63638571D01*
X179982857Y-63686190D01*
X179601904Y-63686190D01*
X180649523Y-64162380D02*
X180840000Y-64162380D01*
X180935238Y-64114761D01*
X180982857Y-64067142D01*
X181078095Y-63924285D01*
X181125714Y-63733809D01*
X181125714Y-63352857D01*
X181078095Y-63257619D01*
X181030476Y-63210000D01*
X180935238Y-63162380D01*
X180744761Y-63162380D01*
X180649523Y-63210000D01*
X180601904Y-63257619D01*
X180554285Y-63352857D01*
X180554285Y-63590952D01*
X180601904Y-63686190D01*
X180649523Y-63733809D01*
X180744761Y-63781428D01*
X180935238Y-63781428D01*
X181030476Y-63733809D01*
X181078095Y-63686190D01*
X181125714Y-63590952D01*
X139517380Y-73191666D02*
X139041190Y-73525000D01*
X139517380Y-73763095D02*
X138517380Y-73763095D01*
X138517380Y-73382142D01*
X138565000Y-73286904D01*
X138612619Y-73239285D01*
X138707857Y-73191666D01*
X138850714Y-73191666D01*
X138945952Y-73239285D01*
X138993571Y-73286904D01*
X139041190Y-73382142D01*
X139041190Y-73763095D01*
X139517380Y-72239285D02*
X139517380Y-72810714D01*
X139517380Y-72525000D02*
X138517380Y-72525000D01*
X138660238Y-72620238D01*
X138755476Y-72715476D01*
X138803095Y-72810714D01*
X198112142Y-102592142D02*
X198064523Y-102639761D01*
X197921666Y-102687380D01*
X197826428Y-102687380D01*
X197683571Y-102639761D01*
X197588333Y-102544523D01*
X197540714Y-102449285D01*
X197493095Y-102258809D01*
X197493095Y-102115952D01*
X197540714Y-101925476D01*
X197588333Y-101830238D01*
X197683571Y-101735000D01*
X197826428Y-101687380D01*
X197921666Y-101687380D01*
X198064523Y-101735000D01*
X198112142Y-101782619D01*
X199064523Y-102687380D02*
X198493095Y-102687380D01*
X198778809Y-102687380D02*
X198778809Y-101687380D01*
X198683571Y-101830238D01*
X198588333Y-101925476D01*
X198493095Y-101973095D01*
X200016904Y-102687380D02*
X199445476Y-102687380D01*
X199731190Y-102687380D02*
X199731190Y-101687380D01*
X199635952Y-101830238D01*
X199540714Y-101925476D01*
X199445476Y-101973095D01*
X198112142Y-98782142D02*
X198064523Y-98829761D01*
X197921666Y-98877380D01*
X197826428Y-98877380D01*
X197683571Y-98829761D01*
X197588333Y-98734523D01*
X197540714Y-98639285D01*
X197493095Y-98448809D01*
X197493095Y-98305952D01*
X197540714Y-98115476D01*
X197588333Y-98020238D01*
X197683571Y-97925000D01*
X197826428Y-97877380D01*
X197921666Y-97877380D01*
X198064523Y-97925000D01*
X198112142Y-97972619D01*
X199064523Y-98877380D02*
X198493095Y-98877380D01*
X198778809Y-98877380D02*
X198778809Y-97877380D01*
X198683571Y-98020238D01*
X198588333Y-98115476D01*
X198493095Y-98163095D01*
X199445476Y-97972619D02*
X199493095Y-97925000D01*
X199588333Y-97877380D01*
X199826428Y-97877380D01*
X199921666Y-97925000D01*
X199969285Y-97972619D01*
X200016904Y-98067857D01*
X200016904Y-98163095D01*
X199969285Y-98305952D01*
X199397857Y-98877380D01*
X200016904Y-98877380D01*
X203442380Y-90868333D02*
X204156666Y-90868333D01*
X204299523Y-90915952D01*
X204394761Y-91011190D01*
X204442380Y-91154047D01*
X204442380Y-91249285D01*
X203537619Y-90439761D02*
X203490000Y-90392142D01*
X203442380Y-90296904D01*
X203442380Y-90058809D01*
X203490000Y-89963571D01*
X203537619Y-89915952D01*
X203632857Y-89868333D01*
X203728095Y-89868333D01*
X203870952Y-89915952D01*
X204442380Y-90487380D01*
X204442380Y-89868333D01*
X182967380Y-90757333D02*
X183681666Y-90757333D01*
X183824523Y-90804952D01*
X183919761Y-90900190D01*
X183967380Y-91043047D01*
X183967380Y-91138285D01*
X182967380Y-90376380D02*
X182967380Y-89757333D01*
X183348333Y-90090666D01*
X183348333Y-89947809D01*
X183395952Y-89852571D01*
X183443571Y-89804952D01*
X183538809Y-89757333D01*
X183776904Y-89757333D01*
X183872142Y-89804952D01*
X183919761Y-89852571D01*
X183967380Y-89947809D01*
X183967380Y-90233523D01*
X183919761Y-90328761D01*
X183872142Y-90376380D01*
X121158095Y-66277380D02*
X121158095Y-67086904D01*
X121205714Y-67182142D01*
X121253333Y-67229761D01*
X121348571Y-67277380D01*
X121539047Y-67277380D01*
X121634285Y-67229761D01*
X121681904Y-67182142D01*
X121729523Y-67086904D01*
X121729523Y-66277380D01*
X122729523Y-67277380D02*
X122158095Y-67277380D01*
X122443809Y-67277380D02*
X122443809Y-66277380D01*
X122348571Y-66420238D01*
X122253333Y-66515476D01*
X122158095Y-66563095D01*
X156718095Y-66912380D02*
X156718095Y-67721904D01*
X156765714Y-67817142D01*
X156813333Y-67864761D01*
X156908571Y-67912380D01*
X157099047Y-67912380D01*
X157194285Y-67864761D01*
X157241904Y-67817142D01*
X157289523Y-67721904D01*
X157289523Y-66912380D01*
X157718095Y-67007619D02*
X157765714Y-66960000D01*
X157860952Y-66912380D01*
X158099047Y-66912380D01*
X158194285Y-66960000D01*
X158241904Y-67007619D01*
X158289523Y-67102857D01*
X158289523Y-67198095D01*
X158241904Y-67340952D01*
X157670476Y-67912380D01*
X158289523Y-67912380D01*
X121158095Y-91042380D02*
X121158095Y-91851904D01*
X121205714Y-91947142D01*
X121253333Y-91994761D01*
X121348571Y-92042380D01*
X121539047Y-92042380D01*
X121634285Y-91994761D01*
X121681904Y-91947142D01*
X121729523Y-91851904D01*
X121729523Y-91042380D01*
X122110476Y-91042380D02*
X122729523Y-91042380D01*
X122396190Y-91423333D01*
X122539047Y-91423333D01*
X122634285Y-91470952D01*
X122681904Y-91518571D01*
X122729523Y-91613809D01*
X122729523Y-91851904D01*
X122681904Y-91947142D01*
X122634285Y-91994761D01*
X122539047Y-92042380D01*
X122253333Y-92042380D01*
X122158095Y-91994761D01*
X122110476Y-91947142D01*
X157353095Y-91677380D02*
X157353095Y-92486904D01*
X157400714Y-92582142D01*
X157448333Y-92629761D01*
X157543571Y-92677380D01*
X157734047Y-92677380D01*
X157829285Y-92629761D01*
X157876904Y-92582142D01*
X157924523Y-92486904D01*
X157924523Y-91677380D01*
X158829285Y-92010714D02*
X158829285Y-92677380D01*
X158591190Y-91629761D02*
X158353095Y-92344047D01*
X158972142Y-92344047D01*
X188622380Y-111704285D02*
X187622380Y-111704285D01*
X187622380Y-111323333D01*
X187670000Y-111228095D01*
X187717619Y-111180476D01*
X187812857Y-111132857D01*
X187955714Y-111132857D01*
X188050952Y-111180476D01*
X188098571Y-111228095D01*
X188146190Y-111323333D01*
X188146190Y-111704285D01*
X188622380Y-110180476D02*
X188622380Y-110751904D01*
X188622380Y-110466190D02*
X187622380Y-110466190D01*
X187765238Y-110561428D01*
X187860476Y-110656666D01*
X187908095Y-110751904D01*
X187622380Y-109561428D02*
X187622380Y-109466190D01*
X187670000Y-109370952D01*
X187717619Y-109323333D01*
X187812857Y-109275714D01*
X188003333Y-109228095D01*
X188241428Y-109228095D01*
X188431904Y-109275714D01*
X188527142Y-109323333D01*
X188574761Y-109370952D01*
X188622380Y-109466190D01*
X188622380Y-109561428D01*
X188574761Y-109656666D01*
X188527142Y-109704285D01*
X188431904Y-109751904D01*
X188241428Y-109799523D01*
X188003333Y-109799523D01*
X187812857Y-109751904D01*
X187717619Y-109704285D01*
X187670000Y-109656666D01*
X187622380Y-109561428D01*
M02*
