M48
; DRILL file {KiCad (5.1.5)-3} date 15/05/2021 17:53:50
; FORMAT={-:-/ absolute / inch / decimal}
; #@! TF.CreationDate,2021-05-15T17:53:50+02:00
; #@! TF.GenerationSoftware,Kicad,Pcbnew,(5.1.5)-3
; #@! TF.FileFunction,Plated,1,2,PTH
FMAT,2
INCH
T1C0.0236
T2C0.0315
T3C0.0394
T4C0.0433
%
G90
G05
T1
X7.35Y-3.275
X7.5974Y-3.0474
X7.625Y-2.8
X7.75Y-3.125
X8.025Y-2.7
X8.025Y-3.0
X8.025Y-3.1
X8.025Y-2.6
X8.1Y-2.575
X8.1012Y-3.1262
T2
X5.35Y-3.625
X5.35Y-3.7037
X5.35Y-3.7825
X5.35Y-3.8612
X5.35Y-3.94
X5.35Y-4.0187
X5.35Y-4.0974
X5.35Y-4.1762
X5.35Y-4.2549
X7.635Y-3.525
X7.635Y-3.6037
X7.7138Y-3.525
X7.7138Y-3.6037
X7.7925Y-3.525
X7.7925Y-3.6037
X7.8713Y-3.525
X7.8713Y-3.6037
X7.95Y-3.525
X7.95Y-3.6037
T3
X6.6Y-2.75
X6.6Y-2.85
X6.6Y-2.95
X6.6Y-3.05
X6.6Y-3.15
X6.6Y-3.25
X6.7Y-2.75
X6.7Y-2.85
X6.7Y-2.95
X6.7Y-3.05
X6.7Y-3.15
X6.7Y-3.25
X4.4Y-2.625
X4.4Y-2.725
X4.4Y-2.825
X4.4Y-2.925
X4.4Y-3.025
X4.4Y-3.125
X4.4Y-3.225
X5.2Y-2.825
X5.2Y-2.925
X5.2Y-3.025
X5.2Y-3.125
X5.3Y-2.825
X5.3Y-2.925
X5.3Y-3.025
X5.3Y-3.125
X5.8Y-2.65
X5.8Y-2.75
X5.8Y-2.85
X5.8Y-2.95
X5.8Y-3.05
X5.8Y-3.15
X5.8Y-3.25
X6.65Y-3.775
X6.65Y-3.875
X6.65Y-3.975
X6.65Y-4.075
X6.65Y-4.175
X6.75Y-3.775
X6.75Y-3.875
X6.75Y-3.975
X6.75Y-4.075
X6.75Y-4.175
X7.1Y-2.6
X7.1Y-2.7
X7.1Y-2.8
X7.1Y-2.9
X7.1Y-3.0
X7.1Y-3.1
X7.1Y-3.2
X5.825Y-3.625
X5.825Y-3.725
X5.825Y-3.825
X5.825Y-3.925
X5.825Y-4.025
X5.825Y-4.125
X5.825Y-4.225
X7.5Y-4.3
X7.5Y-4.4
X7.6Y-4.3
X7.6Y-4.4
X7.7Y-4.3
X7.7Y-4.4
X7.8Y-4.3
X7.8Y-4.4
X7.9Y-4.3
X7.9Y-4.4
X7.33Y-3.56
X7.43Y-3.56
X7.53Y-3.56
X4.4Y-3.6
X4.4Y-3.7
X4.4Y-3.8
X4.4Y-3.9
X4.4Y-4.0
X4.4Y-4.1
X4.4Y-4.2
T4
X6.025Y-3.725
X6.025Y-3.825
X6.025Y-3.925
X6.025Y-4.025
X6.025Y-4.125
X6.025Y-4.225
X6.425Y-3.725
X6.425Y-3.825
X6.425Y-3.925
X6.425Y-4.025
X6.425Y-4.125
X6.425Y-4.225
X6.0Y-2.75
X6.0Y-2.85
X6.0Y-2.95
X6.0Y-3.05
X6.0Y-3.15
X6.0Y-3.25
X6.4Y-2.75
X6.4Y-2.85
X6.4Y-2.95
X6.4Y-3.05
X6.4Y-3.15
X6.4Y-3.25
X7.225Y-3.75
X7.225Y-4.15
X7.325Y-3.75
X7.325Y-4.15
X7.425Y-3.75
X7.425Y-4.15
X7.525Y-3.75
X7.525Y-4.15
X7.625Y-3.75
X7.625Y-4.15
X7.725Y-3.75
X7.725Y-4.15
X7.825Y-3.75
X7.825Y-4.15
X7.925Y-3.75
X7.925Y-4.15
X8.025Y-3.75
X8.025Y-4.15
X8.125Y-3.75
X8.125Y-4.15
X4.6Y-3.7
X4.6Y-3.8
X4.6Y-3.9
X4.6Y-4.0
X4.6Y-4.1
X4.6Y-4.2
X5.0Y-3.7
X5.0Y-3.8
X5.0Y-3.9
X5.0Y-4.0
X5.0Y-4.1
X5.0Y-4.2
X4.6Y-2.725
X4.6Y-2.825
X4.6Y-2.925
X4.6Y-3.025
X4.6Y-3.125
X4.6Y-3.225
X5.0Y-2.725
X5.0Y-2.825
X5.0Y-2.925
X5.0Y-3.025
X5.0Y-3.125
X5.0Y-3.225
T0
M30
