%FSLAX45Y45*%
G04 Gerber Fmt 4.5, Leading zero omitted, Abs format (unit mm)*
G04 Created by KiCad (PCBNEW (5.1.5)-3) date 2021-05-15 17:53:47*
%MOMM*%
%LPD*%
G04 APERTURE LIST*
%TA.AperFunction,Profile*%
%ADD10C,0.150000*%
%TD*%
%ADD11C,0.200000*%
%ADD12C,0.300000*%
G04 APERTURE END LIST*
D10*
X21082000Y-6350000D02*
X20574000Y-6350000D01*
X20574000Y-11303000D02*
X21082000Y-11303000D01*
X17653000Y-6350000D02*
X20574000Y-6350000D01*
X17653000Y-11303000D02*
X20574000Y-11303000D01*
X10795000Y-6350000D02*
X10795000Y-11303000D01*
X17653000Y-6350000D02*
X10795000Y-6350000D01*
X21082000Y-11303000D02*
X21082000Y-6350000D01*
X10795000Y-11303000D02*
X17653000Y-11303000D01*
D11*
X18639000Y-8288500D02*
X18699000Y-8348500D01*
X18699000Y-8288500D02*
X18639000Y-8348500D01*
X19267500Y-7710500D02*
X19327500Y-7770500D01*
X19327500Y-7710500D02*
X19267500Y-7770500D01*
X19337500Y-7082000D02*
X19397500Y-7142000D01*
X19397500Y-7082000D02*
X19337500Y-7142000D01*
X19655000Y-7907500D02*
X19715000Y-7967500D01*
X19715000Y-7907500D02*
X19655000Y-7967500D01*
X20353500Y-6828000D02*
X20413500Y-6888000D01*
X20413500Y-6828000D02*
X20353500Y-6888000D01*
X20353500Y-7590000D02*
X20413500Y-7650000D01*
X20413500Y-7590000D02*
X20353500Y-7650000D01*
X20353500Y-7844000D02*
X20413500Y-7904000D01*
X20413500Y-7844000D02*
X20353500Y-7904000D01*
X20353501Y-6574000D02*
X20413501Y-6634000D01*
X20413501Y-6574000D02*
X20353501Y-6634000D01*
X20544000Y-6510500D02*
X20604000Y-6570500D01*
X20604000Y-6510500D02*
X20544000Y-6570500D01*
X20547000Y-7910500D02*
X20607000Y-7970500D01*
X20607000Y-7910500D02*
X20547000Y-7970500D01*
X13629000Y-9207500D02*
G75*
G03X13629000Y-9207500I-40000J0D01*
G01*
X13629000Y-9407500D02*
G75*
G03X13629000Y-9407500I-40000J0D01*
G01*
X13629000Y-9607500D02*
G75*
G03X13629000Y-9607500I-40000J0D01*
G01*
X13629000Y-9807500D02*
G75*
G03X13629000Y-9807500I-40000J0D01*
G01*
X13629000Y-10007500D02*
G75*
G03X13629000Y-10007500I-40000J0D01*
G01*
X13629000Y-10207500D02*
G75*
G03X13629000Y-10207500I-40000J0D01*
G01*
X13629000Y-10407500D02*
G75*
G03X13629000Y-10407500I-40000J0D01*
G01*
X13629000Y-10607500D02*
G75*
G03X13629000Y-10607500I-40000J0D01*
G01*
X13629000Y-10807500D02*
G75*
G03X13629000Y-10807500I-40000J0D01*
G01*
X19433000Y-8953500D02*
G75*
G03X19433000Y-8953500I-40000J0D01*
G01*
X19433000Y-9153500D02*
G75*
G03X19433000Y-9153500I-40000J0D01*
G01*
X19633000Y-8953500D02*
G75*
G03X19633000Y-8953500I-40000J0D01*
G01*
X19633000Y-9153500D02*
G75*
G03X19633000Y-9153500I-40000J0D01*
G01*
X19833000Y-8953500D02*
G75*
G03X19833000Y-8953500I-40000J0D01*
G01*
X19833000Y-9153500D02*
G75*
G03X19833000Y-9153500I-40000J0D01*
G01*
X20033000Y-8953500D02*
G75*
G03X20033000Y-8953500I-40000J0D01*
G01*
X20033000Y-9153500D02*
G75*
G03X20033000Y-9153500I-40000J0D01*
G01*
X20233000Y-8953500D02*
G75*
G03X20233000Y-8953500I-40000J0D01*
G01*
X20233000Y-9153500D02*
G75*
G03X20233000Y-9153500I-40000J0D01*
G01*
X16764000Y-6935000D02*
X16764000Y-7035000D01*
X16714000Y-6985000D02*
X16814000Y-6985000D01*
X16764000Y-7189000D02*
X16764000Y-7289000D01*
X16714000Y-7239000D02*
X16814000Y-7239000D01*
X16764000Y-7443000D02*
X16764000Y-7543000D01*
X16714000Y-7493000D02*
X16814000Y-7493000D01*
X16764000Y-7697000D02*
X16764000Y-7797000D01*
X16714000Y-7747000D02*
X16814000Y-7747000D01*
X16764000Y-7951000D02*
X16764000Y-8051000D01*
X16714000Y-8001000D02*
X16814000Y-8001000D01*
X16764000Y-8205000D02*
X16764000Y-8305000D01*
X16714000Y-8255000D02*
X16814000Y-8255000D01*
X17018000Y-6935000D02*
X17018000Y-7035000D01*
X16968000Y-6985000D02*
X17068000Y-6985000D01*
X17018000Y-7189000D02*
X17018000Y-7289000D01*
X16968000Y-7239000D02*
X17068000Y-7239000D01*
X17018000Y-7443000D02*
X17018000Y-7543000D01*
X16968000Y-7493000D02*
X17068000Y-7493000D01*
X17018000Y-7697000D02*
X17018000Y-7797000D01*
X16968000Y-7747000D02*
X17068000Y-7747000D01*
X17018000Y-7951000D02*
X17018000Y-8051000D01*
X16968000Y-8001000D02*
X17068000Y-8001000D01*
X17018000Y-8205000D02*
X17018000Y-8305000D01*
X16968000Y-8255000D02*
X17068000Y-8255000D01*
X11176000Y-6617500D02*
X11176000Y-6717500D01*
X11126000Y-6667500D02*
X11226000Y-6667500D01*
X11176000Y-6871500D02*
X11176000Y-6971500D01*
X11126000Y-6921500D02*
X11226000Y-6921500D01*
X11176000Y-7125500D02*
X11176000Y-7225500D01*
X11126000Y-7175500D02*
X11226000Y-7175500D01*
X11176000Y-7379500D02*
X11176000Y-7479500D01*
X11126000Y-7429500D02*
X11226000Y-7429500D01*
X11176000Y-7633500D02*
X11176000Y-7733500D01*
X11126000Y-7683500D02*
X11226000Y-7683500D01*
X11176000Y-7887500D02*
X11176000Y-7987500D01*
X11126000Y-7937500D02*
X11226000Y-7937500D01*
X11176000Y-8141500D02*
X11176000Y-8241500D01*
X11126000Y-8191500D02*
X11226000Y-8191500D01*
X13208000Y-7125500D02*
X13208000Y-7225500D01*
X13158000Y-7175500D02*
X13258000Y-7175500D01*
X13208000Y-7379500D02*
X13208000Y-7479500D01*
X13158000Y-7429500D02*
X13258000Y-7429500D01*
X13208000Y-7633500D02*
X13208000Y-7733500D01*
X13158000Y-7683500D02*
X13258000Y-7683500D01*
X13208000Y-7887500D02*
X13208000Y-7987500D01*
X13158000Y-7937500D02*
X13258000Y-7937500D01*
X13462000Y-7125500D02*
X13462000Y-7225500D01*
X13412000Y-7175500D02*
X13512000Y-7175500D01*
X13462000Y-7379500D02*
X13462000Y-7479500D01*
X13412000Y-7429500D02*
X13512000Y-7429500D01*
X13462000Y-7633500D02*
X13462000Y-7733500D01*
X13412000Y-7683500D02*
X13512000Y-7683500D01*
X13462000Y-7887500D02*
X13462000Y-7987500D01*
X13412000Y-7937500D02*
X13512000Y-7937500D01*
X14732000Y-6681000D02*
X14732000Y-6781000D01*
X14682000Y-6731000D02*
X14782000Y-6731000D01*
X14732000Y-6935000D02*
X14732000Y-7035000D01*
X14682000Y-6985000D02*
X14782000Y-6985000D01*
X14732000Y-7189000D02*
X14732000Y-7289000D01*
X14682000Y-7239000D02*
X14782000Y-7239000D01*
X14732000Y-7443000D02*
X14732000Y-7543000D01*
X14682000Y-7493000D02*
X14782000Y-7493000D01*
X14732000Y-7697000D02*
X14732000Y-7797000D01*
X14682000Y-7747000D02*
X14782000Y-7747000D01*
X14732000Y-7951000D02*
X14732000Y-8051000D01*
X14682000Y-8001000D02*
X14782000Y-8001000D01*
X14732000Y-8205000D02*
X14732000Y-8305000D01*
X14682000Y-8255000D02*
X14782000Y-8255000D01*
X16891000Y-9538500D02*
X16891000Y-9638500D01*
X16841000Y-9588500D02*
X16941000Y-9588500D01*
X16891000Y-9792500D02*
X16891000Y-9892500D01*
X16841000Y-9842500D02*
X16941000Y-9842500D01*
X16891000Y-10046500D02*
X16891000Y-10146500D01*
X16841000Y-10096500D02*
X16941000Y-10096500D01*
X16891000Y-10300500D02*
X16891000Y-10400500D01*
X16841000Y-10350500D02*
X16941000Y-10350500D01*
X16891000Y-10554500D02*
X16891000Y-10654500D01*
X16841000Y-10604500D02*
X16941000Y-10604500D01*
X17145000Y-9538500D02*
X17145000Y-9638500D01*
X17095000Y-9588500D02*
X17195000Y-9588500D01*
X17145000Y-9792500D02*
X17145000Y-9892500D01*
X17095000Y-9842500D02*
X17195000Y-9842500D01*
X17145000Y-10046500D02*
X17145000Y-10146500D01*
X17095000Y-10096500D02*
X17195000Y-10096500D01*
X17145000Y-10300500D02*
X17145000Y-10400500D01*
X17095000Y-10350500D02*
X17195000Y-10350500D01*
X17145000Y-10554500D02*
X17145000Y-10654500D01*
X17095000Y-10604500D02*
X17195000Y-10604500D01*
X18034000Y-6554000D02*
X18034000Y-6654000D01*
X17984000Y-6604000D02*
X18084000Y-6604000D01*
X18034000Y-6808000D02*
X18034000Y-6908000D01*
X17984000Y-6858000D02*
X18084000Y-6858000D01*
X18034000Y-7062000D02*
X18034000Y-7162000D01*
X17984000Y-7112000D02*
X18084000Y-7112000D01*
X18034000Y-7316000D02*
X18034000Y-7416000D01*
X17984000Y-7366000D02*
X18084000Y-7366000D01*
X18034000Y-7570000D02*
X18034000Y-7670000D01*
X17984000Y-7620000D02*
X18084000Y-7620000D01*
X18034000Y-7824000D02*
X18034000Y-7924000D01*
X17984000Y-7874000D02*
X18084000Y-7874000D01*
X18034000Y-8078000D02*
X18034000Y-8178000D01*
X17984000Y-8128000D02*
X18084000Y-8128000D01*
X14795500Y-9157500D02*
X14795500Y-9257500D01*
X14745500Y-9207500D02*
X14845500Y-9207500D01*
X14795500Y-9411500D02*
X14795500Y-9511500D01*
X14745500Y-9461500D02*
X14845500Y-9461500D01*
X14795500Y-9665500D02*
X14795500Y-9765500D01*
X14745500Y-9715500D02*
X14845500Y-9715500D01*
X14795500Y-9919500D02*
X14795500Y-10019500D01*
X14745500Y-9969500D02*
X14845500Y-9969500D01*
X14795500Y-10173500D02*
X14795500Y-10273500D01*
X14745500Y-10223500D02*
X14845500Y-10223500D01*
X14795500Y-10427500D02*
X14795500Y-10527500D01*
X14745500Y-10477500D02*
X14845500Y-10477500D01*
X14795500Y-10681500D02*
X14795500Y-10781500D01*
X14745500Y-10731500D02*
X14845500Y-10731500D01*
X19050000Y-10872000D02*
X19050000Y-10972000D01*
X19000000Y-10922000D02*
X19100000Y-10922000D01*
X19050000Y-11126000D02*
X19050000Y-11226000D01*
X19000000Y-11176000D02*
X19100000Y-11176000D01*
X19304000Y-10872000D02*
X19304000Y-10972000D01*
X19254000Y-10922000D02*
X19354000Y-10922000D01*
X19304000Y-11126000D02*
X19304000Y-11226000D01*
X19254000Y-11176000D02*
X19354000Y-11176000D01*
X19558000Y-10872000D02*
X19558000Y-10972000D01*
X19508000Y-10922000D02*
X19608000Y-10922000D01*
X19558000Y-11126000D02*
X19558000Y-11226000D01*
X19508000Y-11176000D02*
X19608000Y-11176000D01*
X19812000Y-10872000D02*
X19812000Y-10972000D01*
X19762000Y-10922000D02*
X19862000Y-10922000D01*
X19812000Y-11126000D02*
X19812000Y-11226000D01*
X19762000Y-11176000D02*
X19862000Y-11176000D01*
X20066000Y-10872000D02*
X20066000Y-10972000D01*
X20016000Y-10922000D02*
X20116000Y-10922000D01*
X20066000Y-11126000D02*
X20066000Y-11226000D01*
X20016000Y-11176000D02*
X20116000Y-11176000D01*
X18618200Y-8992400D02*
X18618200Y-9092400D01*
X18568200Y-9042400D02*
X18668200Y-9042400D01*
X18872200Y-8992400D02*
X18872200Y-9092400D01*
X18822200Y-9042400D02*
X18922200Y-9042400D01*
X19126200Y-8992400D02*
X19126200Y-9092400D01*
X19076200Y-9042400D02*
X19176200Y-9042400D01*
X11176000Y-9094000D02*
X11176000Y-9194000D01*
X11126000Y-9144000D02*
X11226000Y-9144000D01*
X11176000Y-9348000D02*
X11176000Y-9448000D01*
X11126000Y-9398000D02*
X11226000Y-9398000D01*
X11176000Y-9602000D02*
X11176000Y-9702000D01*
X11126000Y-9652000D02*
X11226000Y-9652000D01*
X11176000Y-9856000D02*
X11176000Y-9956000D01*
X11126000Y-9906000D02*
X11226000Y-9906000D01*
X11176000Y-10110000D02*
X11176000Y-10210000D01*
X11126000Y-10160000D02*
X11226000Y-10160000D01*
X11176000Y-10364000D02*
X11176000Y-10464000D01*
X11126000Y-10414000D02*
X11226000Y-10414000D01*
X11176000Y-10618000D02*
X11176000Y-10718000D01*
X11126000Y-10668000D02*
X11226000Y-10668000D01*
X15342391Y-9500391D02*
X15342391Y-9422609D01*
X15264609Y-9422609D01*
X15264609Y-9500391D01*
X15342391Y-9500391D01*
X15342391Y-9754391D02*
X15342391Y-9676609D01*
X15264609Y-9676609D01*
X15264609Y-9754391D01*
X15342391Y-9754391D01*
X15342391Y-10008391D02*
X15342391Y-9930609D01*
X15264609Y-9930609D01*
X15264609Y-10008391D01*
X15342391Y-10008391D01*
X15342391Y-10262391D02*
X15342391Y-10184609D01*
X15264609Y-10184609D01*
X15264609Y-10262391D01*
X15342391Y-10262391D01*
X15342391Y-10516391D02*
X15342391Y-10438609D01*
X15264609Y-10438609D01*
X15264609Y-10516391D01*
X15342391Y-10516391D01*
X15342391Y-10770391D02*
X15342391Y-10692609D01*
X15264609Y-10692609D01*
X15264609Y-10770391D01*
X15342391Y-10770391D01*
X16358391Y-9500391D02*
X16358391Y-9422609D01*
X16280609Y-9422609D01*
X16280609Y-9500391D01*
X16358391Y-9500391D01*
X16358391Y-9754391D02*
X16358391Y-9676609D01*
X16280609Y-9676609D01*
X16280609Y-9754391D01*
X16358391Y-9754391D01*
X16358391Y-10008391D02*
X16358391Y-9930609D01*
X16280609Y-9930609D01*
X16280609Y-10008391D01*
X16358391Y-10008391D01*
X16358391Y-10262391D02*
X16358391Y-10184609D01*
X16280609Y-10184609D01*
X16280609Y-10262391D01*
X16358391Y-10262391D01*
X16358391Y-10516391D02*
X16358391Y-10438609D01*
X16280609Y-10438609D01*
X16280609Y-10516391D01*
X16358391Y-10516391D01*
X16358391Y-10770391D02*
X16358391Y-10692609D01*
X16280609Y-10692609D01*
X16280609Y-10770391D01*
X16358391Y-10770391D01*
X15278891Y-7023891D02*
X15278891Y-6946109D01*
X15201109Y-6946109D01*
X15201109Y-7023891D01*
X15278891Y-7023891D01*
X15278891Y-7277891D02*
X15278891Y-7200109D01*
X15201109Y-7200109D01*
X15201109Y-7277891D01*
X15278891Y-7277891D01*
X15278891Y-7531891D02*
X15278891Y-7454109D01*
X15201109Y-7454109D01*
X15201109Y-7531891D01*
X15278891Y-7531891D01*
X15278891Y-7785891D02*
X15278891Y-7708109D01*
X15201109Y-7708109D01*
X15201109Y-7785891D01*
X15278891Y-7785891D01*
X15278891Y-8039891D02*
X15278891Y-7962109D01*
X15201109Y-7962109D01*
X15201109Y-8039891D01*
X15278891Y-8039891D01*
X15278891Y-8293891D02*
X15278891Y-8216109D01*
X15201109Y-8216109D01*
X15201109Y-8293891D01*
X15278891Y-8293891D01*
X16294891Y-7023891D02*
X16294891Y-6946109D01*
X16217109Y-6946109D01*
X16217109Y-7023891D01*
X16294891Y-7023891D01*
X16294891Y-7277891D02*
X16294891Y-7200109D01*
X16217109Y-7200109D01*
X16217109Y-7277891D01*
X16294891Y-7277891D01*
X16294891Y-7531891D02*
X16294891Y-7454109D01*
X16217109Y-7454109D01*
X16217109Y-7531891D01*
X16294891Y-7531891D01*
X16294891Y-7785891D02*
X16294891Y-7708109D01*
X16217109Y-7708109D01*
X16217109Y-7785891D01*
X16294891Y-7785891D01*
X16294891Y-8039891D02*
X16294891Y-7962109D01*
X16217109Y-7962109D01*
X16217109Y-8039891D01*
X16294891Y-8039891D01*
X16294891Y-8293891D02*
X16294891Y-8216109D01*
X16217109Y-8216109D01*
X16217109Y-8293891D01*
X16294891Y-8293891D01*
X18390391Y-9563891D02*
X18390391Y-9486109D01*
X18312609Y-9486109D01*
X18312609Y-9563891D01*
X18390391Y-9563891D01*
X18390391Y-10579891D02*
X18390391Y-10502109D01*
X18312609Y-10502109D01*
X18312609Y-10579891D01*
X18390391Y-10579891D01*
X18644391Y-9563891D02*
X18644391Y-9486109D01*
X18566609Y-9486109D01*
X18566609Y-9563891D01*
X18644391Y-9563891D01*
X18644391Y-10579891D02*
X18644391Y-10502109D01*
X18566609Y-10502109D01*
X18566609Y-10579891D01*
X18644391Y-10579891D01*
X18898391Y-9563891D02*
X18898391Y-9486109D01*
X18820609Y-9486109D01*
X18820609Y-9563891D01*
X18898391Y-9563891D01*
X18898391Y-10579891D02*
X18898391Y-10502109D01*
X18820609Y-10502109D01*
X18820609Y-10579891D01*
X18898391Y-10579891D01*
X19152391Y-9563891D02*
X19152391Y-9486109D01*
X19074609Y-9486109D01*
X19074609Y-9563891D01*
X19152391Y-9563891D01*
X19152391Y-10579891D02*
X19152391Y-10502109D01*
X19074609Y-10502109D01*
X19074609Y-10579891D01*
X19152391Y-10579891D01*
X19406391Y-9563891D02*
X19406391Y-9486109D01*
X19328609Y-9486109D01*
X19328609Y-9563891D01*
X19406391Y-9563891D01*
X19406391Y-10579891D02*
X19406391Y-10502109D01*
X19328609Y-10502109D01*
X19328609Y-10579891D01*
X19406391Y-10579891D01*
X19660391Y-9563891D02*
X19660391Y-9486109D01*
X19582609Y-9486109D01*
X19582609Y-9563891D01*
X19660391Y-9563891D01*
X19660391Y-10579891D02*
X19660391Y-10502109D01*
X19582609Y-10502109D01*
X19582609Y-10579891D01*
X19660391Y-10579891D01*
X19914391Y-9563891D02*
X19914391Y-9486109D01*
X19836609Y-9486109D01*
X19836609Y-9563891D01*
X19914391Y-9563891D01*
X19914391Y-10579891D02*
X19914391Y-10502109D01*
X19836609Y-10502109D01*
X19836609Y-10579891D01*
X19914391Y-10579891D01*
X20168391Y-9563891D02*
X20168391Y-9486109D01*
X20090609Y-9486109D01*
X20090609Y-9563891D01*
X20168391Y-9563891D01*
X20168391Y-10579891D02*
X20168391Y-10502109D01*
X20090609Y-10502109D01*
X20090609Y-10579891D01*
X20168391Y-10579891D01*
X20422391Y-9563891D02*
X20422391Y-9486109D01*
X20344609Y-9486109D01*
X20344609Y-9563891D01*
X20422391Y-9563891D01*
X20422391Y-10579891D02*
X20422391Y-10502109D01*
X20344609Y-10502109D01*
X20344609Y-10579891D01*
X20422391Y-10579891D01*
X20676391Y-9563891D02*
X20676391Y-9486109D01*
X20598609Y-9486109D01*
X20598609Y-9563891D01*
X20676391Y-9563891D01*
X20676391Y-10579891D02*
X20676391Y-10502109D01*
X20598609Y-10502109D01*
X20598609Y-10579891D01*
X20676391Y-10579891D01*
X11722891Y-9436891D02*
X11722891Y-9359109D01*
X11645109Y-9359109D01*
X11645109Y-9436891D01*
X11722891Y-9436891D01*
X11722891Y-9690891D02*
X11722891Y-9613109D01*
X11645109Y-9613109D01*
X11645109Y-9690891D01*
X11722891Y-9690891D01*
X11722891Y-9944891D02*
X11722891Y-9867109D01*
X11645109Y-9867109D01*
X11645109Y-9944891D01*
X11722891Y-9944891D01*
X11722891Y-10198891D02*
X11722891Y-10121109D01*
X11645109Y-10121109D01*
X11645109Y-10198891D01*
X11722891Y-10198891D01*
X11722891Y-10452891D02*
X11722891Y-10375109D01*
X11645109Y-10375109D01*
X11645109Y-10452891D01*
X11722891Y-10452891D01*
X11722891Y-10706891D02*
X11722891Y-10629109D01*
X11645109Y-10629109D01*
X11645109Y-10706891D01*
X11722891Y-10706891D01*
X12738891Y-9436891D02*
X12738891Y-9359109D01*
X12661109Y-9359109D01*
X12661109Y-9436891D01*
X12738891Y-9436891D01*
X12738891Y-9690891D02*
X12738891Y-9613109D01*
X12661109Y-9613109D01*
X12661109Y-9690891D01*
X12738891Y-9690891D01*
X12738891Y-9944891D02*
X12738891Y-9867109D01*
X12661109Y-9867109D01*
X12661109Y-9944891D01*
X12738891Y-9944891D01*
X12738891Y-10198891D02*
X12738891Y-10121109D01*
X12661109Y-10121109D01*
X12661109Y-10198891D01*
X12738891Y-10198891D01*
X12738891Y-10452891D02*
X12738891Y-10375109D01*
X12661109Y-10375109D01*
X12661109Y-10452891D01*
X12738891Y-10452891D01*
X12738891Y-10706891D02*
X12738891Y-10629109D01*
X12661109Y-10629109D01*
X12661109Y-10706891D01*
X12738891Y-10706891D01*
X11722891Y-6960391D02*
X11722891Y-6882609D01*
X11645109Y-6882609D01*
X11645109Y-6960391D01*
X11722891Y-6960391D01*
X11722891Y-7214391D02*
X11722891Y-7136609D01*
X11645109Y-7136609D01*
X11645109Y-7214391D01*
X11722891Y-7214391D01*
X11722891Y-7468391D02*
X11722891Y-7390609D01*
X11645109Y-7390609D01*
X11645109Y-7468391D01*
X11722891Y-7468391D01*
X11722891Y-7722391D02*
X11722891Y-7644609D01*
X11645109Y-7644609D01*
X11645109Y-7722391D01*
X11722891Y-7722391D01*
X11722891Y-7976391D02*
X11722891Y-7898609D01*
X11645109Y-7898609D01*
X11645109Y-7976391D01*
X11722891Y-7976391D01*
X11722891Y-8230391D02*
X11722891Y-8152609D01*
X11645109Y-8152609D01*
X11645109Y-8230391D01*
X11722891Y-8230391D01*
X12738891Y-6960391D02*
X12738891Y-6882609D01*
X12661109Y-6882609D01*
X12661109Y-6960391D01*
X12738891Y-6960391D01*
X12738891Y-7214391D02*
X12738891Y-7136609D01*
X12661109Y-7136609D01*
X12661109Y-7214391D01*
X12738891Y-7214391D01*
X12738891Y-7468391D02*
X12738891Y-7390609D01*
X12661109Y-7390609D01*
X12661109Y-7468391D01*
X12738891Y-7468391D01*
X12738891Y-7722391D02*
X12738891Y-7644609D01*
X12661109Y-7644609D01*
X12661109Y-7722391D01*
X12738891Y-7722391D01*
X12738891Y-7976391D02*
X12738891Y-7898609D01*
X12661109Y-7898609D01*
X12661109Y-7976391D01*
X12738891Y-7976391D01*
X12738891Y-8230391D02*
X12738891Y-8152609D01*
X12661109Y-8152609D01*
X12661109Y-8230391D01*
X12738891Y-8230391D01*
D12*
X286429Y-465714D02*
X286429Y-165714D01*
X357857Y-165714D01*
X400714Y-180000D01*
X429286Y-208571D01*
X443571Y-237143D01*
X457857Y-294286D01*
X457857Y-337143D01*
X443571Y-394286D01*
X429286Y-422857D01*
X400714Y-451428D01*
X357857Y-465714D01*
X286429Y-465714D01*
X586429Y-465714D02*
X586429Y-265714D01*
X586429Y-322857D02*
X600714Y-294286D01*
X615000Y-280000D01*
X643571Y-265714D01*
X672143Y-265714D01*
X772143Y-465714D02*
X772143Y-265714D01*
X772143Y-165714D02*
X757857Y-180000D01*
X772143Y-194286D01*
X786428Y-180000D01*
X772143Y-165714D01*
X772143Y-194286D01*
X957857Y-465714D02*
X929286Y-451428D01*
X915000Y-422857D01*
X915000Y-165714D01*
X1115000Y-465714D02*
X1086429Y-451428D01*
X1072143Y-422857D01*
X1072143Y-165714D01*
X1457857Y-465714D02*
X1457857Y-165714D01*
X1557857Y-380000D01*
X1657857Y-165714D01*
X1657857Y-465714D01*
X1929286Y-465714D02*
X1929286Y-308571D01*
X1915000Y-280000D01*
X1886428Y-265714D01*
X1829286Y-265714D01*
X1800714Y-280000D01*
X1929286Y-451428D02*
X1900714Y-465714D01*
X1829286Y-465714D01*
X1800714Y-451428D01*
X1786428Y-422857D01*
X1786428Y-394286D01*
X1800714Y-365714D01*
X1829286Y-351428D01*
X1900714Y-351428D01*
X1929286Y-337143D01*
X2072143Y-265714D02*
X2072143Y-565714D01*
X2072143Y-280000D02*
X2100714Y-265714D01*
X2157857Y-265714D01*
X2186429Y-280000D01*
X2200714Y-294286D01*
X2215000Y-322857D01*
X2215000Y-408571D01*
X2200714Y-437143D01*
X2186429Y-451428D01*
X2157857Y-465714D01*
X2100714Y-465714D01*
X2072143Y-451428D01*
X2343571Y-437143D02*
X2357857Y-451428D01*
X2343571Y-465714D01*
X2329286Y-451428D01*
X2343571Y-437143D01*
X2343571Y-465714D01*
X2343571Y-280000D02*
X2357857Y-294286D01*
X2343571Y-308571D01*
X2329286Y-294286D01*
X2343571Y-280000D01*
X2343571Y-308571D01*
X-60000Y-930000D02*
X0Y-990000D01*
X0Y-930000D02*
X-60000Y-990000D01*
X343571Y-795714D02*
X372143Y-795714D01*
X400714Y-810000D01*
X415000Y-824286D01*
X429286Y-852857D01*
X443571Y-910000D01*
X443571Y-981428D01*
X429286Y-1038571D01*
X415000Y-1067143D01*
X400714Y-1081429D01*
X372143Y-1095714D01*
X343571Y-1095714D01*
X315000Y-1081429D01*
X300714Y-1067143D01*
X286429Y-1038571D01*
X272143Y-981428D01*
X272143Y-910000D01*
X286429Y-852857D01*
X300714Y-824286D01*
X315000Y-810000D01*
X343571Y-795714D01*
X572143Y-1067143D02*
X586429Y-1081429D01*
X572143Y-1095714D01*
X557857Y-1081429D01*
X572143Y-1067143D01*
X572143Y-1095714D01*
X843571Y-795714D02*
X786428Y-795714D01*
X757857Y-810000D01*
X743571Y-824286D01*
X715000Y-867143D01*
X700714Y-924286D01*
X700714Y-1038571D01*
X715000Y-1067143D01*
X729286Y-1081429D01*
X757857Y-1095714D01*
X815000Y-1095714D01*
X843571Y-1081429D01*
X857857Y-1067143D01*
X872143Y-1038571D01*
X872143Y-967143D01*
X857857Y-938571D01*
X843571Y-924286D01*
X815000Y-910000D01*
X757857Y-910000D01*
X729286Y-924286D01*
X715000Y-938571D01*
X700714Y-967143D01*
X1057857Y-795714D02*
X1086429Y-795714D01*
X1115000Y-810000D01*
X1129286Y-824286D01*
X1143571Y-852857D01*
X1157857Y-910000D01*
X1157857Y-981428D01*
X1143571Y-1038571D01*
X1129286Y-1067143D01*
X1115000Y-1081429D01*
X1086429Y-1095714D01*
X1057857Y-1095714D01*
X1029286Y-1081429D01*
X1015000Y-1067143D01*
X1000714Y-1038571D01*
X986428Y-981428D01*
X986428Y-910000D01*
X1000714Y-852857D01*
X1015000Y-824286D01*
X1029286Y-810000D01*
X1057857Y-795714D01*
X1286429Y-1095714D02*
X1286429Y-895714D01*
X1286429Y-924286D02*
X1300714Y-910000D01*
X1329286Y-895714D01*
X1372143Y-895714D01*
X1400714Y-910000D01*
X1415000Y-938571D01*
X1415000Y-1095714D01*
X1415000Y-938571D02*
X1429286Y-910000D01*
X1457857Y-895714D01*
X1500714Y-895714D01*
X1529286Y-910000D01*
X1543571Y-938571D01*
X1543571Y-1095714D01*
X1686428Y-1095714D02*
X1686428Y-895714D01*
X1686428Y-924286D02*
X1700714Y-910000D01*
X1729286Y-895714D01*
X1772143Y-895714D01*
X1800714Y-910000D01*
X1815000Y-938571D01*
X1815000Y-1095714D01*
X1815000Y-938571D02*
X1829286Y-910000D01*
X1857857Y-895714D01*
X1900714Y-895714D01*
X1929286Y-910000D01*
X1943571Y-938571D01*
X1943571Y-1095714D01*
X2529286Y-781428D02*
X2272143Y-1167143D01*
X2915000Y-795714D02*
X2943571Y-795714D01*
X2972143Y-810000D01*
X2986428Y-824286D01*
X3000714Y-852857D01*
X3015000Y-910000D01*
X3015000Y-981428D01*
X3000714Y-1038571D01*
X2986428Y-1067143D01*
X2972143Y-1081429D01*
X2943571Y-1095714D01*
X2915000Y-1095714D01*
X2886428Y-1081429D01*
X2872143Y-1067143D01*
X2857857Y-1038571D01*
X2843571Y-981428D01*
X2843571Y-910000D01*
X2857857Y-852857D01*
X2872143Y-824286D01*
X2886428Y-810000D01*
X2915000Y-795714D01*
X3143571Y-1067143D02*
X3157857Y-1081429D01*
X3143571Y-1095714D01*
X3129286Y-1081429D01*
X3143571Y-1067143D01*
X3143571Y-1095714D01*
X3343571Y-795714D02*
X3372143Y-795714D01*
X3400714Y-810000D01*
X3415000Y-824286D01*
X3429286Y-852857D01*
X3443571Y-910000D01*
X3443571Y-981428D01*
X3429286Y-1038571D01*
X3415000Y-1067143D01*
X3400714Y-1081429D01*
X3372143Y-1095714D01*
X3343571Y-1095714D01*
X3315000Y-1081429D01*
X3300714Y-1067143D01*
X3286428Y-1038571D01*
X3272143Y-981428D01*
X3272143Y-910000D01*
X3286428Y-852857D01*
X3300714Y-824286D01*
X3315000Y-810000D01*
X3343571Y-795714D01*
X3557857Y-824286D02*
X3572143Y-810000D01*
X3600714Y-795714D01*
X3672143Y-795714D01*
X3700714Y-810000D01*
X3715000Y-824286D01*
X3729286Y-852857D01*
X3729286Y-881428D01*
X3715000Y-924286D01*
X3543571Y-1095714D01*
X3729286Y-1095714D01*
X3986428Y-895714D02*
X3986428Y-1095714D01*
X3915000Y-781428D02*
X3843571Y-995714D01*
X4029286Y-995714D01*
X4129286Y-795714D02*
X4129286Y-852857D01*
X4243571Y-795714D02*
X4243571Y-852857D01*
X4686429Y-1210000D02*
X4672143Y-1195714D01*
X4643571Y-1152857D01*
X4629286Y-1124286D01*
X4615000Y-1081429D01*
X4600714Y-1010000D01*
X4600714Y-952857D01*
X4615000Y-881428D01*
X4629286Y-838571D01*
X4643571Y-810000D01*
X4672143Y-767143D01*
X4686429Y-752857D01*
X4957857Y-1095714D02*
X4786429Y-1095714D01*
X4872143Y-1095714D02*
X4872143Y-795714D01*
X4843571Y-838571D01*
X4815000Y-867143D01*
X4786429Y-881428D01*
X5143571Y-795714D02*
X5172143Y-795714D01*
X5200714Y-810000D01*
X5215000Y-824286D01*
X5229286Y-852857D01*
X5243571Y-910000D01*
X5243571Y-981428D01*
X5229286Y-1038571D01*
X5215000Y-1067143D01*
X5200714Y-1081429D01*
X5172143Y-1095714D01*
X5143571Y-1095714D01*
X5115000Y-1081429D01*
X5100714Y-1067143D01*
X5086429Y-1038571D01*
X5072143Y-981428D01*
X5072143Y-910000D01*
X5086429Y-852857D01*
X5100714Y-824286D01*
X5115000Y-810000D01*
X5143571Y-795714D01*
X5600714Y-1095714D02*
X5600714Y-795714D01*
X5729286Y-1095714D02*
X5729286Y-938571D01*
X5715000Y-910000D01*
X5686428Y-895714D01*
X5643571Y-895714D01*
X5615000Y-910000D01*
X5600714Y-924286D01*
X5915000Y-1095714D02*
X5886428Y-1081429D01*
X5872143Y-1067143D01*
X5857857Y-1038571D01*
X5857857Y-952857D01*
X5872143Y-924286D01*
X5886428Y-910000D01*
X5915000Y-895714D01*
X5957857Y-895714D01*
X5986428Y-910000D01*
X6000714Y-924286D01*
X6015000Y-952857D01*
X6015000Y-1038571D01*
X6000714Y-1067143D01*
X5986428Y-1081429D01*
X5957857Y-1095714D01*
X5915000Y-1095714D01*
X6186428Y-1095714D02*
X6157857Y-1081429D01*
X6143571Y-1052857D01*
X6143571Y-795714D01*
X6415000Y-1081429D02*
X6386428Y-1095714D01*
X6329286Y-1095714D01*
X6300714Y-1081429D01*
X6286428Y-1052857D01*
X6286428Y-938571D01*
X6300714Y-910000D01*
X6329286Y-895714D01*
X6386428Y-895714D01*
X6415000Y-910000D01*
X6429286Y-938571D01*
X6429286Y-967143D01*
X6286428Y-995714D01*
X6543571Y-1081429D02*
X6572143Y-1095714D01*
X6629286Y-1095714D01*
X6657857Y-1081429D01*
X6672143Y-1052857D01*
X6672143Y-1038571D01*
X6657857Y-1010000D01*
X6629286Y-995714D01*
X6586428Y-995714D01*
X6557857Y-981428D01*
X6543571Y-952857D01*
X6543571Y-938571D01*
X6557857Y-910000D01*
X6586428Y-895714D01*
X6629286Y-895714D01*
X6657857Y-910000D01*
X6772143Y-1210000D02*
X6786428Y-1195714D01*
X6815000Y-1152857D01*
X6829286Y-1124286D01*
X6843571Y-1081429D01*
X6857857Y-1010000D01*
X6857857Y-952857D01*
X6843571Y-881428D01*
X6829286Y-838571D01*
X6815000Y-810000D01*
X6786428Y-767143D01*
X6772143Y-752857D01*
X0Y-1356000D02*
G75*
G03X0Y-1356000I-40000J0D01*
G01*
X343571Y-1191714D02*
X372143Y-1191714D01*
X400714Y-1206000D01*
X415000Y-1220286D01*
X429286Y-1248857D01*
X443571Y-1306000D01*
X443571Y-1377429D01*
X429286Y-1434571D01*
X415000Y-1463143D01*
X400714Y-1477428D01*
X372143Y-1491714D01*
X343571Y-1491714D01*
X315000Y-1477428D01*
X300714Y-1463143D01*
X286429Y-1434571D01*
X272143Y-1377429D01*
X272143Y-1306000D01*
X286429Y-1248857D01*
X300714Y-1220286D01*
X315000Y-1206000D01*
X343571Y-1191714D01*
X572143Y-1463143D02*
X586429Y-1477428D01*
X572143Y-1491714D01*
X557857Y-1477428D01*
X572143Y-1463143D01*
X572143Y-1491714D01*
X757857Y-1320286D02*
X729286Y-1306000D01*
X715000Y-1291714D01*
X700714Y-1263143D01*
X700714Y-1248857D01*
X715000Y-1220286D01*
X729286Y-1206000D01*
X757857Y-1191714D01*
X815000Y-1191714D01*
X843571Y-1206000D01*
X857857Y-1220286D01*
X872143Y-1248857D01*
X872143Y-1263143D01*
X857857Y-1291714D01*
X843571Y-1306000D01*
X815000Y-1320286D01*
X757857Y-1320286D01*
X729286Y-1334571D01*
X715000Y-1348857D01*
X700714Y-1377429D01*
X700714Y-1434571D01*
X715000Y-1463143D01*
X729286Y-1477428D01*
X757857Y-1491714D01*
X815000Y-1491714D01*
X843571Y-1477428D01*
X857857Y-1463143D01*
X872143Y-1434571D01*
X872143Y-1377429D01*
X857857Y-1348857D01*
X843571Y-1334571D01*
X815000Y-1320286D01*
X1057857Y-1191714D02*
X1086429Y-1191714D01*
X1115000Y-1206000D01*
X1129286Y-1220286D01*
X1143571Y-1248857D01*
X1157857Y-1306000D01*
X1157857Y-1377429D01*
X1143571Y-1434571D01*
X1129286Y-1463143D01*
X1115000Y-1477428D01*
X1086429Y-1491714D01*
X1057857Y-1491714D01*
X1029286Y-1477428D01*
X1015000Y-1463143D01*
X1000714Y-1434571D01*
X986428Y-1377429D01*
X986428Y-1306000D01*
X1000714Y-1248857D01*
X1015000Y-1220286D01*
X1029286Y-1206000D01*
X1057857Y-1191714D01*
X1286429Y-1491714D02*
X1286429Y-1291714D01*
X1286429Y-1320286D02*
X1300714Y-1306000D01*
X1329286Y-1291714D01*
X1372143Y-1291714D01*
X1400714Y-1306000D01*
X1415000Y-1334571D01*
X1415000Y-1491714D01*
X1415000Y-1334571D02*
X1429286Y-1306000D01*
X1457857Y-1291714D01*
X1500714Y-1291714D01*
X1529286Y-1306000D01*
X1543571Y-1334571D01*
X1543571Y-1491714D01*
X1686428Y-1491714D02*
X1686428Y-1291714D01*
X1686428Y-1320286D02*
X1700714Y-1306000D01*
X1729286Y-1291714D01*
X1772143Y-1291714D01*
X1800714Y-1306000D01*
X1815000Y-1334571D01*
X1815000Y-1491714D01*
X1815000Y-1334571D02*
X1829286Y-1306000D01*
X1857857Y-1291714D01*
X1900714Y-1291714D01*
X1929286Y-1306000D01*
X1943571Y-1334571D01*
X1943571Y-1491714D01*
X2529286Y-1177429D02*
X2272143Y-1563143D01*
X2915000Y-1191714D02*
X2943571Y-1191714D01*
X2972143Y-1206000D01*
X2986428Y-1220286D01*
X3000714Y-1248857D01*
X3015000Y-1306000D01*
X3015000Y-1377429D01*
X3000714Y-1434571D01*
X2986428Y-1463143D01*
X2972143Y-1477428D01*
X2943571Y-1491714D01*
X2915000Y-1491714D01*
X2886428Y-1477428D01*
X2872143Y-1463143D01*
X2857857Y-1434571D01*
X2843571Y-1377429D01*
X2843571Y-1306000D01*
X2857857Y-1248857D01*
X2872143Y-1220286D01*
X2886428Y-1206000D01*
X2915000Y-1191714D01*
X3143571Y-1463143D02*
X3157857Y-1477428D01*
X3143571Y-1491714D01*
X3129286Y-1477428D01*
X3143571Y-1463143D01*
X3143571Y-1491714D01*
X3343571Y-1191714D02*
X3372143Y-1191714D01*
X3400714Y-1206000D01*
X3415000Y-1220286D01*
X3429286Y-1248857D01*
X3443571Y-1306000D01*
X3443571Y-1377429D01*
X3429286Y-1434571D01*
X3415000Y-1463143D01*
X3400714Y-1477428D01*
X3372143Y-1491714D01*
X3343571Y-1491714D01*
X3315000Y-1477428D01*
X3300714Y-1463143D01*
X3286428Y-1434571D01*
X3272143Y-1377429D01*
X3272143Y-1306000D01*
X3286428Y-1248857D01*
X3300714Y-1220286D01*
X3315000Y-1206000D01*
X3343571Y-1191714D01*
X3543571Y-1191714D02*
X3729286Y-1191714D01*
X3629286Y-1306000D01*
X3672143Y-1306000D01*
X3700714Y-1320286D01*
X3715000Y-1334571D01*
X3729286Y-1363143D01*
X3729286Y-1434571D01*
X3715000Y-1463143D01*
X3700714Y-1477428D01*
X3672143Y-1491714D01*
X3586428Y-1491714D01*
X3557857Y-1477428D01*
X3543571Y-1463143D01*
X4015000Y-1491714D02*
X3843571Y-1491714D01*
X3929286Y-1491714D02*
X3929286Y-1191714D01*
X3900714Y-1234571D01*
X3872143Y-1263143D01*
X3843571Y-1277429D01*
X4129286Y-1191714D02*
X4129286Y-1248857D01*
X4243571Y-1191714D02*
X4243571Y-1248857D01*
X4686429Y-1606000D02*
X4672143Y-1591714D01*
X4643571Y-1548857D01*
X4629286Y-1520286D01*
X4615000Y-1477428D01*
X4600714Y-1406000D01*
X4600714Y-1348857D01*
X4615000Y-1277429D01*
X4629286Y-1234571D01*
X4643571Y-1206000D01*
X4672143Y-1163143D01*
X4686429Y-1148857D01*
X4957857Y-1491714D02*
X4786429Y-1491714D01*
X4872143Y-1491714D02*
X4872143Y-1191714D01*
X4843571Y-1234571D01*
X4815000Y-1263143D01*
X4786429Y-1277429D01*
X5100714Y-1491714D02*
X5157857Y-1491714D01*
X5186429Y-1477428D01*
X5200714Y-1463143D01*
X5229286Y-1420286D01*
X5243571Y-1363143D01*
X5243571Y-1248857D01*
X5229286Y-1220286D01*
X5215000Y-1206000D01*
X5186429Y-1191714D01*
X5129286Y-1191714D01*
X5100714Y-1206000D01*
X5086429Y-1220286D01*
X5072143Y-1248857D01*
X5072143Y-1320286D01*
X5086429Y-1348857D01*
X5100714Y-1363143D01*
X5129286Y-1377429D01*
X5186429Y-1377429D01*
X5215000Y-1363143D01*
X5229286Y-1348857D01*
X5243571Y-1320286D01*
X5600714Y-1491714D02*
X5600714Y-1191714D01*
X5729286Y-1491714D02*
X5729286Y-1334571D01*
X5715000Y-1306000D01*
X5686428Y-1291714D01*
X5643571Y-1291714D01*
X5615000Y-1306000D01*
X5600714Y-1320286D01*
X5915000Y-1491714D02*
X5886428Y-1477428D01*
X5872143Y-1463143D01*
X5857857Y-1434571D01*
X5857857Y-1348857D01*
X5872143Y-1320286D01*
X5886428Y-1306000D01*
X5915000Y-1291714D01*
X5957857Y-1291714D01*
X5986428Y-1306000D01*
X6000714Y-1320286D01*
X6015000Y-1348857D01*
X6015000Y-1434571D01*
X6000714Y-1463143D01*
X5986428Y-1477428D01*
X5957857Y-1491714D01*
X5915000Y-1491714D01*
X6186428Y-1491714D02*
X6157857Y-1477428D01*
X6143571Y-1448857D01*
X6143571Y-1191714D01*
X6415000Y-1477428D02*
X6386428Y-1491714D01*
X6329286Y-1491714D01*
X6300714Y-1477428D01*
X6286428Y-1448857D01*
X6286428Y-1334571D01*
X6300714Y-1306000D01*
X6329286Y-1291714D01*
X6386428Y-1291714D01*
X6415000Y-1306000D01*
X6429286Y-1334571D01*
X6429286Y-1363143D01*
X6286428Y-1391714D01*
X6543571Y-1477428D02*
X6572143Y-1491714D01*
X6629286Y-1491714D01*
X6657857Y-1477428D01*
X6672143Y-1448857D01*
X6672143Y-1434571D01*
X6657857Y-1406000D01*
X6629286Y-1391714D01*
X6586428Y-1391714D01*
X6557857Y-1377429D01*
X6543571Y-1348857D01*
X6543571Y-1334571D01*
X6557857Y-1306000D01*
X6586428Y-1291714D01*
X6629286Y-1291714D01*
X6657857Y-1306000D01*
X6772143Y-1606000D02*
X6786428Y-1591714D01*
X6815000Y-1548857D01*
X6829286Y-1520286D01*
X6843571Y-1477428D01*
X6857857Y-1406000D01*
X6857857Y-1348857D01*
X6843571Y-1277429D01*
X6829286Y-1234571D01*
X6815000Y-1206000D01*
X6786428Y-1163143D01*
X6772143Y-1148857D01*
X-50000Y-1702000D02*
X-50000Y-1802000D01*
X-100000Y-1752000D02*
X0Y-1752000D01*
X443571Y-1887714D02*
X272143Y-1887714D01*
X357857Y-1887714D02*
X357857Y-1587714D01*
X329286Y-1630571D01*
X300714Y-1659143D01*
X272143Y-1673428D01*
X572143Y-1859143D02*
X586429Y-1873428D01*
X572143Y-1887714D01*
X557857Y-1873428D01*
X572143Y-1859143D01*
X572143Y-1887714D01*
X772143Y-1587714D02*
X800714Y-1587714D01*
X829286Y-1602000D01*
X843571Y-1616286D01*
X857857Y-1644857D01*
X872143Y-1702000D01*
X872143Y-1773428D01*
X857857Y-1830571D01*
X843571Y-1859143D01*
X829286Y-1873428D01*
X800714Y-1887714D01*
X772143Y-1887714D01*
X743571Y-1873428D01*
X729286Y-1859143D01*
X715000Y-1830571D01*
X700714Y-1773428D01*
X700714Y-1702000D01*
X715000Y-1644857D01*
X729286Y-1616286D01*
X743571Y-1602000D01*
X772143Y-1587714D01*
X1057857Y-1587714D02*
X1086429Y-1587714D01*
X1115000Y-1602000D01*
X1129286Y-1616286D01*
X1143571Y-1644857D01*
X1157857Y-1702000D01*
X1157857Y-1773428D01*
X1143571Y-1830571D01*
X1129286Y-1859143D01*
X1115000Y-1873428D01*
X1086429Y-1887714D01*
X1057857Y-1887714D01*
X1029286Y-1873428D01*
X1015000Y-1859143D01*
X1000714Y-1830571D01*
X986428Y-1773428D01*
X986428Y-1702000D01*
X1000714Y-1644857D01*
X1015000Y-1616286D01*
X1029286Y-1602000D01*
X1057857Y-1587714D01*
X1286429Y-1887714D02*
X1286429Y-1687714D01*
X1286429Y-1716286D02*
X1300714Y-1702000D01*
X1329286Y-1687714D01*
X1372143Y-1687714D01*
X1400714Y-1702000D01*
X1415000Y-1730571D01*
X1415000Y-1887714D01*
X1415000Y-1730571D02*
X1429286Y-1702000D01*
X1457857Y-1687714D01*
X1500714Y-1687714D01*
X1529286Y-1702000D01*
X1543571Y-1730571D01*
X1543571Y-1887714D01*
X1686428Y-1887714D02*
X1686428Y-1687714D01*
X1686428Y-1716286D02*
X1700714Y-1702000D01*
X1729286Y-1687714D01*
X1772143Y-1687714D01*
X1800714Y-1702000D01*
X1815000Y-1730571D01*
X1815000Y-1887714D01*
X1815000Y-1730571D02*
X1829286Y-1702000D01*
X1857857Y-1687714D01*
X1900714Y-1687714D01*
X1929286Y-1702000D01*
X1943571Y-1730571D01*
X1943571Y-1887714D01*
X2529286Y-1573428D02*
X2272143Y-1959143D01*
X2915000Y-1587714D02*
X2943571Y-1587714D01*
X2972143Y-1602000D01*
X2986428Y-1616286D01*
X3000714Y-1644857D01*
X3015000Y-1702000D01*
X3015000Y-1773428D01*
X3000714Y-1830571D01*
X2986428Y-1859143D01*
X2972143Y-1873428D01*
X2943571Y-1887714D01*
X2915000Y-1887714D01*
X2886428Y-1873428D01*
X2872143Y-1859143D01*
X2857857Y-1830571D01*
X2843571Y-1773428D01*
X2843571Y-1702000D01*
X2857857Y-1644857D01*
X2872143Y-1616286D01*
X2886428Y-1602000D01*
X2915000Y-1587714D01*
X3143571Y-1859143D02*
X3157857Y-1873428D01*
X3143571Y-1887714D01*
X3129286Y-1873428D01*
X3143571Y-1859143D01*
X3143571Y-1887714D01*
X3343571Y-1587714D02*
X3372143Y-1587714D01*
X3400714Y-1602000D01*
X3415000Y-1616286D01*
X3429286Y-1644857D01*
X3443571Y-1702000D01*
X3443571Y-1773428D01*
X3429286Y-1830571D01*
X3415000Y-1859143D01*
X3400714Y-1873428D01*
X3372143Y-1887714D01*
X3343571Y-1887714D01*
X3315000Y-1873428D01*
X3300714Y-1859143D01*
X3286428Y-1830571D01*
X3272143Y-1773428D01*
X3272143Y-1702000D01*
X3286428Y-1644857D01*
X3300714Y-1616286D01*
X3315000Y-1602000D01*
X3343571Y-1587714D01*
X3543571Y-1587714D02*
X3729286Y-1587714D01*
X3629286Y-1702000D01*
X3672143Y-1702000D01*
X3700714Y-1716286D01*
X3715000Y-1730571D01*
X3729286Y-1759143D01*
X3729286Y-1830571D01*
X3715000Y-1859143D01*
X3700714Y-1873428D01*
X3672143Y-1887714D01*
X3586428Y-1887714D01*
X3557857Y-1873428D01*
X3543571Y-1859143D01*
X3872143Y-1887714D02*
X3929286Y-1887714D01*
X3957857Y-1873428D01*
X3972143Y-1859143D01*
X4000714Y-1816286D01*
X4015000Y-1759143D01*
X4015000Y-1644857D01*
X4000714Y-1616286D01*
X3986428Y-1602000D01*
X3957857Y-1587714D01*
X3900714Y-1587714D01*
X3872143Y-1602000D01*
X3857857Y-1616286D01*
X3843571Y-1644857D01*
X3843571Y-1716286D01*
X3857857Y-1744857D01*
X3872143Y-1759143D01*
X3900714Y-1773428D01*
X3957857Y-1773428D01*
X3986428Y-1759143D01*
X4000714Y-1744857D01*
X4015000Y-1716286D01*
X4129286Y-1587714D02*
X4129286Y-1644857D01*
X4243571Y-1587714D02*
X4243571Y-1644857D01*
X4686429Y-2002000D02*
X4672143Y-1987714D01*
X4643571Y-1944857D01*
X4629286Y-1916286D01*
X4615000Y-1873428D01*
X4600714Y-1802000D01*
X4600714Y-1744857D01*
X4615000Y-1673428D01*
X4629286Y-1630571D01*
X4643571Y-1602000D01*
X4672143Y-1559143D01*
X4686429Y-1544857D01*
X4772143Y-1587714D02*
X4972143Y-1587714D01*
X4843571Y-1887714D01*
X5129286Y-1716286D02*
X5100714Y-1702000D01*
X5086429Y-1687714D01*
X5072143Y-1659143D01*
X5072143Y-1644857D01*
X5086429Y-1616286D01*
X5100714Y-1602000D01*
X5129286Y-1587714D01*
X5186429Y-1587714D01*
X5215000Y-1602000D01*
X5229286Y-1616286D01*
X5243571Y-1644857D01*
X5243571Y-1659143D01*
X5229286Y-1687714D01*
X5215000Y-1702000D01*
X5186429Y-1716286D01*
X5129286Y-1716286D01*
X5100714Y-1730571D01*
X5086429Y-1744857D01*
X5072143Y-1773428D01*
X5072143Y-1830571D01*
X5086429Y-1859143D01*
X5100714Y-1873428D01*
X5129286Y-1887714D01*
X5186429Y-1887714D01*
X5215000Y-1873428D01*
X5229286Y-1859143D01*
X5243571Y-1830571D01*
X5243571Y-1773428D01*
X5229286Y-1744857D01*
X5215000Y-1730571D01*
X5186429Y-1716286D01*
X5600714Y-1887714D02*
X5600714Y-1587714D01*
X5729286Y-1887714D02*
X5729286Y-1730571D01*
X5715000Y-1702000D01*
X5686428Y-1687714D01*
X5643571Y-1687714D01*
X5615000Y-1702000D01*
X5600714Y-1716286D01*
X5915000Y-1887714D02*
X5886428Y-1873428D01*
X5872143Y-1859143D01*
X5857857Y-1830571D01*
X5857857Y-1744857D01*
X5872143Y-1716286D01*
X5886428Y-1702000D01*
X5915000Y-1687714D01*
X5957857Y-1687714D01*
X5986428Y-1702000D01*
X6000714Y-1716286D01*
X6015000Y-1744857D01*
X6015000Y-1830571D01*
X6000714Y-1859143D01*
X5986428Y-1873428D01*
X5957857Y-1887714D01*
X5915000Y-1887714D01*
X6186428Y-1887714D02*
X6157857Y-1873428D01*
X6143571Y-1844857D01*
X6143571Y-1587714D01*
X6415000Y-1873428D02*
X6386428Y-1887714D01*
X6329286Y-1887714D01*
X6300714Y-1873428D01*
X6286428Y-1844857D01*
X6286428Y-1730571D01*
X6300714Y-1702000D01*
X6329286Y-1687714D01*
X6386428Y-1687714D01*
X6415000Y-1702000D01*
X6429286Y-1730571D01*
X6429286Y-1759143D01*
X6286428Y-1787714D01*
X6543571Y-1873428D02*
X6572143Y-1887714D01*
X6629286Y-1887714D01*
X6657857Y-1873428D01*
X6672143Y-1844857D01*
X6672143Y-1830571D01*
X6657857Y-1802000D01*
X6629286Y-1787714D01*
X6586428Y-1787714D01*
X6557857Y-1773428D01*
X6543571Y-1744857D01*
X6543571Y-1730571D01*
X6557857Y-1702000D01*
X6586428Y-1687714D01*
X6629286Y-1687714D01*
X6657857Y-1702000D01*
X6772143Y-2002000D02*
X6786428Y-1987714D01*
X6815000Y-1944857D01*
X6829286Y-1916286D01*
X6843571Y-1873428D01*
X6857857Y-1802000D01*
X6857857Y-1744857D01*
X6843571Y-1673428D01*
X6829286Y-1630571D01*
X6815000Y-1602000D01*
X6786428Y-1559143D01*
X6772143Y-1544857D01*
X-16109Y-2186891D02*
X-16109Y-2109109D01*
X-93891Y-2109109D01*
X-93891Y-2186891D01*
X-16109Y-2186891D01*
X443571Y-2283714D02*
X272143Y-2283714D01*
X357857Y-2283714D02*
X357857Y-1983714D01*
X329286Y-2026571D01*
X300714Y-2055143D01*
X272143Y-2069428D01*
X572143Y-2255143D02*
X586429Y-2269429D01*
X572143Y-2283714D01*
X557857Y-2269429D01*
X572143Y-2255143D01*
X572143Y-2283714D01*
X872143Y-2283714D02*
X700714Y-2283714D01*
X786428Y-2283714D02*
X786428Y-1983714D01*
X757857Y-2026571D01*
X729286Y-2055143D01*
X700714Y-2069428D01*
X1057857Y-1983714D02*
X1086429Y-1983714D01*
X1115000Y-1998000D01*
X1129286Y-2012286D01*
X1143571Y-2040857D01*
X1157857Y-2098000D01*
X1157857Y-2169429D01*
X1143571Y-2226571D01*
X1129286Y-2255143D01*
X1115000Y-2269429D01*
X1086429Y-2283714D01*
X1057857Y-2283714D01*
X1029286Y-2269429D01*
X1015000Y-2255143D01*
X1000714Y-2226571D01*
X986428Y-2169429D01*
X986428Y-2098000D01*
X1000714Y-2040857D01*
X1015000Y-2012286D01*
X1029286Y-1998000D01*
X1057857Y-1983714D01*
X1286429Y-2283714D02*
X1286429Y-2083714D01*
X1286429Y-2112286D02*
X1300714Y-2098000D01*
X1329286Y-2083714D01*
X1372143Y-2083714D01*
X1400714Y-2098000D01*
X1415000Y-2126571D01*
X1415000Y-2283714D01*
X1415000Y-2126571D02*
X1429286Y-2098000D01*
X1457857Y-2083714D01*
X1500714Y-2083714D01*
X1529286Y-2098000D01*
X1543571Y-2126571D01*
X1543571Y-2283714D01*
X1686428Y-2283714D02*
X1686428Y-2083714D01*
X1686428Y-2112286D02*
X1700714Y-2098000D01*
X1729286Y-2083714D01*
X1772143Y-2083714D01*
X1800714Y-2098000D01*
X1815000Y-2126571D01*
X1815000Y-2283714D01*
X1815000Y-2126571D02*
X1829286Y-2098000D01*
X1857857Y-2083714D01*
X1900714Y-2083714D01*
X1929286Y-2098000D01*
X1943571Y-2126571D01*
X1943571Y-2283714D01*
X2529286Y-1969428D02*
X2272143Y-2355143D01*
X2915000Y-1983714D02*
X2943571Y-1983714D01*
X2972143Y-1998000D01*
X2986428Y-2012286D01*
X3000714Y-2040857D01*
X3015000Y-2098000D01*
X3015000Y-2169429D01*
X3000714Y-2226571D01*
X2986428Y-2255143D01*
X2972143Y-2269429D01*
X2943571Y-2283714D01*
X2915000Y-2283714D01*
X2886428Y-2269429D01*
X2872143Y-2255143D01*
X2857857Y-2226571D01*
X2843571Y-2169429D01*
X2843571Y-2098000D01*
X2857857Y-2040857D01*
X2872143Y-2012286D01*
X2886428Y-1998000D01*
X2915000Y-1983714D01*
X3143571Y-2255143D02*
X3157857Y-2269429D01*
X3143571Y-2283714D01*
X3129286Y-2269429D01*
X3143571Y-2255143D01*
X3143571Y-2283714D01*
X3343571Y-1983714D02*
X3372143Y-1983714D01*
X3400714Y-1998000D01*
X3415000Y-2012286D01*
X3429286Y-2040857D01*
X3443571Y-2098000D01*
X3443571Y-2169429D01*
X3429286Y-2226571D01*
X3415000Y-2255143D01*
X3400714Y-2269429D01*
X3372143Y-2283714D01*
X3343571Y-2283714D01*
X3315000Y-2269429D01*
X3300714Y-2255143D01*
X3286428Y-2226571D01*
X3272143Y-2169429D01*
X3272143Y-2098000D01*
X3286428Y-2040857D01*
X3300714Y-2012286D01*
X3315000Y-1998000D01*
X3343571Y-1983714D01*
X3700714Y-2083714D02*
X3700714Y-2283714D01*
X3629286Y-1969428D02*
X3557857Y-2183714D01*
X3743571Y-2183714D01*
X3829286Y-1983714D02*
X4015000Y-1983714D01*
X3915000Y-2098000D01*
X3957857Y-2098000D01*
X3986428Y-2112286D01*
X4000714Y-2126571D01*
X4015000Y-2155143D01*
X4015000Y-2226571D01*
X4000714Y-2255143D01*
X3986428Y-2269429D01*
X3957857Y-2283714D01*
X3872143Y-2283714D01*
X3843571Y-2269429D01*
X3829286Y-2255143D01*
X4129286Y-1983714D02*
X4129286Y-2040857D01*
X4243571Y-1983714D02*
X4243571Y-2040857D01*
X4686429Y-2398000D02*
X4672143Y-2383714D01*
X4643571Y-2340857D01*
X4629286Y-2312286D01*
X4615000Y-2269429D01*
X4600714Y-2198000D01*
X4600714Y-2140857D01*
X4615000Y-2069428D01*
X4629286Y-2026571D01*
X4643571Y-1998000D01*
X4672143Y-1955143D01*
X4686429Y-1940857D01*
X4929286Y-1983714D02*
X4872143Y-1983714D01*
X4843571Y-1998000D01*
X4829286Y-2012286D01*
X4800714Y-2055143D01*
X4786429Y-2112286D01*
X4786429Y-2226571D01*
X4800714Y-2255143D01*
X4815000Y-2269429D01*
X4843571Y-2283714D01*
X4900714Y-2283714D01*
X4929286Y-2269429D01*
X4943571Y-2255143D01*
X4957857Y-2226571D01*
X4957857Y-2155143D01*
X4943571Y-2126571D01*
X4929286Y-2112286D01*
X4900714Y-2098000D01*
X4843571Y-2098000D01*
X4815000Y-2112286D01*
X4800714Y-2126571D01*
X4786429Y-2155143D01*
X5129286Y-2112286D02*
X5100714Y-2098000D01*
X5086429Y-2083714D01*
X5072143Y-2055143D01*
X5072143Y-2040857D01*
X5086429Y-2012286D01*
X5100714Y-1998000D01*
X5129286Y-1983714D01*
X5186429Y-1983714D01*
X5215000Y-1998000D01*
X5229286Y-2012286D01*
X5243571Y-2040857D01*
X5243571Y-2055143D01*
X5229286Y-2083714D01*
X5215000Y-2098000D01*
X5186429Y-2112286D01*
X5129286Y-2112286D01*
X5100714Y-2126571D01*
X5086429Y-2140857D01*
X5072143Y-2169429D01*
X5072143Y-2226571D01*
X5086429Y-2255143D01*
X5100714Y-2269429D01*
X5129286Y-2283714D01*
X5186429Y-2283714D01*
X5215000Y-2269429D01*
X5229286Y-2255143D01*
X5243571Y-2226571D01*
X5243571Y-2169429D01*
X5229286Y-2140857D01*
X5215000Y-2126571D01*
X5186429Y-2112286D01*
X5600714Y-2283714D02*
X5600714Y-1983714D01*
X5729286Y-2283714D02*
X5729286Y-2126571D01*
X5715000Y-2098000D01*
X5686428Y-2083714D01*
X5643571Y-2083714D01*
X5615000Y-2098000D01*
X5600714Y-2112286D01*
X5915000Y-2283714D02*
X5886428Y-2269429D01*
X5872143Y-2255143D01*
X5857857Y-2226571D01*
X5857857Y-2140857D01*
X5872143Y-2112286D01*
X5886428Y-2098000D01*
X5915000Y-2083714D01*
X5957857Y-2083714D01*
X5986428Y-2098000D01*
X6000714Y-2112286D01*
X6015000Y-2140857D01*
X6015000Y-2226571D01*
X6000714Y-2255143D01*
X5986428Y-2269429D01*
X5957857Y-2283714D01*
X5915000Y-2283714D01*
X6186428Y-2283714D02*
X6157857Y-2269429D01*
X6143571Y-2240857D01*
X6143571Y-1983714D01*
X6415000Y-2269429D02*
X6386428Y-2283714D01*
X6329286Y-2283714D01*
X6300714Y-2269429D01*
X6286428Y-2240857D01*
X6286428Y-2126571D01*
X6300714Y-2098000D01*
X6329286Y-2083714D01*
X6386428Y-2083714D01*
X6415000Y-2098000D01*
X6429286Y-2126571D01*
X6429286Y-2155143D01*
X6286428Y-2183714D01*
X6543571Y-2269429D02*
X6572143Y-2283714D01*
X6629286Y-2283714D01*
X6657857Y-2269429D01*
X6672143Y-2240857D01*
X6672143Y-2226571D01*
X6657857Y-2198000D01*
X6629286Y-2183714D01*
X6586428Y-2183714D01*
X6557857Y-2169429D01*
X6543571Y-2140857D01*
X6543571Y-2126571D01*
X6557857Y-2098000D01*
X6586428Y-2083714D01*
X6629286Y-2083714D01*
X6657857Y-2098000D01*
X6772143Y-2398000D02*
X6786428Y-2383714D01*
X6815000Y-2340857D01*
X6829286Y-2312286D01*
X6843571Y-2269429D01*
X6857857Y-2198000D01*
X6857857Y-2140857D01*
X6843571Y-2069428D01*
X6829286Y-2026571D01*
X6815000Y-1998000D01*
X6786428Y-1955143D01*
X6772143Y-1940857D01*
M02*
