G04 #@! TF.GenerationSoftware,KiCad,Pcbnew,(5.1.5)-3*
G04 #@! TF.CreationDate,2021-05-15T17:54:47+02:00*
G04 #@! TF.ProjectId,Adaptateurs_NiveauxSPI,41646170-7461-4746-9575-72735f4e6976,rev?*
G04 #@! TF.SameCoordinates,Original*
G04 #@! TF.FileFunction,Other,Fab,Bot*
%FSLAX46Y46*%
G04 Gerber Fmt 4.6, Leading zero omitted, Abs format (unit mm)*
G04 Created by KiCad (PCBNEW (5.1.5)-3) date 2021-05-15 17:54:47*
%MOMM*%
%LPD*%
G04 APERTURE LIST*
%ADD10C,0.150000*%
%ADD11C,0.200000*%
%ADD12C,0.100000*%
%ADD13C,0.120000*%
G04 APERTURE END LIST*
D10*
X213810714Y-91931666D02*
X214477380Y-91931666D01*
X213429761Y-92169761D02*
X214144047Y-92407857D01*
X214144047Y-91788809D01*
X214477380Y-91360238D02*
X214477380Y-91169761D01*
X214429761Y-91074523D01*
X214382142Y-91026904D01*
X214239285Y-90931666D01*
X214048809Y-90884047D01*
X213667857Y-90884047D01*
X213572619Y-90931666D01*
X213525000Y-90979285D01*
X213477380Y-91074523D01*
X213477380Y-91265000D01*
X213525000Y-91360238D01*
X213572619Y-91407857D01*
X213667857Y-91455476D01*
X213905952Y-91455476D01*
X214001190Y-91407857D01*
X214048809Y-91360238D01*
X214096428Y-91265000D01*
X214096428Y-91074523D01*
X214048809Y-90979285D01*
X214001190Y-90931666D01*
X213905952Y-90884047D01*
X214429761Y-90407857D02*
X214477380Y-90407857D01*
X214572619Y-90455476D01*
X214620238Y-90503095D01*
X213477380Y-89503095D02*
X213477380Y-89979285D01*
X213953571Y-90026904D01*
X213905952Y-89979285D01*
X213858333Y-89884047D01*
X213858333Y-89645952D01*
X213905952Y-89550714D01*
X213953571Y-89503095D01*
X214048809Y-89455476D01*
X214286904Y-89455476D01*
X214382142Y-89503095D01*
X214429761Y-89550714D01*
X214477380Y-89645952D01*
X214477380Y-89884047D01*
X214429761Y-89979285D01*
X214382142Y-90026904D01*
X213477380Y-89122142D02*
X213477380Y-88503095D01*
X213858333Y-88836428D01*
X213858333Y-88693571D01*
X213905952Y-88598333D01*
X213953571Y-88550714D01*
X214048809Y-88503095D01*
X214286904Y-88503095D01*
X214382142Y-88550714D01*
X214429761Y-88598333D01*
X214477380Y-88693571D01*
X214477380Y-88979285D01*
X214429761Y-89074523D01*
X214382142Y-89122142D01*
X213477380Y-87884047D02*
X213477380Y-87788809D01*
X213525000Y-87693571D01*
X213572619Y-87645952D01*
X213667857Y-87598333D01*
X213858333Y-87550714D01*
X214096428Y-87550714D01*
X214286904Y-87598333D01*
X214382142Y-87645952D01*
X214429761Y-87693571D01*
X214477380Y-87788809D01*
X214477380Y-87884047D01*
X214429761Y-87979285D01*
X214382142Y-88026904D01*
X214286904Y-88074523D01*
X214096428Y-88122142D01*
X213858333Y-88122142D01*
X213667857Y-88074523D01*
X213572619Y-88026904D01*
X213525000Y-87979285D01*
X213477380Y-87884047D01*
X214477380Y-86360238D02*
X213810714Y-86360238D01*
X213905952Y-86360238D02*
X213858333Y-86312619D01*
X213810714Y-86217380D01*
X213810714Y-86074523D01*
X213858333Y-85979285D01*
X213953571Y-85931666D01*
X214477380Y-85931666D01*
X213953571Y-85931666D02*
X213858333Y-85884047D01*
X213810714Y-85788809D01*
X213810714Y-85645952D01*
X213858333Y-85550714D01*
X213953571Y-85503095D01*
X214477380Y-85503095D01*
X214477380Y-85026904D02*
X213810714Y-85026904D01*
X213905952Y-85026904D02*
X213858333Y-84979285D01*
X213810714Y-84884047D01*
X213810714Y-84741190D01*
X213858333Y-84645952D01*
X213953571Y-84598333D01*
X214477380Y-84598333D01*
X213953571Y-84598333D02*
X213858333Y-84550714D01*
X213810714Y-84455476D01*
X213810714Y-84312619D01*
X213858333Y-84217380D01*
X213953571Y-84169761D01*
X214477380Y-84169761D01*
X212725000Y-113030000D02*
X212725000Y-63500000D01*
X210820000Y-113030000D02*
X213311421Y-113030000D01*
X210820000Y-63500000D02*
X213311421Y-63500000D01*
X212725000Y-63500000D02*
X213311421Y-64626504D01*
X212725000Y-63500000D02*
X212138579Y-64626504D01*
X212725000Y-113030000D02*
X213311421Y-111903496D01*
X212725000Y-113030000D02*
X212138579Y-111903496D01*
X155337380Y-121767379D02*
X154765952Y-121767379D01*
X155051666Y-121767379D02*
X155051666Y-120767379D01*
X154956428Y-120910237D01*
X154861190Y-121005475D01*
X154765952Y-121053094D01*
X155956428Y-120767379D02*
X156051666Y-120767379D01*
X156146904Y-120814999D01*
X156194523Y-120862618D01*
X156242142Y-120957856D01*
X156289761Y-121148332D01*
X156289761Y-121386427D01*
X156242142Y-121576903D01*
X156194523Y-121672141D01*
X156146904Y-121719760D01*
X156051666Y-121767379D01*
X155956428Y-121767379D01*
X155861190Y-121719760D01*
X155813571Y-121672141D01*
X155765952Y-121576903D01*
X155718333Y-121386427D01*
X155718333Y-121148332D01*
X155765952Y-120957856D01*
X155813571Y-120862618D01*
X155861190Y-120814999D01*
X155956428Y-120767379D01*
X156670714Y-120862618D02*
X156718333Y-120814999D01*
X156813571Y-120767379D01*
X157051666Y-120767379D01*
X157146904Y-120814999D01*
X157194523Y-120862618D01*
X157242142Y-120957856D01*
X157242142Y-121053094D01*
X157194523Y-121195951D01*
X156623095Y-121767379D01*
X157242142Y-121767379D01*
X157718333Y-121719760D02*
X157718333Y-121767379D01*
X157670714Y-121862618D01*
X157623095Y-121910237D01*
X158289761Y-121195951D02*
X158194523Y-121148332D01*
X158146904Y-121100713D01*
X158099285Y-121005475D01*
X158099285Y-120957856D01*
X158146904Y-120862618D01*
X158194523Y-120814999D01*
X158289761Y-120767379D01*
X158480238Y-120767379D01*
X158575476Y-120814999D01*
X158623095Y-120862618D01*
X158670714Y-120957856D01*
X158670714Y-121005475D01*
X158623095Y-121100713D01*
X158575476Y-121148332D01*
X158480238Y-121195951D01*
X158289761Y-121195951D01*
X158194523Y-121243570D01*
X158146904Y-121291189D01*
X158099285Y-121386427D01*
X158099285Y-121576903D01*
X158146904Y-121672141D01*
X158194523Y-121719760D01*
X158289761Y-121767379D01*
X158480238Y-121767379D01*
X158575476Y-121719760D01*
X158623095Y-121672141D01*
X158670714Y-121576903D01*
X158670714Y-121386427D01*
X158623095Y-121291189D01*
X158575476Y-121243570D01*
X158480238Y-121195951D01*
X159004047Y-120767379D02*
X159670714Y-120767379D01*
X159242142Y-121767379D01*
X160242142Y-120767379D02*
X160337380Y-120767379D01*
X160432619Y-120814999D01*
X160480238Y-120862618D01*
X160527857Y-120957856D01*
X160575476Y-121148332D01*
X160575476Y-121386427D01*
X160527857Y-121576903D01*
X160480238Y-121672141D01*
X160432619Y-121719760D01*
X160337380Y-121767379D01*
X160242142Y-121767379D01*
X160146904Y-121719760D01*
X160099285Y-121672141D01*
X160051666Y-121576903D01*
X160004047Y-121386427D01*
X160004047Y-121148332D01*
X160051666Y-120957856D01*
X160099285Y-120862618D01*
X160146904Y-120814999D01*
X160242142Y-120767379D01*
X161765952Y-121767379D02*
X161765952Y-121100713D01*
X161765952Y-121195951D02*
X161813571Y-121148332D01*
X161908809Y-121100713D01*
X162051666Y-121100713D01*
X162146904Y-121148332D01*
X162194523Y-121243570D01*
X162194523Y-121767379D01*
X162194523Y-121243570D02*
X162242142Y-121148332D01*
X162337380Y-121100713D01*
X162480238Y-121100713D01*
X162575476Y-121148332D01*
X162623095Y-121243570D01*
X162623095Y-121767379D01*
X163099285Y-121767379D02*
X163099285Y-121100713D01*
X163099285Y-121195951D02*
X163146904Y-121148332D01*
X163242142Y-121100713D01*
X163385000Y-121100713D01*
X163480238Y-121148332D01*
X163527857Y-121243570D01*
X163527857Y-121767379D01*
X163527857Y-121243570D02*
X163575476Y-121148332D01*
X163670714Y-121100713D01*
X163813571Y-121100713D01*
X163908809Y-121148332D01*
X163956428Y-121243570D01*
X163956428Y-121767379D01*
X107950000Y-120014999D02*
X210820000Y-120014999D01*
X107950000Y-113030000D02*
X107950000Y-120601420D01*
X210820000Y-113030000D02*
X210820000Y-120601420D01*
X210820000Y-120014999D02*
X209693496Y-120601420D01*
X210820000Y-120014999D02*
X209693496Y-119428578D01*
X107950000Y-120014999D02*
X109076504Y-120601420D01*
X107950000Y-120014999D02*
X109076504Y-119428578D01*
X120904523Y-117592379D02*
X121523571Y-117592379D01*
X121190238Y-117973332D01*
X121333095Y-117973332D01*
X121428333Y-118020951D01*
X121475952Y-118068570D01*
X121523571Y-118163808D01*
X121523571Y-118401903D01*
X121475952Y-118497141D01*
X121428333Y-118544760D01*
X121333095Y-118592379D01*
X121047380Y-118592379D01*
X120952142Y-118544760D01*
X120904523Y-118497141D01*
X122380714Y-117925713D02*
X122380714Y-118592379D01*
X122142619Y-117544760D02*
X121904523Y-118259046D01*
X122523571Y-118259046D01*
X122952142Y-118544760D02*
X122952142Y-118592379D01*
X122904523Y-118687618D01*
X122856904Y-118735237D01*
X123333095Y-117687618D02*
X123380714Y-117639999D01*
X123475952Y-117592379D01*
X123714047Y-117592379D01*
X123809285Y-117639999D01*
X123856904Y-117687618D01*
X123904523Y-117782856D01*
X123904523Y-117878094D01*
X123856904Y-118020951D01*
X123285476Y-118592379D01*
X123904523Y-118592379D01*
X124380714Y-118592379D02*
X124571190Y-118592379D01*
X124666428Y-118544760D01*
X124714047Y-118497141D01*
X124809285Y-118354284D01*
X124856904Y-118163808D01*
X124856904Y-117782856D01*
X124809285Y-117687618D01*
X124761666Y-117639999D01*
X124666428Y-117592379D01*
X124475952Y-117592379D01*
X124380714Y-117639999D01*
X124333095Y-117687618D01*
X124285476Y-117782856D01*
X124285476Y-118020951D01*
X124333095Y-118116189D01*
X124380714Y-118163808D01*
X124475952Y-118211427D01*
X124666428Y-118211427D01*
X124761666Y-118163808D01*
X124809285Y-118116189D01*
X124856904Y-118020951D01*
X125475952Y-117592379D02*
X125571190Y-117592379D01*
X125666428Y-117639999D01*
X125714047Y-117687618D01*
X125761666Y-117782856D01*
X125809285Y-117973332D01*
X125809285Y-118211427D01*
X125761666Y-118401903D01*
X125714047Y-118497141D01*
X125666428Y-118544760D01*
X125571190Y-118592379D01*
X125475952Y-118592379D01*
X125380714Y-118544760D01*
X125333095Y-118497141D01*
X125285476Y-118401903D01*
X125237857Y-118211427D01*
X125237857Y-117973332D01*
X125285476Y-117782856D01*
X125333095Y-117687618D01*
X125380714Y-117639999D01*
X125475952Y-117592379D01*
X126999761Y-118592379D02*
X126999761Y-117925713D01*
X126999761Y-118020951D02*
X127047380Y-117973332D01*
X127142619Y-117925713D01*
X127285476Y-117925713D01*
X127380714Y-117973332D01*
X127428333Y-118068570D01*
X127428333Y-118592379D01*
X127428333Y-118068570D02*
X127475952Y-117973332D01*
X127571190Y-117925713D01*
X127714047Y-117925713D01*
X127809285Y-117973332D01*
X127856904Y-118068570D01*
X127856904Y-118592379D01*
X128333095Y-118592379D02*
X128333095Y-117925713D01*
X128333095Y-118020951D02*
X128380714Y-117973332D01*
X128475952Y-117925713D01*
X128618809Y-117925713D01*
X128714047Y-117973332D01*
X128761666Y-118068570D01*
X128761666Y-118592379D01*
X128761666Y-118068570D02*
X128809285Y-117973332D01*
X128904523Y-117925713D01*
X129047380Y-117925713D01*
X129142619Y-117973332D01*
X129190238Y-118068570D01*
X129190238Y-118592379D01*
X107950000Y-116839999D02*
X142240000Y-116839999D01*
X107950000Y-113030000D02*
X107950000Y-117426420D01*
X142240000Y-113030000D02*
X142240000Y-117426420D01*
X142240000Y-116839999D02*
X141113496Y-117426420D01*
X142240000Y-116839999D02*
X141113496Y-116253578D01*
X107950000Y-116839999D02*
X109076504Y-117426420D01*
X107950000Y-116839999D02*
X109076504Y-116253578D01*
X155829523Y-117592379D02*
X156448571Y-117592379D01*
X156115238Y-117973332D01*
X156258095Y-117973332D01*
X156353333Y-118020951D01*
X156400952Y-118068570D01*
X156448571Y-118163808D01*
X156448571Y-118401903D01*
X156400952Y-118497141D01*
X156353333Y-118544760D01*
X156258095Y-118592379D01*
X155972380Y-118592379D01*
X155877142Y-118544760D01*
X155829523Y-118497141D01*
X156781904Y-117592379D02*
X157400952Y-117592379D01*
X157067619Y-117973332D01*
X157210476Y-117973332D01*
X157305714Y-118020951D01*
X157353333Y-118068570D01*
X157400952Y-118163808D01*
X157400952Y-118401903D01*
X157353333Y-118497141D01*
X157305714Y-118544760D01*
X157210476Y-118592379D01*
X156924761Y-118592379D01*
X156829523Y-118544760D01*
X156781904Y-118497141D01*
X157877142Y-118544760D02*
X157877142Y-118592379D01*
X157829523Y-118687618D01*
X157781904Y-118735237D01*
X158496190Y-117592379D02*
X158591428Y-117592379D01*
X158686666Y-117639999D01*
X158734285Y-117687618D01*
X158781904Y-117782856D01*
X158829523Y-117973332D01*
X158829523Y-118211427D01*
X158781904Y-118401903D01*
X158734285Y-118497141D01*
X158686666Y-118544760D01*
X158591428Y-118592379D01*
X158496190Y-118592379D01*
X158400952Y-118544760D01*
X158353333Y-118497141D01*
X158305714Y-118401903D01*
X158258095Y-118211427D01*
X158258095Y-117973332D01*
X158305714Y-117782856D01*
X158353333Y-117687618D01*
X158400952Y-117639999D01*
X158496190Y-117592379D01*
X159210476Y-117687618D02*
X159258095Y-117639999D01*
X159353333Y-117592379D01*
X159591428Y-117592379D01*
X159686666Y-117639999D01*
X159734285Y-117687618D01*
X159781904Y-117782856D01*
X159781904Y-117878094D01*
X159734285Y-118020951D01*
X159162857Y-118592379D01*
X159781904Y-118592379D01*
X160400952Y-117592379D02*
X160496190Y-117592379D01*
X160591428Y-117639999D01*
X160639047Y-117687618D01*
X160686666Y-117782856D01*
X160734285Y-117973332D01*
X160734285Y-118211427D01*
X160686666Y-118401903D01*
X160639047Y-118497141D01*
X160591428Y-118544760D01*
X160496190Y-118592379D01*
X160400952Y-118592379D01*
X160305714Y-118544760D01*
X160258095Y-118497141D01*
X160210476Y-118401903D01*
X160162857Y-118211427D01*
X160162857Y-117973332D01*
X160210476Y-117782856D01*
X160258095Y-117687618D01*
X160305714Y-117639999D01*
X160400952Y-117592379D01*
X161924761Y-118592379D02*
X161924761Y-117925713D01*
X161924761Y-118020951D02*
X161972380Y-117973332D01*
X162067619Y-117925713D01*
X162210476Y-117925713D01*
X162305714Y-117973332D01*
X162353333Y-118068570D01*
X162353333Y-118592379D01*
X162353333Y-118068570D02*
X162400952Y-117973332D01*
X162496190Y-117925713D01*
X162639047Y-117925713D01*
X162734285Y-117973332D01*
X162781904Y-118068570D01*
X162781904Y-118592379D01*
X163258095Y-118592379D02*
X163258095Y-117925713D01*
X163258095Y-118020951D02*
X163305714Y-117973332D01*
X163400952Y-117925713D01*
X163543809Y-117925713D01*
X163639047Y-117973332D01*
X163686666Y-118068570D01*
X163686666Y-118592379D01*
X163686666Y-118068570D02*
X163734285Y-117973332D01*
X163829523Y-117925713D01*
X163972380Y-117925713D01*
X164067619Y-117973332D01*
X164115238Y-118068570D01*
X164115238Y-118592379D01*
X143510000Y-116839999D02*
X176530000Y-116839999D01*
X143510000Y-113030000D02*
X143510000Y-117426420D01*
X176530000Y-113030000D02*
X176530000Y-117426420D01*
X176530000Y-116839999D02*
X175403496Y-117426420D01*
X176530000Y-116839999D02*
X175403496Y-116253578D01*
X143510000Y-116839999D02*
X144636504Y-117426420D01*
X143510000Y-116839999D02*
X144636504Y-116253578D01*
X190119523Y-117592379D02*
X190738571Y-117592379D01*
X190405238Y-117973332D01*
X190548095Y-117973332D01*
X190643333Y-118020951D01*
X190690952Y-118068570D01*
X190738571Y-118163808D01*
X190738571Y-118401903D01*
X190690952Y-118497141D01*
X190643333Y-118544760D01*
X190548095Y-118592379D01*
X190262380Y-118592379D01*
X190167142Y-118544760D01*
X190119523Y-118497141D01*
X191071904Y-117592379D02*
X191690952Y-117592379D01*
X191357619Y-117973332D01*
X191500476Y-117973332D01*
X191595714Y-118020951D01*
X191643333Y-118068570D01*
X191690952Y-118163808D01*
X191690952Y-118401903D01*
X191643333Y-118497141D01*
X191595714Y-118544760D01*
X191500476Y-118592379D01*
X191214761Y-118592379D01*
X191119523Y-118544760D01*
X191071904Y-118497141D01*
X192167142Y-118544760D02*
X192167142Y-118592379D01*
X192119523Y-118687618D01*
X192071904Y-118735237D01*
X192786190Y-117592379D02*
X192881428Y-117592379D01*
X192976666Y-117639999D01*
X193024285Y-117687618D01*
X193071904Y-117782856D01*
X193119523Y-117973332D01*
X193119523Y-118211427D01*
X193071904Y-118401903D01*
X193024285Y-118497141D01*
X192976666Y-118544760D01*
X192881428Y-118592379D01*
X192786190Y-118592379D01*
X192690952Y-118544760D01*
X192643333Y-118497141D01*
X192595714Y-118401903D01*
X192548095Y-118211427D01*
X192548095Y-117973332D01*
X192595714Y-117782856D01*
X192643333Y-117687618D01*
X192690952Y-117639999D01*
X192786190Y-117592379D01*
X193500476Y-117687618D02*
X193548095Y-117639999D01*
X193643333Y-117592379D01*
X193881428Y-117592379D01*
X193976666Y-117639999D01*
X194024285Y-117687618D01*
X194071904Y-117782856D01*
X194071904Y-117878094D01*
X194024285Y-118020951D01*
X193452857Y-118592379D01*
X194071904Y-118592379D01*
X194690952Y-117592379D02*
X194786190Y-117592379D01*
X194881428Y-117639999D01*
X194929047Y-117687618D01*
X194976666Y-117782856D01*
X195024285Y-117973332D01*
X195024285Y-118211427D01*
X194976666Y-118401903D01*
X194929047Y-118497141D01*
X194881428Y-118544760D01*
X194786190Y-118592379D01*
X194690952Y-118592379D01*
X194595714Y-118544760D01*
X194548095Y-118497141D01*
X194500476Y-118401903D01*
X194452857Y-118211427D01*
X194452857Y-117973332D01*
X194500476Y-117782856D01*
X194548095Y-117687618D01*
X194595714Y-117639999D01*
X194690952Y-117592379D01*
X196214761Y-118592379D02*
X196214761Y-117925713D01*
X196214761Y-118020951D02*
X196262380Y-117973332D01*
X196357619Y-117925713D01*
X196500476Y-117925713D01*
X196595714Y-117973332D01*
X196643333Y-118068570D01*
X196643333Y-118592379D01*
X196643333Y-118068570D02*
X196690952Y-117973332D01*
X196786190Y-117925713D01*
X196929047Y-117925713D01*
X197024285Y-117973332D01*
X197071904Y-118068570D01*
X197071904Y-118592379D01*
X197548095Y-118592379D02*
X197548095Y-117925713D01*
X197548095Y-118020951D02*
X197595714Y-117973332D01*
X197690952Y-117925713D01*
X197833809Y-117925713D01*
X197929047Y-117973332D01*
X197976666Y-118068570D01*
X197976666Y-118592379D01*
X197976666Y-118068570D02*
X198024285Y-117973332D01*
X198119523Y-117925713D01*
X198262380Y-117925713D01*
X198357619Y-117973332D01*
X198405238Y-118068570D01*
X198405238Y-118592379D01*
X177800000Y-116839999D02*
X210820000Y-116839999D01*
X177800000Y-113030000D02*
X177800000Y-117426420D01*
X210820000Y-113030000D02*
X210820000Y-117426420D01*
X210820000Y-116839999D02*
X209693496Y-117426420D01*
X210820000Y-116839999D02*
X209693496Y-116253578D01*
X177800000Y-116839999D02*
X178926504Y-117426420D01*
X177800000Y-116839999D02*
X178926504Y-116253578D01*
X177800000Y-113030000D02*
X177800000Y-87630000D01*
X210820000Y-113030000D02*
X177800000Y-113030000D01*
X210820000Y-87630000D02*
X210820000Y-113030000D01*
X187520000Y-87630000D02*
X210820000Y-87630000D01*
X210820000Y-86360000D02*
X187325000Y-86360000D01*
X210820000Y-63500000D02*
X210820000Y-86360000D01*
X177800000Y-63500000D02*
X210820000Y-63500000D01*
X177800000Y-86360000D02*
X177800000Y-63500000D01*
X187325000Y-86360000D02*
X177800000Y-86360000D01*
X177800000Y-87630000D02*
X188790000Y-87630000D01*
D11*
X143510000Y-87630000D02*
X143510000Y-113030000D01*
X176530000Y-87630000D02*
X143510000Y-87630000D01*
X176530000Y-113030000D02*
X176530000Y-87630000D01*
X143510000Y-113030000D02*
X176530000Y-113030000D01*
X142240000Y-87630000D02*
X107950000Y-87630000D01*
X142240000Y-113030000D02*
X142240000Y-87630000D01*
X107950000Y-113030000D02*
X142240000Y-113030000D01*
X107950000Y-87630000D02*
X107950000Y-113030000D01*
X143510000Y-63500000D02*
X143510000Y-86360000D01*
X176530000Y-63500000D02*
X143510000Y-63500000D01*
X176530000Y-86360000D02*
X176530000Y-63500000D01*
X143510000Y-86360000D02*
X176530000Y-86360000D01*
X107950000Y-63500000D02*
X107950000Y-86360000D01*
X142240000Y-63500000D02*
X107950000Y-63500000D01*
X142240000Y-86360000D02*
X142240000Y-63500000D01*
X107950000Y-86360000D02*
X142240000Y-86360000D01*
D12*
X135890000Y-71755000D02*
X134620000Y-70485000D01*
X135890000Y-80645000D02*
X135890000Y-71755000D01*
X130810000Y-80645000D02*
X135890000Y-80645000D01*
X130810000Y-70485000D02*
X130810000Y-80645000D01*
X134620000Y-70485000D02*
X130810000Y-70485000D01*
X170180000Y-68580000D02*
X166370000Y-68580000D01*
X166370000Y-68580000D02*
X166370000Y-83820000D01*
X166370000Y-83820000D02*
X171450000Y-83820000D01*
X171450000Y-83820000D02*
X171450000Y-69850000D01*
X171450000Y-69850000D02*
X170180000Y-68580000D01*
X134620000Y-90805000D02*
X134620000Y-109220000D01*
X137160000Y-109220000D02*
X137160000Y-90805000D01*
X137160000Y-109220000D02*
X134620000Y-109220000D01*
X134620000Y-90805000D02*
X137160000Y-90805000D01*
X171450000Y-94615000D02*
X167640000Y-94615000D01*
X167640000Y-94615000D02*
X167640000Y-107315000D01*
X167640000Y-107315000D02*
X172720000Y-107315000D01*
X172720000Y-107315000D02*
X172720000Y-95885000D01*
X172720000Y-95885000D02*
X171450000Y-94615000D01*
D13*
X191280000Y-64405000D02*
X207280000Y-64405000D01*
X207280000Y-64405000D02*
X207280000Y-80405000D01*
X207280000Y-80405000D02*
X192280000Y-80405000D01*
X192280000Y-80405000D02*
X191280000Y-79405000D01*
X191280000Y-79405000D02*
X191280000Y-64405000D01*
D12*
X197680000Y-81275000D02*
X197680000Y-87630000D01*
X196410000Y-81275000D02*
X197680000Y-81275000D01*
X196410000Y-85725000D02*
X196410000Y-81275000D01*
X188790000Y-85725000D02*
X196410000Y-85725000D01*
X188790000Y-81275000D02*
X188790000Y-85725000D01*
X187520000Y-81275000D02*
X188790000Y-81275000D01*
X187520000Y-81275000D02*
X187520000Y-87630000D01*
X188790000Y-87630000D02*
X187520000Y-87630000D01*
X197680000Y-87630000D02*
X196410000Y-87630000D01*
X196410000Y-97155000D02*
X196410000Y-87630000D01*
X188790000Y-97155000D02*
X196410000Y-97155000D01*
X188790000Y-87630000D02*
X188790000Y-97155000D01*
X191850000Y-85725000D02*
X192600000Y-86725000D01*
X192600000Y-86725000D02*
X193350000Y-85725000D01*
D10*
X136873809Y-82157380D02*
X136873809Y-81157380D01*
X136302380Y-82157380D01*
X136302380Y-81157380D01*
X135254761Y-82157380D02*
X135588095Y-81681190D01*
X135826190Y-82157380D02*
X135826190Y-81157380D01*
X135445238Y-81157380D01*
X135350000Y-81205000D01*
X135302380Y-81252619D01*
X135254761Y-81347857D01*
X135254761Y-81490714D01*
X135302380Y-81585952D01*
X135350000Y-81633571D01*
X135445238Y-81681190D01*
X135826190Y-81681190D01*
X134492857Y-81633571D02*
X134826190Y-81633571D01*
X134826190Y-82157380D02*
X134826190Y-81157380D01*
X134350000Y-81157380D01*
X134016666Y-81252619D02*
X133969047Y-81205000D01*
X133873809Y-81157380D01*
X133635714Y-81157380D01*
X133540476Y-81205000D01*
X133492857Y-81252619D01*
X133445238Y-81347857D01*
X133445238Y-81443095D01*
X133492857Y-81585952D01*
X134064285Y-82157380D01*
X133445238Y-82157380D01*
X132588095Y-81490714D02*
X132588095Y-82157380D01*
X132826190Y-81109761D02*
X133064285Y-81824047D01*
X132445238Y-81824047D01*
X131588095Y-82157380D02*
X132064285Y-82157380D01*
X132064285Y-81157380D01*
X131064285Y-81157380D02*
X130969047Y-81157380D01*
X130873809Y-81205000D01*
X130826190Y-81252619D01*
X130778571Y-81347857D01*
X130730952Y-81538333D01*
X130730952Y-81776428D01*
X130778571Y-81966904D01*
X130826190Y-82062142D01*
X130873809Y-82109761D01*
X130969047Y-82157380D01*
X131064285Y-82157380D01*
X131159523Y-82109761D01*
X131207142Y-82062142D01*
X131254761Y-81966904D01*
X131302380Y-81776428D01*
X131302380Y-81538333D01*
X131254761Y-81347857D01*
X131207142Y-81252619D01*
X131159523Y-81205000D01*
X131064285Y-81157380D01*
X129778571Y-82157380D02*
X130350000Y-82157380D01*
X130064285Y-82157380D02*
X130064285Y-81157380D01*
X130159523Y-81300238D01*
X130254761Y-81395476D01*
X130350000Y-81443095D01*
X133802380Y-74826904D02*
X132802380Y-74826904D01*
X132802380Y-75207857D01*
X132850000Y-75303095D01*
X132897619Y-75350714D01*
X132992857Y-75398333D01*
X133135714Y-75398333D01*
X133230952Y-75350714D01*
X133278571Y-75303095D01*
X133326190Y-75207857D01*
X133326190Y-74826904D01*
X132897619Y-75779285D02*
X132850000Y-75826904D01*
X132802380Y-75922142D01*
X132802380Y-76160238D01*
X132850000Y-76255476D01*
X132897619Y-76303095D01*
X132992857Y-76350714D01*
X133088095Y-76350714D01*
X133230952Y-76303095D01*
X133802380Y-75731666D01*
X133802380Y-76350714D01*
X171005238Y-85237142D02*
X171052857Y-85284761D01*
X171195714Y-85332380D01*
X171290952Y-85332380D01*
X171433809Y-85284761D01*
X171529047Y-85189523D01*
X171576666Y-85094285D01*
X171624285Y-84903809D01*
X171624285Y-84760952D01*
X171576666Y-84570476D01*
X171529047Y-84475238D01*
X171433809Y-84380000D01*
X171290952Y-84332380D01*
X171195714Y-84332380D01*
X171052857Y-84380000D01*
X171005238Y-84427619D01*
X170005238Y-85237142D02*
X170052857Y-85284761D01*
X170195714Y-85332380D01*
X170290952Y-85332380D01*
X170433809Y-85284761D01*
X170529047Y-85189523D01*
X170576666Y-85094285D01*
X170624285Y-84903809D01*
X170624285Y-84760952D01*
X170576666Y-84570476D01*
X170529047Y-84475238D01*
X170433809Y-84380000D01*
X170290952Y-84332380D01*
X170195714Y-84332380D01*
X170052857Y-84380000D01*
X170005238Y-84427619D01*
X169624285Y-84427619D02*
X169576666Y-84380000D01*
X169481428Y-84332380D01*
X169243333Y-84332380D01*
X169148095Y-84380000D01*
X169100476Y-84427619D01*
X169052857Y-84522857D01*
X169052857Y-84618095D01*
X169100476Y-84760952D01*
X169671904Y-85332380D01*
X169052857Y-85332380D01*
X168148095Y-84332380D02*
X168624285Y-84332380D01*
X168671904Y-84808571D01*
X168624285Y-84760952D01*
X168529047Y-84713333D01*
X168290952Y-84713333D01*
X168195714Y-84760952D01*
X168148095Y-84808571D01*
X168100476Y-84903809D01*
X168100476Y-85141904D01*
X168148095Y-85237142D01*
X168195714Y-85284761D01*
X168290952Y-85332380D01*
X168529047Y-85332380D01*
X168624285Y-85284761D01*
X168671904Y-85237142D01*
X167481428Y-84332380D02*
X167386190Y-84332380D01*
X167290952Y-84380000D01*
X167243333Y-84427619D01*
X167195714Y-84522857D01*
X167148095Y-84713333D01*
X167148095Y-84951428D01*
X167195714Y-85141904D01*
X167243333Y-85237142D01*
X167290952Y-85284761D01*
X167386190Y-85332380D01*
X167481428Y-85332380D01*
X167576666Y-85284761D01*
X167624285Y-85237142D01*
X167671904Y-85141904D01*
X167719523Y-84951428D01*
X167719523Y-84713333D01*
X167671904Y-84522857D01*
X167624285Y-84427619D01*
X167576666Y-84380000D01*
X167481428Y-84332380D01*
X166529047Y-84332380D02*
X166433809Y-84332380D01*
X166338571Y-84380000D01*
X166290952Y-84427619D01*
X166243333Y-84522857D01*
X166195714Y-84713333D01*
X166195714Y-84951428D01*
X166243333Y-85141904D01*
X166290952Y-85237142D01*
X166338571Y-85284761D01*
X166433809Y-85332380D01*
X166529047Y-85332380D01*
X166624285Y-85284761D01*
X166671904Y-85237142D01*
X166719523Y-85141904D01*
X166767142Y-84951428D01*
X166767142Y-84713333D01*
X166719523Y-84522857D01*
X166671904Y-84427619D01*
X166624285Y-84380000D01*
X166529047Y-84332380D01*
X169362380Y-75461904D02*
X168362380Y-75461904D01*
X168362380Y-75842857D01*
X168410000Y-75938095D01*
X168457619Y-75985714D01*
X168552857Y-76033333D01*
X168695714Y-76033333D01*
X168790952Y-75985714D01*
X168838571Y-75938095D01*
X168886190Y-75842857D01*
X168886190Y-75461904D01*
X168695714Y-76890476D02*
X169362380Y-76890476D01*
X168314761Y-76652380D02*
X169029047Y-76414285D01*
X169029047Y-77033333D01*
X133516666Y-98822142D02*
X133516666Y-99298333D01*
X133802380Y-98726904D02*
X132802380Y-99060238D01*
X133802380Y-99393571D01*
X132802380Y-99631666D02*
X132802380Y-100298333D01*
X133802380Y-99869761D01*
X133802380Y-101203095D02*
X133802380Y-100631666D01*
X133802380Y-100917380D02*
X132802380Y-100917380D01*
X132945238Y-100822142D01*
X133040476Y-100726904D01*
X133088095Y-100631666D01*
X132802380Y-101822142D02*
X132802380Y-101917380D01*
X132850000Y-102012619D01*
X132897619Y-102060238D01*
X132992857Y-102107857D01*
X133183333Y-102155476D01*
X133421428Y-102155476D01*
X133611904Y-102107857D01*
X133707142Y-102060238D01*
X133754761Y-102012619D01*
X133802380Y-101917380D01*
X133802380Y-101822142D01*
X133754761Y-101726904D01*
X133707142Y-101679285D01*
X133611904Y-101631666D01*
X133421428Y-101584047D01*
X133183333Y-101584047D01*
X132992857Y-101631666D01*
X132897619Y-101679285D01*
X132850000Y-101726904D01*
X132802380Y-101822142D01*
X132802380Y-103060238D02*
X132802380Y-102584047D01*
X133278571Y-102536428D01*
X133230952Y-102584047D01*
X133183333Y-102679285D01*
X133183333Y-102917380D01*
X133230952Y-103012619D01*
X133278571Y-103060238D01*
X133373809Y-103107857D01*
X133611904Y-103107857D01*
X133707142Y-103060238D01*
X133754761Y-103012619D01*
X133802380Y-102917380D01*
X133802380Y-102679285D01*
X133754761Y-102584047D01*
X133707142Y-102536428D01*
X174203809Y-108732142D02*
X174251428Y-108779761D01*
X174394285Y-108827380D01*
X174489523Y-108827380D01*
X174632380Y-108779761D01*
X174727619Y-108684523D01*
X174775238Y-108589285D01*
X174822857Y-108398809D01*
X174822857Y-108255952D01*
X174775238Y-108065476D01*
X174727619Y-107970238D01*
X174632380Y-107875000D01*
X174489523Y-107827380D01*
X174394285Y-107827380D01*
X174251428Y-107875000D01*
X174203809Y-107922619D01*
X173584761Y-107827380D02*
X173394285Y-107827380D01*
X173299047Y-107875000D01*
X173203809Y-107970238D01*
X173156190Y-108160714D01*
X173156190Y-108494047D01*
X173203809Y-108684523D01*
X173299047Y-108779761D01*
X173394285Y-108827380D01*
X173584761Y-108827380D01*
X173680000Y-108779761D01*
X173775238Y-108684523D01*
X173822857Y-108494047D01*
X173822857Y-108160714D01*
X173775238Y-107970238D01*
X173680000Y-107875000D01*
X173584761Y-107827380D01*
X172727619Y-108827380D02*
X172727619Y-107827380D01*
X172156190Y-108827380D01*
X172156190Y-107827380D01*
X171680000Y-108827380D02*
X171680000Y-107827380D01*
X171108571Y-108827380D01*
X171108571Y-107827380D01*
X170870476Y-108922619D02*
X170108571Y-108922619D01*
X169680000Y-107827380D02*
X169584761Y-107827380D01*
X169489523Y-107875000D01*
X169441904Y-107922619D01*
X169394285Y-108017857D01*
X169346666Y-108208333D01*
X169346666Y-108446428D01*
X169394285Y-108636904D01*
X169441904Y-108732142D01*
X169489523Y-108779761D01*
X169584761Y-108827380D01*
X169680000Y-108827380D01*
X169775238Y-108779761D01*
X169822857Y-108732142D01*
X169870476Y-108636904D01*
X169918095Y-108446428D01*
X169918095Y-108208333D01*
X169870476Y-108017857D01*
X169822857Y-107922619D01*
X169775238Y-107875000D01*
X169680000Y-107827380D01*
X168394285Y-108827380D02*
X168965714Y-108827380D01*
X168680000Y-108827380D02*
X168680000Y-107827380D01*
X168775238Y-107970238D01*
X168870476Y-108065476D01*
X168965714Y-108113095D01*
X168060952Y-107827380D02*
X167394285Y-108827380D01*
X167394285Y-107827380D02*
X168060952Y-108827380D01*
X166489523Y-108827380D02*
X167060952Y-108827380D01*
X166775238Y-108827380D02*
X166775238Y-107827380D01*
X166870476Y-107970238D01*
X166965714Y-108065476D01*
X167060952Y-108113095D01*
X165870476Y-107827380D02*
X165775238Y-107827380D01*
X165680000Y-107875000D01*
X165632380Y-107922619D01*
X165584761Y-108017857D01*
X165537142Y-108208333D01*
X165537142Y-108446428D01*
X165584761Y-108636904D01*
X165632380Y-108732142D01*
X165680000Y-108779761D01*
X165775238Y-108827380D01*
X165870476Y-108827380D01*
X165965714Y-108779761D01*
X166013333Y-108732142D01*
X166060952Y-108636904D01*
X166108571Y-108446428D01*
X166108571Y-108208333D01*
X166060952Y-108017857D01*
X166013333Y-107922619D01*
X165965714Y-107875000D01*
X165870476Y-107827380D01*
X170632380Y-100226904D02*
X169632380Y-100226904D01*
X169632380Y-100607857D01*
X169680000Y-100703095D01*
X169727619Y-100750714D01*
X169822857Y-100798333D01*
X169965714Y-100798333D01*
X170060952Y-100750714D01*
X170108571Y-100703095D01*
X170156190Y-100607857D01*
X170156190Y-100226904D01*
X170060952Y-101369761D02*
X170013333Y-101274523D01*
X169965714Y-101226904D01*
X169870476Y-101179285D01*
X169822857Y-101179285D01*
X169727619Y-101226904D01*
X169680000Y-101274523D01*
X169632380Y-101369761D01*
X169632380Y-101560238D01*
X169680000Y-101655476D01*
X169727619Y-101703095D01*
X169822857Y-101750714D01*
X169870476Y-101750714D01*
X169965714Y-101703095D01*
X170013333Y-101655476D01*
X170060952Y-101560238D01*
X170060952Y-101369761D01*
X170108571Y-101274523D01*
X170156190Y-101226904D01*
X170251428Y-101179285D01*
X170441904Y-101179285D01*
X170537142Y-101226904D01*
X170584761Y-101274523D01*
X170632380Y-101369761D01*
X170632380Y-101560238D01*
X170584761Y-101655476D01*
X170537142Y-101703095D01*
X170441904Y-101750714D01*
X170251428Y-101750714D01*
X170156190Y-101703095D01*
X170108571Y-101655476D01*
X170060952Y-101560238D01*
X201494285Y-63857380D02*
X201827619Y-63381190D01*
X202065714Y-63857380D02*
X202065714Y-62857380D01*
X201684761Y-62857380D01*
X201589523Y-62905000D01*
X201541904Y-62952619D01*
X201494285Y-63047857D01*
X201494285Y-63190714D01*
X201541904Y-63285952D01*
X201589523Y-63333571D01*
X201684761Y-63381190D01*
X202065714Y-63381190D01*
X200732380Y-63333571D02*
X201065714Y-63333571D01*
X201065714Y-63857380D02*
X201065714Y-62857380D01*
X200589523Y-62857380D01*
X200208571Y-63857380D02*
X200208571Y-62857380D01*
X199875238Y-63571666D01*
X199541904Y-62857380D01*
X199541904Y-63857380D01*
X199018095Y-63857380D02*
X198827619Y-63857380D01*
X198732380Y-63809761D01*
X198684761Y-63762142D01*
X198589523Y-63619285D01*
X198541904Y-63428809D01*
X198541904Y-63047857D01*
X198589523Y-62952619D01*
X198637142Y-62905000D01*
X198732380Y-62857380D01*
X198922857Y-62857380D01*
X199018095Y-62905000D01*
X199065714Y-62952619D01*
X199113333Y-63047857D01*
X199113333Y-63285952D01*
X199065714Y-63381190D01*
X199018095Y-63428809D01*
X198922857Y-63476428D01*
X198732380Y-63476428D01*
X198637142Y-63428809D01*
X198589523Y-63381190D01*
X198541904Y-63285952D01*
X197637142Y-62857380D02*
X198113333Y-62857380D01*
X198160952Y-63333571D01*
X198113333Y-63285952D01*
X198018095Y-63238333D01*
X197780000Y-63238333D01*
X197684761Y-63285952D01*
X197637142Y-63333571D01*
X197589523Y-63428809D01*
X197589523Y-63666904D01*
X197637142Y-63762142D01*
X197684761Y-63809761D01*
X197780000Y-63857380D01*
X198018095Y-63857380D01*
X198113333Y-63809761D01*
X198160952Y-63762142D01*
X197256190Y-62857380D02*
X197018095Y-63857380D01*
X196827619Y-63143095D01*
X196637142Y-63857380D01*
X196399047Y-62857380D01*
X199546666Y-71966904D02*
X199546666Y-72538333D01*
X199584761Y-72652619D01*
X199660952Y-72728809D01*
X199775238Y-72766904D01*
X199851428Y-72766904D01*
X198746666Y-72766904D02*
X199203809Y-72766904D01*
X198975238Y-72766904D02*
X198975238Y-71966904D01*
X199051428Y-72081190D01*
X199127619Y-72157380D01*
X199203809Y-72195476D01*
X199004761Y-86899285D02*
X199052380Y-87042142D01*
X199052380Y-87280238D01*
X199004761Y-87375476D01*
X198957142Y-87423095D01*
X198861904Y-87470714D01*
X198766666Y-87470714D01*
X198671428Y-87423095D01*
X198623809Y-87375476D01*
X198576190Y-87280238D01*
X198528571Y-87089761D01*
X198480952Y-86994523D01*
X198433333Y-86946904D01*
X198338095Y-86899285D01*
X198242857Y-86899285D01*
X198147619Y-86946904D01*
X198100000Y-86994523D01*
X198052380Y-87089761D01*
X198052380Y-87327857D01*
X198100000Y-87470714D01*
X199052380Y-87899285D02*
X198052380Y-87899285D01*
X198766666Y-88232619D01*
X198052380Y-88565952D01*
X199052380Y-88565952D01*
X198766666Y-88994523D02*
X198766666Y-89470714D01*
X199052380Y-88899285D02*
X198052380Y-89232619D01*
X199052380Y-89565952D01*
X192933333Y-87427380D02*
X192933333Y-88141666D01*
X192980952Y-88284523D01*
X193076190Y-88379761D01*
X193219047Y-88427380D01*
X193314285Y-88427380D01*
X192028571Y-87760714D02*
X192028571Y-88427380D01*
X192266666Y-87379761D02*
X192504761Y-88094047D01*
X191885714Y-88094047D01*
M02*
