%FSLAX45Y45*%
G04 Gerber Fmt 4.5, Leading zero omitted, Abs format (unit mm)*
G04 Created by KiCad (PCBNEW (5.1.5)-3) date 2021-04-18 18:32:01*
%MOMM*%
%LPD*%
G04 APERTURE LIST*
%TA.AperFunction,Profile*%
%ADD10C,0.200000*%
%TD*%
%ADD11C,0.200000*%
%ADD12C,0.300000*%
G04 APERTURE END LIST*
D10*
X14017752Y-6187948D02*
X14017752Y-12156948D01*
X22971252Y-6187948D02*
X14017752Y-6187948D01*
X22971252Y-12156948D02*
X22971252Y-6187948D01*
X14017752Y-12156948D02*
X22971252Y-12156948D01*
D11*
D12*
X13038180Y-13634662D02*
X13038180Y-13334662D01*
X13109609Y-13334662D01*
X13152466Y-13348948D01*
X13181038Y-13377519D01*
X13195323Y-13406091D01*
X13209609Y-13463234D01*
X13209609Y-13506091D01*
X13195323Y-13563234D01*
X13181038Y-13591805D01*
X13152466Y-13620376D01*
X13109609Y-13634662D01*
X13038180Y-13634662D01*
X13338180Y-13634662D02*
X13338180Y-13434662D01*
X13338180Y-13491805D02*
X13352466Y-13463234D01*
X13366752Y-13448948D01*
X13395323Y-13434662D01*
X13423895Y-13434662D01*
X13523895Y-13634662D02*
X13523895Y-13434662D01*
X13523895Y-13334662D02*
X13509609Y-13348948D01*
X13523895Y-13363234D01*
X13538180Y-13348948D01*
X13523895Y-13334662D01*
X13523895Y-13363234D01*
X13709609Y-13634662D02*
X13681038Y-13620376D01*
X13666752Y-13591805D01*
X13666752Y-13334662D01*
X13866752Y-13634662D02*
X13838180Y-13620376D01*
X13823895Y-13591805D01*
X13823895Y-13334662D01*
X14209609Y-13634662D02*
X14209609Y-13334662D01*
X14309609Y-13548948D01*
X14409609Y-13334662D01*
X14409609Y-13634662D01*
X14681038Y-13634662D02*
X14681038Y-13477519D01*
X14666752Y-13448948D01*
X14638180Y-13434662D01*
X14581038Y-13434662D01*
X14552466Y-13448948D01*
X14681038Y-13620376D02*
X14652466Y-13634662D01*
X14581038Y-13634662D01*
X14552466Y-13620376D01*
X14538180Y-13591805D01*
X14538180Y-13563234D01*
X14552466Y-13534662D01*
X14581038Y-13520376D01*
X14652466Y-13520376D01*
X14681038Y-13506091D01*
X14823895Y-13434662D02*
X14823895Y-13734662D01*
X14823895Y-13448948D02*
X14852466Y-13434662D01*
X14909609Y-13434662D01*
X14938180Y-13448948D01*
X14952466Y-13463234D01*
X14966752Y-13491805D01*
X14966752Y-13577519D01*
X14952466Y-13606091D01*
X14938180Y-13620376D01*
X14909609Y-13634662D01*
X14852466Y-13634662D01*
X14823895Y-13620376D01*
X15095323Y-13606091D02*
X15109609Y-13620376D01*
X15095323Y-13634662D01*
X15081038Y-13620376D01*
X15095323Y-13606091D01*
X15095323Y-13634662D01*
X15095323Y-13448948D02*
X15109609Y-13463234D01*
X15095323Y-13477519D01*
X15081038Y-13463234D01*
X15095323Y-13448948D01*
X15095323Y-13477519D01*
M02*
