%FSLAX45Y45*%
G04 Gerber Fmt 4.5, Leading zero omitted, Abs format (unit mm)*
G04 Created by KiCad (PCBNEW (5.1.5)-3) date 2021-04-18 18:32:01*
%MOMM*%
%LPD*%
G04 APERTURE LIST*
%TA.AperFunction,Profile*%
%ADD10C,0.200000*%
%TD*%
%ADD11C,0.200000*%
%ADD12C,0.300000*%
G04 APERTURE END LIST*
D10*
X14017752Y-6187948D02*
X14017752Y-12156948D01*
X22971252Y-6187948D02*
X14017752Y-6187948D01*
X22971252Y-12156948D02*
X22971252Y-6187948D01*
X14017752Y-12156948D02*
X22971252Y-12156948D01*
D11*
X14193252Y-9259048D02*
X14223252Y-9289048D01*
X14223252Y-9259048D02*
X14193252Y-9289048D01*
X14409152Y-8890748D02*
X14439152Y-8920748D01*
X14439152Y-8890748D02*
X14409152Y-8920748D01*
X14510752Y-9220948D02*
X14540752Y-9250948D01*
X14540752Y-9220948D02*
X14510752Y-9250948D01*
X14511006Y-9347694D02*
X14541006Y-9377694D01*
X14541006Y-9347694D02*
X14511006Y-9377694D01*
X14612352Y-8370048D02*
X14642352Y-8400048D01*
X14642352Y-8370048D02*
X14612352Y-8400048D01*
X14713952Y-8331948D02*
X14743952Y-8361948D01*
X14743952Y-8331948D02*
X14713952Y-8361948D01*
X14802852Y-8370048D02*
X14832852Y-8400048D01*
X14832852Y-8370048D02*
X14802852Y-8400048D01*
X14853652Y-7735048D02*
X14883652Y-7765048D01*
X14883652Y-7735048D02*
X14853652Y-7765048D01*
X14891752Y-8331948D02*
X14921752Y-8361948D01*
X14921752Y-8331948D02*
X14891752Y-8361948D01*
X14967952Y-8014448D02*
X14997952Y-8044448D01*
X14997952Y-8014448D02*
X14967952Y-8044448D01*
X15018752Y-9627348D02*
X15048752Y-9657348D01*
X15048752Y-9627348D02*
X15018752Y-9657348D01*
X15158452Y-8128748D02*
X15188452Y-8158748D01*
X15188452Y-8128748D02*
X15158452Y-8158748D01*
X15247352Y-9995648D02*
X15277352Y-10025648D01*
X15277352Y-9995648D02*
X15247352Y-10025648D01*
X15247352Y-10097248D02*
X15277352Y-10127248D01*
X15277352Y-10097248D02*
X15247352Y-10127248D01*
X15285452Y-8027148D02*
X15315452Y-8057148D01*
X15315452Y-8027148D02*
X15285452Y-8057148D01*
X15348952Y-9614648D02*
X15378952Y-9644648D01*
X15378952Y-9614648D02*
X15348952Y-9644648D01*
X15412452Y-7112748D02*
X15442452Y-7142748D01*
X15442452Y-7112748D02*
X15412452Y-7142748D01*
X15425152Y-8649448D02*
X15455152Y-8679448D01*
X15455152Y-8649448D02*
X15425152Y-8679448D01*
X15425152Y-8799448D02*
X15455152Y-8829448D01*
X15455152Y-8799448D02*
X15425152Y-8829448D01*
X15425152Y-9157448D02*
X15455152Y-9187448D01*
X15455152Y-9157448D02*
X15425152Y-9187448D01*
X15425152Y-9259048D02*
X15455152Y-9289048D01*
X15455152Y-9259048D02*
X15425152Y-9289048D01*
X15425152Y-9373348D02*
X15455152Y-9403348D01*
X15455152Y-9373348D02*
X15425152Y-9403348D01*
X15501352Y-9830548D02*
X15531352Y-9860548D01*
X15531352Y-9830548D02*
X15501352Y-9860548D01*
X15539452Y-8966948D02*
X15569452Y-8996948D01*
X15569452Y-8966948D02*
X15539452Y-8996948D01*
X15552152Y-8331948D02*
X15582152Y-8361948D01*
X15582152Y-8331948D02*
X15552152Y-8361948D01*
X15564852Y-9627348D02*
X15594852Y-9657348D01*
X15594852Y-9627348D02*
X15564852Y-9657348D01*
X15717252Y-7061948D02*
X15747252Y-7091948D01*
X15747252Y-7061948D02*
X15717252Y-7091948D01*
X15717252Y-7658848D02*
X15747252Y-7688848D01*
X15747252Y-7658848D02*
X15717252Y-7688848D01*
X15717252Y-9995648D02*
X15747252Y-10025648D01*
X15747252Y-9995648D02*
X15717252Y-10025648D01*
X15780752Y-9347948D02*
X15810752Y-9377948D01*
X15810752Y-9347948D02*
X15780752Y-9377948D01*
X15844252Y-7506448D02*
X15874252Y-7536448D01*
X15874252Y-7506448D02*
X15844252Y-7536448D01*
X15844252Y-8687548D02*
X15874252Y-8717548D01*
X15874252Y-8687548D02*
X15844252Y-8717548D01*
X16098252Y-7608048D02*
X16128252Y-7638048D01*
X16128252Y-7608048D02*
X16098252Y-7638048D01*
X16606252Y-9017748D02*
X16636252Y-9047748D01*
X16636252Y-9017748D02*
X16606252Y-9047748D01*
X16607255Y-7188948D02*
X16637255Y-7218948D01*
X16637255Y-7188948D02*
X16607255Y-7218948D01*
X16644352Y-10046448D02*
X16674352Y-10076448D01*
X16674352Y-10046448D02*
X16644352Y-10076448D01*
X16745952Y-10503648D02*
X16775952Y-10533648D01*
X16775952Y-10503648D02*
X16745952Y-10533648D01*
X16745952Y-10630648D02*
X16775952Y-10660648D01*
X16775952Y-10630648D02*
X16745952Y-10660648D01*
X16771352Y-6719048D02*
X16801352Y-6749048D01*
X16801352Y-6719048D02*
X16771352Y-6749048D01*
X16822152Y-9220948D02*
X16852152Y-9250948D01*
X16852152Y-9220948D02*
X16822152Y-9250948D01*
X16834852Y-9728948D02*
X16864852Y-9758948D01*
X16864852Y-9728948D02*
X16834852Y-9758948D01*
X17279352Y-8204948D02*
X17309352Y-8234948D01*
X17309352Y-8204948D02*
X17279352Y-8234948D01*
X17330152Y-7582648D02*
X17360152Y-7612648D01*
X17360152Y-7582648D02*
X17330152Y-7612648D01*
X17330152Y-7785848D02*
X17360152Y-7815848D01*
X17360152Y-7785848D02*
X17330152Y-7815848D01*
X17330152Y-9728948D02*
X17360152Y-9758948D01*
X17360152Y-9728948D02*
X17330152Y-9758948D01*
X17342852Y-9474948D02*
X17372852Y-9504948D01*
X17372852Y-9474948D02*
X17342852Y-9504948D01*
X17355552Y-10033748D02*
X17385552Y-10063748D01*
X17385552Y-10033748D02*
X17355552Y-10063748D01*
X17368252Y-8166848D02*
X17398252Y-8196848D01*
X17398252Y-8166848D02*
X17368252Y-8196848D01*
X17558752Y-9500348D02*
X17588752Y-9530348D01*
X17588752Y-9500348D02*
X17558752Y-9530348D01*
X17609552Y-7608048D02*
X17639552Y-7638048D01*
X17639552Y-7608048D02*
X17609552Y-7638048D01*
X17634952Y-9640048D02*
X17664952Y-9670048D01*
X17664952Y-9640048D02*
X17634952Y-9670048D01*
X17736552Y-11125948D02*
X17766552Y-11155948D01*
X17766552Y-11125948D02*
X17736552Y-11155948D01*
X17812752Y-9424148D02*
X17842752Y-9454148D01*
X17842752Y-9424148D02*
X17812752Y-9454148D01*
X17825452Y-9640048D02*
X17855452Y-9670048D01*
X17855452Y-9640048D02*
X17825452Y-9670048D01*
X17838152Y-9805148D02*
X17868152Y-9835148D01*
X17868152Y-9805148D02*
X17838152Y-9835148D01*
X17914352Y-8878048D02*
X17944352Y-8908048D01*
X17944352Y-8878048D02*
X17914352Y-8908048D01*
X18041352Y-9500348D02*
X18071352Y-9530348D01*
X18071352Y-9500348D02*
X18041352Y-9530348D01*
X18231852Y-9640048D02*
X18261852Y-9670048D01*
X18261852Y-9640048D02*
X18231852Y-9670048D01*
X18244552Y-11443448D02*
X18274552Y-11473448D01*
X18274552Y-11443448D02*
X18244552Y-11473448D01*
X18295352Y-9449548D02*
X18325352Y-9479548D01*
X18325352Y-9449548D02*
X18295352Y-9479548D01*
X18320751Y-10744948D02*
X18350751Y-10774948D01*
X18350751Y-10744948D02*
X18320751Y-10774948D01*
X18320752Y-8281148D02*
X18350752Y-8311148D01*
X18350752Y-8281148D02*
X18320752Y-8311148D01*
X18320752Y-8979648D02*
X18350752Y-9009648D01*
X18350752Y-8979648D02*
X18320752Y-9009648D01*
X18320752Y-10363948D02*
X18350752Y-10393948D01*
X18350752Y-10363948D02*
X18320752Y-10393948D01*
X18574752Y-8522448D02*
X18604752Y-8552448D01*
X18604752Y-8522448D02*
X18574752Y-8552448D01*
X18650952Y-9640048D02*
X18680952Y-9670048D01*
X18680952Y-9640048D02*
X18650952Y-9670048D01*
X18828752Y-7430248D02*
X18858752Y-7460248D01*
X18858752Y-7430248D02*
X18828752Y-7460248D01*
X19146252Y-10173448D02*
X19176252Y-10203448D01*
X19176252Y-10173448D02*
X19146252Y-10203448D01*
X19197052Y-9259048D02*
X19227052Y-9289048D01*
X19227052Y-9259048D02*
X19197052Y-9289048D01*
X19209752Y-9919448D02*
X19239752Y-9949448D01*
X19239752Y-9919448D02*
X19209752Y-9949448D01*
X19222452Y-10046448D02*
X19252452Y-10076448D01*
X19252452Y-10046448D02*
X19222452Y-10076448D01*
X19222452Y-10363948D02*
X19252452Y-10393948D01*
X19252452Y-10363948D02*
X19222452Y-10393948D01*
X19222452Y-10490948D02*
X19252452Y-10520948D01*
X19252452Y-10490948D02*
X19222452Y-10520948D01*
X19235152Y-9678148D02*
X19265152Y-9708148D01*
X19265152Y-9678148D02*
X19235152Y-9708148D01*
X19285952Y-8662148D02*
X19315952Y-8692148D01*
X19315952Y-8662148D02*
X19285952Y-8692148D01*
X19285952Y-8801848D02*
X19315952Y-8831848D01*
X19315952Y-8801848D02*
X19285952Y-8831848D01*
X19325456Y-9474948D02*
X19355456Y-9504948D01*
X19355456Y-9474948D02*
X19325456Y-9504948D01*
X19400252Y-8458948D02*
X19430252Y-8488948D01*
X19430252Y-8458948D02*
X19400252Y-8488948D01*
X19425652Y-10059148D02*
X19455652Y-10089148D01*
X19455652Y-10059148D02*
X19425652Y-10089148D01*
X19425652Y-10363948D02*
X19455652Y-10393948D01*
X19455652Y-10363948D02*
X19425652Y-10393948D01*
X19463752Y-9678148D02*
X19493752Y-9708148D01*
X19493752Y-9678148D02*
X19463752Y-9708148D01*
X19552652Y-11214848D02*
X19582652Y-11244848D01*
X19582652Y-11214848D02*
X19552652Y-11244848D01*
X19590752Y-9386048D02*
X19620752Y-9416048D01*
X19620752Y-9386048D02*
X19590752Y-9416048D01*
X19603450Y-8420848D02*
X19633450Y-8450848D01*
X19633450Y-8420848D02*
X19603450Y-8450848D01*
X19666952Y-8319248D02*
X19696952Y-8349248D01*
X19696952Y-8319248D02*
X19666952Y-8349248D01*
X19666952Y-9601948D02*
X19696952Y-9631948D01*
X19696952Y-9601948D02*
X19666952Y-9631948D01*
X19666952Y-9830548D02*
X19696952Y-9860548D01*
X19696952Y-9830548D02*
X19666952Y-9860548D01*
X19717752Y-8077948D02*
X19747752Y-8107948D01*
X19747752Y-8077948D02*
X19717752Y-8107948D01*
X19717752Y-10706848D02*
X19747752Y-10736848D01*
X19747752Y-10706848D02*
X19717752Y-10736848D01*
X19781252Y-9055848D02*
X19811252Y-9085848D01*
X19811252Y-9055848D02*
X19781252Y-9085848D01*
X20314652Y-6795248D02*
X20344652Y-6825248D01*
X20344652Y-6795248D02*
X20314652Y-6825248D01*
X20378152Y-8636748D02*
X20408152Y-8666748D01*
X20408152Y-8636748D02*
X20378152Y-8666748D01*
X20378152Y-10554448D02*
X20408152Y-10584448D01*
X20408152Y-10554448D02*
X20378152Y-10584448D01*
X20387851Y-11615450D02*
X20417851Y-11645450D01*
X20417851Y-11615450D02*
X20387851Y-11645450D01*
X20390853Y-11713684D02*
X20420853Y-11743684D01*
X20420853Y-11713684D02*
X20390853Y-11743684D01*
X20505151Y-8116048D02*
X20535151Y-8146048D01*
X20535151Y-8116048D02*
X20505151Y-8146048D01*
X20670252Y-10033748D02*
X20700252Y-10063748D01*
X20700252Y-10033748D02*
X20670252Y-10063748D01*
X20695652Y-7227048D02*
X20725652Y-7257048D01*
X20725652Y-7227048D02*
X20695652Y-7257048D01*
X20695823Y-8257849D02*
X20725823Y-8287849D01*
X20725823Y-8257849D02*
X20695823Y-8287849D01*
X20860752Y-10402048D02*
X20890752Y-10432048D01*
X20890752Y-10402048D02*
X20860752Y-10432048D01*
X20870424Y-10840681D02*
X20900424Y-10870681D01*
X20900424Y-10840681D02*
X20870424Y-10870681D01*
X20886152Y-11125948D02*
X20916152Y-11155948D01*
X20916152Y-11125948D02*
X20886152Y-11155948D01*
X20924252Y-8928848D02*
X20954252Y-8958848D01*
X20954252Y-8928848D02*
X20924252Y-8958848D01*
X20949652Y-6858748D02*
X20979652Y-6888748D01*
X20979652Y-6858748D02*
X20949652Y-6888748D01*
X21013152Y-9462248D02*
X21043152Y-9492248D01*
X21043152Y-9462248D02*
X21013152Y-9492248D01*
X21076652Y-9170147D02*
X21106652Y-9200147D01*
X21106652Y-9170147D02*
X21076652Y-9200147D01*
X21165552Y-10948148D02*
X21195552Y-10978148D01*
X21195552Y-10948148D02*
X21165552Y-10978148D01*
X21254452Y-7341348D02*
X21284452Y-7371348D01*
X21284452Y-7341348D02*
X21254452Y-7371348D01*
X21265648Y-10300448D02*
X21295648Y-10330448D01*
X21295648Y-10300448D02*
X21265648Y-10330448D01*
X21330652Y-10783048D02*
X21360652Y-10813048D01*
X21360652Y-10783048D02*
X21330652Y-10813048D01*
X21368752Y-11354548D02*
X21398752Y-11384548D01*
X21398752Y-11354548D02*
X21368752Y-11384548D01*
X21394152Y-8712948D02*
X21424152Y-8742948D01*
X21424152Y-8712948D02*
X21394152Y-8742948D01*
X21419552Y-9728948D02*
X21449552Y-9758948D01*
X21449552Y-9728948D02*
X21419552Y-9758948D01*
X21571952Y-9170148D02*
X21601952Y-9200148D01*
X21601952Y-9170148D02*
X21571952Y-9200148D01*
X21571952Y-9551148D02*
X21601952Y-9581148D01*
X21601952Y-9551148D02*
X21571952Y-9581148D01*
X21762452Y-9081248D02*
X21792452Y-9111248D01*
X21792452Y-9081248D02*
X21762452Y-9111248D01*
X21762452Y-9195548D02*
X21792452Y-9225548D01*
X21792452Y-9195548D02*
X21762452Y-9225548D01*
X21762452Y-9500348D02*
X21792452Y-9530348D01*
X21792452Y-9500348D02*
X21762452Y-9530348D01*
X21762452Y-9601948D02*
X21792452Y-9631948D01*
X21792452Y-9601948D02*
X21762452Y-9631948D01*
X21876752Y-10465548D02*
X21906752Y-10495548D01*
X21906752Y-10465548D02*
X21876752Y-10495548D01*
X21991052Y-10478248D02*
X22021052Y-10508248D01*
X22021052Y-10478248D02*
X21991052Y-10508248D01*
X22016452Y-7493748D02*
X22046452Y-7523748D01*
X22046452Y-7493748D02*
X22016452Y-7523748D01*
X22079952Y-9538448D02*
X22109952Y-9568448D01*
X22109952Y-9538448D02*
X22079952Y-9568448D01*
X22079952Y-9195548D02*
X22109952Y-9225548D01*
X22109952Y-9195548D02*
X22079952Y-9225548D01*
X22118052Y-8077948D02*
X22148052Y-8107948D01*
X22148052Y-8077948D02*
X22118052Y-8107948D01*
X22206951Y-10478248D02*
X22236951Y-10508248D01*
X22236951Y-10478248D02*
X22206951Y-10508248D01*
X22206952Y-10354248D02*
X22236952Y-10384248D01*
X22236952Y-10354248D02*
X22206952Y-10384248D01*
X22206952Y-10744948D02*
X22236952Y-10774948D01*
X22236952Y-10744948D02*
X22206952Y-10774948D01*
X22206952Y-10998948D02*
X22236952Y-11028948D01*
X22236952Y-10998948D02*
X22206952Y-11028948D01*
X22206952Y-11125948D02*
X22236952Y-11155948D01*
X22236952Y-11125948D02*
X22206952Y-11155948D01*
X22206952Y-11252948D02*
X22236952Y-11282948D01*
X22236952Y-11252948D02*
X22206952Y-11282948D01*
X22270452Y-11405348D02*
X22300452Y-11435348D01*
X22300452Y-11405348D02*
X22270452Y-11435348D01*
X22308551Y-10567148D02*
X22338551Y-10597148D01*
X22338551Y-10567148D02*
X22308551Y-10597148D01*
X14365252Y-8410448D02*
G75*
G03X14365252Y-8410448I-30000J0D01*
G01*
X14543052Y-9032748D02*
G75*
G03X14543052Y-9032748I-30000J0D01*
G01*
X14898652Y-7457948D02*
G75*
G03X14898652Y-7457948I-30000J0D01*
G01*
X15012952Y-10048748D02*
G75*
G03X15012952Y-10048748I-30000J0D01*
G01*
X15470152Y-8981948D02*
G75*
G03X15470152Y-8981948I-30000J0D01*
G01*
X17679952Y-8423148D02*
G75*
G03X17679952Y-8423148I-30000J0D01*
G01*
X18048252Y-10061449D02*
G75*
G03X18048252Y-10061449I-30000J0D01*
G01*
X18365752Y-10501547D02*
G75*
G03X18365752Y-10501547I-30000J0D01*
G01*
X18365752Y-11267948D02*
G75*
G03X18365752Y-11267948I-30000J0D01*
G01*
X18683252Y-9807448D02*
G75*
G03X18683252Y-9807448I-30000J0D01*
G01*
X18683252Y-10010648D02*
G75*
G03X18683252Y-10010648I-30000J0D01*
G01*
X18873752Y-11267948D02*
G75*
G03X18873752Y-11267948I-30000J0D01*
G01*
X19000752Y-11902948D02*
G75*
G03X19000752Y-11902948I-30000J0D01*
G01*
X19127752Y-9591548D02*
G75*
G03X19127752Y-9591548I-30000J0D01*
G01*
X19140452Y-11902948D02*
G75*
G03X19140452Y-11902948I-30000J0D01*
G01*
X19775452Y-11318748D02*
G75*
G03X19775452Y-11318748I-30000J0D01*
G01*
X21566152Y-7813548D02*
G75*
G03X21566152Y-7813548I-30000J0D01*
G01*
X21566152Y-7927848D02*
G75*
G03X21566152Y-7927848I-30000J0D01*
G01*
X22455152Y-7775448D02*
G75*
G03X22455152Y-7775448I-30000J0D01*
G01*
X14703552Y-11456548D02*
X14703552Y-11536548D01*
X14663552Y-11496548D02*
X14743552Y-11496548D01*
X14703552Y-11799448D02*
X14703552Y-11879448D01*
X14663552Y-11839448D02*
X14743552Y-11839448D01*
X14805152Y-9818248D02*
X14805152Y-9898248D01*
X14765152Y-9858248D02*
X14845152Y-9858248D01*
X14868652Y-9005448D02*
X14868652Y-9085448D01*
X14828652Y-9045448D02*
X14908652Y-9045448D01*
X15186152Y-9818248D02*
X15186152Y-9898248D01*
X15146152Y-9858248D02*
X15226152Y-9858248D01*
X16659352Y-11989948D02*
X16659352Y-12069948D01*
X16619352Y-12029948D02*
X16699352Y-12029948D01*
X20799552Y-7824347D02*
X20799552Y-7904347D01*
X20759552Y-7864347D02*
X20839552Y-7864347D01*
X20913852Y-7824349D02*
X20913852Y-7904349D01*
X20873852Y-7864349D02*
X20953852Y-7864349D01*
X21371052Y-7773548D02*
X21371052Y-7853548D01*
X21331052Y-7813548D02*
X21411052Y-7813548D01*
X21383752Y-7202048D02*
X21383752Y-7282048D01*
X21343752Y-7242048D02*
X21423752Y-7242048D01*
X21383752Y-7443348D02*
X21383752Y-7523348D01*
X21343752Y-7483348D02*
X21423752Y-7483348D01*
X21485352Y-6376548D02*
X21485352Y-6456548D01*
X21445352Y-6416548D02*
X21525352Y-6416548D01*
X21561552Y-6452748D02*
X21561552Y-6532748D01*
X21521552Y-6492748D02*
X21601552Y-6492748D01*
X21574252Y-7341748D02*
X21574252Y-7421748D01*
X21534252Y-7381748D02*
X21614252Y-7381748D01*
X21586952Y-8814948D02*
X21586952Y-8894948D01*
X21546952Y-8854948D02*
X21626952Y-8854948D01*
X21866352Y-9805548D02*
X21866352Y-9885548D01*
X21826352Y-9845548D02*
X21906352Y-9845548D01*
X21891752Y-11596248D02*
X21891752Y-11676248D01*
X21851752Y-11636248D02*
X21931752Y-11636248D01*
X22006051Y-9805548D02*
X22006051Y-9885548D01*
X21966051Y-9845548D02*
X22046051Y-9845548D01*
X22006052Y-10135748D02*
X22006052Y-10215748D01*
X21966052Y-10175748D02*
X22046052Y-10175748D01*
X22209252Y-7621148D02*
X22209252Y-7701148D01*
X22169252Y-7661148D02*
X22249252Y-7661148D01*
X22209252Y-7748148D02*
X22209252Y-7828148D01*
X22169252Y-7788148D02*
X22249252Y-7788148D01*
X15986252Y-8306948D02*
X15986252Y-8386948D01*
X15946252Y-8346948D02*
X16026252Y-8346948D01*
X16240252Y-8306948D02*
X16240252Y-8386948D01*
X16200252Y-8346948D02*
X16280252Y-8346948D01*
X16494252Y-8306948D02*
X16494252Y-8386948D01*
X16454252Y-8346948D02*
X16534252Y-8346948D01*
X14982952Y-11735948D02*
X14982952Y-11815948D01*
X14942952Y-11775948D02*
X15022952Y-11775948D01*
X15236952Y-11735948D02*
X15236952Y-11815948D01*
X15196952Y-11775948D02*
X15276952Y-11775948D01*
X15490952Y-11735948D02*
X15490952Y-11815948D01*
X15450952Y-11775948D02*
X15530952Y-11775948D01*
X15986252Y-7163948D02*
X15986252Y-7243948D01*
X15946252Y-7203948D02*
X16026252Y-7203948D01*
X16240252Y-7163948D02*
X16240252Y-7243948D01*
X16200252Y-7203948D02*
X16280252Y-7203948D01*
X16494252Y-7163948D02*
X16494252Y-7243948D01*
X16454252Y-7203948D02*
X16534252Y-7203948D01*
X15986252Y-6592448D02*
X15986252Y-6672448D01*
X15946252Y-6632448D02*
X16026252Y-6632448D01*
X16240252Y-6592448D02*
X16240252Y-6672448D01*
X16200252Y-6632448D02*
X16280252Y-6632448D01*
X16494252Y-6592448D02*
X16494252Y-6672448D01*
X16454252Y-6632448D02*
X16534252Y-6632448D01*
X15986252Y-9449948D02*
X15986252Y-9529948D01*
X15946252Y-9489948D02*
X16026252Y-9489948D01*
X16240252Y-9449948D02*
X16240252Y-9529948D01*
X16200252Y-9489948D02*
X16280252Y-9489948D01*
X16494252Y-9449948D02*
X16494252Y-9529948D01*
X16454252Y-9489948D02*
X16534252Y-9489948D01*
X15986252Y-10592948D02*
X15986252Y-10672948D01*
X15946252Y-10632948D02*
X16026252Y-10632948D01*
X16240252Y-10592948D02*
X16240252Y-10672948D01*
X16200252Y-10632948D02*
X16280252Y-10632948D01*
X16494252Y-10592948D02*
X16494252Y-10672948D01*
X16454252Y-10632948D02*
X16534252Y-10632948D01*
X16014989Y-11233185D02*
X16014989Y-11175711D01*
X15957515Y-11175711D01*
X15957515Y-11233185D01*
X16014989Y-11233185D01*
X16268989Y-11233185D02*
X16268989Y-11175711D01*
X16211515Y-11175711D01*
X16211515Y-11233185D01*
X16268989Y-11233185D01*
X16522989Y-11233185D02*
X16522989Y-11175711D01*
X16465515Y-11175711D01*
X16465515Y-11233185D01*
X16522989Y-11233185D01*
X16014989Y-7804185D02*
X16014989Y-7746711D01*
X15957515Y-7746711D01*
X15957515Y-7804185D01*
X16014989Y-7804185D01*
X16268989Y-7804185D02*
X16268989Y-7746711D01*
X16211515Y-7746711D01*
X16211515Y-7804185D01*
X16268989Y-7804185D01*
X16522989Y-7804185D02*
X16522989Y-7746711D01*
X16465515Y-7746711D01*
X16465515Y-7804185D01*
X16522989Y-7804185D01*
X16014989Y-10090185D02*
X16014989Y-10032711D01*
X15957515Y-10032711D01*
X15957515Y-10090185D01*
X16014989Y-10090185D01*
X16268989Y-10090185D02*
X16268989Y-10032711D01*
X16211515Y-10032711D01*
X16211515Y-10090185D01*
X16268989Y-10090185D01*
X16522989Y-10090185D02*
X16522989Y-10032711D01*
X16465515Y-10032711D01*
X16465515Y-10090185D01*
X16522989Y-10090185D01*
X16014989Y-8947185D02*
X16014989Y-8889711D01*
X15957515Y-8889711D01*
X15957515Y-8947185D01*
X16014989Y-8947185D01*
X16268989Y-8947185D02*
X16268989Y-8889711D01*
X16211515Y-8889711D01*
X16211515Y-8947185D01*
X16268989Y-8947185D01*
X16522989Y-8947185D02*
X16522989Y-8889711D01*
X16465515Y-8889711D01*
X16465515Y-8947185D01*
X16522989Y-8947185D01*
X14779752Y-6936448D02*
X14829752Y-6886448D01*
X14779752Y-6836448D01*
X14729752Y-6886448D01*
X14779752Y-6936448D01*
X15033752Y-6936448D02*
X15083752Y-6886448D01*
X15033752Y-6836448D01*
X14983752Y-6886448D01*
X15033752Y-6936448D01*
X15287752Y-6936448D02*
X15337752Y-6886448D01*
X15287752Y-6836448D01*
X15237752Y-6886448D01*
X15287752Y-6936448D01*
X17192752Y-6491948D02*
X17242752Y-6441948D01*
X17192752Y-6391948D01*
X17142752Y-6441948D01*
X17192752Y-6491948D01*
X17192752Y-6745948D02*
X17242752Y-6695948D01*
X17192752Y-6645948D01*
X17142752Y-6695948D01*
X17192752Y-6745948D01*
X17446752Y-6491948D02*
X17496752Y-6441948D01*
X17446752Y-6391948D01*
X17396752Y-6441948D01*
X17446752Y-6491948D01*
X17446752Y-6745948D02*
X17496752Y-6695948D01*
X17446752Y-6645948D01*
X17396752Y-6695948D01*
X17446752Y-6745948D01*
X17700752Y-6491948D02*
X17750752Y-6441948D01*
X17700752Y-6391948D01*
X17650752Y-6441948D01*
X17700752Y-6491948D01*
X17700752Y-6745948D02*
X17750752Y-6695948D01*
X17700752Y-6645948D01*
X17650752Y-6695948D01*
X17700752Y-6745948D01*
X17954752Y-6491948D02*
X18004752Y-6441948D01*
X17954752Y-6391948D01*
X17904752Y-6441948D01*
X17954752Y-6491948D01*
X17954752Y-6745948D02*
X18004752Y-6695948D01*
X17954752Y-6645948D01*
X17904752Y-6695948D01*
X17954752Y-6745948D01*
X18208752Y-6491948D02*
X18258752Y-6441948D01*
X18208752Y-6391948D01*
X18158752Y-6441948D01*
X18208752Y-6491948D01*
X18208752Y-6745948D02*
X18258752Y-6695948D01*
X18208752Y-6645948D01*
X18158752Y-6695948D01*
X18208752Y-6745948D01*
X19351752Y-10936948D02*
X19401752Y-10886948D01*
X19351752Y-10836948D01*
X19301752Y-10886948D01*
X19351752Y-10936948D01*
X19351752Y-11190948D02*
X19401752Y-11140948D01*
X19351752Y-11090948D01*
X19301752Y-11140948D01*
X19351752Y-11190948D01*
X14271752Y-7380948D02*
X14321752Y-7330948D01*
X14271752Y-7280948D01*
X14221752Y-7330948D01*
X14271752Y-7380948D01*
X14271752Y-7634948D02*
X14321752Y-7584948D01*
X14271752Y-7534948D01*
X14221752Y-7584948D01*
X14271752Y-7634948D01*
X14271752Y-7888948D02*
X14321752Y-7838948D01*
X14271752Y-7788948D01*
X14221752Y-7838948D01*
X14271752Y-7888948D01*
X14525752Y-7380948D02*
X14575752Y-7330948D01*
X14525752Y-7280948D01*
X14475752Y-7330948D01*
X14525752Y-7380948D01*
X14525752Y-7634948D02*
X14575752Y-7584948D01*
X14525752Y-7534948D01*
X14475752Y-7584948D01*
X14525752Y-7634948D01*
X14525752Y-7888948D02*
X14575752Y-7838948D01*
X14525752Y-7788948D01*
X14475752Y-7838948D01*
X14525752Y-7888948D01*
X15097252Y-7380948D02*
X15147252Y-7330948D01*
X15097252Y-7280948D01*
X15047252Y-7330948D01*
X15097252Y-7380948D01*
X15097252Y-7634948D02*
X15147252Y-7584948D01*
X15097252Y-7534948D01*
X15047252Y-7584948D01*
X15097252Y-7634948D01*
X15097252Y-7888948D02*
X15147252Y-7838948D01*
X15097252Y-7788948D01*
X15047252Y-7838948D01*
X15097252Y-7888948D01*
X15351252Y-7380948D02*
X15401252Y-7330948D01*
X15351252Y-7280948D01*
X15301252Y-7330948D01*
X15351252Y-7380948D01*
X15351252Y-7634948D02*
X15401252Y-7584948D01*
X15351252Y-7534948D01*
X15301252Y-7584948D01*
X15351252Y-7634948D01*
X15351252Y-7888948D02*
X15401252Y-7838948D01*
X15351252Y-7788948D01*
X15301252Y-7838948D01*
X15351252Y-7888948D01*
X14906752Y-10936948D02*
X14956752Y-10886948D01*
X14906752Y-10836948D01*
X14856752Y-10886948D01*
X14906752Y-10936948D01*
X15160752Y-10936948D02*
X15210752Y-10886948D01*
X15160752Y-10836948D01*
X15110752Y-10886948D01*
X15160752Y-10936948D01*
X15414752Y-10936948D02*
X15464752Y-10886948D01*
X15414752Y-10836948D01*
X15364752Y-10886948D01*
X15414752Y-10936948D01*
X21320252Y-9160218D02*
X21370252Y-9110218D01*
X21320252Y-9060218D01*
X21270252Y-9110218D01*
X21320252Y-9160218D01*
X21320252Y-9160218D02*
X21370252Y-9110218D01*
X21320252Y-9060218D01*
X21270252Y-9110218D01*
X21320252Y-9160218D01*
X21320252Y-9414218D02*
X21370252Y-9364218D01*
X21320252Y-9314218D01*
X21270252Y-9364218D01*
X21320252Y-9414218D01*
X21320252Y-9414218D02*
X21370252Y-9364218D01*
X21320252Y-9314218D01*
X21270252Y-9364218D01*
X21320252Y-9414218D01*
X21320252Y-9668218D02*
X21370252Y-9618218D01*
X21320252Y-9568218D01*
X21270252Y-9618218D01*
X21320252Y-9668218D01*
X21320252Y-9668218D02*
X21370252Y-9618218D01*
X21320252Y-9568218D01*
X21270252Y-9618218D01*
X21320252Y-9668218D01*
X21320252Y-9922218D02*
X21370252Y-9872218D01*
X21320252Y-9822218D01*
X21270252Y-9872218D01*
X21320252Y-9922218D01*
X21320252Y-9922218D02*
X21370252Y-9872218D01*
X21320252Y-9822218D01*
X21270252Y-9872218D01*
X21320252Y-9922218D01*
X22653752Y-9165298D02*
X22703752Y-9115298D01*
X22653752Y-9065298D01*
X22603752Y-9115298D01*
X22653752Y-9165298D01*
X22653752Y-9419298D02*
X22703752Y-9369298D01*
X22653752Y-9319298D01*
X22603752Y-9369298D01*
X22653752Y-9419298D01*
X22653752Y-9673298D02*
X22703752Y-9623298D01*
X22653752Y-9573298D01*
X22603752Y-9623298D01*
X22653752Y-9673298D01*
X22653752Y-9927298D02*
X22703752Y-9877298D01*
X22653752Y-9827298D01*
X22603752Y-9877298D01*
X22653752Y-9927298D01*
X14271752Y-9666948D02*
X14321752Y-9616948D01*
X14271752Y-9566948D01*
X14221752Y-9616948D01*
X14271752Y-9666948D01*
X14271752Y-9920948D02*
X14321752Y-9870948D01*
X14271752Y-9820948D01*
X14221752Y-9870948D01*
X14271752Y-9920948D01*
X14271752Y-10174948D02*
X14321752Y-10124948D01*
X14271752Y-10074948D01*
X14221752Y-10124948D01*
X14271752Y-10174948D01*
X14271752Y-10428948D02*
X14321752Y-10378948D01*
X14271752Y-10328948D01*
X14221752Y-10378948D01*
X14271752Y-10428948D01*
X14271752Y-10682948D02*
X14321752Y-10632948D01*
X14271752Y-10582948D01*
X14221752Y-10632948D01*
X14271752Y-10682948D01*
X14271752Y-10936948D02*
X14321752Y-10886948D01*
X14271752Y-10836948D01*
X14221752Y-10886948D01*
X14271752Y-10936948D01*
X14271752Y-11190948D02*
X14321752Y-11140948D01*
X14271752Y-11090948D01*
X14221752Y-11140948D01*
X14271752Y-11190948D01*
X14271752Y-11444948D02*
X14321752Y-11394948D01*
X14271752Y-11344948D01*
X14221752Y-11394948D01*
X14271752Y-11444948D01*
X14271752Y-11698948D02*
X14321752Y-11648948D01*
X14271752Y-11598948D01*
X14221752Y-11648948D01*
X14271752Y-11698948D01*
X14271752Y-11952948D02*
X14321752Y-11902948D01*
X14271752Y-11852948D01*
X14221752Y-11902948D01*
X14271752Y-11952948D01*
X14525752Y-9666948D02*
X14575752Y-9616948D01*
X14525752Y-9566948D01*
X14475752Y-9616948D01*
X14525752Y-9666948D01*
X14525752Y-9920948D02*
X14575752Y-9870948D01*
X14525752Y-9820948D01*
X14475752Y-9870948D01*
X14525752Y-9920948D01*
X14525752Y-10174948D02*
X14575752Y-10124948D01*
X14525752Y-10074948D01*
X14475752Y-10124948D01*
X14525752Y-10174948D01*
X14525752Y-10428948D02*
X14575752Y-10378948D01*
X14525752Y-10328948D01*
X14475752Y-10378948D01*
X14525752Y-10428948D01*
X14525752Y-10682948D02*
X14575752Y-10632948D01*
X14525752Y-10582948D01*
X14475752Y-10632948D01*
X14525752Y-10682948D01*
X14525752Y-10936948D02*
X14575752Y-10886948D01*
X14525752Y-10836948D01*
X14475752Y-10886948D01*
X14525752Y-10936948D01*
X14525752Y-11190948D02*
X14575752Y-11140948D01*
X14525752Y-11090948D01*
X14475752Y-11140948D01*
X14525752Y-11190948D01*
X14525752Y-11444948D02*
X14575752Y-11394948D01*
X14525752Y-11344948D01*
X14475752Y-11394948D01*
X14525752Y-11444948D01*
X14525752Y-11698948D02*
X14575752Y-11648948D01*
X14525752Y-11598948D01*
X14475752Y-11648948D01*
X14525752Y-11698948D01*
X14525752Y-11952948D02*
X14575752Y-11902948D01*
X14525752Y-11852948D01*
X14475752Y-11902948D01*
X14525752Y-11952948D01*
X17954752Y-7698448D02*
X18004752Y-7648448D01*
X17954752Y-7598448D01*
X17904752Y-7648448D01*
X17954752Y-7698448D01*
X17954752Y-7952448D02*
X18004752Y-7902448D01*
X17954752Y-7852448D01*
X17904752Y-7902448D01*
X17954752Y-7952448D01*
X18208752Y-7698448D02*
X18258752Y-7648448D01*
X18208752Y-7598448D01*
X18158752Y-7648448D01*
X18208752Y-7698448D01*
X18208752Y-7952448D02*
X18258752Y-7902448D01*
X18208752Y-7852448D01*
X18158752Y-7902448D01*
X18208752Y-7952448D01*
X18462752Y-7698448D02*
X18512752Y-7648448D01*
X18462752Y-7598448D01*
X18412752Y-7648448D01*
X18462752Y-7698448D01*
X18462752Y-7952448D02*
X18512752Y-7902448D01*
X18462752Y-7852448D01*
X18412752Y-7902448D01*
X18462752Y-7952448D01*
X18716752Y-7698448D02*
X18766752Y-7648448D01*
X18716752Y-7598448D01*
X18666752Y-7648448D01*
X18716752Y-7698448D01*
X18716752Y-7952448D02*
X18766752Y-7902448D01*
X18716752Y-7852448D01*
X18666752Y-7902448D01*
X18716752Y-7952448D01*
X18970752Y-7698448D02*
X19020752Y-7648448D01*
X18970752Y-7598448D01*
X18920752Y-7648448D01*
X18970752Y-7698448D01*
X18970752Y-7952448D02*
X19020752Y-7902448D01*
X18970752Y-7852448D01*
X18920752Y-7902448D01*
X18970752Y-7952448D01*
X15986252Y-11698948D02*
X16036252Y-11648948D01*
X15986252Y-11598948D01*
X15936252Y-11648948D01*
X15986252Y-11698948D01*
X15986252Y-11952948D02*
X16036252Y-11902948D01*
X15986252Y-11852948D01*
X15936252Y-11902948D01*
X15986252Y-11952948D01*
X16240252Y-11698948D02*
X16290252Y-11648948D01*
X16240252Y-11598948D01*
X16190252Y-11648948D01*
X16240252Y-11698948D01*
X16240252Y-11952948D02*
X16290252Y-11902948D01*
X16240252Y-11852948D01*
X16190252Y-11902948D01*
X16240252Y-11952948D01*
X16494252Y-11698948D02*
X16544252Y-11648948D01*
X16494252Y-11598948D01*
X16444252Y-11648948D01*
X16494252Y-11698948D01*
X16494252Y-11952948D02*
X16544252Y-11902948D01*
X16494252Y-11852948D01*
X16444252Y-11902948D01*
X16494252Y-11952948D01*
X20367752Y-6491948D02*
X20417752Y-6441948D01*
X20367752Y-6391948D01*
X20317752Y-6441948D01*
X20367752Y-6491948D01*
X20621752Y-6491948D02*
X20671752Y-6441948D01*
X20621752Y-6391948D01*
X20571752Y-6441948D01*
X20621752Y-6491948D01*
X17637252Y-10428948D02*
X17687252Y-10378948D01*
X17637252Y-10328948D01*
X17587252Y-10378948D01*
X17637252Y-10428948D01*
X17637252Y-10682948D02*
X17687252Y-10632948D01*
X17637252Y-10582948D01*
X17587252Y-10632948D01*
X17637252Y-10682948D01*
X17637252Y-10936948D02*
X17687252Y-10886948D01*
X17637252Y-10836948D01*
X17587252Y-10886948D01*
X17637252Y-10936948D01*
X17954752Y-8206448D02*
X18004752Y-8156448D01*
X17954752Y-8106448D01*
X17904752Y-8156448D01*
X17954752Y-8206448D01*
X18208752Y-8206448D02*
X18258752Y-8156448D01*
X18208752Y-8106448D01*
X18158752Y-8156448D01*
X18208752Y-8206448D01*
X18462752Y-8206448D02*
X18512752Y-8156448D01*
X18462752Y-8106448D01*
X18412752Y-8156448D01*
X18462752Y-8206448D01*
X18716752Y-8206448D02*
X18766752Y-8156448D01*
X18716752Y-8106448D01*
X18666752Y-8156448D01*
X18716752Y-8206448D01*
X18970752Y-8206448D02*
X19020752Y-8156448D01*
X18970752Y-8106448D01*
X18920752Y-8156448D01*
X18970752Y-8206448D01*
X19224752Y-8206448D02*
X19274752Y-8156448D01*
X19224752Y-8106448D01*
X19174752Y-8156448D01*
X19224752Y-8206448D01*
X16938752Y-7126948D02*
X16988752Y-7076948D01*
X16938752Y-7026948D01*
X16888752Y-7076948D01*
X16938752Y-7126948D01*
X16938752Y-7380948D02*
X16988752Y-7330948D01*
X16938752Y-7280948D01*
X16888752Y-7330948D01*
X16938752Y-7380948D01*
X16938752Y-7634948D02*
X16988752Y-7584948D01*
X16938752Y-7534948D01*
X16888752Y-7584948D01*
X16938752Y-7634948D01*
X16938752Y-7888948D02*
X16988752Y-7838948D01*
X16938752Y-7788948D01*
X16888752Y-7838948D01*
X16938752Y-7888948D01*
X16938752Y-8142948D02*
X16988752Y-8092948D01*
X16938752Y-8042948D01*
X16888752Y-8092948D01*
X16938752Y-8142948D01*
X16938752Y-8396948D02*
X16988752Y-8346948D01*
X16938752Y-8296948D01*
X16888752Y-8346948D01*
X16938752Y-8396948D01*
X16938752Y-8650948D02*
X16988752Y-8600948D01*
X16938752Y-8550948D01*
X16888752Y-8600948D01*
X16938752Y-8650948D01*
X16938752Y-8904948D02*
X16988752Y-8854948D01*
X16938752Y-8804948D01*
X16888752Y-8854948D01*
X16938752Y-8904948D01*
X16938752Y-9158948D02*
X16988752Y-9108948D01*
X16938752Y-9058948D01*
X16888752Y-9108948D01*
X16938752Y-9158948D01*
X16938752Y-9412948D02*
X16988752Y-9362948D01*
X16938752Y-9312948D01*
X16888752Y-9362948D01*
X16938752Y-9412948D01*
X16938752Y-9666948D02*
X16988752Y-9616948D01*
X16938752Y-9566948D01*
X16888752Y-9616948D01*
X16938752Y-9666948D01*
X16938752Y-9920948D02*
X16988752Y-9870948D01*
X16938752Y-9820948D01*
X16888752Y-9870948D01*
X16938752Y-9920948D01*
X16938752Y-10174948D02*
X16988752Y-10124948D01*
X16938752Y-10074948D01*
X16888752Y-10124948D01*
X16938752Y-10174948D01*
X16938752Y-10428948D02*
X16988752Y-10378948D01*
X16938752Y-10328948D01*
X16888752Y-10378948D01*
X16938752Y-10428948D01*
X16938752Y-10682948D02*
X16988752Y-10632948D01*
X16938752Y-10582948D01*
X16888752Y-10632948D01*
X16938752Y-10682948D01*
X16938752Y-10936948D02*
X16988752Y-10886948D01*
X16938752Y-10836948D01*
X16888752Y-10886948D01*
X16938752Y-10936948D01*
X16938752Y-11190948D02*
X16988752Y-11140948D01*
X16938752Y-11090948D01*
X16888752Y-11140948D01*
X16938752Y-11190948D01*
X16938752Y-11444948D02*
X16988752Y-11394948D01*
X16938752Y-11344948D01*
X16888752Y-11394948D01*
X16938752Y-11444948D01*
X16938752Y-11698948D02*
X16988752Y-11648948D01*
X16938752Y-11598948D01*
X16888752Y-11648948D01*
X16938752Y-11698948D01*
X16938752Y-11952948D02*
X16988752Y-11902948D01*
X16938752Y-11852948D01*
X16888752Y-11902948D01*
X16938752Y-11952948D01*
X17192752Y-7126948D02*
X17242752Y-7076948D01*
X17192752Y-7026948D01*
X17142752Y-7076948D01*
X17192752Y-7126948D01*
X17192752Y-7380948D02*
X17242752Y-7330948D01*
X17192752Y-7280948D01*
X17142752Y-7330948D01*
X17192752Y-7380948D01*
X17192752Y-7634948D02*
X17242752Y-7584948D01*
X17192752Y-7534948D01*
X17142752Y-7584948D01*
X17192752Y-7634948D01*
X17192752Y-7888948D02*
X17242752Y-7838948D01*
X17192752Y-7788948D01*
X17142752Y-7838948D01*
X17192752Y-7888948D01*
X17192752Y-8142948D02*
X17242752Y-8092948D01*
X17192752Y-8042948D01*
X17142752Y-8092948D01*
X17192752Y-8142948D01*
X17192752Y-8396948D02*
X17242752Y-8346948D01*
X17192752Y-8296948D01*
X17142752Y-8346948D01*
X17192752Y-8396948D01*
X17192752Y-8650948D02*
X17242752Y-8600948D01*
X17192752Y-8550948D01*
X17142752Y-8600948D01*
X17192752Y-8650948D01*
X17192752Y-8904948D02*
X17242752Y-8854948D01*
X17192752Y-8804948D01*
X17142752Y-8854948D01*
X17192752Y-8904948D01*
X17192752Y-9158948D02*
X17242752Y-9108948D01*
X17192752Y-9058948D01*
X17142752Y-9108948D01*
X17192752Y-9158948D01*
X17192752Y-9412948D02*
X17242752Y-9362948D01*
X17192752Y-9312948D01*
X17142752Y-9362948D01*
X17192752Y-9412948D01*
X17192752Y-9666948D02*
X17242752Y-9616948D01*
X17192752Y-9566948D01*
X17142752Y-9616948D01*
X17192752Y-9666948D01*
X17192752Y-9920948D02*
X17242752Y-9870948D01*
X17192752Y-9820948D01*
X17142752Y-9870948D01*
X17192752Y-9920948D01*
X17192752Y-10174948D02*
X17242752Y-10124948D01*
X17192752Y-10074948D01*
X17142752Y-10124948D01*
X17192752Y-10174948D01*
X17192752Y-10428948D02*
X17242752Y-10378948D01*
X17192752Y-10328948D01*
X17142752Y-10378948D01*
X17192752Y-10428948D01*
X17192752Y-10682948D02*
X17242752Y-10632948D01*
X17192752Y-10582948D01*
X17142752Y-10632948D01*
X17192752Y-10682948D01*
X17192752Y-10936948D02*
X17242752Y-10886948D01*
X17192752Y-10836948D01*
X17142752Y-10886948D01*
X17192752Y-10936948D01*
X17192752Y-11190948D02*
X17242752Y-11140948D01*
X17192752Y-11090948D01*
X17142752Y-11140948D01*
X17192752Y-11190948D01*
X17192752Y-11444948D02*
X17242752Y-11394948D01*
X17192752Y-11344948D01*
X17142752Y-11394948D01*
X17192752Y-11444948D01*
X17192752Y-11698948D02*
X17242752Y-11648948D01*
X17192752Y-11598948D01*
X17142752Y-11648948D01*
X17192752Y-11698948D01*
X17192752Y-11952948D02*
X17242752Y-11902948D01*
X17192752Y-11852948D01*
X17142752Y-11902948D01*
X17192752Y-11952948D01*
X17446752Y-7126948D02*
X17496752Y-7076948D01*
X17446752Y-7026948D01*
X17396752Y-7076948D01*
X17446752Y-7126948D01*
X17446752Y-7380948D02*
X17496752Y-7330948D01*
X17446752Y-7280948D01*
X17396752Y-7330948D01*
X17446752Y-7380948D01*
X17700752Y-7126948D02*
X17750752Y-7076948D01*
X17700752Y-7026948D01*
X17650752Y-7076948D01*
X17700752Y-7126948D01*
X17700752Y-7380948D02*
X17750752Y-7330948D01*
X17700752Y-7280948D01*
X17650752Y-7330948D01*
X17700752Y-7380948D01*
X17954752Y-7126948D02*
X18004752Y-7076948D01*
X17954752Y-7026948D01*
X17904752Y-7076948D01*
X17954752Y-7126948D01*
X17954752Y-7380948D02*
X18004752Y-7330948D01*
X17954752Y-7280948D01*
X17904752Y-7330948D01*
X17954752Y-7380948D01*
X18208752Y-7126948D02*
X18258752Y-7076948D01*
X18208752Y-7026948D01*
X18158752Y-7076948D01*
X18208752Y-7126948D01*
X18208752Y-7380948D02*
X18258752Y-7330948D01*
X18208752Y-7280948D01*
X18158752Y-7330948D01*
X18208752Y-7380948D01*
X18462752Y-7126948D02*
X18512752Y-7076948D01*
X18462752Y-7026948D01*
X18412752Y-7076948D01*
X18462752Y-7126948D01*
X18462752Y-7380948D02*
X18512752Y-7330948D01*
X18462752Y-7280948D01*
X18412752Y-7330948D01*
X18462752Y-7380948D01*
X18716752Y-7126948D02*
X18766752Y-7076948D01*
X18716752Y-7026948D01*
X18666752Y-7076948D01*
X18716752Y-7126948D01*
X18716752Y-7380948D02*
X18766752Y-7330948D01*
X18716752Y-7280948D01*
X18666752Y-7330948D01*
X18716752Y-7380948D01*
X18970752Y-7126948D02*
X19020752Y-7076948D01*
X18970752Y-7026948D01*
X18920752Y-7076948D01*
X18970752Y-7126948D01*
X18970752Y-7380948D02*
X19020752Y-7330948D01*
X18970752Y-7280948D01*
X18920752Y-7330948D01*
X18970752Y-7380948D01*
X19224752Y-7126948D02*
X19274752Y-7076948D01*
X19224752Y-7026948D01*
X19174752Y-7076948D01*
X19224752Y-7126948D01*
X19224752Y-7380948D02*
X19274752Y-7330948D01*
X19224752Y-7280948D01*
X19174752Y-7330948D01*
X19224752Y-7380948D01*
X19478752Y-7126948D02*
X19528752Y-7076948D01*
X19478752Y-7026948D01*
X19428752Y-7076948D01*
X19478752Y-7126948D01*
X19478752Y-7380948D02*
X19528752Y-7330948D01*
X19478752Y-7280948D01*
X19428752Y-7330948D01*
X19478752Y-7380948D01*
X19732752Y-7126948D02*
X19782752Y-7076948D01*
X19732752Y-7026948D01*
X19682752Y-7076948D01*
X19732752Y-7126948D01*
X19732752Y-7380948D02*
X19782752Y-7330948D01*
X19732752Y-7280948D01*
X19682752Y-7330948D01*
X19732752Y-7380948D01*
X19986752Y-7126948D02*
X20036752Y-7076948D01*
X19986752Y-7026948D01*
X19936752Y-7076948D01*
X19986752Y-7126948D01*
X19986752Y-7380948D02*
X20036752Y-7330948D01*
X19986752Y-7280948D01*
X19936752Y-7330948D01*
X19986752Y-7380948D01*
X19986752Y-7634948D02*
X20036752Y-7584948D01*
X19986752Y-7534948D01*
X19936752Y-7584948D01*
X19986752Y-7634948D01*
X19986752Y-7888948D02*
X20036752Y-7838948D01*
X19986752Y-7788948D01*
X19936752Y-7838948D01*
X19986752Y-7888948D01*
X19986752Y-8142948D02*
X20036752Y-8092948D01*
X19986752Y-8042948D01*
X19936752Y-8092948D01*
X19986752Y-8142948D01*
X19986752Y-8396948D02*
X20036752Y-8346948D01*
X19986752Y-8296948D01*
X19936752Y-8346948D01*
X19986752Y-8396948D01*
X19986752Y-8650948D02*
X20036752Y-8600948D01*
X19986752Y-8550948D01*
X19936752Y-8600948D01*
X19986752Y-8650948D01*
X19986752Y-8904948D02*
X20036752Y-8854948D01*
X19986752Y-8804948D01*
X19936752Y-8854948D01*
X19986752Y-8904948D01*
X19986752Y-9158948D02*
X20036752Y-9108948D01*
X19986752Y-9058948D01*
X19936752Y-9108948D01*
X19986752Y-9158948D01*
X19986752Y-9412948D02*
X20036752Y-9362948D01*
X19986752Y-9312948D01*
X19936752Y-9362948D01*
X19986752Y-9412948D01*
X19986752Y-9666948D02*
X20036752Y-9616948D01*
X19986752Y-9566948D01*
X19936752Y-9616948D01*
X19986752Y-9666948D01*
X19986752Y-9920948D02*
X20036752Y-9870948D01*
X19986752Y-9820948D01*
X19936752Y-9870948D01*
X19986752Y-9920948D01*
X19986752Y-10174948D02*
X20036752Y-10124948D01*
X19986752Y-10074948D01*
X19936752Y-10124948D01*
X19986752Y-10174948D01*
X19986752Y-10428948D02*
X20036752Y-10378948D01*
X19986752Y-10328948D01*
X19936752Y-10378948D01*
X19986752Y-10428948D01*
X19986752Y-10682948D02*
X20036752Y-10632948D01*
X19986752Y-10582948D01*
X19936752Y-10632948D01*
X19986752Y-10682948D01*
X19986752Y-10936948D02*
X20036752Y-10886948D01*
X19986752Y-10836948D01*
X19936752Y-10886948D01*
X19986752Y-10936948D01*
X19986752Y-11190948D02*
X20036752Y-11140948D01*
X19986752Y-11090948D01*
X19936752Y-11140948D01*
X19986752Y-11190948D01*
X19986752Y-11444948D02*
X20036752Y-11394948D01*
X19986752Y-11344948D01*
X19936752Y-11394948D01*
X19986752Y-11444948D01*
X19986752Y-11698948D02*
X20036752Y-11648948D01*
X19986752Y-11598948D01*
X19936752Y-11648948D01*
X19986752Y-11698948D01*
X19986752Y-11952948D02*
X20036752Y-11902948D01*
X19986752Y-11852948D01*
X19936752Y-11902948D01*
X19986752Y-11952948D01*
X20240752Y-7126948D02*
X20290752Y-7076948D01*
X20240752Y-7026948D01*
X20190752Y-7076948D01*
X20240752Y-7126948D01*
X20240752Y-7380948D02*
X20290752Y-7330948D01*
X20240752Y-7280948D01*
X20190752Y-7330948D01*
X20240752Y-7380948D01*
X20240752Y-7634948D02*
X20290752Y-7584948D01*
X20240752Y-7534948D01*
X20190752Y-7584948D01*
X20240752Y-7634948D01*
X20240752Y-7888948D02*
X20290752Y-7838948D01*
X20240752Y-7788948D01*
X20190752Y-7838948D01*
X20240752Y-7888948D01*
X20240752Y-8142948D02*
X20290752Y-8092948D01*
X20240752Y-8042948D01*
X20190752Y-8092948D01*
X20240752Y-8142948D01*
X20240752Y-8396948D02*
X20290752Y-8346948D01*
X20240752Y-8296948D01*
X20190752Y-8346948D01*
X20240752Y-8396948D01*
X20240752Y-8650948D02*
X20290752Y-8600948D01*
X20240752Y-8550948D01*
X20190752Y-8600948D01*
X20240752Y-8650948D01*
X20240752Y-8904948D02*
X20290752Y-8854948D01*
X20240752Y-8804948D01*
X20190752Y-8854948D01*
X20240752Y-8904948D01*
X20240752Y-9158948D02*
X20290752Y-9108948D01*
X20240752Y-9058948D01*
X20190752Y-9108948D01*
X20240752Y-9158948D01*
X20240752Y-9412948D02*
X20290752Y-9362948D01*
X20240752Y-9312948D01*
X20190752Y-9362948D01*
X20240752Y-9412948D01*
X20240752Y-9666948D02*
X20290752Y-9616948D01*
X20240752Y-9566948D01*
X20190752Y-9616948D01*
X20240752Y-9666948D01*
X20240752Y-9920948D02*
X20290752Y-9870948D01*
X20240752Y-9820948D01*
X20190752Y-9870948D01*
X20240752Y-9920948D01*
X20240752Y-10174948D02*
X20290752Y-10124948D01*
X20240752Y-10074948D01*
X20190752Y-10124948D01*
X20240752Y-10174948D01*
X20240752Y-10428948D02*
X20290752Y-10378948D01*
X20240752Y-10328948D01*
X20190752Y-10378948D01*
X20240752Y-10428948D01*
X20240752Y-10682948D02*
X20290752Y-10632948D01*
X20240752Y-10582948D01*
X20190752Y-10632948D01*
X20240752Y-10682948D01*
X20240752Y-10936948D02*
X20290752Y-10886948D01*
X20240752Y-10836948D01*
X20190752Y-10886948D01*
X20240752Y-10936948D01*
X20240752Y-11190948D02*
X20290752Y-11140948D01*
X20240752Y-11090948D01*
X20190752Y-11140948D01*
X20240752Y-11190948D01*
X20240752Y-11444948D02*
X20290752Y-11394948D01*
X20240752Y-11344948D01*
X20190752Y-11394948D01*
X20240752Y-11444948D01*
X20240752Y-11698948D02*
X20290752Y-11648948D01*
X20240752Y-11598948D01*
X20190752Y-11648948D01*
X20240752Y-11698948D01*
X20240752Y-11952948D02*
X20290752Y-11902948D01*
X20240752Y-11852948D01*
X20190752Y-11902948D01*
X20240752Y-11952948D01*
X20875752Y-6491948D02*
X20925752Y-6441948D01*
X20875752Y-6391948D01*
X20825752Y-6441948D01*
X20875752Y-6491948D01*
X20876752Y-8346148D02*
X20926752Y-8296148D01*
X20876752Y-8246148D01*
X20826752Y-8296148D01*
X20876752Y-8346148D01*
X21129752Y-6491948D02*
X21179752Y-6441948D01*
X21129752Y-6391948D01*
X21079752Y-6441948D01*
X21129752Y-6491948D01*
X21129752Y-8346148D02*
X21179752Y-8296148D01*
X21129752Y-8246148D01*
X21079752Y-8296148D01*
X21129752Y-8346148D01*
X21942552Y-6491948D02*
X21992552Y-6441948D01*
X21942552Y-6391948D01*
X21892552Y-6441948D01*
X21942552Y-6491948D01*
X21942552Y-8346148D02*
X21992552Y-8296148D01*
X21942552Y-8246148D01*
X21892552Y-8296148D01*
X21942552Y-8346148D01*
X22196552Y-6491948D02*
X22246552Y-6441948D01*
X22196552Y-6391948D01*
X22146552Y-6441948D01*
X22196552Y-6491948D01*
X22196552Y-8346148D02*
X22246552Y-8296148D01*
X22196552Y-8246148D01*
X22146552Y-8296148D01*
X22196552Y-8346148D01*
X21828252Y-8650948D02*
X21878252Y-8600948D01*
X21828252Y-8550948D01*
X21778252Y-8600948D01*
X21828252Y-8650948D01*
X21828252Y-8904948D02*
X21878252Y-8854948D01*
X21828252Y-8804948D01*
X21778252Y-8854948D01*
X21828252Y-8904948D01*
X22082252Y-8650948D02*
X22132252Y-8600948D01*
X22082252Y-8550948D01*
X22032252Y-8600948D01*
X22082252Y-8650948D01*
X22082252Y-8904948D02*
X22132252Y-8854948D01*
X22082252Y-8804948D01*
X22032252Y-8854948D01*
X22082252Y-8904948D01*
X22336252Y-8650948D02*
X22386252Y-8600948D01*
X22336252Y-8550948D01*
X22286252Y-8600948D01*
X22336252Y-8650948D01*
X22336252Y-8904948D02*
X22386252Y-8854948D01*
X22336252Y-8804948D01*
X22286252Y-8854948D01*
X22336252Y-8904948D01*
X22590252Y-8650948D02*
X22640252Y-8600948D01*
X22590252Y-8550948D01*
X22540252Y-8600948D01*
X22590252Y-8650948D01*
X22590252Y-8904948D02*
X22640252Y-8854948D01*
X22590252Y-8804948D01*
X22540252Y-8854948D01*
X22590252Y-8904948D01*
X14906752Y-10428948D02*
X14956752Y-10378948D01*
X14906752Y-10328948D01*
X14856752Y-10378948D01*
X14906752Y-10428948D01*
X15160752Y-10428948D02*
X15210752Y-10378948D01*
X15160752Y-10328948D01*
X15110752Y-10378948D01*
X15160752Y-10428948D01*
X15414752Y-10428948D02*
X15464752Y-10378948D01*
X15414752Y-10328948D01*
X15364752Y-10378948D01*
X15414752Y-10428948D01*
X19796252Y-6491948D02*
X19846252Y-6441948D01*
X19796252Y-6391948D01*
X19746252Y-6441948D01*
X19796252Y-6491948D01*
X20050252Y-6491948D02*
X20100252Y-6441948D01*
X20050252Y-6391948D01*
X20000252Y-6441948D01*
X20050252Y-6491948D01*
X19732752Y-7634948D02*
X19782752Y-7584948D01*
X19732752Y-7534948D01*
X19682752Y-7584948D01*
X19732752Y-7634948D01*
X19732752Y-7888948D02*
X19782752Y-7838948D01*
X19732752Y-7788948D01*
X19682752Y-7838948D01*
X19732752Y-7888948D01*
X17637252Y-8650948D02*
X17687252Y-8600948D01*
X17637252Y-8550948D01*
X17587252Y-8600948D01*
X17637252Y-8650948D01*
X17637252Y-8904948D02*
X17687252Y-8854948D01*
X17637252Y-8804948D01*
X17587252Y-8854948D01*
X17637252Y-8904948D01*
X17637252Y-9412948D02*
X17687252Y-9362948D01*
X17637252Y-9312948D01*
X17587252Y-9362948D01*
X17637252Y-9412948D01*
X17637252Y-9920948D02*
X17687252Y-9870948D01*
X17637252Y-9820948D01*
X17587252Y-9870948D01*
X17637252Y-9920948D01*
X17637252Y-11444948D02*
X17687252Y-11394948D01*
X17637252Y-11344948D01*
X17587252Y-11394948D01*
X17637252Y-11444948D01*
X17637252Y-11698948D02*
X17687252Y-11648948D01*
X17637252Y-11598948D01*
X17587252Y-11648948D01*
X17637252Y-11698948D01*
X17637252Y-11952948D02*
X17687252Y-11902948D01*
X17637252Y-11852948D01*
X17587252Y-11902948D01*
X17637252Y-11952948D01*
X19542252Y-8650948D02*
X19592252Y-8600948D01*
X19542252Y-8550948D01*
X19492252Y-8600948D01*
X19542252Y-8650948D01*
X19542252Y-8904948D02*
X19592252Y-8854948D01*
X19542252Y-8804948D01*
X19492252Y-8854948D01*
X19542252Y-8904948D01*
X19542252Y-11444948D02*
X19592252Y-11394948D01*
X19542252Y-11344948D01*
X19492252Y-11394948D01*
X19542252Y-11444948D01*
X19542252Y-11698948D02*
X19592252Y-11648948D01*
X19542252Y-11598948D01*
X19492252Y-11648948D01*
X19542252Y-11698948D01*
X19542252Y-11952948D02*
X19592252Y-11902948D01*
X19542252Y-11852948D01*
X19492252Y-11902948D01*
X19542252Y-11952948D01*
X21764752Y-10200348D02*
X21814752Y-10150348D01*
X21764752Y-10100348D01*
X21714752Y-10150348D01*
X21764752Y-10200348D01*
X21764752Y-10454348D02*
X21814752Y-10404348D01*
X21764752Y-10354348D01*
X21714752Y-10404348D01*
X21764752Y-10454348D01*
X21764752Y-10708348D02*
X21814752Y-10658348D01*
X21764752Y-10608348D01*
X21714752Y-10658348D01*
X21764752Y-10708348D01*
X21764752Y-10962348D02*
X21814752Y-10912348D01*
X21764752Y-10862348D01*
X21714752Y-10912348D01*
X21764752Y-10962348D01*
X21764752Y-11216348D02*
X21814752Y-11166348D01*
X21764752Y-11116348D01*
X21714752Y-11166348D01*
X21764752Y-11216348D01*
X21764752Y-11470348D02*
X21814752Y-11420348D01*
X21764752Y-11370348D01*
X21714752Y-11420348D01*
X21764752Y-11470348D01*
X18462752Y-6491948D02*
X18512752Y-6441948D01*
X18462752Y-6391948D01*
X18412752Y-6441948D01*
X18462752Y-6491948D01*
X18462752Y-6745948D02*
X18512752Y-6695948D01*
X18462752Y-6645948D01*
X18412752Y-6695948D01*
X18462752Y-6745948D01*
X18716752Y-6491948D02*
X18766752Y-6441948D01*
X18716752Y-6391948D01*
X18666752Y-6441948D01*
X18716752Y-6491948D01*
X18716752Y-6745948D02*
X18766752Y-6695948D01*
X18716752Y-6645948D01*
X18666752Y-6695948D01*
X18716752Y-6745948D01*
X18970752Y-6491948D02*
X19020752Y-6441948D01*
X18970752Y-6391948D01*
X18920752Y-6441948D01*
X18970752Y-6491948D01*
X18970752Y-6745948D02*
X19020752Y-6695948D01*
X18970752Y-6645948D01*
X18920752Y-6695948D01*
X18970752Y-6745948D01*
X19224752Y-6491948D02*
X19274752Y-6441948D01*
X19224752Y-6391948D01*
X19174752Y-6441948D01*
X19224752Y-6491948D01*
X19224752Y-6745948D02*
X19274752Y-6695948D01*
X19224752Y-6645948D01*
X19174752Y-6695948D01*
X19224752Y-6745948D01*
X19478752Y-6491948D02*
X19528752Y-6441948D01*
X19478752Y-6391948D01*
X19428752Y-6441948D01*
X19478752Y-6491948D01*
X19478752Y-6745948D02*
X19528752Y-6695948D01*
X19478752Y-6645948D01*
X19428752Y-6695948D01*
X19478752Y-6745948D01*
X20558252Y-8650948D02*
X20608252Y-8600948D01*
X20558252Y-8550948D01*
X20508252Y-8600948D01*
X20558252Y-8650948D01*
X20558252Y-8904948D02*
X20608252Y-8854948D01*
X20558252Y-8804948D01*
X20508252Y-8854948D01*
X20558252Y-8904948D01*
X20812252Y-8650948D02*
X20862252Y-8600948D01*
X20812252Y-8550948D01*
X20762252Y-8600948D01*
X20812252Y-8650948D01*
X20812252Y-8904948D02*
X20862252Y-8854948D01*
X20812252Y-8804948D01*
X20762252Y-8854948D01*
X20812252Y-8904948D01*
X21066252Y-8650948D02*
X21116252Y-8600948D01*
X21066252Y-8550948D01*
X21016252Y-8600948D01*
X21066252Y-8650948D01*
X21066252Y-8904948D02*
X21116252Y-8854948D01*
X21066252Y-8804948D01*
X21016252Y-8854948D01*
X21066252Y-8904948D01*
X21320252Y-8650948D02*
X21370252Y-8600948D01*
X21320252Y-8550948D01*
X21270252Y-8600948D01*
X21320252Y-8650948D01*
X21320252Y-8904948D02*
X21370252Y-8854948D01*
X21320252Y-8804948D01*
X21270252Y-8854948D01*
X21320252Y-8904948D01*
X20558252Y-10428948D02*
X20608252Y-10378948D01*
X20558252Y-10328948D01*
X20508252Y-10378948D01*
X20558252Y-10428948D01*
X20558252Y-10682948D02*
X20608252Y-10632948D01*
X20558252Y-10582948D01*
X20508252Y-10632948D01*
X20558252Y-10682948D01*
X20812252Y-9158948D02*
X20862252Y-9108948D01*
X20812252Y-9058948D01*
X20762252Y-9108948D01*
X20812252Y-9158948D01*
X20812252Y-9412948D02*
X20862252Y-9362948D01*
X20812252Y-9312948D01*
X20762252Y-9362948D01*
X20812252Y-9412948D01*
X20812252Y-9666948D02*
X20862252Y-9616948D01*
X20812252Y-9566948D01*
X20762252Y-9616948D01*
X20812252Y-9666948D01*
X20812252Y-9920948D02*
X20862252Y-9870948D01*
X20812252Y-9820948D01*
X20762252Y-9870948D01*
X20812252Y-9920948D01*
X20812252Y-10174948D02*
X20862252Y-10124948D01*
X20812252Y-10074948D01*
X20762252Y-10124948D01*
X20812252Y-10174948D01*
X21002752Y-11952948D02*
X21052752Y-11902948D01*
X21002752Y-11852948D01*
X20952752Y-11902948D01*
X21002752Y-11952948D01*
X21256752Y-11952948D02*
X21306752Y-11902948D01*
X21256752Y-11852948D01*
X21206752Y-11902948D01*
X21256752Y-11952948D01*
X21510752Y-11952948D02*
X21560752Y-11902948D01*
X21510752Y-11852948D01*
X21460752Y-11902948D01*
X21510752Y-11952948D01*
X21764752Y-11952948D02*
X21814752Y-11902948D01*
X21764752Y-11852948D01*
X21714752Y-11902948D01*
X21764752Y-11952948D01*
X22018752Y-11952948D02*
X22068752Y-11902948D01*
X22018752Y-11852948D01*
X21968752Y-11902948D01*
X22018752Y-11952948D01*
X14906752Y-10682948D02*
X14956752Y-10632948D01*
X14906752Y-10582948D01*
X14856752Y-10632948D01*
X14906752Y-10682948D01*
X15160752Y-10682948D02*
X15210752Y-10632948D01*
X15160752Y-10582948D01*
X15110752Y-10632948D01*
X15160752Y-10682948D01*
X15414752Y-10682948D02*
X15464752Y-10632948D01*
X15414752Y-10582948D01*
X15364752Y-10632948D01*
X15414752Y-10682948D01*
X14906752Y-11444948D02*
X14956752Y-11394948D01*
X14906752Y-11344948D01*
X14856752Y-11394948D01*
X14906752Y-11444948D01*
X15160752Y-11444948D02*
X15210752Y-11394948D01*
X15160752Y-11344948D01*
X15110752Y-11394948D01*
X15160752Y-11444948D01*
X15414752Y-11444948D02*
X15464752Y-11394948D01*
X15414752Y-11344948D01*
X15364752Y-11394948D01*
X15414752Y-11444948D01*
X20558252Y-11190948D02*
X20608252Y-11140948D01*
X20558252Y-11090948D01*
X20508252Y-11140948D01*
X20558252Y-11190948D01*
X20558252Y-11444948D02*
X20608252Y-11394948D01*
X20558252Y-11344948D01*
X20508252Y-11394948D01*
X20558252Y-11444948D01*
X20558252Y-9158948D02*
X20608252Y-9108948D01*
X20558252Y-9058948D01*
X20508252Y-9108948D01*
X20558252Y-9158948D01*
X20558252Y-9412948D02*
X20608252Y-9362948D01*
X20558252Y-9312948D01*
X20508252Y-9362948D01*
X20558252Y-9412948D01*
X20558252Y-9666948D02*
X20608252Y-9616948D01*
X20558252Y-9566948D01*
X20508252Y-9616948D01*
X20558252Y-9666948D01*
X20558252Y-9920948D02*
X20608252Y-9870948D01*
X20558252Y-9820948D01*
X20508252Y-9870948D01*
X20558252Y-9920948D01*
X20558252Y-7126948D02*
X20608252Y-7076948D01*
X20558252Y-7026948D01*
X20508252Y-7076948D01*
X20558252Y-7126948D01*
X20558252Y-7380948D02*
X20608252Y-7330948D01*
X20558252Y-7280948D01*
X20508252Y-7330948D01*
X20558252Y-7380948D01*
X20558252Y-7634948D02*
X20608252Y-7584948D01*
X20558252Y-7534948D01*
X20508252Y-7584948D01*
X20558252Y-7634948D01*
X20558252Y-7888948D02*
X20608252Y-7838948D01*
X20558252Y-7788948D01*
X20508252Y-7838948D01*
X20558252Y-7888948D01*
X22653752Y-10301948D02*
X22703752Y-10251948D01*
X22653752Y-10201948D01*
X22603752Y-10251948D01*
X22653752Y-10301948D01*
X22653752Y-10555948D02*
X22703752Y-10505948D01*
X22653752Y-10455948D01*
X22603752Y-10505948D01*
X22653752Y-10555948D01*
X22653752Y-10809948D02*
X22703752Y-10759948D01*
X22653752Y-10709948D01*
X22603752Y-10759948D01*
X22653752Y-10809948D01*
X22653752Y-11063948D02*
X22703752Y-11013948D01*
X22653752Y-10963948D01*
X22603752Y-11013948D01*
X22653752Y-11063948D01*
X22653752Y-11317948D02*
X22703752Y-11267948D01*
X22653752Y-11217948D01*
X22603752Y-11267948D01*
X22653752Y-11317948D01*
X22660102Y-6956298D02*
X22774402Y-7070598D01*
X22774402Y-6956298D02*
X22660102Y-7070598D01*
X22774402Y-7013448D02*
G75*
G03X22774402Y-7013448I-57150J0D01*
G01*
X22660102Y-7210298D02*
X22774402Y-7324598D01*
X22774402Y-7210298D02*
X22660102Y-7324598D01*
X22774402Y-7267448D02*
G75*
G03X22774402Y-7267448I-57150J0D01*
G01*
X22660102Y-7464298D02*
X22774402Y-7578598D01*
X22774402Y-7464298D02*
X22660102Y-7578598D01*
X22774402Y-7521448D02*
G75*
G03X22774402Y-7521448I-57150J0D01*
G01*
X22660102Y-7718298D02*
X22774402Y-7832598D01*
X22774402Y-7718298D02*
X22660102Y-7832598D01*
X22774402Y-7775448D02*
G75*
G03X22774402Y-7775448I-57150J0D01*
G01*
X22660102Y-7972298D02*
X22774402Y-8086598D01*
X22774402Y-7972298D02*
X22660102Y-8086598D01*
X22774402Y-8029448D02*
G75*
G03X22774402Y-8029448I-57150J0D01*
G01*
D12*
X13038180Y-13634662D02*
X13038180Y-13334662D01*
X13109609Y-13334662D01*
X13152466Y-13348948D01*
X13181038Y-13377519D01*
X13195323Y-13406091D01*
X13209609Y-13463234D01*
X13209609Y-13506091D01*
X13195323Y-13563234D01*
X13181038Y-13591805D01*
X13152466Y-13620376D01*
X13109609Y-13634662D01*
X13038180Y-13634662D01*
X13338180Y-13634662D02*
X13338180Y-13434662D01*
X13338180Y-13491805D02*
X13352466Y-13463234D01*
X13366752Y-13448948D01*
X13395323Y-13434662D01*
X13423895Y-13434662D01*
X13523895Y-13634662D02*
X13523895Y-13434662D01*
X13523895Y-13334662D02*
X13509609Y-13348948D01*
X13523895Y-13363234D01*
X13538180Y-13348948D01*
X13523895Y-13334662D01*
X13523895Y-13363234D01*
X13709609Y-13634662D02*
X13681038Y-13620376D01*
X13666752Y-13591805D01*
X13666752Y-13334662D01*
X13866752Y-13634662D02*
X13838180Y-13620376D01*
X13823895Y-13591805D01*
X13823895Y-13334662D01*
X14209609Y-13634662D02*
X14209609Y-13334662D01*
X14309609Y-13548948D01*
X14409609Y-13334662D01*
X14409609Y-13634662D01*
X14681038Y-13634662D02*
X14681038Y-13477519D01*
X14666752Y-13448948D01*
X14638180Y-13434662D01*
X14581038Y-13434662D01*
X14552466Y-13448948D01*
X14681038Y-13620376D02*
X14652466Y-13634662D01*
X14581038Y-13634662D01*
X14552466Y-13620376D01*
X14538180Y-13591805D01*
X14538180Y-13563234D01*
X14552466Y-13534662D01*
X14581038Y-13520376D01*
X14652466Y-13520376D01*
X14681038Y-13506091D01*
X14823895Y-13434662D02*
X14823895Y-13734662D01*
X14823895Y-13448948D02*
X14852466Y-13434662D01*
X14909609Y-13434662D01*
X14938180Y-13448948D01*
X14952466Y-13463234D01*
X14966752Y-13491805D01*
X14966752Y-13577519D01*
X14952466Y-13606091D01*
X14938180Y-13620376D01*
X14909609Y-13634662D01*
X14852466Y-13634662D01*
X14823895Y-13620376D01*
X15095323Y-13606091D02*
X15109609Y-13620376D01*
X15095323Y-13634662D01*
X15081038Y-13620376D01*
X15095323Y-13606091D01*
X15095323Y-13634662D01*
X15095323Y-13448948D02*
X15109609Y-13463234D01*
X15095323Y-13477519D01*
X15081038Y-13463234D01*
X15095323Y-13448948D01*
X15095323Y-13477519D01*
X12721752Y-14113948D02*
X12751752Y-14143948D01*
X12751752Y-14113948D02*
X12721752Y-14143948D01*
X13095323Y-13964662D02*
X13123895Y-13964662D01*
X13152466Y-13978948D01*
X13166752Y-13993234D01*
X13181038Y-14021805D01*
X13195323Y-14078948D01*
X13195323Y-14150376D01*
X13181038Y-14207519D01*
X13166752Y-14236091D01*
X13152466Y-14250376D01*
X13123895Y-14264662D01*
X13095323Y-14264662D01*
X13066752Y-14250376D01*
X13052466Y-14236091D01*
X13038180Y-14207519D01*
X13023895Y-14150376D01*
X13023895Y-14078948D01*
X13038180Y-14021805D01*
X13052466Y-13993234D01*
X13066752Y-13978948D01*
X13095323Y-13964662D01*
X13323895Y-14236091D02*
X13338180Y-14250376D01*
X13323895Y-14264662D01*
X13309609Y-14250376D01*
X13323895Y-14236091D01*
X13323895Y-14264662D01*
X13438180Y-13964662D02*
X13623895Y-13964662D01*
X13523895Y-14078948D01*
X13566752Y-14078948D01*
X13595323Y-14093234D01*
X13609609Y-14107519D01*
X13623895Y-14136091D01*
X13623895Y-14207519D01*
X13609609Y-14236091D01*
X13595323Y-14250376D01*
X13566752Y-14264662D01*
X13481038Y-14264662D01*
X13452466Y-14250376D01*
X13438180Y-14236091D01*
X13809609Y-13964662D02*
X13838180Y-13964662D01*
X13866752Y-13978948D01*
X13881038Y-13993234D01*
X13895323Y-14021805D01*
X13909609Y-14078948D01*
X13909609Y-14150376D01*
X13895323Y-14207519D01*
X13881038Y-14236091D01*
X13866752Y-14250376D01*
X13838180Y-14264662D01*
X13809609Y-14264662D01*
X13781038Y-14250376D01*
X13766752Y-14236091D01*
X13752466Y-14207519D01*
X13738180Y-14150376D01*
X13738180Y-14078948D01*
X13752466Y-14021805D01*
X13766752Y-13993234D01*
X13781038Y-13978948D01*
X13809609Y-13964662D01*
X14038180Y-14264662D02*
X14038180Y-14064662D01*
X14038180Y-14093234D02*
X14052466Y-14078948D01*
X14081038Y-14064662D01*
X14123895Y-14064662D01*
X14152466Y-14078948D01*
X14166752Y-14107519D01*
X14166752Y-14264662D01*
X14166752Y-14107519D02*
X14181038Y-14078948D01*
X14209609Y-14064662D01*
X14252466Y-14064662D01*
X14281038Y-14078948D01*
X14295323Y-14107519D01*
X14295323Y-14264662D01*
X14438180Y-14264662D02*
X14438180Y-14064662D01*
X14438180Y-14093234D02*
X14452466Y-14078948D01*
X14481038Y-14064662D01*
X14523895Y-14064662D01*
X14552466Y-14078948D01*
X14566752Y-14107519D01*
X14566752Y-14264662D01*
X14566752Y-14107519D02*
X14581038Y-14078948D01*
X14609609Y-14064662D01*
X14652466Y-14064662D01*
X14681038Y-14078948D01*
X14695323Y-14107519D01*
X14695323Y-14264662D01*
X15281038Y-13950376D02*
X15023895Y-14336091D01*
X15666752Y-13964662D02*
X15695323Y-13964662D01*
X15723895Y-13978948D01*
X15738180Y-13993234D01*
X15752466Y-14021805D01*
X15766752Y-14078948D01*
X15766752Y-14150376D01*
X15752466Y-14207519D01*
X15738180Y-14236091D01*
X15723895Y-14250376D01*
X15695323Y-14264662D01*
X15666752Y-14264662D01*
X15638180Y-14250376D01*
X15623895Y-14236091D01*
X15609609Y-14207519D01*
X15595323Y-14150376D01*
X15595323Y-14078948D01*
X15609609Y-14021805D01*
X15623895Y-13993234D01*
X15638180Y-13978948D01*
X15666752Y-13964662D01*
X15895323Y-14236091D02*
X15909609Y-14250376D01*
X15895323Y-14264662D01*
X15881038Y-14250376D01*
X15895323Y-14236091D01*
X15895323Y-14264662D01*
X16095323Y-13964662D02*
X16123895Y-13964662D01*
X16152466Y-13978948D01*
X16166752Y-13993234D01*
X16181038Y-14021805D01*
X16195323Y-14078948D01*
X16195323Y-14150376D01*
X16181038Y-14207519D01*
X16166752Y-14236091D01*
X16152466Y-14250376D01*
X16123895Y-14264662D01*
X16095323Y-14264662D01*
X16066752Y-14250376D01*
X16052466Y-14236091D01*
X16038180Y-14207519D01*
X16023895Y-14150376D01*
X16023895Y-14078948D01*
X16038180Y-14021805D01*
X16052466Y-13993234D01*
X16066752Y-13978948D01*
X16095323Y-13964662D01*
X16481038Y-14264662D02*
X16309609Y-14264662D01*
X16395323Y-14264662D02*
X16395323Y-13964662D01*
X16366752Y-14007519D01*
X16338180Y-14036091D01*
X16309609Y-14050376D01*
X16595323Y-13993234D02*
X16609609Y-13978948D01*
X16638180Y-13964662D01*
X16709609Y-13964662D01*
X16738180Y-13978948D01*
X16752466Y-13993234D01*
X16766752Y-14021805D01*
X16766752Y-14050376D01*
X16752466Y-14093234D01*
X16581038Y-14264662D01*
X16766752Y-14264662D01*
X16881038Y-13964662D02*
X16881038Y-14021805D01*
X16995323Y-13964662D02*
X16995323Y-14021805D01*
X17438181Y-14378948D02*
X17423895Y-14364662D01*
X17395323Y-14321805D01*
X17381038Y-14293234D01*
X17366752Y-14250376D01*
X17352466Y-14178948D01*
X17352466Y-14121805D01*
X17366752Y-14050376D01*
X17381038Y-14007519D01*
X17395323Y-13978948D01*
X17423895Y-13936091D01*
X17438181Y-13921805D01*
X17709609Y-14264662D02*
X17538181Y-14264662D01*
X17623895Y-14264662D02*
X17623895Y-13964662D01*
X17595323Y-14007519D01*
X17566752Y-14036091D01*
X17538181Y-14050376D01*
X17809609Y-13964662D02*
X17995323Y-13964662D01*
X17895323Y-14078948D01*
X17938181Y-14078948D01*
X17966752Y-14093234D01*
X17981038Y-14107519D01*
X17995323Y-14136091D01*
X17995323Y-14207519D01*
X17981038Y-14236091D01*
X17966752Y-14250376D01*
X17938181Y-14264662D01*
X17852466Y-14264662D01*
X17823895Y-14250376D01*
X17809609Y-14236091D01*
X18095323Y-13964662D02*
X18281038Y-13964662D01*
X18181038Y-14078948D01*
X18223895Y-14078948D01*
X18252466Y-14093234D01*
X18266752Y-14107519D01*
X18281038Y-14136091D01*
X18281038Y-14207519D01*
X18266752Y-14236091D01*
X18252466Y-14250376D01*
X18223895Y-14264662D01*
X18138181Y-14264662D01*
X18109609Y-14250376D01*
X18095323Y-14236091D01*
X18638181Y-14264662D02*
X18638181Y-13964662D01*
X18766752Y-14264662D02*
X18766752Y-14107519D01*
X18752466Y-14078948D01*
X18723895Y-14064662D01*
X18681038Y-14064662D01*
X18652466Y-14078948D01*
X18638181Y-14093234D01*
X18952466Y-14264662D02*
X18923895Y-14250376D01*
X18909609Y-14236091D01*
X18895323Y-14207519D01*
X18895323Y-14121805D01*
X18909609Y-14093234D01*
X18923895Y-14078948D01*
X18952466Y-14064662D01*
X18995323Y-14064662D01*
X19023895Y-14078948D01*
X19038181Y-14093234D01*
X19052466Y-14121805D01*
X19052466Y-14207519D01*
X19038181Y-14236091D01*
X19023895Y-14250376D01*
X18995323Y-14264662D01*
X18952466Y-14264662D01*
X19223895Y-14264662D02*
X19195323Y-14250376D01*
X19181038Y-14221805D01*
X19181038Y-13964662D01*
X19452466Y-14250376D02*
X19423895Y-14264662D01*
X19366752Y-14264662D01*
X19338181Y-14250376D01*
X19323895Y-14221805D01*
X19323895Y-14107519D01*
X19338181Y-14078948D01*
X19366752Y-14064662D01*
X19423895Y-14064662D01*
X19452466Y-14078948D01*
X19466752Y-14107519D01*
X19466752Y-14136091D01*
X19323895Y-14164662D01*
X19581038Y-14250376D02*
X19609609Y-14264662D01*
X19666752Y-14264662D01*
X19695323Y-14250376D01*
X19709609Y-14221805D01*
X19709609Y-14207519D01*
X19695323Y-14178948D01*
X19666752Y-14164662D01*
X19623895Y-14164662D01*
X19595323Y-14150376D01*
X19581038Y-14121805D01*
X19581038Y-14107519D01*
X19595323Y-14078948D01*
X19623895Y-14064662D01*
X19666752Y-14064662D01*
X19695323Y-14078948D01*
X19809609Y-14378948D02*
X19823895Y-14364662D01*
X19852466Y-14321805D01*
X19866752Y-14293234D01*
X19881038Y-14250376D01*
X19895323Y-14178948D01*
X19895323Y-14121805D01*
X19881038Y-14050376D01*
X19866752Y-14007519D01*
X19852466Y-13978948D01*
X19823895Y-13936091D01*
X19809609Y-13921805D01*
X12751752Y-14524948D02*
G75*
G03X12751752Y-14524948I-30000J0D01*
G01*
X13095323Y-14360662D02*
X13123895Y-14360662D01*
X13152466Y-14374948D01*
X13166752Y-14389234D01*
X13181038Y-14417805D01*
X13195323Y-14474948D01*
X13195323Y-14546376D01*
X13181038Y-14603519D01*
X13166752Y-14632091D01*
X13152466Y-14646376D01*
X13123895Y-14660662D01*
X13095323Y-14660662D01*
X13066752Y-14646376D01*
X13052466Y-14632091D01*
X13038180Y-14603519D01*
X13023895Y-14546376D01*
X13023895Y-14474948D01*
X13038180Y-14417805D01*
X13052466Y-14389234D01*
X13066752Y-14374948D01*
X13095323Y-14360662D01*
X13323895Y-14632091D02*
X13338180Y-14646376D01*
X13323895Y-14660662D01*
X13309609Y-14646376D01*
X13323895Y-14632091D01*
X13323895Y-14660662D01*
X13595323Y-14360662D02*
X13538180Y-14360662D01*
X13509609Y-14374948D01*
X13495323Y-14389234D01*
X13466752Y-14432091D01*
X13452466Y-14489234D01*
X13452466Y-14603519D01*
X13466752Y-14632091D01*
X13481038Y-14646376D01*
X13509609Y-14660662D01*
X13566752Y-14660662D01*
X13595323Y-14646376D01*
X13609609Y-14632091D01*
X13623895Y-14603519D01*
X13623895Y-14532091D01*
X13609609Y-14503519D01*
X13595323Y-14489234D01*
X13566752Y-14474948D01*
X13509609Y-14474948D01*
X13481038Y-14489234D01*
X13466752Y-14503519D01*
X13452466Y-14532091D01*
X13809609Y-14360662D02*
X13838180Y-14360662D01*
X13866752Y-14374948D01*
X13881038Y-14389234D01*
X13895323Y-14417805D01*
X13909609Y-14474948D01*
X13909609Y-14546376D01*
X13895323Y-14603519D01*
X13881038Y-14632091D01*
X13866752Y-14646376D01*
X13838180Y-14660662D01*
X13809609Y-14660662D01*
X13781038Y-14646376D01*
X13766752Y-14632091D01*
X13752466Y-14603519D01*
X13738180Y-14546376D01*
X13738180Y-14474948D01*
X13752466Y-14417805D01*
X13766752Y-14389234D01*
X13781038Y-14374948D01*
X13809609Y-14360662D01*
X14038180Y-14660662D02*
X14038180Y-14460662D01*
X14038180Y-14489234D02*
X14052466Y-14474948D01*
X14081038Y-14460662D01*
X14123895Y-14460662D01*
X14152466Y-14474948D01*
X14166752Y-14503519D01*
X14166752Y-14660662D01*
X14166752Y-14503519D02*
X14181038Y-14474948D01*
X14209609Y-14460662D01*
X14252466Y-14460662D01*
X14281038Y-14474948D01*
X14295323Y-14503519D01*
X14295323Y-14660662D01*
X14438180Y-14660662D02*
X14438180Y-14460662D01*
X14438180Y-14489234D02*
X14452466Y-14474948D01*
X14481038Y-14460662D01*
X14523895Y-14460662D01*
X14552466Y-14474948D01*
X14566752Y-14503519D01*
X14566752Y-14660662D01*
X14566752Y-14503519D02*
X14581038Y-14474948D01*
X14609609Y-14460662D01*
X14652466Y-14460662D01*
X14681038Y-14474948D01*
X14695323Y-14503519D01*
X14695323Y-14660662D01*
X15281038Y-14346376D02*
X15023895Y-14732091D01*
X15666752Y-14360662D02*
X15695323Y-14360662D01*
X15723895Y-14374948D01*
X15738180Y-14389234D01*
X15752466Y-14417805D01*
X15766752Y-14474948D01*
X15766752Y-14546376D01*
X15752466Y-14603519D01*
X15738180Y-14632091D01*
X15723895Y-14646376D01*
X15695323Y-14660662D01*
X15666752Y-14660662D01*
X15638180Y-14646376D01*
X15623895Y-14632091D01*
X15609609Y-14603519D01*
X15595323Y-14546376D01*
X15595323Y-14474948D01*
X15609609Y-14417805D01*
X15623895Y-14389234D01*
X15638180Y-14374948D01*
X15666752Y-14360662D01*
X15895323Y-14632091D02*
X15909609Y-14646376D01*
X15895323Y-14660662D01*
X15881038Y-14646376D01*
X15895323Y-14632091D01*
X15895323Y-14660662D01*
X16095323Y-14360662D02*
X16123895Y-14360662D01*
X16152466Y-14374948D01*
X16166752Y-14389234D01*
X16181038Y-14417805D01*
X16195323Y-14474948D01*
X16195323Y-14546376D01*
X16181038Y-14603519D01*
X16166752Y-14632091D01*
X16152466Y-14646376D01*
X16123895Y-14660662D01*
X16095323Y-14660662D01*
X16066752Y-14646376D01*
X16052466Y-14632091D01*
X16038180Y-14603519D01*
X16023895Y-14546376D01*
X16023895Y-14474948D01*
X16038180Y-14417805D01*
X16052466Y-14389234D01*
X16066752Y-14374948D01*
X16095323Y-14360662D01*
X16309609Y-14389234D02*
X16323895Y-14374948D01*
X16352466Y-14360662D01*
X16423895Y-14360662D01*
X16452466Y-14374948D01*
X16466752Y-14389234D01*
X16481038Y-14417805D01*
X16481038Y-14446376D01*
X16466752Y-14489234D01*
X16295323Y-14660662D01*
X16481038Y-14660662D01*
X16738180Y-14460662D02*
X16738180Y-14660662D01*
X16666752Y-14346376D02*
X16595323Y-14560662D01*
X16781038Y-14560662D01*
X16881038Y-14360662D02*
X16881038Y-14417805D01*
X16995323Y-14360662D02*
X16995323Y-14417805D01*
X17438181Y-14774948D02*
X17423895Y-14760662D01*
X17395323Y-14717805D01*
X17381038Y-14689234D01*
X17366752Y-14646376D01*
X17352466Y-14574948D01*
X17352466Y-14517805D01*
X17366752Y-14446376D01*
X17381038Y-14403519D01*
X17395323Y-14374948D01*
X17423895Y-14332091D01*
X17438181Y-14317805D01*
X17709609Y-14660662D02*
X17538181Y-14660662D01*
X17623895Y-14660662D02*
X17623895Y-14360662D01*
X17595323Y-14403519D01*
X17566752Y-14432091D01*
X17538181Y-14446376D01*
X17852466Y-14660662D02*
X17909609Y-14660662D01*
X17938181Y-14646376D01*
X17952466Y-14632091D01*
X17981038Y-14589234D01*
X17995323Y-14532091D01*
X17995323Y-14417805D01*
X17981038Y-14389234D01*
X17966752Y-14374948D01*
X17938181Y-14360662D01*
X17881038Y-14360662D01*
X17852466Y-14374948D01*
X17838181Y-14389234D01*
X17823895Y-14417805D01*
X17823895Y-14489234D01*
X17838181Y-14517805D01*
X17852466Y-14532091D01*
X17881038Y-14546376D01*
X17938181Y-14546376D01*
X17966752Y-14532091D01*
X17981038Y-14517805D01*
X17995323Y-14489234D01*
X18352466Y-14660662D02*
X18352466Y-14360662D01*
X18481038Y-14660662D02*
X18481038Y-14503519D01*
X18466752Y-14474948D01*
X18438181Y-14460662D01*
X18395323Y-14460662D01*
X18366752Y-14474948D01*
X18352466Y-14489234D01*
X18666752Y-14660662D02*
X18638181Y-14646376D01*
X18623895Y-14632091D01*
X18609609Y-14603519D01*
X18609609Y-14517805D01*
X18623895Y-14489234D01*
X18638181Y-14474948D01*
X18666752Y-14460662D01*
X18709609Y-14460662D01*
X18738181Y-14474948D01*
X18752466Y-14489234D01*
X18766752Y-14517805D01*
X18766752Y-14603519D01*
X18752466Y-14632091D01*
X18738181Y-14646376D01*
X18709609Y-14660662D01*
X18666752Y-14660662D01*
X18938181Y-14660662D02*
X18909609Y-14646376D01*
X18895323Y-14617805D01*
X18895323Y-14360662D01*
X19166752Y-14646376D02*
X19138181Y-14660662D01*
X19081038Y-14660662D01*
X19052466Y-14646376D01*
X19038181Y-14617805D01*
X19038181Y-14503519D01*
X19052466Y-14474948D01*
X19081038Y-14460662D01*
X19138181Y-14460662D01*
X19166752Y-14474948D01*
X19181038Y-14503519D01*
X19181038Y-14532091D01*
X19038181Y-14560662D01*
X19295323Y-14646376D02*
X19323895Y-14660662D01*
X19381038Y-14660662D01*
X19409609Y-14646376D01*
X19423895Y-14617805D01*
X19423895Y-14603519D01*
X19409609Y-14574948D01*
X19381038Y-14560662D01*
X19338181Y-14560662D01*
X19309609Y-14546376D01*
X19295323Y-14517805D01*
X19295323Y-14503519D01*
X19309609Y-14474948D01*
X19338181Y-14460662D01*
X19381038Y-14460662D01*
X19409609Y-14474948D01*
X19523895Y-14774948D02*
X19538181Y-14760662D01*
X19566752Y-14717805D01*
X19581038Y-14689234D01*
X19595323Y-14646376D01*
X19609609Y-14574948D01*
X19609609Y-14517805D01*
X19595323Y-14446376D01*
X19581038Y-14403519D01*
X19566752Y-14374948D01*
X19538181Y-14332091D01*
X19523895Y-14317805D01*
X12711752Y-14880948D02*
X12711752Y-14960948D01*
X12671752Y-14920948D02*
X12751752Y-14920948D01*
X13095323Y-14756662D02*
X13123895Y-14756662D01*
X13152466Y-14770948D01*
X13166752Y-14785234D01*
X13181038Y-14813805D01*
X13195323Y-14870948D01*
X13195323Y-14942376D01*
X13181038Y-14999519D01*
X13166752Y-15028091D01*
X13152466Y-15042376D01*
X13123895Y-15056662D01*
X13095323Y-15056662D01*
X13066752Y-15042376D01*
X13052466Y-15028091D01*
X13038180Y-14999519D01*
X13023895Y-14942376D01*
X13023895Y-14870948D01*
X13038180Y-14813805D01*
X13052466Y-14785234D01*
X13066752Y-14770948D01*
X13095323Y-14756662D01*
X13323895Y-15028091D02*
X13338180Y-15042376D01*
X13323895Y-15056662D01*
X13309609Y-15042376D01*
X13323895Y-15028091D01*
X13323895Y-15056662D01*
X13509609Y-14885234D02*
X13481038Y-14870948D01*
X13466752Y-14856662D01*
X13452466Y-14828091D01*
X13452466Y-14813805D01*
X13466752Y-14785234D01*
X13481038Y-14770948D01*
X13509609Y-14756662D01*
X13566752Y-14756662D01*
X13595323Y-14770948D01*
X13609609Y-14785234D01*
X13623895Y-14813805D01*
X13623895Y-14828091D01*
X13609609Y-14856662D01*
X13595323Y-14870948D01*
X13566752Y-14885234D01*
X13509609Y-14885234D01*
X13481038Y-14899519D01*
X13466752Y-14913805D01*
X13452466Y-14942376D01*
X13452466Y-14999519D01*
X13466752Y-15028091D01*
X13481038Y-15042376D01*
X13509609Y-15056662D01*
X13566752Y-15056662D01*
X13595323Y-15042376D01*
X13609609Y-15028091D01*
X13623895Y-14999519D01*
X13623895Y-14942376D01*
X13609609Y-14913805D01*
X13595323Y-14899519D01*
X13566752Y-14885234D01*
X13809609Y-14756662D02*
X13838180Y-14756662D01*
X13866752Y-14770948D01*
X13881038Y-14785234D01*
X13895323Y-14813805D01*
X13909609Y-14870948D01*
X13909609Y-14942376D01*
X13895323Y-14999519D01*
X13881038Y-15028091D01*
X13866752Y-15042376D01*
X13838180Y-15056662D01*
X13809609Y-15056662D01*
X13781038Y-15042376D01*
X13766752Y-15028091D01*
X13752466Y-14999519D01*
X13738180Y-14942376D01*
X13738180Y-14870948D01*
X13752466Y-14813805D01*
X13766752Y-14785234D01*
X13781038Y-14770948D01*
X13809609Y-14756662D01*
X14038180Y-15056662D02*
X14038180Y-14856662D01*
X14038180Y-14885234D02*
X14052466Y-14870948D01*
X14081038Y-14856662D01*
X14123895Y-14856662D01*
X14152466Y-14870948D01*
X14166752Y-14899519D01*
X14166752Y-15056662D01*
X14166752Y-14899519D02*
X14181038Y-14870948D01*
X14209609Y-14856662D01*
X14252466Y-14856662D01*
X14281038Y-14870948D01*
X14295323Y-14899519D01*
X14295323Y-15056662D01*
X14438180Y-15056662D02*
X14438180Y-14856662D01*
X14438180Y-14885234D02*
X14452466Y-14870948D01*
X14481038Y-14856662D01*
X14523895Y-14856662D01*
X14552466Y-14870948D01*
X14566752Y-14899519D01*
X14566752Y-15056662D01*
X14566752Y-14899519D02*
X14581038Y-14870948D01*
X14609609Y-14856662D01*
X14652466Y-14856662D01*
X14681038Y-14870948D01*
X14695323Y-14899519D01*
X14695323Y-15056662D01*
X15281038Y-14742376D02*
X15023895Y-15128091D01*
X15666752Y-14756662D02*
X15695323Y-14756662D01*
X15723895Y-14770948D01*
X15738180Y-14785234D01*
X15752466Y-14813805D01*
X15766752Y-14870948D01*
X15766752Y-14942376D01*
X15752466Y-14999519D01*
X15738180Y-15028091D01*
X15723895Y-15042376D01*
X15695323Y-15056662D01*
X15666752Y-15056662D01*
X15638180Y-15042376D01*
X15623895Y-15028091D01*
X15609609Y-14999519D01*
X15595323Y-14942376D01*
X15595323Y-14870948D01*
X15609609Y-14813805D01*
X15623895Y-14785234D01*
X15638180Y-14770948D01*
X15666752Y-14756662D01*
X15895323Y-15028091D02*
X15909609Y-15042376D01*
X15895323Y-15056662D01*
X15881038Y-15042376D01*
X15895323Y-15028091D01*
X15895323Y-15056662D01*
X16095323Y-14756662D02*
X16123895Y-14756662D01*
X16152466Y-14770948D01*
X16166752Y-14785234D01*
X16181038Y-14813805D01*
X16195323Y-14870948D01*
X16195323Y-14942376D01*
X16181038Y-14999519D01*
X16166752Y-15028091D01*
X16152466Y-15042376D01*
X16123895Y-15056662D01*
X16095323Y-15056662D01*
X16066752Y-15042376D01*
X16052466Y-15028091D01*
X16038180Y-14999519D01*
X16023895Y-14942376D01*
X16023895Y-14870948D01*
X16038180Y-14813805D01*
X16052466Y-14785234D01*
X16066752Y-14770948D01*
X16095323Y-14756662D01*
X16295323Y-14756662D02*
X16481038Y-14756662D01*
X16381038Y-14870948D01*
X16423895Y-14870948D01*
X16452466Y-14885234D01*
X16466752Y-14899519D01*
X16481038Y-14928091D01*
X16481038Y-14999519D01*
X16466752Y-15028091D01*
X16452466Y-15042376D01*
X16423895Y-15056662D01*
X16338180Y-15056662D01*
X16309609Y-15042376D01*
X16295323Y-15028091D01*
X16766752Y-15056662D02*
X16595323Y-15056662D01*
X16681038Y-15056662D02*
X16681038Y-14756662D01*
X16652466Y-14799519D01*
X16623895Y-14828091D01*
X16595323Y-14842376D01*
X16881038Y-14756662D02*
X16881038Y-14813805D01*
X16995323Y-14756662D02*
X16995323Y-14813805D01*
X17438181Y-15170948D02*
X17423895Y-15156662D01*
X17395323Y-15113805D01*
X17381038Y-15085234D01*
X17366752Y-15042376D01*
X17352466Y-14970948D01*
X17352466Y-14913805D01*
X17366752Y-14842376D01*
X17381038Y-14799519D01*
X17395323Y-14770948D01*
X17423895Y-14728091D01*
X17438181Y-14713805D01*
X17523895Y-14756662D02*
X17709609Y-14756662D01*
X17609609Y-14870948D01*
X17652466Y-14870948D01*
X17681038Y-14885234D01*
X17695323Y-14899519D01*
X17709609Y-14928091D01*
X17709609Y-14999519D01*
X17695323Y-15028091D01*
X17681038Y-15042376D01*
X17652466Y-15056662D01*
X17566752Y-15056662D01*
X17538181Y-15042376D01*
X17523895Y-15028091D01*
X17852466Y-15056662D02*
X17909609Y-15056662D01*
X17938181Y-15042376D01*
X17952466Y-15028091D01*
X17981038Y-14985234D01*
X17995323Y-14928091D01*
X17995323Y-14813805D01*
X17981038Y-14785234D01*
X17966752Y-14770948D01*
X17938181Y-14756662D01*
X17881038Y-14756662D01*
X17852466Y-14770948D01*
X17838181Y-14785234D01*
X17823895Y-14813805D01*
X17823895Y-14885234D01*
X17838181Y-14913805D01*
X17852466Y-14928091D01*
X17881038Y-14942376D01*
X17938181Y-14942376D01*
X17966752Y-14928091D01*
X17981038Y-14913805D01*
X17995323Y-14885234D01*
X18352466Y-15056662D02*
X18352466Y-14756662D01*
X18481038Y-15056662D02*
X18481038Y-14899519D01*
X18466752Y-14870948D01*
X18438181Y-14856662D01*
X18395323Y-14856662D01*
X18366752Y-14870948D01*
X18352466Y-14885234D01*
X18666752Y-15056662D02*
X18638181Y-15042376D01*
X18623895Y-15028091D01*
X18609609Y-14999519D01*
X18609609Y-14913805D01*
X18623895Y-14885234D01*
X18638181Y-14870948D01*
X18666752Y-14856662D01*
X18709609Y-14856662D01*
X18738181Y-14870948D01*
X18752466Y-14885234D01*
X18766752Y-14913805D01*
X18766752Y-14999519D01*
X18752466Y-15028091D01*
X18738181Y-15042376D01*
X18709609Y-15056662D01*
X18666752Y-15056662D01*
X18938181Y-15056662D02*
X18909609Y-15042376D01*
X18895323Y-15013805D01*
X18895323Y-14756662D01*
X19166752Y-15042376D02*
X19138181Y-15056662D01*
X19081038Y-15056662D01*
X19052466Y-15042376D01*
X19038181Y-15013805D01*
X19038181Y-14899519D01*
X19052466Y-14870948D01*
X19081038Y-14856662D01*
X19138181Y-14856662D01*
X19166752Y-14870948D01*
X19181038Y-14899519D01*
X19181038Y-14928091D01*
X19038181Y-14956662D01*
X19295323Y-15042376D02*
X19323895Y-15056662D01*
X19381038Y-15056662D01*
X19409609Y-15042376D01*
X19423895Y-15013805D01*
X19423895Y-14999519D01*
X19409609Y-14970948D01*
X19381038Y-14956662D01*
X19338181Y-14956662D01*
X19309609Y-14942376D01*
X19295323Y-14913805D01*
X19295323Y-14899519D01*
X19309609Y-14870948D01*
X19338181Y-14856662D01*
X19381038Y-14856662D01*
X19409609Y-14870948D01*
X19523895Y-15170948D02*
X19538181Y-15156662D01*
X19566752Y-15113805D01*
X19581038Y-15085234D01*
X19595323Y-15042376D01*
X19609609Y-14970948D01*
X19609609Y-14913805D01*
X19595323Y-14842376D01*
X19581038Y-14799519D01*
X19566752Y-14770948D01*
X19538181Y-14728091D01*
X19523895Y-14713805D01*
X12739849Y-15345685D02*
X12739849Y-15288211D01*
X12682375Y-15288211D01*
X12682375Y-15345685D01*
X12739849Y-15345685D01*
X13095323Y-15152662D02*
X13123895Y-15152662D01*
X13152466Y-15166948D01*
X13166752Y-15181234D01*
X13181038Y-15209805D01*
X13195323Y-15266948D01*
X13195323Y-15338376D01*
X13181038Y-15395519D01*
X13166752Y-15424091D01*
X13152466Y-15438376D01*
X13123895Y-15452662D01*
X13095323Y-15452662D01*
X13066752Y-15438376D01*
X13052466Y-15424091D01*
X13038180Y-15395519D01*
X13023895Y-15338376D01*
X13023895Y-15266948D01*
X13038180Y-15209805D01*
X13052466Y-15181234D01*
X13066752Y-15166948D01*
X13095323Y-15152662D01*
X13323895Y-15424091D02*
X13338180Y-15438376D01*
X13323895Y-15452662D01*
X13309609Y-15438376D01*
X13323895Y-15424091D01*
X13323895Y-15452662D01*
X13509609Y-15281234D02*
X13481038Y-15266948D01*
X13466752Y-15252662D01*
X13452466Y-15224091D01*
X13452466Y-15209805D01*
X13466752Y-15181234D01*
X13481038Y-15166948D01*
X13509609Y-15152662D01*
X13566752Y-15152662D01*
X13595323Y-15166948D01*
X13609609Y-15181234D01*
X13623895Y-15209805D01*
X13623895Y-15224091D01*
X13609609Y-15252662D01*
X13595323Y-15266948D01*
X13566752Y-15281234D01*
X13509609Y-15281234D01*
X13481038Y-15295519D01*
X13466752Y-15309805D01*
X13452466Y-15338376D01*
X13452466Y-15395519D01*
X13466752Y-15424091D01*
X13481038Y-15438376D01*
X13509609Y-15452662D01*
X13566752Y-15452662D01*
X13595323Y-15438376D01*
X13609609Y-15424091D01*
X13623895Y-15395519D01*
X13623895Y-15338376D01*
X13609609Y-15309805D01*
X13595323Y-15295519D01*
X13566752Y-15281234D01*
X13909609Y-15452662D02*
X13738180Y-15452662D01*
X13823895Y-15452662D02*
X13823895Y-15152662D01*
X13795323Y-15195519D01*
X13766752Y-15224091D01*
X13738180Y-15238376D01*
X14038180Y-15452662D02*
X14038180Y-15252662D01*
X14038180Y-15281234D02*
X14052466Y-15266948D01*
X14081038Y-15252662D01*
X14123895Y-15252662D01*
X14152466Y-15266948D01*
X14166752Y-15295519D01*
X14166752Y-15452662D01*
X14166752Y-15295519D02*
X14181038Y-15266948D01*
X14209609Y-15252662D01*
X14252466Y-15252662D01*
X14281038Y-15266948D01*
X14295323Y-15295519D01*
X14295323Y-15452662D01*
X14438180Y-15452662D02*
X14438180Y-15252662D01*
X14438180Y-15281234D02*
X14452466Y-15266948D01*
X14481038Y-15252662D01*
X14523895Y-15252662D01*
X14552466Y-15266948D01*
X14566752Y-15295519D01*
X14566752Y-15452662D01*
X14566752Y-15295519D02*
X14581038Y-15266948D01*
X14609609Y-15252662D01*
X14652466Y-15252662D01*
X14681038Y-15266948D01*
X14695323Y-15295519D01*
X14695323Y-15452662D01*
X15281038Y-15138376D02*
X15023895Y-15524091D01*
X15666752Y-15152662D02*
X15695323Y-15152662D01*
X15723895Y-15166948D01*
X15738180Y-15181234D01*
X15752466Y-15209805D01*
X15766752Y-15266948D01*
X15766752Y-15338376D01*
X15752466Y-15395519D01*
X15738180Y-15424091D01*
X15723895Y-15438376D01*
X15695323Y-15452662D01*
X15666752Y-15452662D01*
X15638180Y-15438376D01*
X15623895Y-15424091D01*
X15609609Y-15395519D01*
X15595323Y-15338376D01*
X15595323Y-15266948D01*
X15609609Y-15209805D01*
X15623895Y-15181234D01*
X15638180Y-15166948D01*
X15666752Y-15152662D01*
X15895323Y-15424091D02*
X15909609Y-15438376D01*
X15895323Y-15452662D01*
X15881038Y-15438376D01*
X15895323Y-15424091D01*
X15895323Y-15452662D01*
X16095323Y-15152662D02*
X16123895Y-15152662D01*
X16152466Y-15166948D01*
X16166752Y-15181234D01*
X16181038Y-15209805D01*
X16195323Y-15266948D01*
X16195323Y-15338376D01*
X16181038Y-15395519D01*
X16166752Y-15424091D01*
X16152466Y-15438376D01*
X16123895Y-15452662D01*
X16095323Y-15452662D01*
X16066752Y-15438376D01*
X16052466Y-15424091D01*
X16038180Y-15395519D01*
X16023895Y-15338376D01*
X16023895Y-15266948D01*
X16038180Y-15209805D01*
X16052466Y-15181234D01*
X16066752Y-15166948D01*
X16095323Y-15152662D01*
X16295323Y-15152662D02*
X16481038Y-15152662D01*
X16381038Y-15266948D01*
X16423895Y-15266948D01*
X16452466Y-15281234D01*
X16466752Y-15295519D01*
X16481038Y-15324091D01*
X16481038Y-15395519D01*
X16466752Y-15424091D01*
X16452466Y-15438376D01*
X16423895Y-15452662D01*
X16338180Y-15452662D01*
X16309609Y-15438376D01*
X16295323Y-15424091D01*
X16595323Y-15181234D02*
X16609609Y-15166948D01*
X16638180Y-15152662D01*
X16709609Y-15152662D01*
X16738180Y-15166948D01*
X16752466Y-15181234D01*
X16766752Y-15209805D01*
X16766752Y-15238376D01*
X16752466Y-15281234D01*
X16581038Y-15452662D01*
X16766752Y-15452662D01*
X16881038Y-15152662D02*
X16881038Y-15209805D01*
X16995323Y-15152662D02*
X16995323Y-15209805D01*
X17438181Y-15566948D02*
X17423895Y-15552662D01*
X17395323Y-15509805D01*
X17381038Y-15481234D01*
X17366752Y-15438376D01*
X17352466Y-15366948D01*
X17352466Y-15309805D01*
X17366752Y-15238376D01*
X17381038Y-15195519D01*
X17395323Y-15166948D01*
X17423895Y-15124091D01*
X17438181Y-15109805D01*
X17709609Y-15452662D02*
X17538181Y-15452662D01*
X17623895Y-15452662D02*
X17623895Y-15152662D01*
X17595323Y-15195519D01*
X17566752Y-15224091D01*
X17538181Y-15238376D01*
X17823895Y-15181234D02*
X17838181Y-15166948D01*
X17866752Y-15152662D01*
X17938181Y-15152662D01*
X17966752Y-15166948D01*
X17981038Y-15181234D01*
X17995323Y-15209805D01*
X17995323Y-15238376D01*
X17981038Y-15281234D01*
X17809609Y-15452662D01*
X17995323Y-15452662D01*
X18352466Y-15452662D02*
X18352466Y-15152662D01*
X18481038Y-15452662D02*
X18481038Y-15295519D01*
X18466752Y-15266948D01*
X18438181Y-15252662D01*
X18395323Y-15252662D01*
X18366752Y-15266948D01*
X18352466Y-15281234D01*
X18666752Y-15452662D02*
X18638181Y-15438376D01*
X18623895Y-15424091D01*
X18609609Y-15395519D01*
X18609609Y-15309805D01*
X18623895Y-15281234D01*
X18638181Y-15266948D01*
X18666752Y-15252662D01*
X18709609Y-15252662D01*
X18738181Y-15266948D01*
X18752466Y-15281234D01*
X18766752Y-15309805D01*
X18766752Y-15395519D01*
X18752466Y-15424091D01*
X18738181Y-15438376D01*
X18709609Y-15452662D01*
X18666752Y-15452662D01*
X18938181Y-15452662D02*
X18909609Y-15438376D01*
X18895323Y-15409805D01*
X18895323Y-15152662D01*
X19166752Y-15438376D02*
X19138181Y-15452662D01*
X19081038Y-15452662D01*
X19052466Y-15438376D01*
X19038181Y-15409805D01*
X19038181Y-15295519D01*
X19052466Y-15266948D01*
X19081038Y-15252662D01*
X19138181Y-15252662D01*
X19166752Y-15266948D01*
X19181038Y-15295519D01*
X19181038Y-15324091D01*
X19038181Y-15352662D01*
X19295323Y-15438376D02*
X19323895Y-15452662D01*
X19381038Y-15452662D01*
X19409609Y-15438376D01*
X19423895Y-15409805D01*
X19423895Y-15395519D01*
X19409609Y-15366948D01*
X19381038Y-15352662D01*
X19338181Y-15352662D01*
X19309609Y-15338376D01*
X19295323Y-15309805D01*
X19295323Y-15295519D01*
X19309609Y-15266948D01*
X19338181Y-15252662D01*
X19381038Y-15252662D01*
X19409609Y-15266948D01*
X19523895Y-15566948D02*
X19538181Y-15552662D01*
X19566752Y-15509805D01*
X19581038Y-15481234D01*
X19595323Y-15438376D01*
X19609609Y-15366948D01*
X19609609Y-15309805D01*
X19595323Y-15238376D01*
X19581038Y-15195519D01*
X19566752Y-15166948D01*
X19538181Y-15124091D01*
X19523895Y-15109805D01*
X12701752Y-15762948D02*
X12751752Y-15712948D01*
X12701752Y-15662948D01*
X12651752Y-15712948D01*
X12701752Y-15762948D01*
X13195323Y-15848662D02*
X13023895Y-15848662D01*
X13109609Y-15848662D02*
X13109609Y-15548662D01*
X13081038Y-15591519D01*
X13052466Y-15620091D01*
X13023895Y-15634376D01*
X13323895Y-15820091D02*
X13338180Y-15834376D01*
X13323895Y-15848662D01*
X13309609Y-15834376D01*
X13323895Y-15820091D01*
X13323895Y-15848662D01*
X13523895Y-15548662D02*
X13552466Y-15548662D01*
X13581038Y-15562948D01*
X13595323Y-15577234D01*
X13609609Y-15605805D01*
X13623895Y-15662948D01*
X13623895Y-15734376D01*
X13609609Y-15791519D01*
X13595323Y-15820091D01*
X13581038Y-15834376D01*
X13552466Y-15848662D01*
X13523895Y-15848662D01*
X13495323Y-15834376D01*
X13481038Y-15820091D01*
X13466752Y-15791519D01*
X13452466Y-15734376D01*
X13452466Y-15662948D01*
X13466752Y-15605805D01*
X13481038Y-15577234D01*
X13495323Y-15562948D01*
X13523895Y-15548662D01*
X13809609Y-15548662D02*
X13838180Y-15548662D01*
X13866752Y-15562948D01*
X13881038Y-15577234D01*
X13895323Y-15605805D01*
X13909609Y-15662948D01*
X13909609Y-15734376D01*
X13895323Y-15791519D01*
X13881038Y-15820091D01*
X13866752Y-15834376D01*
X13838180Y-15848662D01*
X13809609Y-15848662D01*
X13781038Y-15834376D01*
X13766752Y-15820091D01*
X13752466Y-15791519D01*
X13738180Y-15734376D01*
X13738180Y-15662948D01*
X13752466Y-15605805D01*
X13766752Y-15577234D01*
X13781038Y-15562948D01*
X13809609Y-15548662D01*
X14038180Y-15848662D02*
X14038180Y-15648662D01*
X14038180Y-15677234D02*
X14052466Y-15662948D01*
X14081038Y-15648662D01*
X14123895Y-15648662D01*
X14152466Y-15662948D01*
X14166752Y-15691519D01*
X14166752Y-15848662D01*
X14166752Y-15691519D02*
X14181038Y-15662948D01*
X14209609Y-15648662D01*
X14252466Y-15648662D01*
X14281038Y-15662948D01*
X14295323Y-15691519D01*
X14295323Y-15848662D01*
X14438180Y-15848662D02*
X14438180Y-15648662D01*
X14438180Y-15677234D02*
X14452466Y-15662948D01*
X14481038Y-15648662D01*
X14523895Y-15648662D01*
X14552466Y-15662948D01*
X14566752Y-15691519D01*
X14566752Y-15848662D01*
X14566752Y-15691519D02*
X14581038Y-15662948D01*
X14609609Y-15648662D01*
X14652466Y-15648662D01*
X14681038Y-15662948D01*
X14695323Y-15691519D01*
X14695323Y-15848662D01*
X15281038Y-15534376D02*
X15023895Y-15920091D01*
X15666752Y-15548662D02*
X15695323Y-15548662D01*
X15723895Y-15562948D01*
X15738180Y-15577234D01*
X15752466Y-15605805D01*
X15766752Y-15662948D01*
X15766752Y-15734376D01*
X15752466Y-15791519D01*
X15738180Y-15820091D01*
X15723895Y-15834376D01*
X15695323Y-15848662D01*
X15666752Y-15848662D01*
X15638180Y-15834376D01*
X15623895Y-15820091D01*
X15609609Y-15791519D01*
X15595323Y-15734376D01*
X15595323Y-15662948D01*
X15609609Y-15605805D01*
X15623895Y-15577234D01*
X15638180Y-15562948D01*
X15666752Y-15548662D01*
X15895323Y-15820091D02*
X15909609Y-15834376D01*
X15895323Y-15848662D01*
X15881038Y-15834376D01*
X15895323Y-15820091D01*
X15895323Y-15848662D01*
X16095323Y-15548662D02*
X16123895Y-15548662D01*
X16152466Y-15562948D01*
X16166752Y-15577234D01*
X16181038Y-15605805D01*
X16195323Y-15662948D01*
X16195323Y-15734376D01*
X16181038Y-15791519D01*
X16166752Y-15820091D01*
X16152466Y-15834376D01*
X16123895Y-15848662D01*
X16095323Y-15848662D01*
X16066752Y-15834376D01*
X16052466Y-15820091D01*
X16038180Y-15791519D01*
X16023895Y-15734376D01*
X16023895Y-15662948D01*
X16038180Y-15605805D01*
X16052466Y-15577234D01*
X16066752Y-15562948D01*
X16095323Y-15548662D01*
X16295323Y-15548662D02*
X16481038Y-15548662D01*
X16381038Y-15662948D01*
X16423895Y-15662948D01*
X16452466Y-15677234D01*
X16466752Y-15691519D01*
X16481038Y-15720091D01*
X16481038Y-15791519D01*
X16466752Y-15820091D01*
X16452466Y-15834376D01*
X16423895Y-15848662D01*
X16338180Y-15848662D01*
X16309609Y-15834376D01*
X16295323Y-15820091D01*
X16623895Y-15848662D02*
X16681038Y-15848662D01*
X16709609Y-15834376D01*
X16723895Y-15820091D01*
X16752466Y-15777234D01*
X16766752Y-15720091D01*
X16766752Y-15605805D01*
X16752466Y-15577234D01*
X16738180Y-15562948D01*
X16709609Y-15548662D01*
X16652466Y-15548662D01*
X16623895Y-15562948D01*
X16609609Y-15577234D01*
X16595323Y-15605805D01*
X16595323Y-15677234D01*
X16609609Y-15705805D01*
X16623895Y-15720091D01*
X16652466Y-15734376D01*
X16709609Y-15734376D01*
X16738180Y-15720091D01*
X16752466Y-15705805D01*
X16766752Y-15677234D01*
X16881038Y-15548662D02*
X16881038Y-15605805D01*
X16995323Y-15548662D02*
X16995323Y-15605805D01*
X17438181Y-15962948D02*
X17423895Y-15948662D01*
X17395323Y-15905805D01*
X17381038Y-15877234D01*
X17366752Y-15834376D01*
X17352466Y-15762948D01*
X17352466Y-15705805D01*
X17366752Y-15634376D01*
X17381038Y-15591519D01*
X17395323Y-15562948D01*
X17423895Y-15520091D01*
X17438181Y-15505805D01*
X17538181Y-15577234D02*
X17552466Y-15562948D01*
X17581038Y-15548662D01*
X17652466Y-15548662D01*
X17681038Y-15562948D01*
X17695323Y-15577234D01*
X17709609Y-15605805D01*
X17709609Y-15634376D01*
X17695323Y-15677234D01*
X17523895Y-15848662D01*
X17709609Y-15848662D01*
X17881038Y-15677234D02*
X17852466Y-15662948D01*
X17838181Y-15648662D01*
X17823895Y-15620091D01*
X17823895Y-15605805D01*
X17838181Y-15577234D01*
X17852466Y-15562948D01*
X17881038Y-15548662D01*
X17938181Y-15548662D01*
X17966752Y-15562948D01*
X17981038Y-15577234D01*
X17995323Y-15605805D01*
X17995323Y-15620091D01*
X17981038Y-15648662D01*
X17966752Y-15662948D01*
X17938181Y-15677234D01*
X17881038Y-15677234D01*
X17852466Y-15691519D01*
X17838181Y-15705805D01*
X17823895Y-15734376D01*
X17823895Y-15791519D01*
X17838181Y-15820091D01*
X17852466Y-15834376D01*
X17881038Y-15848662D01*
X17938181Y-15848662D01*
X17966752Y-15834376D01*
X17981038Y-15820091D01*
X17995323Y-15791519D01*
X17995323Y-15734376D01*
X17981038Y-15705805D01*
X17966752Y-15691519D01*
X17938181Y-15677234D01*
X18281038Y-15848662D02*
X18109609Y-15848662D01*
X18195323Y-15848662D02*
X18195323Y-15548662D01*
X18166752Y-15591519D01*
X18138181Y-15620091D01*
X18109609Y-15634376D01*
X18638181Y-15848662D02*
X18638181Y-15548662D01*
X18766752Y-15848662D02*
X18766752Y-15691519D01*
X18752466Y-15662948D01*
X18723895Y-15648662D01*
X18681038Y-15648662D01*
X18652466Y-15662948D01*
X18638181Y-15677234D01*
X18952466Y-15848662D02*
X18923895Y-15834376D01*
X18909609Y-15820091D01*
X18895323Y-15791519D01*
X18895323Y-15705805D01*
X18909609Y-15677234D01*
X18923895Y-15662948D01*
X18952466Y-15648662D01*
X18995323Y-15648662D01*
X19023895Y-15662948D01*
X19038181Y-15677234D01*
X19052466Y-15705805D01*
X19052466Y-15791519D01*
X19038181Y-15820091D01*
X19023895Y-15834376D01*
X18995323Y-15848662D01*
X18952466Y-15848662D01*
X19223895Y-15848662D02*
X19195323Y-15834376D01*
X19181038Y-15805805D01*
X19181038Y-15548662D01*
X19452466Y-15834376D02*
X19423895Y-15848662D01*
X19366752Y-15848662D01*
X19338181Y-15834376D01*
X19323895Y-15805805D01*
X19323895Y-15691519D01*
X19338181Y-15662948D01*
X19366752Y-15648662D01*
X19423895Y-15648662D01*
X19452466Y-15662948D01*
X19466752Y-15691519D01*
X19466752Y-15720091D01*
X19323895Y-15748662D01*
X19581038Y-15834376D02*
X19609609Y-15848662D01*
X19666752Y-15848662D01*
X19695323Y-15834376D01*
X19709609Y-15805805D01*
X19709609Y-15791519D01*
X19695323Y-15762948D01*
X19666752Y-15748662D01*
X19623895Y-15748662D01*
X19595323Y-15734376D01*
X19581038Y-15705805D01*
X19581038Y-15691519D01*
X19595323Y-15662948D01*
X19623895Y-15648662D01*
X19666752Y-15648662D01*
X19695323Y-15662948D01*
X19809609Y-15962948D02*
X19823895Y-15948662D01*
X19852466Y-15905805D01*
X19866752Y-15877234D01*
X19881038Y-15834376D01*
X19895323Y-15762948D01*
X19895323Y-15705805D01*
X19881038Y-15634376D01*
X19866752Y-15591519D01*
X19852466Y-15562948D01*
X19823895Y-15520091D01*
X19809609Y-15505805D01*
X12637452Y-16051798D02*
X12751752Y-16166098D01*
X12751752Y-16051798D02*
X12637452Y-16166098D01*
X12751752Y-16108948D02*
G75*
G03X12751752Y-16108948I-57150J0D01*
G01*
X13195323Y-16244662D02*
X13023895Y-16244662D01*
X13109609Y-16244662D02*
X13109609Y-15944662D01*
X13081038Y-15987519D01*
X13052466Y-16016091D01*
X13023895Y-16030376D01*
X13323895Y-16216091D02*
X13338180Y-16230376D01*
X13323895Y-16244662D01*
X13309609Y-16230376D01*
X13323895Y-16216091D01*
X13323895Y-16244662D01*
X13623895Y-16244662D02*
X13452466Y-16244662D01*
X13538180Y-16244662D02*
X13538180Y-15944662D01*
X13509609Y-15987519D01*
X13481038Y-16016091D01*
X13452466Y-16030376D01*
X13881038Y-16044662D02*
X13881038Y-16244662D01*
X13809609Y-15930376D02*
X13738180Y-16144662D01*
X13923895Y-16144662D01*
X14038180Y-16244662D02*
X14038180Y-16044662D01*
X14038180Y-16073234D02*
X14052466Y-16058948D01*
X14081038Y-16044662D01*
X14123895Y-16044662D01*
X14152466Y-16058948D01*
X14166752Y-16087519D01*
X14166752Y-16244662D01*
X14166752Y-16087519D02*
X14181038Y-16058948D01*
X14209609Y-16044662D01*
X14252466Y-16044662D01*
X14281038Y-16058948D01*
X14295323Y-16087519D01*
X14295323Y-16244662D01*
X14438180Y-16244662D02*
X14438180Y-16044662D01*
X14438180Y-16073234D02*
X14452466Y-16058948D01*
X14481038Y-16044662D01*
X14523895Y-16044662D01*
X14552466Y-16058948D01*
X14566752Y-16087519D01*
X14566752Y-16244662D01*
X14566752Y-16087519D02*
X14581038Y-16058948D01*
X14609609Y-16044662D01*
X14652466Y-16044662D01*
X14681038Y-16058948D01*
X14695323Y-16087519D01*
X14695323Y-16244662D01*
X15281038Y-15930376D02*
X15023895Y-16316091D01*
X15666752Y-15944662D02*
X15695323Y-15944662D01*
X15723895Y-15958948D01*
X15738180Y-15973234D01*
X15752466Y-16001805D01*
X15766752Y-16058948D01*
X15766752Y-16130376D01*
X15752466Y-16187519D01*
X15738180Y-16216091D01*
X15723895Y-16230376D01*
X15695323Y-16244662D01*
X15666752Y-16244662D01*
X15638180Y-16230376D01*
X15623895Y-16216091D01*
X15609609Y-16187519D01*
X15595323Y-16130376D01*
X15595323Y-16058948D01*
X15609609Y-16001805D01*
X15623895Y-15973234D01*
X15638180Y-15958948D01*
X15666752Y-15944662D01*
X15895323Y-16216091D02*
X15909609Y-16230376D01*
X15895323Y-16244662D01*
X15881038Y-16230376D01*
X15895323Y-16216091D01*
X15895323Y-16244662D01*
X16095323Y-15944662D02*
X16123895Y-15944662D01*
X16152466Y-15958948D01*
X16166752Y-15973234D01*
X16181038Y-16001805D01*
X16195323Y-16058948D01*
X16195323Y-16130376D01*
X16181038Y-16187519D01*
X16166752Y-16216091D01*
X16152466Y-16230376D01*
X16123895Y-16244662D01*
X16095323Y-16244662D01*
X16066752Y-16230376D01*
X16052466Y-16216091D01*
X16038180Y-16187519D01*
X16023895Y-16130376D01*
X16023895Y-16058948D01*
X16038180Y-16001805D01*
X16052466Y-15973234D01*
X16066752Y-15958948D01*
X16095323Y-15944662D01*
X16452466Y-16044662D02*
X16452466Y-16244662D01*
X16381038Y-15930376D02*
X16309609Y-16144662D01*
X16495323Y-16144662D01*
X16752466Y-15944662D02*
X16609609Y-15944662D01*
X16595323Y-16087519D01*
X16609609Y-16073234D01*
X16638180Y-16058948D01*
X16709609Y-16058948D01*
X16738180Y-16073234D01*
X16752466Y-16087519D01*
X16766752Y-16116091D01*
X16766752Y-16187519D01*
X16752466Y-16216091D01*
X16738180Y-16230376D01*
X16709609Y-16244662D01*
X16638180Y-16244662D01*
X16609609Y-16230376D01*
X16595323Y-16216091D01*
X16881038Y-15944662D02*
X16881038Y-16001805D01*
X16995323Y-15944662D02*
X16995323Y-16001805D01*
X17438181Y-16358948D02*
X17423895Y-16344662D01*
X17395323Y-16301805D01*
X17381038Y-16273234D01*
X17366752Y-16230376D01*
X17352466Y-16158948D01*
X17352466Y-16101805D01*
X17366752Y-16030376D01*
X17381038Y-15987519D01*
X17395323Y-15958948D01*
X17423895Y-15916091D01*
X17438181Y-15901805D01*
X17695323Y-15944662D02*
X17552466Y-15944662D01*
X17538181Y-16087519D01*
X17552466Y-16073234D01*
X17581038Y-16058948D01*
X17652466Y-16058948D01*
X17681038Y-16073234D01*
X17695323Y-16087519D01*
X17709609Y-16116091D01*
X17709609Y-16187519D01*
X17695323Y-16216091D01*
X17681038Y-16230376D01*
X17652466Y-16244662D01*
X17581038Y-16244662D01*
X17552466Y-16230376D01*
X17538181Y-16216091D01*
X18066752Y-16244662D02*
X18066752Y-15944662D01*
X18195323Y-16244662D02*
X18195323Y-16087519D01*
X18181038Y-16058948D01*
X18152466Y-16044662D01*
X18109609Y-16044662D01*
X18081038Y-16058948D01*
X18066752Y-16073234D01*
X18381038Y-16244662D02*
X18352466Y-16230376D01*
X18338181Y-16216091D01*
X18323895Y-16187519D01*
X18323895Y-16101805D01*
X18338181Y-16073234D01*
X18352466Y-16058948D01*
X18381038Y-16044662D01*
X18423895Y-16044662D01*
X18452466Y-16058948D01*
X18466752Y-16073234D01*
X18481038Y-16101805D01*
X18481038Y-16187519D01*
X18466752Y-16216091D01*
X18452466Y-16230376D01*
X18423895Y-16244662D01*
X18381038Y-16244662D01*
X18652466Y-16244662D02*
X18623895Y-16230376D01*
X18609609Y-16201805D01*
X18609609Y-15944662D01*
X18881038Y-16230376D02*
X18852466Y-16244662D01*
X18795323Y-16244662D01*
X18766752Y-16230376D01*
X18752466Y-16201805D01*
X18752466Y-16087519D01*
X18766752Y-16058948D01*
X18795323Y-16044662D01*
X18852466Y-16044662D01*
X18881038Y-16058948D01*
X18895323Y-16087519D01*
X18895323Y-16116091D01*
X18752466Y-16144662D01*
X19009609Y-16230376D02*
X19038181Y-16244662D01*
X19095323Y-16244662D01*
X19123895Y-16230376D01*
X19138181Y-16201805D01*
X19138181Y-16187519D01*
X19123895Y-16158948D01*
X19095323Y-16144662D01*
X19052466Y-16144662D01*
X19023895Y-16130376D01*
X19009609Y-16101805D01*
X19009609Y-16087519D01*
X19023895Y-16058948D01*
X19052466Y-16044662D01*
X19095323Y-16044662D01*
X19123895Y-16058948D01*
X19238181Y-16358948D02*
X19252466Y-16344662D01*
X19281038Y-16301805D01*
X19295323Y-16273234D01*
X19309609Y-16230376D01*
X19323895Y-16158948D01*
X19323895Y-16101805D01*
X19309609Y-16030376D01*
X19295323Y-15987519D01*
X19281038Y-15958948D01*
X19252466Y-15916091D01*
X19238181Y-15901805D01*
M02*
