G04 #@! TF.GenerationSoftware,KiCad,Pcbnew,(5.1.5)-3*
G04 #@! TF.CreationDate,2021-04-18T18:31:53+02:00*
G04 #@! TF.ProjectId,Mega_2560 core mini_full_2.2,4d656761-5f32-4353-9630-20636f726520,2.2*
G04 #@! TF.SameCoordinates,Original*
G04 #@! TF.FileFunction,Legend,Bot*
G04 #@! TF.FilePolarity,Positive*
%FSLAX46Y46*%
G04 Gerber Fmt 4.6, Leading zero omitted, Abs format (unit mm)*
G04 Created by KiCad (PCBNEW (5.1.5)-3) date 2021-04-18 18:31:53*
%MOMM*%
%LPD*%
G04 APERTURE LIST*
%ADD10C,0.150000*%
%ADD11C,0.210000*%
%ADD12C,0.300000*%
%ADD13C,0.120000*%
%ADD14C,0.100000*%
G04 APERTURE END LIST*
D10*
X214091520Y-97566480D02*
X212186520Y-97566480D01*
X214091520Y-92359480D02*
X212186520Y-92359480D01*
X210154520Y-110393480D02*
X210154520Y-112298480D01*
X210535520Y-112298480D02*
X210535520Y-112425480D01*
X210408520Y-110520480D02*
X210408520Y-112298480D01*
X211424520Y-107218480D02*
X209519520Y-107218480D01*
X209519520Y-106964480D02*
X211424520Y-106964480D01*
X206979520Y-108742480D02*
X208884520Y-108742480D01*
X209011520Y-108488480D02*
X206979520Y-108488480D01*
X202915520Y-67213480D02*
X202915520Y-65689480D01*
X202661520Y-67213480D02*
X202661520Y-65689480D01*
D11*
X195232091Y-111389622D02*
X196374948Y-111389622D01*
X195232091Y-108849622D02*
X196374948Y-108849622D01*
X195803520Y-109421051D02*
X195803520Y-108278194D01*
D12*
X209282520Y-58113051D02*
X209282520Y-56613051D01*
X208782520Y-57684480D01*
X208282520Y-56613051D01*
X208282520Y-58113051D01*
X206996805Y-58041622D02*
X207139662Y-58113051D01*
X207425377Y-58113051D01*
X207568234Y-58041622D01*
X207639662Y-57898765D01*
X207639662Y-57327337D01*
X207568234Y-57184480D01*
X207425377Y-57113051D01*
X207139662Y-57113051D01*
X206996805Y-57184480D01*
X206925377Y-57327337D01*
X206925377Y-57470194D01*
X207639662Y-57613051D01*
X205639662Y-57113051D02*
X205639662Y-58327337D01*
X205711091Y-58470194D01*
X205782520Y-58541622D01*
X205925377Y-58613051D01*
X206139662Y-58613051D01*
X206282520Y-58541622D01*
X205639662Y-58041622D02*
X205782520Y-58113051D01*
X206068234Y-58113051D01*
X206211091Y-58041622D01*
X206282520Y-57970194D01*
X206353948Y-57827337D01*
X206353948Y-57398765D01*
X206282520Y-57255908D01*
X206211091Y-57184480D01*
X206068234Y-57113051D01*
X205782520Y-57113051D01*
X205639662Y-57184480D01*
X204282520Y-58113051D02*
X204282520Y-57327337D01*
X204353948Y-57184480D01*
X204496805Y-57113051D01*
X204782520Y-57113051D01*
X204925377Y-57184480D01*
X204282520Y-58041622D02*
X204425377Y-58113051D01*
X204782520Y-58113051D01*
X204925377Y-58041622D01*
X204996805Y-57898765D01*
X204996805Y-57755908D01*
X204925377Y-57613051D01*
X204782520Y-57541622D01*
X204425377Y-57541622D01*
X204282520Y-57470194D01*
X201568234Y-57970194D02*
X201639662Y-58041622D01*
X201853948Y-58113051D01*
X201996805Y-58113051D01*
X202211091Y-58041622D01*
X202353948Y-57898765D01*
X202425377Y-57755908D01*
X202496805Y-57470194D01*
X202496805Y-57255908D01*
X202425377Y-56970194D01*
X202353948Y-56827337D01*
X202211091Y-56684480D01*
X201996805Y-56613051D01*
X201853948Y-56613051D01*
X201639662Y-56684480D01*
X201568234Y-56755908D01*
X200711091Y-58113051D02*
X200853948Y-58041622D01*
X200925377Y-57970194D01*
X200996805Y-57827337D01*
X200996805Y-57398765D01*
X200925377Y-57255908D01*
X200853948Y-57184480D01*
X200711091Y-57113051D01*
X200496805Y-57113051D01*
X200353948Y-57184480D01*
X200282520Y-57255908D01*
X200211091Y-57398765D01*
X200211091Y-57827337D01*
X200282520Y-57970194D01*
X200353948Y-58041622D01*
X200496805Y-58113051D01*
X200711091Y-58113051D01*
X199568234Y-58113051D02*
X199568234Y-57113051D01*
X199568234Y-57398765D02*
X199496805Y-57255908D01*
X199425377Y-57184480D01*
X199282520Y-57113051D01*
X199139662Y-57113051D01*
X198068234Y-58041622D02*
X198211091Y-58113051D01*
X198496805Y-58113051D01*
X198639662Y-58041622D01*
X198711091Y-57898765D01*
X198711091Y-57327337D01*
X198639662Y-57184480D01*
X198496805Y-57113051D01*
X198211091Y-57113051D01*
X198068234Y-57184480D01*
X197996805Y-57327337D01*
X197996805Y-57470194D01*
X198711091Y-57613051D01*
X196282520Y-56755908D02*
X196211091Y-56684480D01*
X196068234Y-56613051D01*
X195711091Y-56613051D01*
X195568234Y-56684480D01*
X195496805Y-56755908D01*
X195425377Y-56898765D01*
X195425377Y-57041622D01*
X195496805Y-57255908D01*
X196353948Y-58113051D01*
X195425377Y-58113051D01*
X194068234Y-56613051D02*
X194782520Y-56613051D01*
X194853948Y-57327337D01*
X194782520Y-57255908D01*
X194639662Y-57184480D01*
X194282520Y-57184480D01*
X194139662Y-57255908D01*
X194068234Y-57327337D01*
X193996805Y-57470194D01*
X193996805Y-57827337D01*
X194068234Y-57970194D01*
X194139662Y-58041622D01*
X194282520Y-58113051D01*
X194639662Y-58113051D01*
X194782520Y-58041622D01*
X194853948Y-57970194D01*
X192711091Y-56613051D02*
X192996805Y-56613051D01*
X193139662Y-56684480D01*
X193211091Y-56755908D01*
X193353948Y-56970194D01*
X193425377Y-57255908D01*
X193425377Y-57827337D01*
X193353948Y-57970194D01*
X193282520Y-58041622D01*
X193139662Y-58113051D01*
X192853948Y-58113051D01*
X192711091Y-58041622D01*
X192639662Y-57970194D01*
X192568234Y-57827337D01*
X192568234Y-57470194D01*
X192639662Y-57327337D01*
X192711091Y-57255908D01*
X192853948Y-57184480D01*
X193139662Y-57184480D01*
X193282520Y-57255908D01*
X193353948Y-57327337D01*
X193425377Y-57470194D01*
X191639662Y-56613051D02*
X191496805Y-56613051D01*
X191353948Y-56684480D01*
X191282520Y-56755908D01*
X191211091Y-56898765D01*
X191139662Y-57184480D01*
X191139662Y-57541622D01*
X191211091Y-57827337D01*
X191282520Y-57970194D01*
X191353948Y-58041622D01*
X191496805Y-58113051D01*
X191639662Y-58113051D01*
X191782520Y-58041622D01*
X191853948Y-57970194D01*
X191925377Y-57827337D01*
X191996805Y-57541622D01*
X191996805Y-57184480D01*
X191925377Y-56898765D01*
X191853948Y-56755908D01*
X191782520Y-56684480D01*
X191639662Y-56613051D01*
X189425377Y-58041622D02*
X189282520Y-58113051D01*
X188996805Y-58113051D01*
X188853948Y-58041622D01*
X188782520Y-57898765D01*
X188782520Y-57827337D01*
X188853948Y-57684480D01*
X188996805Y-57613051D01*
X189211091Y-57613051D01*
X189353948Y-57541622D01*
X189425377Y-57398765D01*
X189425377Y-57327337D01*
X189353948Y-57184480D01*
X189211091Y-57113051D01*
X188996805Y-57113051D01*
X188853948Y-57184480D01*
X188139662Y-58113051D02*
X188139662Y-56613051D01*
X187496805Y-58113051D02*
X187496805Y-57327337D01*
X187568234Y-57184480D01*
X187711091Y-57113051D01*
X187925377Y-57113051D01*
X188068234Y-57184480D01*
X188139662Y-57255908D01*
X186782520Y-58113051D02*
X186782520Y-57113051D01*
X186782520Y-56613051D02*
X186853948Y-56684480D01*
X186782520Y-56755908D01*
X186711091Y-56684480D01*
X186782520Y-56613051D01*
X186782520Y-56755908D01*
X185496805Y-58041622D02*
X185639662Y-58113051D01*
X185925377Y-58113051D01*
X186068234Y-58041622D01*
X186139662Y-57898765D01*
X186139662Y-57327337D01*
X186068234Y-57184480D01*
X185925377Y-57113051D01*
X185639662Y-57113051D01*
X185496805Y-57184480D01*
X185425377Y-57327337D01*
X185425377Y-57470194D01*
X186139662Y-57613051D01*
X184568234Y-58113051D02*
X184711091Y-58041622D01*
X184782520Y-57898765D01*
X184782520Y-56613051D01*
X183353948Y-58113051D02*
X183353948Y-56613051D01*
X183353948Y-58041622D02*
X183496805Y-58113051D01*
X183782520Y-58113051D01*
X183925377Y-58041622D01*
X183996805Y-57970194D01*
X184068234Y-57827337D01*
X184068234Y-57398765D01*
X183996805Y-57255908D01*
X183925377Y-57184480D01*
X183782520Y-57113051D01*
X183496805Y-57113051D01*
X183353948Y-57184480D01*
X181568234Y-58041622D02*
X181353948Y-58113051D01*
X180996805Y-58113051D01*
X180853948Y-58041622D01*
X180782520Y-57970194D01*
X180711091Y-57827337D01*
X180711091Y-57684480D01*
X180782520Y-57541622D01*
X180853948Y-57470194D01*
X180996805Y-57398765D01*
X181282520Y-57327337D01*
X181425377Y-57255908D01*
X181496805Y-57184480D01*
X181568234Y-57041622D01*
X181568234Y-56898765D01*
X181496805Y-56755908D01*
X181425377Y-56684480D01*
X181282520Y-56613051D01*
X180925377Y-56613051D01*
X180711091Y-56684480D01*
X180068234Y-58113051D02*
X180068234Y-57113051D01*
X180068234Y-56613051D02*
X180139662Y-56684480D01*
X180068234Y-56755908D01*
X179996805Y-56684480D01*
X180068234Y-56613051D01*
X180068234Y-56755908D01*
X179139662Y-58113051D02*
X179282520Y-58041622D01*
X179353948Y-57898765D01*
X179353948Y-56613051D01*
X178568234Y-58113051D02*
X178568234Y-56613051D01*
X178425377Y-57541622D02*
X177996805Y-58113051D01*
X177996805Y-57113051D02*
X178568234Y-57684480D01*
X176282520Y-58041622D02*
X176068234Y-58113051D01*
X175711091Y-58113051D01*
X175568234Y-58041622D01*
X175496805Y-57970194D01*
X175425377Y-57827337D01*
X175425377Y-57684480D01*
X175496805Y-57541622D01*
X175568234Y-57470194D01*
X175711091Y-57398765D01*
X175996805Y-57327337D01*
X176139662Y-57255908D01*
X176211091Y-57184480D01*
X176282520Y-57041622D01*
X176282520Y-56898765D01*
X176211091Y-56755908D01*
X176139662Y-56684480D01*
X175996805Y-56613051D01*
X175639662Y-56613051D01*
X175425377Y-56684480D01*
X174139662Y-58041622D02*
X174282520Y-58113051D01*
X174568234Y-58113051D01*
X174711091Y-58041622D01*
X174782520Y-57970194D01*
X174853948Y-57827337D01*
X174853948Y-57398765D01*
X174782520Y-57255908D01*
X174711091Y-57184480D01*
X174568234Y-57113051D01*
X174282520Y-57113051D01*
X174139662Y-57184480D01*
X173496805Y-58113051D02*
X173496805Y-57113051D01*
X173496805Y-57398765D02*
X173425377Y-57255908D01*
X173353948Y-57184480D01*
X173211091Y-57113051D01*
X173068234Y-57113051D01*
X171996805Y-58041622D02*
X172139662Y-58113051D01*
X172425377Y-58113051D01*
X172568234Y-58041622D01*
X172639662Y-57898765D01*
X172639662Y-57327337D01*
X172568234Y-57184480D01*
X172425377Y-57113051D01*
X172139662Y-57113051D01*
X171996805Y-57184480D01*
X171925377Y-57327337D01*
X171925377Y-57470194D01*
X172639662Y-57613051D01*
X170711091Y-58041622D02*
X170853948Y-58113051D01*
X171139662Y-58113051D01*
X171282520Y-58041622D01*
X171353948Y-57898765D01*
X171353948Y-57327337D01*
X171282520Y-57184480D01*
X171139662Y-57113051D01*
X170853948Y-57113051D01*
X170711091Y-57184480D01*
X170639662Y-57327337D01*
X170639662Y-57470194D01*
X171353948Y-57613051D01*
X169996805Y-57113051D02*
X169996805Y-58113051D01*
X169996805Y-57255908D02*
X169925377Y-57184480D01*
X169782520Y-57113051D01*
X169568234Y-57113051D01*
X169425377Y-57184480D01*
X169353948Y-57327337D01*
X169353948Y-58113051D01*
X167568234Y-56755908D02*
X167496805Y-56684480D01*
X167353948Y-56613051D01*
X166996805Y-56613051D01*
X166853948Y-56684480D01*
X166782520Y-56755908D01*
X166711091Y-56898765D01*
X166711091Y-57041622D01*
X166782520Y-57255908D01*
X167639662Y-58113051D01*
X166711091Y-58113051D01*
X164996805Y-56541622D02*
X166282520Y-58470194D01*
X164568234Y-56755908D02*
X164496805Y-56684480D01*
X164353948Y-56613051D01*
X163996805Y-56613051D01*
X163853948Y-56684480D01*
X163782520Y-56755908D01*
X163711091Y-56898765D01*
X163711091Y-57041622D01*
X163782520Y-57255908D01*
X164639662Y-58113051D01*
X163711091Y-58113051D01*
D11*
X191572091Y-115660337D02*
X191357805Y-115731765D01*
X191286377Y-115803194D01*
X191214948Y-115946051D01*
X191214948Y-116160337D01*
X191286377Y-116303194D01*
X191357805Y-116374622D01*
X191500662Y-116446051D01*
X192072091Y-116446051D01*
X192072091Y-114946051D01*
X191572091Y-114946051D01*
X191429234Y-115017480D01*
X191357805Y-115088908D01*
X191286377Y-115231765D01*
X191286377Y-115374622D01*
X191357805Y-115517480D01*
X191429234Y-115588908D01*
X191572091Y-115660337D01*
X192072091Y-115660337D01*
X190714948Y-115446051D02*
X190357805Y-116446051D01*
X190000662Y-115446051D02*
X190357805Y-116446051D01*
X190500662Y-116803194D01*
X190572091Y-116874622D01*
X190714948Y-116946051D01*
X188000662Y-114946051D02*
X187714948Y-114946051D01*
X187572091Y-115017480D01*
X187429234Y-115160337D01*
X187357805Y-115446051D01*
X187357805Y-115946051D01*
X187429234Y-116231765D01*
X187572091Y-116374622D01*
X187714948Y-116446051D01*
X188000662Y-116446051D01*
X188143520Y-116374622D01*
X188286377Y-116231765D01*
X188357805Y-115946051D01*
X188357805Y-115446051D01*
X188286377Y-115160337D01*
X188143520Y-115017480D01*
X188000662Y-114946051D01*
X186714948Y-115446051D02*
X186714948Y-116946051D01*
X186714948Y-115517480D02*
X186572091Y-115446051D01*
X186286377Y-115446051D01*
X186143520Y-115517480D01*
X186072091Y-115588908D01*
X186000662Y-115731765D01*
X186000662Y-116160337D01*
X186072091Y-116303194D01*
X186143520Y-116374622D01*
X186286377Y-116446051D01*
X186572091Y-116446051D01*
X186714948Y-116374622D01*
X184786377Y-116374622D02*
X184929234Y-116446051D01*
X185214948Y-116446051D01*
X185357805Y-116374622D01*
X185429234Y-116231765D01*
X185429234Y-115660337D01*
X185357805Y-115517480D01*
X185214948Y-115446051D01*
X184929234Y-115446051D01*
X184786377Y-115517480D01*
X184714948Y-115660337D01*
X184714948Y-115803194D01*
X185429234Y-115946051D01*
X184072091Y-115446051D02*
X184072091Y-116446051D01*
X184072091Y-115588908D02*
X184000662Y-115517480D01*
X183857805Y-115446051D01*
X183643520Y-115446051D01*
X183500662Y-115517480D01*
X183429234Y-115660337D01*
X183429234Y-116446051D01*
X182786377Y-116017480D02*
X182072091Y-116017480D01*
X182929234Y-116446051D02*
X182429234Y-114946051D01*
X181929234Y-116446051D01*
X181643520Y-114946051D02*
X181143520Y-116446051D01*
X180643520Y-114946051D01*
X179286377Y-116446051D02*
X179786377Y-115731765D01*
X180143520Y-116446051D02*
X180143520Y-114946051D01*
X179572091Y-114946051D01*
X179429234Y-115017480D01*
X179357805Y-115088908D01*
X179286377Y-115231765D01*
X179286377Y-115446051D01*
X179357805Y-115588908D01*
X179429234Y-115660337D01*
X179572091Y-115731765D01*
X180143520Y-115731765D01*
X178000662Y-116374622D02*
X178143520Y-116446051D01*
X178429234Y-116446051D01*
X178572091Y-116374622D01*
X178643520Y-116303194D01*
X178714948Y-116160337D01*
X178714948Y-115731765D01*
X178643520Y-115588908D01*
X178572091Y-115517480D01*
X178429234Y-115446051D01*
X178143520Y-115446051D01*
X178000662Y-115517480D01*
X188393520Y-117406051D02*
X187536377Y-117406051D01*
X187964948Y-118906051D02*
X187964948Y-117406051D01*
X186464948Y-118834622D02*
X186607805Y-118906051D01*
X186893520Y-118906051D01*
X187036377Y-118834622D01*
X187107805Y-118691765D01*
X187107805Y-118120337D01*
X187036377Y-117977480D01*
X186893520Y-117906051D01*
X186607805Y-117906051D01*
X186464948Y-117977480D01*
X186393520Y-118120337D01*
X186393520Y-118263194D01*
X187107805Y-118406051D01*
X185107805Y-118906051D02*
X185107805Y-118120337D01*
X185179234Y-117977480D01*
X185322091Y-117906051D01*
X185607805Y-117906051D01*
X185750662Y-117977480D01*
X185107805Y-118834622D02*
X185250662Y-118906051D01*
X185607805Y-118906051D01*
X185750662Y-118834622D01*
X185822091Y-118691765D01*
X185822091Y-118548908D01*
X185750662Y-118406051D01*
X185607805Y-118334622D01*
X185250662Y-118334622D01*
X185107805Y-118263194D01*
X184393520Y-118906051D02*
X184393520Y-117906051D01*
X184393520Y-118048908D02*
X184322091Y-117977480D01*
X184179234Y-117906051D01*
X183964948Y-117906051D01*
X183822091Y-117977480D01*
X183750662Y-118120337D01*
X183750662Y-118906051D01*
X183750662Y-118120337D02*
X183679234Y-117977480D01*
X183536377Y-117906051D01*
X183322091Y-117906051D01*
X183179234Y-117977480D01*
X183107805Y-118120337D01*
X183107805Y-118906051D01*
X192012377Y-111874051D02*
X192012377Y-110374051D01*
X191512377Y-111445480D01*
X191012377Y-110374051D01*
X191012377Y-111874051D01*
X189726662Y-111802622D02*
X189869520Y-111874051D01*
X190155234Y-111874051D01*
X190298091Y-111802622D01*
X190369520Y-111659765D01*
X190369520Y-111088337D01*
X190298091Y-110945480D01*
X190155234Y-110874051D01*
X189869520Y-110874051D01*
X189726662Y-110945480D01*
X189655234Y-111088337D01*
X189655234Y-111231194D01*
X190369520Y-111374051D01*
X188369520Y-110874051D02*
X188369520Y-112088337D01*
X188440948Y-112231194D01*
X188512377Y-112302622D01*
X188655234Y-112374051D01*
X188869520Y-112374051D01*
X189012377Y-112302622D01*
X188369520Y-111802622D02*
X188512377Y-111874051D01*
X188798091Y-111874051D01*
X188940948Y-111802622D01*
X189012377Y-111731194D01*
X189083805Y-111588337D01*
X189083805Y-111159765D01*
X189012377Y-111016908D01*
X188940948Y-110945480D01*
X188798091Y-110874051D01*
X188512377Y-110874051D01*
X188369520Y-110945480D01*
X187012377Y-111874051D02*
X187012377Y-111088337D01*
X187083805Y-110945480D01*
X187226662Y-110874051D01*
X187512377Y-110874051D01*
X187655234Y-110945480D01*
X187012377Y-111802622D02*
X187155234Y-111874051D01*
X187512377Y-111874051D01*
X187655234Y-111802622D01*
X187726662Y-111659765D01*
X187726662Y-111516908D01*
X187655234Y-111374051D01*
X187512377Y-111302622D01*
X187155234Y-111302622D01*
X187012377Y-111231194D01*
X185440948Y-111731194D02*
X185512377Y-111802622D01*
X185726662Y-111874051D01*
X185869520Y-111874051D01*
X186083805Y-111802622D01*
X186226662Y-111659765D01*
X186298091Y-111516908D01*
X186369520Y-111231194D01*
X186369520Y-111016908D01*
X186298091Y-110731194D01*
X186226662Y-110588337D01*
X186083805Y-110445480D01*
X185869520Y-110374051D01*
X185726662Y-110374051D01*
X185512377Y-110445480D01*
X185440948Y-110516908D01*
X184583805Y-111874051D02*
X184726662Y-111802622D01*
X184798091Y-111731194D01*
X184869520Y-111588337D01*
X184869520Y-111159765D01*
X184798091Y-111016908D01*
X184726662Y-110945480D01*
X184583805Y-110874051D01*
X184369520Y-110874051D01*
X184226662Y-110945480D01*
X184155234Y-111016908D01*
X184083805Y-111159765D01*
X184083805Y-111588337D01*
X184155234Y-111731194D01*
X184226662Y-111802622D01*
X184369520Y-111874051D01*
X184583805Y-111874051D01*
X183440948Y-111874051D02*
X183440948Y-110874051D01*
X183440948Y-111159765D02*
X183369520Y-111016908D01*
X183298091Y-110945480D01*
X183155234Y-110874051D01*
X183012377Y-110874051D01*
X181940948Y-111802622D02*
X182083805Y-111874051D01*
X182369520Y-111874051D01*
X182512377Y-111802622D01*
X182583805Y-111659765D01*
X182583805Y-111088337D01*
X182512377Y-110945480D01*
X182369520Y-110874051D01*
X182083805Y-110874051D01*
X181940948Y-110945480D01*
X181869520Y-111088337D01*
X181869520Y-111231194D01*
X182583805Y-111374051D01*
X181298091Y-110516908D02*
X181226662Y-110445480D01*
X181083805Y-110374051D01*
X180726662Y-110374051D01*
X180583805Y-110445480D01*
X180512377Y-110516908D01*
X180440948Y-110659765D01*
X180440948Y-110802622D01*
X180512377Y-111016908D01*
X181369520Y-111874051D01*
X180440948Y-111874051D01*
X179083805Y-110374051D02*
X179798091Y-110374051D01*
X179869520Y-111088337D01*
X179798091Y-111016908D01*
X179655234Y-110945480D01*
X179298091Y-110945480D01*
X179155234Y-111016908D01*
X179083805Y-111088337D01*
X179012377Y-111231194D01*
X179012377Y-111588337D01*
X179083805Y-111731194D01*
X179155234Y-111802622D01*
X179298091Y-111874051D01*
X179655234Y-111874051D01*
X179798091Y-111802622D01*
X179869520Y-111731194D01*
X177726662Y-110374051D02*
X178012377Y-110374051D01*
X178155234Y-110445480D01*
X178226662Y-110516908D01*
X178369520Y-110731194D01*
X178440948Y-111016908D01*
X178440948Y-111588337D01*
X178369520Y-111731194D01*
X178298091Y-111802622D01*
X178155234Y-111874051D01*
X177869520Y-111874051D01*
X177726662Y-111802622D01*
X177655234Y-111731194D01*
X177583805Y-111588337D01*
X177583805Y-111231194D01*
X177655234Y-111088337D01*
X177726662Y-111016908D01*
X177869520Y-110945480D01*
X178155234Y-110945480D01*
X178298091Y-111016908D01*
X178369520Y-111088337D01*
X178440948Y-111231194D01*
X176655234Y-110374051D02*
X176512377Y-110374051D01*
X176369520Y-110445480D01*
X176298091Y-110516908D01*
X176226662Y-110659765D01*
X176155234Y-110945480D01*
X176155234Y-111302622D01*
X176226662Y-111588337D01*
X176298091Y-111731194D01*
X176369520Y-111802622D01*
X176512377Y-111874051D01*
X176655234Y-111874051D01*
X176798091Y-111802622D01*
X176869520Y-111731194D01*
X176940948Y-111588337D01*
X177012377Y-111302622D01*
X177012377Y-110945480D01*
X176940948Y-110659765D01*
X176869520Y-110516908D01*
X176798091Y-110445480D01*
X176655234Y-110374051D01*
X190298091Y-114262622D02*
X190083805Y-114334051D01*
X189726662Y-114334051D01*
X189583805Y-114262622D01*
X189512377Y-114191194D01*
X189440948Y-114048337D01*
X189440948Y-113905480D01*
X189512377Y-113762622D01*
X189583805Y-113691194D01*
X189726662Y-113619765D01*
X190012377Y-113548337D01*
X190155234Y-113476908D01*
X190226662Y-113405480D01*
X190298091Y-113262622D01*
X190298091Y-113119765D01*
X190226662Y-112976908D01*
X190155234Y-112905480D01*
X190012377Y-112834051D01*
X189655234Y-112834051D01*
X189440948Y-112905480D01*
X188798091Y-114334051D02*
X188798091Y-112834051D01*
X188155234Y-114334051D02*
X188155234Y-113548337D01*
X188226662Y-113405480D01*
X188369520Y-113334051D01*
X188583805Y-113334051D01*
X188726662Y-113405480D01*
X188798091Y-113476908D01*
X187440948Y-114334051D02*
X187440948Y-113334051D01*
X187440948Y-112834051D02*
X187512377Y-112905480D01*
X187440948Y-112976908D01*
X187369520Y-112905480D01*
X187440948Y-112834051D01*
X187440948Y-112976908D01*
X186155234Y-114262622D02*
X186298091Y-114334051D01*
X186583805Y-114334051D01*
X186726662Y-114262622D01*
X186798091Y-114119765D01*
X186798091Y-113548337D01*
X186726662Y-113405480D01*
X186583805Y-113334051D01*
X186298091Y-113334051D01*
X186155234Y-113405480D01*
X186083805Y-113548337D01*
X186083805Y-113691194D01*
X186798091Y-113834051D01*
X185226662Y-114334051D02*
X185369520Y-114262622D01*
X185440948Y-114119765D01*
X185440948Y-112834051D01*
X184012377Y-114334051D02*
X184012377Y-112834051D01*
X184012377Y-114262622D02*
X184155234Y-114334051D01*
X184440948Y-114334051D01*
X184583805Y-114262622D01*
X184655234Y-114191194D01*
X184726662Y-114048337D01*
X184726662Y-113619765D01*
X184655234Y-113476908D01*
X184583805Y-113405480D01*
X184440948Y-113334051D01*
X184155234Y-113334051D01*
X184012377Y-113405480D01*
X182369520Y-112834051D02*
X181869520Y-114334051D01*
X181369520Y-112834051D01*
X180940948Y-112976908D02*
X180869520Y-112905480D01*
X180726662Y-112834051D01*
X180369520Y-112834051D01*
X180226662Y-112905480D01*
X180155234Y-112976908D01*
X180083805Y-113119765D01*
X180083805Y-113262622D01*
X180155234Y-113476908D01*
X181012377Y-114334051D01*
X180083805Y-114334051D01*
X179440948Y-114191194D02*
X179369520Y-114262622D01*
X179440948Y-114334051D01*
X179512377Y-114262622D01*
X179440948Y-114191194D01*
X179440948Y-114334051D01*
X178798091Y-112976908D02*
X178726662Y-112905480D01*
X178583805Y-112834051D01*
X178226662Y-112834051D01*
X178083805Y-112905480D01*
X178012377Y-112976908D01*
X177940948Y-113119765D01*
X177940948Y-113262622D01*
X178012377Y-113476908D01*
X178869520Y-114334051D01*
X177940948Y-114334051D01*
D13*
X210368520Y-114847480D02*
X208368520Y-114847480D01*
X208368520Y-112797480D02*
X210368520Y-112797480D01*
X208995520Y-110103480D02*
X206995520Y-110103480D01*
X206995520Y-110103480D02*
X206995520Y-106203480D01*
X208995520Y-110103480D02*
X208995520Y-106203480D01*
X209535520Y-105603480D02*
X211535520Y-105603480D01*
X211535520Y-105603480D02*
X211535520Y-109503480D01*
X209535520Y-105603480D02*
X209535520Y-109503480D01*
X211769520Y-110409480D02*
X211769520Y-112409480D01*
X211769520Y-112409480D02*
X207869520Y-112409480D01*
X211769520Y-110409480D02*
X207869520Y-110409480D01*
X216132520Y-106575480D02*
X216132520Y-108575480D01*
X214082520Y-108575480D02*
X214082520Y-106575480D01*
X211941520Y-96439480D02*
X211941520Y-98439480D01*
X209891520Y-98439480D02*
X209891520Y-96439480D01*
X223226520Y-81421480D02*
X223226520Y-79421480D01*
X225276520Y-79421480D02*
X225276520Y-81421480D01*
X210272520Y-74944480D02*
X210272520Y-72944480D01*
X212322520Y-72944480D02*
X212322520Y-74944480D01*
X207732520Y-74944480D02*
X207732520Y-72944480D01*
X209782520Y-72944480D02*
X209782520Y-74944480D01*
X204403520Y-65451480D02*
X204403520Y-67451480D01*
X204403520Y-67451480D02*
X200503520Y-67451480D01*
X204403520Y-65451480D02*
X200503520Y-65451480D01*
X196692520Y-120299480D02*
X175102520Y-120299480D01*
X175102520Y-120299480D02*
X175102520Y-84739480D01*
X175102520Y-84739480D02*
X196692520Y-84739480D01*
X196692520Y-84739480D02*
X196692520Y-120299480D01*
X183602520Y-100344480D02*
X183602520Y-98344480D01*
X185652520Y-98344480D02*
X185652520Y-100344480D01*
X180427520Y-107329480D02*
X180427520Y-105329480D01*
X182477520Y-105329480D02*
X182477520Y-107329480D01*
X166076520Y-118251480D02*
X166076520Y-116251480D01*
X168126520Y-116251480D02*
X168126520Y-118251480D01*
X155147520Y-112434480D02*
X153147520Y-112434480D01*
X153147520Y-110384480D02*
X155147520Y-110384480D01*
X148829520Y-100097480D02*
X150829520Y-100097480D01*
X150829520Y-102147480D02*
X148829520Y-102147480D01*
X153902520Y-91994480D02*
X153902520Y-93994480D01*
X151852520Y-93994480D02*
X151852520Y-91994480D01*
X148187520Y-91994480D02*
X148187520Y-93994480D01*
X146137520Y-93994480D02*
X146137520Y-91994480D01*
X146137520Y-87644480D02*
X146137520Y-85644480D01*
X148187520Y-85644480D02*
X148187520Y-87644480D01*
X151852520Y-87644480D02*
X151852520Y-85644480D01*
X153902520Y-85644480D02*
X153902520Y-87644480D01*
X142987520Y-79650480D02*
X144987520Y-79650480D01*
X144987520Y-81700480D02*
X142987520Y-81700480D01*
X144377520Y-83104480D02*
X144377520Y-85104480D01*
X142327520Y-85104480D02*
X142327520Y-83104480D01*
X147661520Y-81294480D02*
X147661520Y-79294480D01*
X149711520Y-79294480D02*
X149711520Y-81294480D01*
X149711520Y-73579480D02*
X149711520Y-75579480D01*
X147661520Y-75579480D02*
X147661520Y-73579480D01*
X142987520Y-69744480D02*
X144987520Y-69744480D01*
X144987520Y-71794480D02*
X142987520Y-71794480D01*
X194907520Y-110139480D02*
X194907520Y-112799480D01*
X194907520Y-112799480D02*
X192127520Y-112799480D01*
X192127520Y-112799480D02*
X192127520Y-110139480D01*
X192127520Y-110139480D02*
X194907520Y-110139480D01*
X194907520Y-108869480D02*
X194907520Y-107479480D01*
X194907520Y-107479480D02*
X193517520Y-107479480D01*
X144372520Y-88184480D02*
X144372520Y-90184480D01*
X142332520Y-90184480D02*
X142332520Y-88184480D01*
D10*
X224642520Y-104171480D02*
X221442520Y-104171480D01*
X224642520Y-105271480D02*
X221442520Y-105271480D01*
X221442520Y-104171480D02*
X221442520Y-105271480D01*
X224642520Y-104171480D02*
X224642520Y-105271480D01*
X224642520Y-104721480D02*
X224092520Y-105271480D01*
X207106520Y-68940480D02*
X206556520Y-68390480D01*
X207656520Y-68940480D02*
X206556520Y-68940480D01*
X207656520Y-65740480D02*
X206556520Y-65740480D01*
X206556520Y-68940480D02*
X206556520Y-65740480D01*
X207656520Y-68940480D02*
X207656520Y-65740480D01*
D13*
X218736520Y-78532480D02*
X218736520Y-80532480D01*
X220876520Y-80532480D02*
X220876520Y-78532480D01*
X216177520Y-103699480D02*
X216177520Y-101699480D01*
X214037520Y-101699480D02*
X214037520Y-103699480D01*
X159592520Y-73509480D02*
X157592520Y-73509480D01*
X157592520Y-75649480D02*
X159592520Y-75649480D01*
X157592520Y-87079480D02*
X159592520Y-87079480D01*
X159592520Y-84939480D02*
X157592520Y-84939480D01*
X159592520Y-96369480D02*
X157592520Y-96369480D01*
X157592520Y-98509480D02*
X159592520Y-98509480D01*
X157592520Y-109939480D02*
X159592520Y-109939480D01*
X159592520Y-107799480D02*
X157592520Y-107799480D01*
X187532520Y-105894480D02*
X185532520Y-105894480D01*
X185532520Y-108034480D02*
X187532520Y-108034480D01*
X210227520Y-78024480D02*
X210227520Y-80024480D01*
X212367520Y-80024480D02*
X212367520Y-78024480D01*
X209827520Y-80024480D02*
X209827520Y-78024480D01*
X207687520Y-78024480D02*
X207687520Y-80024480D01*
X211986520Y-93105480D02*
X211986520Y-91105480D01*
X209846520Y-91105480D02*
X209846520Y-93105480D01*
X185532520Y-104224480D02*
X187532520Y-104224480D01*
X187532520Y-102084480D02*
X185532520Y-102084480D01*
X158392520Y-71769480D02*
X158392520Y-69769480D01*
X156252520Y-69769480D02*
X156252520Y-71769480D01*
X164672520Y-73509480D02*
X162672520Y-73509480D01*
X162672520Y-75649480D02*
X164672520Y-75649480D01*
X158392520Y-83199480D02*
X158392520Y-81199480D01*
X156252520Y-81199480D02*
X156252520Y-83199480D01*
X164672520Y-84939480D02*
X162672520Y-84939480D01*
X162672520Y-87079480D02*
X164672520Y-87079480D01*
X158392520Y-94629480D02*
X158392520Y-92629480D01*
X156252520Y-92629480D02*
X156252520Y-94629480D01*
X164672520Y-96369480D02*
X162672520Y-96369480D01*
X162672520Y-98509480D02*
X164672520Y-98509480D01*
X158392520Y-106059480D02*
X158392520Y-104059480D01*
X156252520Y-104059480D02*
X156252520Y-106059480D01*
X164672520Y-107799480D02*
X162672520Y-107799480D01*
X162672520Y-109939480D02*
X164672520Y-109939480D01*
X157306520Y-66270480D02*
X155306520Y-66270480D01*
X155306520Y-68410480D02*
X157306520Y-68410480D01*
X223054520Y-69388480D02*
X223054520Y-71388480D01*
X225194520Y-71388480D02*
X225194520Y-69388480D01*
X222781520Y-71388480D02*
X222781520Y-69388480D01*
X220641520Y-69388480D02*
X220641520Y-71388480D01*
X214018520Y-103720480D02*
X214018520Y-101720480D01*
X211878520Y-101720480D02*
X211878520Y-103720480D01*
X218601520Y-97321480D02*
X217201520Y-97321480D01*
X217201520Y-94001480D02*
X219101520Y-94001480D01*
X217201520Y-90191480D02*
X219101520Y-90191480D01*
X218601520Y-93511480D02*
X217201520Y-93511480D01*
X213832520Y-72274480D02*
X213832520Y-71014480D01*
X213832520Y-65454480D02*
X213832520Y-66714480D01*
X217592520Y-72274480D02*
X213832520Y-72274480D01*
X219842520Y-65454480D02*
X213832520Y-65454480D01*
X180817520Y-75094480D02*
X191097520Y-75094480D01*
X191097520Y-75094480D02*
X191097520Y-80414480D01*
X191097520Y-80414480D02*
X178157520Y-80414480D01*
X178157520Y-80414480D02*
X178157520Y-77754480D01*
X178157520Y-77754480D02*
X180817520Y-77754480D01*
X180817520Y-77754480D02*
X180817520Y-75094480D01*
X179547520Y-75094480D02*
X178157520Y-75094480D01*
X178157520Y-75094480D02*
X178157520Y-76484480D01*
X177762520Y-105059480D02*
X177762520Y-110259480D01*
X177762520Y-110259480D02*
X174982520Y-110259480D01*
X174982520Y-110259480D02*
X174982520Y-105059480D01*
X174982520Y-105059480D02*
X177762520Y-105059480D01*
X177762520Y-103789480D02*
X177762520Y-102399480D01*
X177762520Y-102399480D02*
X176372520Y-102399480D01*
X177715520Y-105329480D02*
X177715520Y-107329480D01*
X179855520Y-107329480D02*
X179855520Y-105329480D01*
D10*
X212710186Y-114179622D02*
X212757805Y-114227241D01*
X212900662Y-114274860D01*
X212995900Y-114274860D01*
X213138758Y-114227241D01*
X213233996Y-114132003D01*
X213281615Y-114036765D01*
X213329234Y-113846289D01*
X213329234Y-113703432D01*
X213281615Y-113512956D01*
X213233996Y-113417718D01*
X213138758Y-113322480D01*
X212995900Y-113274860D01*
X212900662Y-113274860D01*
X212757805Y-113322480D01*
X212710186Y-113370099D01*
X212329234Y-113370099D02*
X212281615Y-113322480D01*
X212186377Y-113274860D01*
X211948281Y-113274860D01*
X211853043Y-113322480D01*
X211805424Y-113370099D01*
X211757805Y-113465337D01*
X211757805Y-113560575D01*
X211805424Y-113703432D01*
X212376853Y-114274860D01*
X211757805Y-114274860D01*
X208574900Y-103686384D02*
X207574900Y-103686384D01*
X207574900Y-103924480D01*
X207622520Y-104067337D01*
X207717758Y-104162575D01*
X207812996Y-104210194D01*
X208003472Y-104257813D01*
X208146329Y-104257813D01*
X208336805Y-104210194D01*
X208432043Y-104162575D01*
X208527281Y-104067337D01*
X208574900Y-103924480D01*
X208574900Y-103686384D01*
X207574900Y-104591146D02*
X207574900Y-105210194D01*
X207955853Y-104876860D01*
X207955853Y-105019718D01*
X208003472Y-105114956D01*
X208051091Y-105162575D01*
X208146329Y-105210194D01*
X208384424Y-105210194D01*
X208479662Y-105162575D01*
X208527281Y-105114956D01*
X208574900Y-105019718D01*
X208574900Y-104734003D01*
X208527281Y-104638765D01*
X208479662Y-104591146D01*
X210987900Y-103686384D02*
X209987900Y-103686384D01*
X209987900Y-103924480D01*
X210035520Y-104067337D01*
X210130758Y-104162575D01*
X210225996Y-104210194D01*
X210416472Y-104257813D01*
X210559329Y-104257813D01*
X210749805Y-104210194D01*
X210845043Y-104162575D01*
X210940281Y-104067337D01*
X210987900Y-103924480D01*
X210987900Y-103686384D01*
X210083139Y-104638765D02*
X210035520Y-104686384D01*
X209987900Y-104781622D01*
X209987900Y-105019718D01*
X210035520Y-105114956D01*
X210083139Y-105162575D01*
X210178377Y-105210194D01*
X210273615Y-105210194D01*
X210416472Y-105162575D01*
X210987900Y-104591146D01*
X210987900Y-105210194D01*
X213432615Y-111861860D02*
X213432615Y-110861860D01*
X213194520Y-110861860D01*
X213051662Y-110909480D01*
X212956424Y-111004718D01*
X212908805Y-111099956D01*
X212861186Y-111290432D01*
X212861186Y-111433289D01*
X212908805Y-111623765D01*
X212956424Y-111719003D01*
X213051662Y-111814241D01*
X213194520Y-111861860D01*
X213432615Y-111861860D01*
X211908805Y-111861860D02*
X212480234Y-111861860D01*
X212194520Y-111861860D02*
X212194520Y-110861860D01*
X212289758Y-111004718D01*
X212384996Y-111099956D01*
X212480234Y-111147575D01*
X213559662Y-106956622D02*
X213607281Y-106909003D01*
X213654900Y-106766146D01*
X213654900Y-106670908D01*
X213607281Y-106528051D01*
X213512043Y-106432813D01*
X213416805Y-106385194D01*
X213226329Y-106337575D01*
X213083472Y-106337575D01*
X212892996Y-106385194D01*
X212797758Y-106432813D01*
X212702520Y-106528051D01*
X212654900Y-106670908D01*
X212654900Y-106766146D01*
X212702520Y-106909003D01*
X212750139Y-106956622D01*
X213654900Y-107909003D02*
X213654900Y-107337575D01*
X213654900Y-107623289D02*
X212654900Y-107623289D01*
X212797758Y-107528051D01*
X212892996Y-107432813D01*
X212940615Y-107337575D01*
X212654900Y-108528051D02*
X212654900Y-108623289D01*
X212702520Y-108718527D01*
X212750139Y-108766146D01*
X212845377Y-108813765D01*
X213035853Y-108861384D01*
X213273948Y-108861384D01*
X213464424Y-108813765D01*
X213559662Y-108766146D01*
X213607281Y-108718527D01*
X213654900Y-108623289D01*
X213654900Y-108528051D01*
X213607281Y-108432813D01*
X213559662Y-108385194D01*
X213464424Y-108337575D01*
X213273948Y-108289956D01*
X213035853Y-108289956D01*
X212845377Y-108337575D01*
X212750139Y-108385194D01*
X212702520Y-108432813D01*
X212654900Y-108528051D01*
X215210662Y-97272813D02*
X215258281Y-97225194D01*
X215305900Y-97082337D01*
X215305900Y-96987099D01*
X215258281Y-96844241D01*
X215163043Y-96749003D01*
X215067805Y-96701384D01*
X214877329Y-96653765D01*
X214734472Y-96653765D01*
X214543996Y-96701384D01*
X214448758Y-96749003D01*
X214353520Y-96844241D01*
X214305900Y-96987099D01*
X214305900Y-97082337D01*
X214353520Y-97225194D01*
X214401139Y-97272813D01*
X215305900Y-98225194D02*
X215305900Y-97653765D01*
X215305900Y-97939480D02*
X214305900Y-97939480D01*
X214448758Y-97844241D01*
X214543996Y-97749003D01*
X214591615Y-97653765D01*
X222703662Y-80159622D02*
X222751281Y-80112003D01*
X222798900Y-79969146D01*
X222798900Y-79873908D01*
X222751281Y-79731051D01*
X222656043Y-79635813D01*
X222560805Y-79588194D01*
X222370329Y-79540575D01*
X222227472Y-79540575D01*
X222036996Y-79588194D01*
X221941758Y-79635813D01*
X221846520Y-79731051D01*
X221798900Y-79873908D01*
X221798900Y-79969146D01*
X221846520Y-80112003D01*
X221894139Y-80159622D01*
X221798900Y-80492956D02*
X221798900Y-81112003D01*
X222179853Y-80778670D01*
X222179853Y-80921527D01*
X222227472Y-81016765D01*
X222275091Y-81064384D01*
X222370329Y-81112003D01*
X222608424Y-81112003D01*
X222703662Y-81064384D01*
X222751281Y-81016765D01*
X222798900Y-80921527D01*
X222798900Y-80635813D01*
X222751281Y-80540575D01*
X222703662Y-80492956D01*
X222798900Y-82064384D02*
X222798900Y-81492956D01*
X222798900Y-81778670D02*
X221798900Y-81778670D01*
X221941758Y-81683432D01*
X222036996Y-81588194D01*
X222084615Y-81492956D01*
X213686662Y-73428622D02*
X213734281Y-73381003D01*
X213781900Y-73238146D01*
X213781900Y-73142908D01*
X213734281Y-73000051D01*
X213639043Y-72904813D01*
X213543805Y-72857194D01*
X213353329Y-72809575D01*
X213210472Y-72809575D01*
X213019996Y-72857194D01*
X212924758Y-72904813D01*
X212829520Y-73000051D01*
X212781900Y-73142908D01*
X212781900Y-73238146D01*
X212829520Y-73381003D01*
X212877139Y-73428622D01*
X212781900Y-73761956D02*
X212781900Y-74381003D01*
X213162853Y-74047670D01*
X213162853Y-74190527D01*
X213210472Y-74285765D01*
X213258091Y-74333384D01*
X213353329Y-74381003D01*
X213591424Y-74381003D01*
X213686662Y-74333384D01*
X213734281Y-74285765D01*
X213781900Y-74190527D01*
X213781900Y-73904813D01*
X213734281Y-73809575D01*
X213686662Y-73761956D01*
X213210472Y-74952432D02*
X213162853Y-74857194D01*
X213115234Y-74809575D01*
X213019996Y-74761956D01*
X212972377Y-74761956D01*
X212877139Y-74809575D01*
X212829520Y-74857194D01*
X212781900Y-74952432D01*
X212781900Y-75142908D01*
X212829520Y-75238146D01*
X212877139Y-75285765D01*
X212972377Y-75333384D01*
X213019996Y-75333384D01*
X213115234Y-75285765D01*
X213162853Y-75238146D01*
X213210472Y-75142908D01*
X213210472Y-74952432D01*
X213258091Y-74857194D01*
X213305710Y-74809575D01*
X213400948Y-74761956D01*
X213591424Y-74761956D01*
X213686662Y-74809575D01*
X213734281Y-74857194D01*
X213781900Y-74952432D01*
X213781900Y-75142908D01*
X213734281Y-75238146D01*
X213686662Y-75285765D01*
X213591424Y-75333384D01*
X213400948Y-75333384D01*
X213305710Y-75285765D01*
X213258091Y-75238146D01*
X213210472Y-75142908D01*
X207463662Y-74285813D02*
X207511281Y-74238194D01*
X207558900Y-74095337D01*
X207558900Y-74000099D01*
X207511281Y-73857241D01*
X207416043Y-73762003D01*
X207320805Y-73714384D01*
X207130329Y-73666765D01*
X206987472Y-73666765D01*
X206796996Y-73714384D01*
X206701758Y-73762003D01*
X206606520Y-73857241D01*
X206558900Y-74000099D01*
X206558900Y-74095337D01*
X206606520Y-74238194D01*
X206654139Y-74285813D01*
X206558900Y-75190575D02*
X206558900Y-74714384D01*
X207035091Y-74666765D01*
X206987472Y-74714384D01*
X206939853Y-74809622D01*
X206939853Y-75047718D01*
X206987472Y-75142956D01*
X207035091Y-75190575D01*
X207130329Y-75238194D01*
X207368424Y-75238194D01*
X207463662Y-75190575D01*
X207511281Y-75142956D01*
X207558900Y-75047718D01*
X207558900Y-74809622D01*
X207511281Y-74714384D01*
X207463662Y-74666765D01*
X199462615Y-66903860D02*
X199462615Y-65903860D01*
X199224520Y-65903860D01*
X199081662Y-65951480D01*
X198986424Y-66046718D01*
X198938805Y-66141956D01*
X198891186Y-66332432D01*
X198891186Y-66475289D01*
X198938805Y-66665765D01*
X198986424Y-66761003D01*
X199081662Y-66856241D01*
X199224520Y-66903860D01*
X199462615Y-66903860D01*
X198034043Y-65903860D02*
X198224520Y-65903860D01*
X198319758Y-65951480D01*
X198367377Y-65999099D01*
X198462615Y-66141956D01*
X198510234Y-66332432D01*
X198510234Y-66713384D01*
X198462615Y-66808622D01*
X198414996Y-66856241D01*
X198319758Y-66903860D01*
X198129281Y-66903860D01*
X198034043Y-66856241D01*
X197986424Y-66808622D01*
X197938805Y-66713384D01*
X197938805Y-66475289D01*
X197986424Y-66380051D01*
X198034043Y-66332432D01*
X198129281Y-66284813D01*
X198319758Y-66284813D01*
X198414996Y-66332432D01*
X198462615Y-66380051D01*
X198510234Y-66475289D01*
X198033900Y-117688194D02*
X197033900Y-117688194D01*
X197033900Y-118069146D01*
X197081520Y-118164384D01*
X197129139Y-118212003D01*
X197224377Y-118259622D01*
X197367234Y-118259622D01*
X197462472Y-118212003D01*
X197510091Y-118164384D01*
X197557710Y-118069146D01*
X197557710Y-117688194D01*
X197129139Y-118640575D02*
X197081520Y-118688194D01*
X197033900Y-118783432D01*
X197033900Y-119021527D01*
X197081520Y-119116765D01*
X197129139Y-119164384D01*
X197224377Y-119212003D01*
X197319615Y-119212003D01*
X197462472Y-119164384D01*
X198033900Y-118592956D01*
X198033900Y-119212003D01*
X197129139Y-119592956D02*
X197081520Y-119640575D01*
X197033900Y-119735813D01*
X197033900Y-119973908D01*
X197081520Y-120069146D01*
X197129139Y-120116765D01*
X197224377Y-120164384D01*
X197319615Y-120164384D01*
X197462472Y-120116765D01*
X198033900Y-119545337D01*
X198033900Y-120164384D01*
X183079662Y-98574622D02*
X183127281Y-98527003D01*
X183174900Y-98384146D01*
X183174900Y-98288908D01*
X183127281Y-98146051D01*
X183032043Y-98050813D01*
X182936805Y-98003194D01*
X182746329Y-97955575D01*
X182603472Y-97955575D01*
X182412996Y-98003194D01*
X182317758Y-98050813D01*
X182222520Y-98146051D01*
X182174900Y-98288908D01*
X182174900Y-98384146D01*
X182222520Y-98527003D01*
X182270139Y-98574622D01*
X182270139Y-98955575D02*
X182222520Y-99003194D01*
X182174900Y-99098432D01*
X182174900Y-99336527D01*
X182222520Y-99431765D01*
X182270139Y-99479384D01*
X182365377Y-99527003D01*
X182460615Y-99527003D01*
X182603472Y-99479384D01*
X183174900Y-98907956D01*
X183174900Y-99527003D01*
X182270139Y-99907956D02*
X182222520Y-99955575D01*
X182174900Y-100050813D01*
X182174900Y-100288908D01*
X182222520Y-100384146D01*
X182270139Y-100431765D01*
X182365377Y-100479384D01*
X182460615Y-100479384D01*
X182603472Y-100431765D01*
X183174900Y-99860337D01*
X183174900Y-100479384D01*
X181936662Y-101876622D02*
X181984281Y-101829003D01*
X182031900Y-101686146D01*
X182031900Y-101590908D01*
X181984281Y-101448051D01*
X181889043Y-101352813D01*
X181793805Y-101305194D01*
X181603329Y-101257575D01*
X181460472Y-101257575D01*
X181269996Y-101305194D01*
X181174758Y-101352813D01*
X181079520Y-101448051D01*
X181031900Y-101590908D01*
X181031900Y-101686146D01*
X181079520Y-101829003D01*
X181127139Y-101876622D01*
X181127139Y-102257575D02*
X181079520Y-102305194D01*
X181031900Y-102400432D01*
X181031900Y-102638527D01*
X181079520Y-102733765D01*
X181127139Y-102781384D01*
X181222377Y-102829003D01*
X181317615Y-102829003D01*
X181460472Y-102781384D01*
X182031900Y-102209956D01*
X182031900Y-102829003D01*
X181031900Y-103162337D02*
X181031900Y-103781384D01*
X181412853Y-103448051D01*
X181412853Y-103590908D01*
X181460472Y-103686146D01*
X181508091Y-103733765D01*
X181603329Y-103781384D01*
X181841424Y-103781384D01*
X181936662Y-103733765D01*
X181984281Y-103686146D01*
X182031900Y-103590908D01*
X182031900Y-103305194D01*
X181984281Y-103209956D01*
X181936662Y-103162337D01*
X167585662Y-112925622D02*
X167633281Y-112878003D01*
X167680900Y-112735146D01*
X167680900Y-112639908D01*
X167633281Y-112497051D01*
X167538043Y-112401813D01*
X167442805Y-112354194D01*
X167252329Y-112306575D01*
X167109472Y-112306575D01*
X166918996Y-112354194D01*
X166823758Y-112401813D01*
X166728520Y-112497051D01*
X166680900Y-112639908D01*
X166680900Y-112735146D01*
X166728520Y-112878003D01*
X166776139Y-112925622D01*
X167680900Y-113878003D02*
X167680900Y-113306575D01*
X167680900Y-113592289D02*
X166680900Y-113592289D01*
X166823758Y-113497051D01*
X166918996Y-113401813D01*
X166966615Y-113306575D01*
X167680900Y-114354194D02*
X167680900Y-114544670D01*
X167633281Y-114639908D01*
X167585662Y-114687527D01*
X167442805Y-114782765D01*
X167252329Y-114830384D01*
X166871377Y-114830384D01*
X166776139Y-114782765D01*
X166728520Y-114735146D01*
X166680900Y-114639908D01*
X166680900Y-114449432D01*
X166728520Y-114354194D01*
X166776139Y-114306575D01*
X166871377Y-114258956D01*
X167109472Y-114258956D01*
X167204710Y-114306575D01*
X167252329Y-114354194D01*
X167299948Y-114449432D01*
X167299948Y-114639908D01*
X167252329Y-114735146D01*
X167204710Y-114782765D01*
X167109472Y-114830384D01*
X151107377Y-111766622D02*
X151154996Y-111814241D01*
X151297853Y-111861860D01*
X151393091Y-111861860D01*
X151535948Y-111814241D01*
X151631186Y-111719003D01*
X151678805Y-111623765D01*
X151726424Y-111433289D01*
X151726424Y-111290432D01*
X151678805Y-111099956D01*
X151631186Y-111004718D01*
X151535948Y-110909480D01*
X151393091Y-110861860D01*
X151297853Y-110861860D01*
X151154996Y-110909480D01*
X151107377Y-110957099D01*
X150154996Y-111861860D02*
X150726424Y-111861860D01*
X150440710Y-111861860D02*
X150440710Y-110861860D01*
X150535948Y-111004718D01*
X150631186Y-111099956D01*
X150726424Y-111147575D01*
X149774043Y-110957099D02*
X149726424Y-110909480D01*
X149631186Y-110861860D01*
X149393091Y-110861860D01*
X149297853Y-110909480D01*
X149250234Y-110957099D01*
X149202615Y-111052337D01*
X149202615Y-111147575D01*
X149250234Y-111290432D01*
X149821662Y-111861860D01*
X149202615Y-111861860D01*
X150599377Y-99701622D02*
X150646996Y-99749241D01*
X150789853Y-99796860D01*
X150885091Y-99796860D01*
X151027948Y-99749241D01*
X151123186Y-99654003D01*
X151170805Y-99558765D01*
X151218424Y-99368289D01*
X151218424Y-99225432D01*
X151170805Y-99034956D01*
X151123186Y-98939718D01*
X151027948Y-98844480D01*
X150885091Y-98796860D01*
X150789853Y-98796860D01*
X150646996Y-98844480D01*
X150599377Y-98892099D01*
X149646996Y-99796860D02*
X150218424Y-99796860D01*
X149932710Y-99796860D02*
X149932710Y-98796860D01*
X150027948Y-98939718D01*
X150123186Y-99034956D01*
X150218424Y-99082575D01*
X149313662Y-98796860D02*
X148694615Y-98796860D01*
X149027948Y-99177813D01*
X148885091Y-99177813D01*
X148789853Y-99225432D01*
X148742234Y-99273051D01*
X148694615Y-99368289D01*
X148694615Y-99606384D01*
X148742234Y-99701622D01*
X148789853Y-99749241D01*
X148885091Y-99796860D01*
X149170805Y-99796860D01*
X149266043Y-99749241D01*
X149313662Y-99701622D01*
X151456662Y-92478622D02*
X151504281Y-92431003D01*
X151551900Y-92288146D01*
X151551900Y-92192908D01*
X151504281Y-92050051D01*
X151409043Y-91954813D01*
X151313805Y-91907194D01*
X151123329Y-91859575D01*
X150980472Y-91859575D01*
X150789996Y-91907194D01*
X150694758Y-91954813D01*
X150599520Y-92050051D01*
X150551900Y-92192908D01*
X150551900Y-92288146D01*
X150599520Y-92431003D01*
X150647139Y-92478622D01*
X150885234Y-93335765D02*
X151551900Y-93335765D01*
X150504281Y-93097670D02*
X151218567Y-92859575D01*
X151218567Y-93478622D01*
X150551900Y-94335765D02*
X150551900Y-93859575D01*
X151028091Y-93811956D01*
X150980472Y-93859575D01*
X150932853Y-93954813D01*
X150932853Y-94192908D01*
X150980472Y-94288146D01*
X151028091Y-94335765D01*
X151123329Y-94383384D01*
X151361424Y-94383384D01*
X151456662Y-94335765D01*
X151504281Y-94288146D01*
X151551900Y-94192908D01*
X151551900Y-93954813D01*
X151504281Y-93859575D01*
X151456662Y-93811956D01*
X149424662Y-92478622D02*
X149472281Y-92431003D01*
X149519900Y-92288146D01*
X149519900Y-92192908D01*
X149472281Y-92050051D01*
X149377043Y-91954813D01*
X149281805Y-91907194D01*
X149091329Y-91859575D01*
X148948472Y-91859575D01*
X148757996Y-91907194D01*
X148662758Y-91954813D01*
X148567520Y-92050051D01*
X148519900Y-92192908D01*
X148519900Y-92288146D01*
X148567520Y-92431003D01*
X148615139Y-92478622D01*
X148853234Y-93335765D02*
X149519900Y-93335765D01*
X148472281Y-93097670D02*
X149186567Y-92859575D01*
X149186567Y-93478622D01*
X148853234Y-94288146D02*
X149519900Y-94288146D01*
X148472281Y-94050051D02*
X149186567Y-93811956D01*
X149186567Y-94431003D01*
X149551662Y-86128622D02*
X149599281Y-86081003D01*
X149646900Y-85938146D01*
X149646900Y-85842908D01*
X149599281Y-85700051D01*
X149504043Y-85604813D01*
X149408805Y-85557194D01*
X149218329Y-85509575D01*
X149075472Y-85509575D01*
X148884996Y-85557194D01*
X148789758Y-85604813D01*
X148694520Y-85700051D01*
X148646900Y-85842908D01*
X148646900Y-85938146D01*
X148694520Y-86081003D01*
X148742139Y-86128622D01*
X148980234Y-86985765D02*
X149646900Y-86985765D01*
X148599281Y-86747670D02*
X149313567Y-86509575D01*
X149313567Y-87128622D01*
X148646900Y-87414337D02*
X148646900Y-88033384D01*
X149027853Y-87700051D01*
X149027853Y-87842908D01*
X149075472Y-87938146D01*
X149123091Y-87985765D01*
X149218329Y-88033384D01*
X149456424Y-88033384D01*
X149551662Y-87985765D01*
X149599281Y-87938146D01*
X149646900Y-87842908D01*
X149646900Y-87557194D01*
X149599281Y-87461956D01*
X149551662Y-87414337D01*
X151342362Y-86014322D02*
X151389981Y-85966703D01*
X151437600Y-85823846D01*
X151437600Y-85728608D01*
X151389981Y-85585751D01*
X151294743Y-85490513D01*
X151199505Y-85442894D01*
X151009029Y-85395275D01*
X150866172Y-85395275D01*
X150675696Y-85442894D01*
X150580458Y-85490513D01*
X150485220Y-85585751D01*
X150437600Y-85728608D01*
X150437600Y-85823846D01*
X150485220Y-85966703D01*
X150532839Y-86014322D01*
X150770934Y-86871465D02*
X151437600Y-86871465D01*
X150389981Y-86633370D02*
X151104267Y-86395275D01*
X151104267Y-87014322D01*
X150437600Y-87823846D02*
X150437600Y-87633370D01*
X150485220Y-87538132D01*
X150532839Y-87490513D01*
X150675696Y-87395275D01*
X150866172Y-87347656D01*
X151247124Y-87347656D01*
X151342362Y-87395275D01*
X151389981Y-87442894D01*
X151437600Y-87538132D01*
X151437600Y-87728608D01*
X151389981Y-87823846D01*
X151342362Y-87871465D01*
X151247124Y-87919084D01*
X151009029Y-87919084D01*
X150913791Y-87871465D01*
X150866172Y-87823846D01*
X150818553Y-87728608D01*
X150818553Y-87538132D01*
X150866172Y-87442894D01*
X150913791Y-87395275D01*
X151009029Y-87347656D01*
X141423662Y-80032622D02*
X141471281Y-79985003D01*
X141518900Y-79842146D01*
X141518900Y-79746908D01*
X141471281Y-79604051D01*
X141376043Y-79508813D01*
X141280805Y-79461194D01*
X141090329Y-79413575D01*
X140947472Y-79413575D01*
X140756996Y-79461194D01*
X140661758Y-79508813D01*
X140566520Y-79604051D01*
X140518900Y-79746908D01*
X140518900Y-79842146D01*
X140566520Y-79985003D01*
X140614139Y-80032622D01*
X141518900Y-80985003D02*
X141518900Y-80413575D01*
X141518900Y-80699289D02*
X140518900Y-80699289D01*
X140661758Y-80604051D01*
X140756996Y-80508813D01*
X140804615Y-80413575D01*
X141518900Y-81937384D02*
X141518900Y-81365956D01*
X141518900Y-81651670D02*
X140518900Y-81651670D01*
X140661758Y-81556432D01*
X140756996Y-81461194D01*
X140804615Y-81365956D01*
X145614662Y-83334622D02*
X145662281Y-83287003D01*
X145709900Y-83144146D01*
X145709900Y-83048908D01*
X145662281Y-82906051D01*
X145567043Y-82810813D01*
X145471805Y-82763194D01*
X145281329Y-82715575D01*
X145138472Y-82715575D01*
X144947996Y-82763194D01*
X144852758Y-82810813D01*
X144757520Y-82906051D01*
X144709900Y-83048908D01*
X144709900Y-83144146D01*
X144757520Y-83287003D01*
X144805139Y-83334622D01*
X145043234Y-84191765D02*
X145709900Y-84191765D01*
X144662281Y-83953670D02*
X145376567Y-83715575D01*
X145376567Y-84334622D01*
X144805139Y-84667956D02*
X144757520Y-84715575D01*
X144709900Y-84810813D01*
X144709900Y-85048908D01*
X144757520Y-85144146D01*
X144805139Y-85191765D01*
X144900377Y-85239384D01*
X144995615Y-85239384D01*
X145138472Y-85191765D01*
X145709900Y-84620337D01*
X145709900Y-85239384D01*
X151075662Y-80921622D02*
X151123281Y-80874003D01*
X151170900Y-80731146D01*
X151170900Y-80635908D01*
X151123281Y-80493051D01*
X151028043Y-80397813D01*
X150932805Y-80350194D01*
X150742329Y-80302575D01*
X150599472Y-80302575D01*
X150408996Y-80350194D01*
X150313758Y-80397813D01*
X150218520Y-80493051D01*
X150170900Y-80635908D01*
X150170900Y-80731146D01*
X150218520Y-80874003D01*
X150266139Y-80921622D01*
X151170900Y-81874003D02*
X151170900Y-81302575D01*
X151170900Y-81588289D02*
X150170900Y-81588289D01*
X150313758Y-81493051D01*
X150408996Y-81397813D01*
X150456615Y-81302575D01*
X150170900Y-82207337D02*
X150170900Y-82874003D01*
X151170900Y-82445432D01*
X147392662Y-73936622D02*
X147440281Y-73889003D01*
X147487900Y-73746146D01*
X147487900Y-73650908D01*
X147440281Y-73508051D01*
X147345043Y-73412813D01*
X147249805Y-73365194D01*
X147059329Y-73317575D01*
X146916472Y-73317575D01*
X146725996Y-73365194D01*
X146630758Y-73412813D01*
X146535520Y-73508051D01*
X146487900Y-73650908D01*
X146487900Y-73746146D01*
X146535520Y-73889003D01*
X146583139Y-73936622D01*
X147487900Y-74889003D02*
X147487900Y-74317575D01*
X147487900Y-74603289D02*
X146487900Y-74603289D01*
X146630758Y-74508051D01*
X146725996Y-74412813D01*
X146773615Y-74317575D01*
X146487900Y-75746146D02*
X146487900Y-75555670D01*
X146535520Y-75460432D01*
X146583139Y-75412813D01*
X146725996Y-75317575D01*
X146916472Y-75269956D01*
X147297424Y-75269956D01*
X147392662Y-75317575D01*
X147440281Y-75365194D01*
X147487900Y-75460432D01*
X147487900Y-75650908D01*
X147440281Y-75746146D01*
X147392662Y-75793765D01*
X147297424Y-75841384D01*
X147059329Y-75841384D01*
X146964091Y-75793765D01*
X146916472Y-75746146D01*
X146868853Y-75650908D01*
X146868853Y-75460432D01*
X146916472Y-75365194D01*
X146964091Y-75317575D01*
X147059329Y-75269956D01*
X147329186Y-71507622D02*
X147376805Y-71555241D01*
X147519662Y-71602860D01*
X147614900Y-71602860D01*
X147757758Y-71555241D01*
X147852996Y-71460003D01*
X147900615Y-71364765D01*
X147948234Y-71174289D01*
X147948234Y-71031432D01*
X147900615Y-70840956D01*
X147852996Y-70745718D01*
X147757758Y-70650480D01*
X147614900Y-70602860D01*
X147519662Y-70602860D01*
X147376805Y-70650480D01*
X147329186Y-70698099D01*
X146852996Y-71602860D02*
X146662520Y-71602860D01*
X146567281Y-71555241D01*
X146519662Y-71507622D01*
X146424424Y-71364765D01*
X146376805Y-71174289D01*
X146376805Y-70793337D01*
X146424424Y-70698099D01*
X146472043Y-70650480D01*
X146567281Y-70602860D01*
X146757758Y-70602860D01*
X146852996Y-70650480D01*
X146900615Y-70698099D01*
X146948234Y-70793337D01*
X146948234Y-71031432D01*
X146900615Y-71126670D01*
X146852996Y-71174289D01*
X146757758Y-71221908D01*
X146567281Y-71221908D01*
X146472043Y-71174289D01*
X146424424Y-71126670D01*
X146376805Y-71031432D01*
X193446091Y-105162765D02*
X193493710Y-105305622D01*
X193541329Y-105353241D01*
X193636567Y-105400860D01*
X193779424Y-105400860D01*
X193874662Y-105353241D01*
X193922281Y-105305622D01*
X193969900Y-105210384D01*
X193969900Y-104829432D01*
X192969900Y-104829432D01*
X192969900Y-105162765D01*
X193017520Y-105258003D01*
X193065139Y-105305622D01*
X193160377Y-105353241D01*
X193255615Y-105353241D01*
X193350853Y-105305622D01*
X193398472Y-105258003D01*
X193446091Y-105162765D01*
X193446091Y-104829432D01*
X192969900Y-105686575D02*
X192969900Y-106258003D01*
X193969900Y-105972289D02*
X192969900Y-105972289D01*
X193969900Y-107115146D02*
X193969900Y-106543718D01*
X193969900Y-106829432D02*
X192969900Y-106829432D01*
X193112758Y-106734194D01*
X193207996Y-106638956D01*
X193255615Y-106543718D01*
X145614662Y-88763813D02*
X145662281Y-88716194D01*
X145709900Y-88573337D01*
X145709900Y-88478099D01*
X145662281Y-88335241D01*
X145567043Y-88240003D01*
X145471805Y-88192384D01*
X145281329Y-88144765D01*
X145138472Y-88144765D01*
X144947996Y-88192384D01*
X144852758Y-88240003D01*
X144757520Y-88335241D01*
X144709900Y-88478099D01*
X144709900Y-88573337D01*
X144757520Y-88716194D01*
X144805139Y-88763813D01*
X145043234Y-89620956D02*
X145709900Y-89620956D01*
X144662281Y-89382860D02*
X145376567Y-89144765D01*
X145376567Y-89763813D01*
X223711758Y-107766099D02*
X223806996Y-107718480D01*
X223902234Y-107623241D01*
X224045091Y-107480384D01*
X224140329Y-107432765D01*
X224235567Y-107432765D01*
X224187948Y-107670860D02*
X224283186Y-107623241D01*
X224378424Y-107528003D01*
X224426043Y-107337527D01*
X224426043Y-107004194D01*
X224378424Y-106813718D01*
X224283186Y-106718480D01*
X224187948Y-106670860D01*
X223997472Y-106670860D01*
X223902234Y-106718480D01*
X223806996Y-106813718D01*
X223759377Y-107004194D01*
X223759377Y-107337527D01*
X223806996Y-107528003D01*
X223902234Y-107623241D01*
X223997472Y-107670860D01*
X224187948Y-107670860D01*
X222806996Y-107670860D02*
X223378424Y-107670860D01*
X223092710Y-107670860D02*
X223092710Y-106670860D01*
X223187948Y-106813718D01*
X223283186Y-106908956D01*
X223378424Y-106956575D01*
D14*
X221020900Y-102670765D02*
X220020900Y-102670765D01*
X221020900Y-103718384D02*
X220544710Y-103385051D01*
X221020900Y-103146956D02*
X220020900Y-103146956D01*
X220020900Y-103527908D01*
X220068520Y-103623146D01*
X220116139Y-103670765D01*
X220211377Y-103718384D01*
X220354234Y-103718384D01*
X220449472Y-103670765D01*
X220497091Y-103623146D01*
X220544710Y-103527908D01*
X220544710Y-103146956D01*
X221020900Y-104623146D02*
X221020900Y-104146956D01*
X220020900Y-104146956D01*
X221020900Y-104956480D02*
X220020900Y-104956480D01*
X220735186Y-105289813D01*
X220020900Y-105623146D01*
X221020900Y-105623146D01*
X221020900Y-106575527D02*
X221020900Y-106099337D01*
X220020900Y-106099337D01*
X220020900Y-107385051D02*
X220020900Y-106908860D01*
X220497091Y-106861241D01*
X220449472Y-106908860D01*
X220401853Y-107004099D01*
X220401853Y-107242194D01*
X220449472Y-107337432D01*
X220497091Y-107385051D01*
X220592329Y-107432670D01*
X220830424Y-107432670D01*
X220925662Y-107385051D01*
X220973281Y-107337432D01*
X221020900Y-107242194D01*
X221020900Y-107004099D01*
X220973281Y-106908860D01*
X220925662Y-106861241D01*
X220116139Y-107813622D02*
X220068520Y-107861241D01*
X220020900Y-107956480D01*
X220020900Y-108194575D01*
X220068520Y-108289813D01*
X220116139Y-108337432D01*
X220211377Y-108385051D01*
X220306615Y-108385051D01*
X220449472Y-108337432D01*
X221020900Y-107766003D01*
X221020900Y-108385051D01*
X220020900Y-109004099D02*
X220020900Y-109099337D01*
X220068520Y-109194575D01*
X220116139Y-109242194D01*
X220211377Y-109289813D01*
X220401853Y-109337432D01*
X220639948Y-109337432D01*
X220830424Y-109289813D01*
X220925662Y-109242194D01*
X220973281Y-109194575D01*
X221020900Y-109099337D01*
X221020900Y-109004099D01*
X220973281Y-108908860D01*
X220925662Y-108861241D01*
X220830424Y-108813622D01*
X220639948Y-108766003D01*
X220401853Y-108766003D01*
X220211377Y-108813622D01*
X220116139Y-108861241D01*
X220068520Y-108908860D01*
X220020900Y-109004099D01*
X220020900Y-109670765D02*
X220020900Y-110289813D01*
X220401853Y-109956480D01*
X220401853Y-110099337D01*
X220449472Y-110194575D01*
X220497091Y-110242194D01*
X220592329Y-110289813D01*
X220830424Y-110289813D01*
X220925662Y-110242194D01*
X220973281Y-110194575D01*
X221020900Y-110099337D01*
X221020900Y-109813622D01*
X220973281Y-109718384D01*
X220925662Y-109670765D01*
D10*
X205114139Y-68642241D02*
X205066520Y-68547003D01*
X204971281Y-68451765D01*
X204828424Y-68308908D01*
X204780805Y-68213670D01*
X204780805Y-68118432D01*
X205018900Y-68166051D02*
X204971281Y-68070813D01*
X204876043Y-67975575D01*
X204685567Y-67927956D01*
X204352234Y-67927956D01*
X204161758Y-67975575D01*
X204066520Y-68070813D01*
X204018900Y-68166051D01*
X204018900Y-68356527D01*
X204066520Y-68451765D01*
X204161758Y-68547003D01*
X204352234Y-68594622D01*
X204685567Y-68594622D01*
X204876043Y-68547003D01*
X204971281Y-68451765D01*
X205018900Y-68356527D01*
X205018900Y-68166051D01*
X204352234Y-69451765D02*
X205018900Y-69451765D01*
X203971281Y-69213670D02*
X204685567Y-68975575D01*
X204685567Y-69594622D01*
D14*
X208908281Y-65586718D02*
X208955900Y-65729575D01*
X208955900Y-65967670D01*
X208908281Y-66062908D01*
X208860662Y-66110527D01*
X208765424Y-66158146D01*
X208670186Y-66158146D01*
X208574948Y-66110527D01*
X208527329Y-66062908D01*
X208479710Y-65967670D01*
X208432091Y-65777194D01*
X208384472Y-65681956D01*
X208336853Y-65634337D01*
X208241615Y-65586718D01*
X208146377Y-65586718D01*
X208051139Y-65634337D01*
X208003520Y-65681956D01*
X207955900Y-65777194D01*
X207955900Y-66015289D01*
X208003520Y-66158146D01*
X208955900Y-66586718D02*
X207955900Y-66586718D01*
X208051139Y-67015289D02*
X208003520Y-67062908D01*
X207955900Y-67158146D01*
X207955900Y-67396241D01*
X208003520Y-67491480D01*
X208051139Y-67539099D01*
X208146377Y-67586718D01*
X208241615Y-67586718D01*
X208384472Y-67539099D01*
X208955900Y-66967670D01*
X208955900Y-67586718D01*
X207955900Y-67920051D02*
X207955900Y-68539099D01*
X208336853Y-68205765D01*
X208336853Y-68348622D01*
X208384472Y-68443860D01*
X208432091Y-68491480D01*
X208527329Y-68539099D01*
X208765424Y-68539099D01*
X208860662Y-68491480D01*
X208908281Y-68443860D01*
X208955900Y-68348622D01*
X208955900Y-68062908D01*
X208908281Y-67967670D01*
X208860662Y-67920051D01*
X208955900Y-69491480D02*
X208955900Y-68920051D01*
X208955900Y-69205765D02*
X207955900Y-69205765D01*
X208098758Y-69110527D01*
X208193996Y-69015289D01*
X208241615Y-68920051D01*
X208955900Y-69967670D02*
X208955900Y-70158146D01*
X208908281Y-70253384D01*
X208860662Y-70301003D01*
X208717805Y-70396241D01*
X208527329Y-70443860D01*
X208146377Y-70443860D01*
X208051139Y-70396241D01*
X208003520Y-70348622D01*
X207955900Y-70253384D01*
X207955900Y-70062908D01*
X208003520Y-69967670D01*
X208051139Y-69920051D01*
X208146377Y-69872432D01*
X208384472Y-69872432D01*
X208479710Y-69920051D01*
X208527329Y-69967670D01*
X208574948Y-70062908D01*
X208574948Y-70253384D01*
X208527329Y-70348622D01*
X208479710Y-70396241D01*
X208384472Y-70443860D01*
X208955900Y-70872432D02*
X207955900Y-70872432D01*
X207955900Y-71110527D01*
X208003520Y-71253384D01*
X208098758Y-71348622D01*
X208193996Y-71396241D01*
X208384472Y-71443860D01*
X208527329Y-71443860D01*
X208717805Y-71396241D01*
X208813043Y-71348622D01*
X208908281Y-71253384D01*
X208955900Y-71110527D01*
X208955900Y-70872432D01*
X208908281Y-71824813D02*
X208955900Y-71967670D01*
X208955900Y-72205765D01*
X208908281Y-72301003D01*
X208860662Y-72348622D01*
X208765424Y-72396241D01*
X208670186Y-72396241D01*
X208574948Y-72348622D01*
X208527329Y-72301003D01*
X208479710Y-72205765D01*
X208432091Y-72015289D01*
X208384472Y-71920051D01*
X208336853Y-71872432D01*
X208241615Y-71824813D01*
X208146377Y-71824813D01*
X208051139Y-71872432D01*
X208003520Y-71920051D01*
X207955900Y-72015289D01*
X207955900Y-72253384D01*
X208003520Y-72396241D01*
D10*
X218353900Y-79746813D02*
X217877710Y-79413480D01*
X218353900Y-79175384D02*
X217353900Y-79175384D01*
X217353900Y-79556337D01*
X217401520Y-79651575D01*
X217449139Y-79699194D01*
X217544377Y-79746813D01*
X217687234Y-79746813D01*
X217782472Y-79699194D01*
X217830091Y-79651575D01*
X217877710Y-79556337D01*
X217877710Y-79175384D01*
X217449139Y-80127765D02*
X217401520Y-80175384D01*
X217353900Y-80270622D01*
X217353900Y-80508718D01*
X217401520Y-80603956D01*
X217449139Y-80651575D01*
X217544377Y-80699194D01*
X217639615Y-80699194D01*
X217782472Y-80651575D01*
X218353900Y-80080146D01*
X218353900Y-80699194D01*
X215813900Y-99304813D02*
X215337710Y-98971480D01*
X215813900Y-98733384D02*
X214813900Y-98733384D01*
X214813900Y-99114337D01*
X214861520Y-99209575D01*
X214909139Y-99257194D01*
X215004377Y-99304813D01*
X215147234Y-99304813D01*
X215242472Y-99257194D01*
X215290091Y-99209575D01*
X215337710Y-99114337D01*
X215337710Y-98733384D01*
X214813900Y-100209575D02*
X214813900Y-99733384D01*
X215290091Y-99685765D01*
X215242472Y-99733384D01*
X215194853Y-99828622D01*
X215194853Y-100066718D01*
X215242472Y-100161956D01*
X215290091Y-100209575D01*
X215385329Y-100257194D01*
X215623424Y-100257194D01*
X215718662Y-100209575D01*
X215766281Y-100161956D01*
X215813900Y-100066718D01*
X215813900Y-99828622D01*
X215766281Y-99733384D01*
X215718662Y-99685765D01*
X158600377Y-76936860D02*
X158933710Y-76460670D01*
X159171805Y-76936860D02*
X159171805Y-75936860D01*
X158790853Y-75936860D01*
X158695615Y-75984480D01*
X158647996Y-76032099D01*
X158600377Y-76127337D01*
X158600377Y-76270194D01*
X158647996Y-76365432D01*
X158695615Y-76413051D01*
X158790853Y-76460670D01*
X159171805Y-76460670D01*
X157647996Y-76936860D02*
X158219424Y-76936860D01*
X157933710Y-76936860D02*
X157933710Y-75936860D01*
X158028948Y-76079718D01*
X158124186Y-76174956D01*
X158219424Y-76222575D01*
X156695615Y-76936860D02*
X157267043Y-76936860D01*
X156981329Y-76936860D02*
X156981329Y-75936860D01*
X157076567Y-76079718D01*
X157171805Y-76174956D01*
X157267043Y-76222575D01*
X158727377Y-88366860D02*
X159060710Y-87890670D01*
X159298805Y-88366860D02*
X159298805Y-87366860D01*
X158917853Y-87366860D01*
X158822615Y-87414480D01*
X158774996Y-87462099D01*
X158727377Y-87557337D01*
X158727377Y-87700194D01*
X158774996Y-87795432D01*
X158822615Y-87843051D01*
X158917853Y-87890670D01*
X159298805Y-87890670D01*
X157774996Y-88366860D02*
X158346424Y-88366860D01*
X158060710Y-88366860D02*
X158060710Y-87366860D01*
X158155948Y-87509718D01*
X158251186Y-87604956D01*
X158346424Y-87652575D01*
X157394043Y-87462099D02*
X157346424Y-87414480D01*
X157251186Y-87366860D01*
X157013091Y-87366860D01*
X156917853Y-87414480D01*
X156870234Y-87462099D01*
X156822615Y-87557337D01*
X156822615Y-87652575D01*
X156870234Y-87795432D01*
X157441662Y-88366860D01*
X156822615Y-88366860D01*
X158473377Y-99796860D02*
X158806710Y-99320670D01*
X159044805Y-99796860D02*
X159044805Y-98796860D01*
X158663853Y-98796860D01*
X158568615Y-98844480D01*
X158520996Y-98892099D01*
X158473377Y-98987337D01*
X158473377Y-99130194D01*
X158520996Y-99225432D01*
X158568615Y-99273051D01*
X158663853Y-99320670D01*
X159044805Y-99320670D01*
X157520996Y-99796860D02*
X158092424Y-99796860D01*
X157806710Y-99796860D02*
X157806710Y-98796860D01*
X157901948Y-98939718D01*
X157997186Y-99034956D01*
X158092424Y-99082575D01*
X157187662Y-98796860D02*
X156568615Y-98796860D01*
X156901948Y-99177813D01*
X156759091Y-99177813D01*
X156663853Y-99225432D01*
X156616234Y-99273051D01*
X156568615Y-99368289D01*
X156568615Y-99606384D01*
X156616234Y-99701622D01*
X156663853Y-99749241D01*
X156759091Y-99796860D01*
X157044805Y-99796860D01*
X157140043Y-99749241D01*
X157187662Y-99701622D01*
X156377900Y-108099622D02*
X155901710Y-107766289D01*
X156377900Y-107528194D02*
X155377900Y-107528194D01*
X155377900Y-107909146D01*
X155425520Y-108004384D01*
X155473139Y-108052003D01*
X155568377Y-108099622D01*
X155711234Y-108099622D01*
X155806472Y-108052003D01*
X155854091Y-108004384D01*
X155901710Y-107909146D01*
X155901710Y-107528194D01*
X156377900Y-109052003D02*
X156377900Y-108480575D01*
X156377900Y-108766289D02*
X155377900Y-108766289D01*
X155520758Y-108671051D01*
X155615996Y-108575813D01*
X155663615Y-108480575D01*
X155711234Y-109909146D02*
X156377900Y-109909146D01*
X155330281Y-109671051D02*
X156044567Y-109432956D01*
X156044567Y-110052003D01*
X187302377Y-105511860D02*
X187635710Y-105035670D01*
X187873805Y-105511860D02*
X187873805Y-104511860D01*
X187492853Y-104511860D01*
X187397615Y-104559480D01*
X187349996Y-104607099D01*
X187302377Y-104702337D01*
X187302377Y-104845194D01*
X187349996Y-104940432D01*
X187397615Y-104988051D01*
X187492853Y-105035670D01*
X187873805Y-105035670D01*
X186349996Y-105511860D02*
X186921424Y-105511860D01*
X186635710Y-105511860D02*
X186635710Y-104511860D01*
X186730948Y-104654718D01*
X186826186Y-104749956D01*
X186921424Y-104797575D01*
X185445234Y-104511860D02*
X185921424Y-104511860D01*
X185969043Y-104988051D01*
X185921424Y-104940432D01*
X185826186Y-104892813D01*
X185588091Y-104892813D01*
X185492853Y-104940432D01*
X185445234Y-104988051D01*
X185397615Y-105083289D01*
X185397615Y-105321384D01*
X185445234Y-105416622D01*
X185492853Y-105464241D01*
X185588091Y-105511860D01*
X185826186Y-105511860D01*
X185921424Y-105464241D01*
X185969043Y-105416622D01*
X213654900Y-79397622D02*
X213178710Y-79064289D01*
X213654900Y-78826194D02*
X212654900Y-78826194D01*
X212654900Y-79207146D01*
X212702520Y-79302384D01*
X212750139Y-79350003D01*
X212845377Y-79397622D01*
X212988234Y-79397622D01*
X213083472Y-79350003D01*
X213131091Y-79302384D01*
X213178710Y-79207146D01*
X213178710Y-78826194D01*
X213654900Y-80350003D02*
X213654900Y-79778575D01*
X213654900Y-80064289D02*
X212654900Y-80064289D01*
X212797758Y-79969051D01*
X212892996Y-79873813D01*
X212940615Y-79778575D01*
X212654900Y-81207146D02*
X212654900Y-81016670D01*
X212702520Y-80921432D01*
X212750139Y-80873813D01*
X212892996Y-80778575D01*
X213083472Y-80730956D01*
X213464424Y-80730956D01*
X213559662Y-80778575D01*
X213607281Y-80826194D01*
X213654900Y-80921432D01*
X213654900Y-81111908D01*
X213607281Y-81207146D01*
X213559662Y-81254765D01*
X213464424Y-81302384D01*
X213226329Y-81302384D01*
X213131091Y-81254765D01*
X213083472Y-81207146D01*
X213035853Y-81111908D01*
X213035853Y-80921432D01*
X213083472Y-80826194D01*
X213131091Y-80778575D01*
X213226329Y-80730956D01*
X207431900Y-79651622D02*
X206955710Y-79318289D01*
X207431900Y-79080194D02*
X206431900Y-79080194D01*
X206431900Y-79461146D01*
X206479520Y-79556384D01*
X206527139Y-79604003D01*
X206622377Y-79651622D01*
X206765234Y-79651622D01*
X206860472Y-79604003D01*
X206908091Y-79556384D01*
X206955710Y-79461146D01*
X206955710Y-79080194D01*
X207431900Y-80604003D02*
X207431900Y-80032575D01*
X207431900Y-80318289D02*
X206431900Y-80318289D01*
X206574758Y-80223051D01*
X206669996Y-80127813D01*
X206717615Y-80032575D01*
X206431900Y-80937337D02*
X206431900Y-81604003D01*
X207431900Y-81175432D01*
X215432900Y-91589622D02*
X214956710Y-91256289D01*
X215432900Y-91018194D02*
X214432900Y-91018194D01*
X214432900Y-91399146D01*
X214480520Y-91494384D01*
X214528139Y-91542003D01*
X214623377Y-91589622D01*
X214766234Y-91589622D01*
X214861472Y-91542003D01*
X214909091Y-91494384D01*
X214956710Y-91399146D01*
X214956710Y-91018194D01*
X215432900Y-92542003D02*
X215432900Y-91970575D01*
X215432900Y-92256289D02*
X214432900Y-92256289D01*
X214575758Y-92161051D01*
X214670996Y-92065813D01*
X214718615Y-91970575D01*
X214861472Y-93113432D02*
X214813853Y-93018194D01*
X214766234Y-92970575D01*
X214670996Y-92922956D01*
X214623377Y-92922956D01*
X214528139Y-92970575D01*
X214480520Y-93018194D01*
X214432900Y-93113432D01*
X214432900Y-93303908D01*
X214480520Y-93399146D01*
X214528139Y-93446765D01*
X214623377Y-93494384D01*
X214670996Y-93494384D01*
X214766234Y-93446765D01*
X214813853Y-93399146D01*
X214861472Y-93303908D01*
X214861472Y-93113432D01*
X214909091Y-93018194D01*
X214956710Y-92970575D01*
X215051948Y-92922956D01*
X215242424Y-92922956D01*
X215337662Y-92970575D01*
X215385281Y-93018194D01*
X215432900Y-93113432D01*
X215432900Y-93303908D01*
X215385281Y-93399146D01*
X215337662Y-93446765D01*
X215242424Y-93494384D01*
X215051948Y-93494384D01*
X214956710Y-93446765D01*
X214909091Y-93399146D01*
X214861472Y-93303908D01*
X188064377Y-101828860D02*
X188397710Y-101352670D01*
X188635805Y-101828860D02*
X188635805Y-100828860D01*
X188254853Y-100828860D01*
X188159615Y-100876480D01*
X188111996Y-100924099D01*
X188064377Y-101019337D01*
X188064377Y-101162194D01*
X188111996Y-101257432D01*
X188159615Y-101305051D01*
X188254853Y-101352670D01*
X188635805Y-101352670D01*
X187683424Y-100924099D02*
X187635805Y-100876480D01*
X187540567Y-100828860D01*
X187302472Y-100828860D01*
X187207234Y-100876480D01*
X187159615Y-100924099D01*
X187111996Y-101019337D01*
X187111996Y-101114575D01*
X187159615Y-101257432D01*
X187731043Y-101828860D01*
X187111996Y-101828860D01*
X186492948Y-100828860D02*
X186397710Y-100828860D01*
X186302472Y-100876480D01*
X186254853Y-100924099D01*
X186207234Y-101019337D01*
X186159615Y-101209813D01*
X186159615Y-101447908D01*
X186207234Y-101638384D01*
X186254853Y-101733622D01*
X186302472Y-101781241D01*
X186397710Y-101828860D01*
X186492948Y-101828860D01*
X186588186Y-101781241D01*
X186635805Y-101733622D01*
X186683424Y-101638384D01*
X186731043Y-101447908D01*
X186731043Y-101209813D01*
X186683424Y-101019337D01*
X186635805Y-100924099D01*
X186588186Y-100876480D01*
X186492948Y-100828860D01*
X155869900Y-70126622D02*
X155393710Y-69793289D01*
X155869900Y-69555194D02*
X154869900Y-69555194D01*
X154869900Y-69936146D01*
X154917520Y-70031384D01*
X154965139Y-70079003D01*
X155060377Y-70126622D01*
X155203234Y-70126622D01*
X155298472Y-70079003D01*
X155346091Y-70031384D01*
X155393710Y-69936146D01*
X155393710Y-69555194D01*
X154965139Y-70507575D02*
X154917520Y-70555194D01*
X154869900Y-70650432D01*
X154869900Y-70888527D01*
X154917520Y-70983765D01*
X154965139Y-71031384D01*
X155060377Y-71079003D01*
X155155615Y-71079003D01*
X155298472Y-71031384D01*
X155869900Y-70459956D01*
X155869900Y-71079003D01*
X154869900Y-71936146D02*
X154869900Y-71745670D01*
X154917520Y-71650432D01*
X154965139Y-71602813D01*
X155107996Y-71507575D01*
X155298472Y-71459956D01*
X155679424Y-71459956D01*
X155774662Y-71507575D01*
X155822281Y-71555194D01*
X155869900Y-71650432D01*
X155869900Y-71840908D01*
X155822281Y-71936146D01*
X155774662Y-71983765D01*
X155679424Y-72031384D01*
X155441329Y-72031384D01*
X155346091Y-71983765D01*
X155298472Y-71936146D01*
X155250853Y-71840908D01*
X155250853Y-71650432D01*
X155298472Y-71555194D01*
X155346091Y-71507575D01*
X155441329Y-71459956D01*
X167045900Y-73936622D02*
X166569710Y-73603289D01*
X167045900Y-73365194D02*
X166045900Y-73365194D01*
X166045900Y-73746146D01*
X166093520Y-73841384D01*
X166141139Y-73889003D01*
X166236377Y-73936622D01*
X166379234Y-73936622D01*
X166474472Y-73889003D01*
X166522091Y-73841384D01*
X166569710Y-73746146D01*
X166569710Y-73365194D01*
X166141139Y-74317575D02*
X166093520Y-74365194D01*
X166045900Y-74460432D01*
X166045900Y-74698527D01*
X166093520Y-74793765D01*
X166141139Y-74841384D01*
X166236377Y-74889003D01*
X166331615Y-74889003D01*
X166474472Y-74841384D01*
X167045900Y-74269956D01*
X167045900Y-74889003D01*
X166474472Y-75460432D02*
X166426853Y-75365194D01*
X166379234Y-75317575D01*
X166283996Y-75269956D01*
X166236377Y-75269956D01*
X166141139Y-75317575D01*
X166093520Y-75365194D01*
X166045900Y-75460432D01*
X166045900Y-75650908D01*
X166093520Y-75746146D01*
X166141139Y-75793765D01*
X166236377Y-75841384D01*
X166283996Y-75841384D01*
X166379234Y-75793765D01*
X166426853Y-75746146D01*
X166474472Y-75650908D01*
X166474472Y-75460432D01*
X166522091Y-75365194D01*
X166569710Y-75317575D01*
X166664948Y-75269956D01*
X166855424Y-75269956D01*
X166950662Y-75317575D01*
X166998281Y-75365194D01*
X167045900Y-75460432D01*
X167045900Y-75650908D01*
X166998281Y-75746146D01*
X166950662Y-75793765D01*
X166855424Y-75841384D01*
X166664948Y-75841384D01*
X166569710Y-75793765D01*
X166522091Y-75746146D01*
X166474472Y-75650908D01*
X155869900Y-81683622D02*
X155393710Y-81350289D01*
X155869900Y-81112194D02*
X154869900Y-81112194D01*
X154869900Y-81493146D01*
X154917520Y-81588384D01*
X154965139Y-81636003D01*
X155060377Y-81683622D01*
X155203234Y-81683622D01*
X155298472Y-81636003D01*
X155346091Y-81588384D01*
X155393710Y-81493146D01*
X155393710Y-81112194D01*
X154965139Y-82064575D02*
X154917520Y-82112194D01*
X154869900Y-82207432D01*
X154869900Y-82445527D01*
X154917520Y-82540765D01*
X154965139Y-82588384D01*
X155060377Y-82636003D01*
X155155615Y-82636003D01*
X155298472Y-82588384D01*
X155869900Y-82016956D01*
X155869900Y-82636003D01*
X155869900Y-83112194D02*
X155869900Y-83302670D01*
X155822281Y-83397908D01*
X155774662Y-83445527D01*
X155631805Y-83540765D01*
X155441329Y-83588384D01*
X155060377Y-83588384D01*
X154965139Y-83540765D01*
X154917520Y-83493146D01*
X154869900Y-83397908D01*
X154869900Y-83207432D01*
X154917520Y-83112194D01*
X154965139Y-83064575D01*
X155060377Y-83016956D01*
X155298472Y-83016956D01*
X155393710Y-83064575D01*
X155441329Y-83112194D01*
X155488948Y-83207432D01*
X155488948Y-83397908D01*
X155441329Y-83493146D01*
X155393710Y-83540765D01*
X155298472Y-83588384D01*
X167045900Y-85366622D02*
X166569710Y-85033289D01*
X167045900Y-84795194D02*
X166045900Y-84795194D01*
X166045900Y-85176146D01*
X166093520Y-85271384D01*
X166141139Y-85319003D01*
X166236377Y-85366622D01*
X166379234Y-85366622D01*
X166474472Y-85319003D01*
X166522091Y-85271384D01*
X166569710Y-85176146D01*
X166569710Y-84795194D01*
X166045900Y-85699956D02*
X166045900Y-86319003D01*
X166426853Y-85985670D01*
X166426853Y-86128527D01*
X166474472Y-86223765D01*
X166522091Y-86271384D01*
X166617329Y-86319003D01*
X166855424Y-86319003D01*
X166950662Y-86271384D01*
X166998281Y-86223765D01*
X167045900Y-86128527D01*
X167045900Y-85842813D01*
X166998281Y-85747575D01*
X166950662Y-85699956D01*
X167045900Y-87271384D02*
X167045900Y-86699956D01*
X167045900Y-86985670D02*
X166045900Y-86985670D01*
X166188758Y-86890432D01*
X166283996Y-86795194D01*
X166331615Y-86699956D01*
X155869900Y-92986622D02*
X155393710Y-92653289D01*
X155869900Y-92415194D02*
X154869900Y-92415194D01*
X154869900Y-92796146D01*
X154917520Y-92891384D01*
X154965139Y-92939003D01*
X155060377Y-92986622D01*
X155203234Y-92986622D01*
X155298472Y-92939003D01*
X155346091Y-92891384D01*
X155393710Y-92796146D01*
X155393710Y-92415194D01*
X154869900Y-93319956D02*
X154869900Y-93939003D01*
X155250853Y-93605670D01*
X155250853Y-93748527D01*
X155298472Y-93843765D01*
X155346091Y-93891384D01*
X155441329Y-93939003D01*
X155679424Y-93939003D01*
X155774662Y-93891384D01*
X155822281Y-93843765D01*
X155869900Y-93748527D01*
X155869900Y-93462813D01*
X155822281Y-93367575D01*
X155774662Y-93319956D01*
X154965139Y-94319956D02*
X154917520Y-94367575D01*
X154869900Y-94462813D01*
X154869900Y-94700908D01*
X154917520Y-94796146D01*
X154965139Y-94843765D01*
X155060377Y-94891384D01*
X155155615Y-94891384D01*
X155298472Y-94843765D01*
X155869900Y-94272337D01*
X155869900Y-94891384D01*
X167172900Y-96796622D02*
X166696710Y-96463289D01*
X167172900Y-96225194D02*
X166172900Y-96225194D01*
X166172900Y-96606146D01*
X166220520Y-96701384D01*
X166268139Y-96749003D01*
X166363377Y-96796622D01*
X166506234Y-96796622D01*
X166601472Y-96749003D01*
X166649091Y-96701384D01*
X166696710Y-96606146D01*
X166696710Y-96225194D01*
X166172900Y-97129956D02*
X166172900Y-97749003D01*
X166553853Y-97415670D01*
X166553853Y-97558527D01*
X166601472Y-97653765D01*
X166649091Y-97701384D01*
X166744329Y-97749003D01*
X166982424Y-97749003D01*
X167077662Y-97701384D01*
X167125281Y-97653765D01*
X167172900Y-97558527D01*
X167172900Y-97272813D01*
X167125281Y-97177575D01*
X167077662Y-97129956D01*
X166506234Y-98606146D02*
X167172900Y-98606146D01*
X166125281Y-98368051D02*
X166839567Y-98129956D01*
X166839567Y-98749003D01*
X159679900Y-103146622D02*
X159203710Y-102813289D01*
X159679900Y-102575194D02*
X158679900Y-102575194D01*
X158679900Y-102956146D01*
X158727520Y-103051384D01*
X158775139Y-103099003D01*
X158870377Y-103146622D01*
X159013234Y-103146622D01*
X159108472Y-103099003D01*
X159156091Y-103051384D01*
X159203710Y-102956146D01*
X159203710Y-102575194D01*
X158679900Y-103479956D02*
X158679900Y-104099003D01*
X159060853Y-103765670D01*
X159060853Y-103908527D01*
X159108472Y-104003765D01*
X159156091Y-104051384D01*
X159251329Y-104099003D01*
X159489424Y-104099003D01*
X159584662Y-104051384D01*
X159632281Y-104003765D01*
X159679900Y-103908527D01*
X159679900Y-103622813D01*
X159632281Y-103527575D01*
X159584662Y-103479956D01*
X158679900Y-105003765D02*
X158679900Y-104527575D01*
X159156091Y-104479956D01*
X159108472Y-104527575D01*
X159060853Y-104622813D01*
X159060853Y-104860908D01*
X159108472Y-104956146D01*
X159156091Y-105003765D01*
X159251329Y-105051384D01*
X159489424Y-105051384D01*
X159584662Y-105003765D01*
X159632281Y-104956146D01*
X159679900Y-104860908D01*
X159679900Y-104622813D01*
X159632281Y-104527575D01*
X159584662Y-104479956D01*
X167045900Y-108226622D02*
X166569710Y-107893289D01*
X167045900Y-107655194D02*
X166045900Y-107655194D01*
X166045900Y-108036146D01*
X166093520Y-108131384D01*
X166141139Y-108179003D01*
X166236377Y-108226622D01*
X166379234Y-108226622D01*
X166474472Y-108179003D01*
X166522091Y-108131384D01*
X166569710Y-108036146D01*
X166569710Y-107655194D01*
X166045900Y-108559956D02*
X166045900Y-109179003D01*
X166426853Y-108845670D01*
X166426853Y-108988527D01*
X166474472Y-109083765D01*
X166522091Y-109131384D01*
X166617329Y-109179003D01*
X166855424Y-109179003D01*
X166950662Y-109131384D01*
X166998281Y-109083765D01*
X167045900Y-108988527D01*
X167045900Y-108702813D01*
X166998281Y-108607575D01*
X166950662Y-108559956D01*
X166045900Y-109512337D02*
X166045900Y-110179003D01*
X167045900Y-109750432D01*
X153837900Y-65808622D02*
X153361710Y-65475289D01*
X153837900Y-65237194D02*
X152837900Y-65237194D01*
X152837900Y-65618146D01*
X152885520Y-65713384D01*
X152933139Y-65761003D01*
X153028377Y-65808622D01*
X153171234Y-65808622D01*
X153266472Y-65761003D01*
X153314091Y-65713384D01*
X153361710Y-65618146D01*
X153361710Y-65237194D01*
X153171234Y-66665765D02*
X153837900Y-66665765D01*
X152790281Y-66427670D02*
X153504567Y-66189575D01*
X153504567Y-66808622D01*
X152837900Y-67380051D02*
X152837900Y-67475289D01*
X152885520Y-67570527D01*
X152933139Y-67618146D01*
X153028377Y-67665765D01*
X153218853Y-67713384D01*
X153456948Y-67713384D01*
X153647424Y-67665765D01*
X153742662Y-67618146D01*
X153790281Y-67570527D01*
X153837900Y-67475289D01*
X153837900Y-67380051D01*
X153790281Y-67284813D01*
X153742662Y-67237194D01*
X153647424Y-67189575D01*
X153456948Y-67141956D01*
X153218853Y-67141956D01*
X153028377Y-67189575D01*
X152933139Y-67237194D01*
X152885520Y-67284813D01*
X152837900Y-67380051D01*
X224576900Y-73174622D02*
X224100710Y-72841289D01*
X224576900Y-72603194D02*
X223576900Y-72603194D01*
X223576900Y-72984146D01*
X223624520Y-73079384D01*
X223672139Y-73127003D01*
X223767377Y-73174622D01*
X223910234Y-73174622D01*
X224005472Y-73127003D01*
X224053091Y-73079384D01*
X224100710Y-72984146D01*
X224100710Y-72603194D01*
X223910234Y-74031765D02*
X224576900Y-74031765D01*
X223529281Y-73793670D02*
X224243567Y-73555575D01*
X224243567Y-74174622D01*
X224576900Y-75079384D02*
X224576900Y-74507956D01*
X224576900Y-74793670D02*
X223576900Y-74793670D01*
X223719758Y-74698432D01*
X223814996Y-74603194D01*
X223862615Y-74507956D01*
X222163900Y-73174622D02*
X221687710Y-72841289D01*
X222163900Y-72603194D02*
X221163900Y-72603194D01*
X221163900Y-72984146D01*
X221211520Y-73079384D01*
X221259139Y-73127003D01*
X221354377Y-73174622D01*
X221497234Y-73174622D01*
X221592472Y-73127003D01*
X221640091Y-73079384D01*
X221687710Y-72984146D01*
X221687710Y-72603194D01*
X221497234Y-74031765D02*
X222163900Y-74031765D01*
X221116281Y-73793670D02*
X221830567Y-73555575D01*
X221830567Y-74174622D01*
X221163900Y-74460337D02*
X221163900Y-75079384D01*
X221544853Y-74746051D01*
X221544853Y-74888908D01*
X221592472Y-74984146D01*
X221640091Y-75031765D01*
X221735329Y-75079384D01*
X221973424Y-75079384D01*
X222068662Y-75031765D01*
X222116281Y-74984146D01*
X222163900Y-74888908D01*
X222163900Y-74603194D01*
X222116281Y-74507956D01*
X222068662Y-74460337D01*
X211622900Y-101114622D02*
X211146710Y-100781289D01*
X211622900Y-100543194D02*
X210622900Y-100543194D01*
X210622900Y-100924146D01*
X210670520Y-101019384D01*
X210718139Y-101067003D01*
X210813377Y-101114622D01*
X210956234Y-101114622D01*
X211051472Y-101067003D01*
X211099091Y-101019384D01*
X211146710Y-100924146D01*
X211146710Y-100543194D01*
X210956234Y-101971765D02*
X211622900Y-101971765D01*
X210575281Y-101733670D02*
X211289567Y-101495575D01*
X211289567Y-102114622D01*
X210622900Y-102924146D02*
X210622900Y-102733670D01*
X210670520Y-102638432D01*
X210718139Y-102590813D01*
X210860996Y-102495575D01*
X211051472Y-102447956D01*
X211432424Y-102447956D01*
X211527662Y-102495575D01*
X211575281Y-102543194D01*
X211622900Y-102638432D01*
X211622900Y-102828908D01*
X211575281Y-102924146D01*
X211527662Y-102971765D01*
X211432424Y-103019384D01*
X211194329Y-103019384D01*
X211099091Y-102971765D01*
X211051472Y-102924146D01*
X211003853Y-102828908D01*
X211003853Y-102638432D01*
X211051472Y-102543194D01*
X211099091Y-102495575D01*
X211194329Y-102447956D01*
X221584424Y-93970860D02*
X221584424Y-94780384D01*
X221536805Y-94875622D01*
X221489186Y-94923241D01*
X221393948Y-94970860D01*
X221203472Y-94970860D01*
X221108234Y-94923241D01*
X221060615Y-94875622D01*
X221012996Y-94780384D01*
X221012996Y-93970860D01*
X220584424Y-94066099D02*
X220536805Y-94018480D01*
X220441567Y-93970860D01*
X220203472Y-93970860D01*
X220108234Y-94018480D01*
X220060615Y-94066099D01*
X220012996Y-94161337D01*
X220012996Y-94256575D01*
X220060615Y-94399432D01*
X220632043Y-94970860D01*
X220012996Y-94970860D01*
X221584424Y-90287860D02*
X221584424Y-91097384D01*
X221536805Y-91192622D01*
X221489186Y-91240241D01*
X221393948Y-91287860D01*
X221203472Y-91287860D01*
X221108234Y-91240241D01*
X221060615Y-91192622D01*
X221012996Y-91097384D01*
X221012996Y-90287860D01*
X220632043Y-90287860D02*
X220012996Y-90287860D01*
X220346329Y-90668813D01*
X220203472Y-90668813D01*
X220108234Y-90716432D01*
X220060615Y-90764051D01*
X220012996Y-90859289D01*
X220012996Y-91097384D01*
X220060615Y-91192622D01*
X220108234Y-91240241D01*
X220203472Y-91287860D01*
X220489186Y-91287860D01*
X220584424Y-91240241D01*
X220632043Y-91192622D01*
X218028424Y-64252860D02*
X218028424Y-65062384D01*
X217980805Y-65157622D01*
X217933186Y-65205241D01*
X217837948Y-65252860D01*
X217647472Y-65252860D01*
X217552234Y-65205241D01*
X217504615Y-65157622D01*
X217456996Y-65062384D01*
X217456996Y-64252860D01*
X216504615Y-64252860D02*
X216980805Y-64252860D01*
X217028424Y-64729051D01*
X216980805Y-64681432D01*
X216885567Y-64633813D01*
X216647472Y-64633813D01*
X216552234Y-64681432D01*
X216504615Y-64729051D01*
X216456996Y-64824289D01*
X216456996Y-65062384D01*
X216504615Y-65157622D01*
X216552234Y-65205241D01*
X216647472Y-65252860D01*
X216885567Y-65252860D01*
X216980805Y-65205241D01*
X217028424Y-65157622D01*
X167371281Y-69586860D02*
X167133186Y-70586860D01*
X166942710Y-69872575D01*
X166752234Y-70586860D01*
X166514139Y-69586860D01*
X165609377Y-70586860D02*
X166180805Y-70586860D01*
X165895091Y-70586860D02*
X165895091Y-69586860D01*
X165990329Y-69729718D01*
X166085567Y-69824956D01*
X166180805Y-69872575D01*
X166751900Y-67935860D02*
X166180472Y-67935860D01*
X166466186Y-68935860D02*
X166466186Y-67935860D01*
X165847139Y-68412051D02*
X165513805Y-68412051D01*
X165370948Y-68935860D02*
X165847139Y-68935860D01*
X165847139Y-67935860D01*
X165370948Y-67935860D01*
X164989996Y-68888241D02*
X164847139Y-68935860D01*
X164609043Y-68935860D01*
X164513805Y-68888241D01*
X164466186Y-68840622D01*
X164418567Y-68745384D01*
X164418567Y-68650146D01*
X164466186Y-68554908D01*
X164513805Y-68507289D01*
X164609043Y-68459670D01*
X164799520Y-68412051D01*
X164894758Y-68364432D01*
X164942377Y-68316813D01*
X164989996Y-68221575D01*
X164989996Y-68126337D01*
X164942377Y-68031099D01*
X164894758Y-67983480D01*
X164799520Y-67935860D01*
X164561424Y-67935860D01*
X164418567Y-67983480D01*
X164132853Y-67935860D02*
X163561424Y-67935860D01*
X163847139Y-68935860D02*
X163847139Y-67935860D01*
X163466186Y-69031099D02*
X162704281Y-69031099D01*
X162513805Y-68031099D02*
X162466186Y-67983480D01*
X162370948Y-67935860D01*
X162132853Y-67935860D01*
X162037615Y-67983480D01*
X161989996Y-68031099D01*
X161942377Y-68126337D01*
X161942377Y-68221575D01*
X161989996Y-68364432D01*
X162561424Y-68935860D01*
X161942377Y-68935860D01*
X161513805Y-68935860D02*
X161513805Y-67935860D01*
X161132853Y-67935860D01*
X161037615Y-67983480D01*
X160989996Y-68031099D01*
X160942377Y-68126337D01*
X160942377Y-68269194D01*
X160989996Y-68364432D01*
X161037615Y-68412051D01*
X161132853Y-68459670D01*
X161513805Y-68459670D01*
X167498281Y-81016860D02*
X167260186Y-82016860D01*
X167069710Y-81302575D01*
X166879234Y-82016860D01*
X166641139Y-81016860D01*
X166307805Y-81112099D02*
X166260186Y-81064480D01*
X166164948Y-81016860D01*
X165926853Y-81016860D01*
X165831615Y-81064480D01*
X165783996Y-81112099D01*
X165736377Y-81207337D01*
X165736377Y-81302575D01*
X165783996Y-81445432D01*
X166355424Y-82016860D01*
X165736377Y-82016860D01*
X166624900Y-79365860D02*
X166053472Y-79365860D01*
X166339186Y-80365860D02*
X166339186Y-79365860D01*
X165720139Y-79842051D02*
X165386805Y-79842051D01*
X165243948Y-80365860D02*
X165720139Y-80365860D01*
X165720139Y-79365860D01*
X165243948Y-79365860D01*
X164862996Y-80318241D02*
X164720139Y-80365860D01*
X164482043Y-80365860D01*
X164386805Y-80318241D01*
X164339186Y-80270622D01*
X164291567Y-80175384D01*
X164291567Y-80080146D01*
X164339186Y-79984908D01*
X164386805Y-79937289D01*
X164482043Y-79889670D01*
X164672520Y-79842051D01*
X164767758Y-79794432D01*
X164815377Y-79746813D01*
X164862996Y-79651575D01*
X164862996Y-79556337D01*
X164815377Y-79461099D01*
X164767758Y-79413480D01*
X164672520Y-79365860D01*
X164434424Y-79365860D01*
X164291567Y-79413480D01*
X164005853Y-79365860D02*
X163434424Y-79365860D01*
X163720139Y-80365860D02*
X163720139Y-79365860D01*
X163339186Y-80461099D02*
X162577281Y-80461099D01*
X162386805Y-79461099D02*
X162339186Y-79413480D01*
X162243948Y-79365860D01*
X162005853Y-79365860D01*
X161910615Y-79413480D01*
X161862996Y-79461099D01*
X161815377Y-79556337D01*
X161815377Y-79651575D01*
X161862996Y-79794432D01*
X162434424Y-80365860D01*
X161815377Y-80365860D01*
X161386805Y-80365860D02*
X161386805Y-79365860D01*
X161005853Y-79365860D01*
X160910615Y-79413480D01*
X160862996Y-79461099D01*
X160815377Y-79556337D01*
X160815377Y-79699194D01*
X160862996Y-79794432D01*
X160910615Y-79842051D01*
X161005853Y-79889670D01*
X161386805Y-79889670D01*
X167498281Y-92446860D02*
X167260186Y-93446860D01*
X167069710Y-92732575D01*
X166879234Y-93446860D01*
X166641139Y-92446860D01*
X166355424Y-92446860D02*
X165736377Y-92446860D01*
X166069710Y-92827813D01*
X165926853Y-92827813D01*
X165831615Y-92875432D01*
X165783996Y-92923051D01*
X165736377Y-93018289D01*
X165736377Y-93256384D01*
X165783996Y-93351622D01*
X165831615Y-93399241D01*
X165926853Y-93446860D01*
X166212567Y-93446860D01*
X166307805Y-93399241D01*
X166355424Y-93351622D01*
X166624900Y-90795860D02*
X166053472Y-90795860D01*
X166339186Y-91795860D02*
X166339186Y-90795860D01*
X165720139Y-91272051D02*
X165386805Y-91272051D01*
X165243948Y-91795860D02*
X165720139Y-91795860D01*
X165720139Y-90795860D01*
X165243948Y-90795860D01*
X164862996Y-91748241D02*
X164720139Y-91795860D01*
X164482043Y-91795860D01*
X164386805Y-91748241D01*
X164339186Y-91700622D01*
X164291567Y-91605384D01*
X164291567Y-91510146D01*
X164339186Y-91414908D01*
X164386805Y-91367289D01*
X164482043Y-91319670D01*
X164672520Y-91272051D01*
X164767758Y-91224432D01*
X164815377Y-91176813D01*
X164862996Y-91081575D01*
X164862996Y-90986337D01*
X164815377Y-90891099D01*
X164767758Y-90843480D01*
X164672520Y-90795860D01*
X164434424Y-90795860D01*
X164291567Y-90843480D01*
X164005853Y-90795860D02*
X163434424Y-90795860D01*
X163720139Y-91795860D02*
X163720139Y-90795860D01*
X163339186Y-91891099D02*
X162577281Y-91891099D01*
X162386805Y-90891099D02*
X162339186Y-90843480D01*
X162243948Y-90795860D01*
X162005853Y-90795860D01*
X161910615Y-90843480D01*
X161862996Y-90891099D01*
X161815377Y-90986337D01*
X161815377Y-91081575D01*
X161862996Y-91224432D01*
X162434424Y-91795860D01*
X161815377Y-91795860D01*
X161386805Y-91795860D02*
X161386805Y-90795860D01*
X161005853Y-90795860D01*
X160910615Y-90843480D01*
X160862996Y-90891099D01*
X160815377Y-90986337D01*
X160815377Y-91129194D01*
X160862996Y-91224432D01*
X160910615Y-91272051D01*
X161005853Y-91319670D01*
X161386805Y-91319670D01*
X167371281Y-103876860D02*
X167133186Y-104876860D01*
X166942710Y-104162575D01*
X166752234Y-104876860D01*
X166514139Y-103876860D01*
X165704615Y-104210194D02*
X165704615Y-104876860D01*
X165942710Y-103829241D02*
X166180805Y-104543527D01*
X165561758Y-104543527D01*
X166624900Y-102225860D02*
X166053472Y-102225860D01*
X166339186Y-103225860D02*
X166339186Y-102225860D01*
X165720139Y-102702051D02*
X165386805Y-102702051D01*
X165243948Y-103225860D02*
X165720139Y-103225860D01*
X165720139Y-102225860D01*
X165243948Y-102225860D01*
X164862996Y-103178241D02*
X164720139Y-103225860D01*
X164482043Y-103225860D01*
X164386805Y-103178241D01*
X164339186Y-103130622D01*
X164291567Y-103035384D01*
X164291567Y-102940146D01*
X164339186Y-102844908D01*
X164386805Y-102797289D01*
X164482043Y-102749670D01*
X164672520Y-102702051D01*
X164767758Y-102654432D01*
X164815377Y-102606813D01*
X164862996Y-102511575D01*
X164862996Y-102416337D01*
X164815377Y-102321099D01*
X164767758Y-102273480D01*
X164672520Y-102225860D01*
X164434424Y-102225860D01*
X164291567Y-102273480D01*
X164005853Y-102225860D02*
X163434424Y-102225860D01*
X163720139Y-103225860D02*
X163720139Y-102225860D01*
X163339186Y-103321099D02*
X162577281Y-103321099D01*
X162386805Y-102321099D02*
X162339186Y-102273480D01*
X162243948Y-102225860D01*
X162005853Y-102225860D01*
X161910615Y-102273480D01*
X161862996Y-102321099D01*
X161815377Y-102416337D01*
X161815377Y-102511575D01*
X161862996Y-102654432D01*
X162434424Y-103225860D01*
X161815377Y-103225860D01*
X161386805Y-103225860D02*
X161386805Y-102225860D01*
X161005853Y-102225860D01*
X160910615Y-102273480D01*
X160862996Y-102321099D01*
X160815377Y-102416337D01*
X160815377Y-102559194D01*
X160862996Y-102654432D01*
X160910615Y-102702051D01*
X161005853Y-102749670D01*
X161386805Y-102749670D01*
X177713900Y-76889384D02*
X176713900Y-76889384D01*
X176713900Y-77270337D01*
X176761520Y-77365575D01*
X176809139Y-77413194D01*
X176904377Y-77460813D01*
X177047234Y-77460813D01*
X177142472Y-77413194D01*
X177190091Y-77365575D01*
X177237710Y-77270337D01*
X177237710Y-76889384D01*
X176713900Y-77794146D02*
X176713900Y-78460813D01*
X177713900Y-78032241D01*
X177967805Y-102209860D02*
X177967805Y-101209860D01*
X177586853Y-101209860D01*
X177491615Y-101257480D01*
X177443996Y-101305099D01*
X177396377Y-101400337D01*
X177396377Y-101543194D01*
X177443996Y-101638432D01*
X177491615Y-101686051D01*
X177586853Y-101733670D01*
X177967805Y-101733670D01*
X177015424Y-101305099D02*
X176967805Y-101257480D01*
X176872567Y-101209860D01*
X176634472Y-101209860D01*
X176539234Y-101257480D01*
X176491615Y-101305099D01*
X176443996Y-101400337D01*
X176443996Y-101495575D01*
X176491615Y-101638432D01*
X177063043Y-102209860D01*
X176443996Y-102209860D01*
X176110662Y-101209860D02*
X175443996Y-101209860D01*
X175872567Y-102209860D01*
X179491900Y-101876622D02*
X179015710Y-101543289D01*
X179491900Y-101305194D02*
X178491900Y-101305194D01*
X178491900Y-101686146D01*
X178539520Y-101781384D01*
X178587139Y-101829003D01*
X178682377Y-101876622D01*
X178825234Y-101876622D01*
X178920472Y-101829003D01*
X178968091Y-101781384D01*
X179015710Y-101686146D01*
X179015710Y-101305194D01*
X178825234Y-102733765D02*
X179491900Y-102733765D01*
X178444281Y-102495670D02*
X179158567Y-102257575D01*
X179158567Y-102876622D01*
X178491900Y-103162337D02*
X178491900Y-103829003D01*
X179491900Y-103400432D01*
M02*
